<svg width="1440" height="758" viewBox="0 0 1440 758" fill="none" xmlns="http://www.w3.org/2000/svg">
<path d="M786.317 706.629H732.585C713.953 706.629 698.782 691.458 698.782 672.825V626.565C698.782 619.689 693.187 614.108 686.325 614.108H0V592.762H686.325C704.957 592.762 720.128 607.933 720.128 626.565V672.825C720.128 679.702 725.724 685.282 732.585 685.282H786.317C793.193 685.282 798.774 679.687 798.774 672.825C798.774 654.193 813.945 639.022 832.577 639.022H1440V660.368H832.577C825.701 660.368 820.12 665.964 820.12 672.825C820.12 691.473 804.949 706.629 786.317 706.629Z" fill="#F4F4F4"/>
<path d="M1440 511.128H880.316C861.684 511.128 846.513 495.957 846.513 477.325V432.559C846.513 425.682 840.917 420.102 834.056 420.102H703.479V398.756H834.056C852.688 398.756 867.859 413.927 867.859 432.559V477.325C867.859 484.201 873.455 489.782 880.316 489.782H1440V511.128Z" fill="#F4F4F4"/>
<path d="M636.558 603.435H615.212V478.072C615.212 459.44 630.383 444.269 649.015 444.269H703.494V465.615H649.015C642.139 465.615 636.558 471.211 636.558 478.072V603.435Z" fill="#F4F4F4"/>
<path d="M764.285 657.685L750.135 641.706L794.581 602.352C797.249 599.989 798.774 596.589 798.774 593.021V523.585C798.774 516.709 793.178 511.128 786.317 511.128H780.34C761.708 511.128 746.537 495.957 746.537 477.325V409.429H767.883V477.325C767.883 484.201 773.479 489.782 780.34 489.782H786.317C804.949 489.782 820.12 504.953 820.12 523.585V593.021C820.12 602.688 815.973 611.912 808.73 618.332L764.3 657.685H764.285Z" fill="#F4F4F4"/>
<path d="M1440 757.371H778.846C760.214 757.371 745.043 742.2 745.043 723.568V577.317C745.043 570.44 739.447 564.859 732.586 564.859H726.609C707.976 564.859 692.805 549.688 692.805 531.056V0H714.152V531.056C714.152 537.933 719.747 543.513 726.609 543.513H732.586C751.218 543.513 766.389 558.684 766.389 577.317V723.568C766.389 730.445 771.984 736.025 778.846 736.025H1440V757.371Z" fill="#DCE0FF"/>
</svg>
