<svg width="1440" height="251" viewBox="0 0 1440 251" fill="none" xmlns="http://www.w3.org/2000/svg">
<mask id="mask0_54_2300" style="mask-type:alpha" maskUnits="userSpaceOnUse" x="0" y="0" width="1440" height="251">
<rect width="1440" height="251" fill="white"/>
</mask>
<g mask="url(#mask0_54_2300)">
<path d="M488.33 1170H467L467 127.552C467 109.011 482.159 93.9408 500.777 93.9408L646.915 93.9408C653.786 93.9408 659.362 88.3768 659.362 81.5545V75.6114C659.362 57.0698 674.521 41.9999 693.139 41.9999L1492 41.9999V63.2251L693.139 63.2251C686.268 63.2251 680.692 68.7891 680.692 75.6114V81.5545C680.692 100.096 665.533 115.166 646.915 115.166L500.777 115.166C493.906 115.166 488.33 120.73 488.33 127.552L488.33 1170Z" fill="#DCE0FF"/>
<path d="M977.955 52.6331L1014.53 73.7258C1015.94 74.533 1017.63 73.3299 1017.35 71.746L1013.6 51.3386C1013.56 51.1102 1013.56 50.8817 1013.6 50.6533L1017.35 30.2459C1017.63 28.6468 1015.94 27.4437 1014.53 28.2661L977.955 49.3588C976.682 50.0898 976.682 51.9173 977.955 52.6484L977.955 52.6331Z" fill="#0550FC"/>
</g>
</svg>
