<svg width="1440" height="882" viewBox="0 0 1440 882" fill="none" xmlns="http://www.w3.org/2000/svg">
<mask id="mask0_54_2107" style="mask-type:alpha" maskUnits="userSpaceOnUse" x="0" y="0" width="1440" height="882">
<rect width="1440" height="882" transform="matrix(1 0 0 -1 0 882)" fill="white"/>
</mask>
<g mask="url(#mask0_54_2107)">
<path d="M488.33 919H467L467 -123.448C467 -141.989 482.159 -157.059 500.777 -157.059L646.915 -157.059C653.786 -157.059 659.362 -162.623 659.362 -169.445V-175.389C659.362 -193.93 674.521 -209 693.139 -209L1492 -209V-187.775L693.139 -187.775C686.268 -187.775 680.692 -182.211 680.692 -175.389V-169.445C680.692 -150.904 665.533 -135.834 646.915 -135.834L500.777 -135.834C493.906 -135.834 488.33 -130.27 488.33 -123.448L488.33 919Z" fill="#DCE0FF"/>
<path d="M479.633 164.424L500.726 127.851C501.533 126.442 500.33 124.744 498.746 125.032L478.339 128.776C478.11 128.821 477.882 128.821 477.653 128.776L457.246 125.032C455.647 124.744 454.444 126.442 455.266 127.851L476.359 164.424C477.09 165.697 478.917 165.697 479.648 164.424L479.633 164.424Z" fill="#0550FC"/>
</g>
</svg>
