<svg width="1440" height="1142" viewBox="0 0 1440 1142" fill="none" xmlns="http://www.w3.org/2000/svg">
<path d="M307.565 142.865H210.676C192.05 142.865 176.912 127.784 176.912 109.263V33.6018C176.912 26.7663 171.323 21.219 164.47 21.219H0V0H164.47C183.095 0 198.233 15.0807 198.233 33.6018V109.263C198.233 116.098 203.823 121.646 210.676 121.646H307.565C314.434 121.646 320.008 116.083 320.008 109.263V101.851C320.008 83.315 335.161 68.2495 353.771 68.2495H476.749V89.4685H353.771C346.903 89.4685 341.329 95.0309 341.329 101.851V109.263C341.329 127.799 326.176 142.865 307.565 142.865Z" fill="#F4F4F4"/>
<path d="M113.369 1144.5H92.048V190.85C92.048 184.014 86.4588 178.467 79.6056 178.467H63.2035C44.578 178.467 29.4399 163.386 29.4399 144.865V10.6094H50.7611V144.865C50.7611 151.701 56.3503 157.248 63.2035 157.248H79.6056C98.2311 157.248 113.369 172.329 113.369 190.85V1144.5Z" fill="#F4F4F4"/>
<path d="M533.615 1143.5H512.294V155.247C512.294 148.412 506.705 142.864 499.852 142.864C481.226 142.864 466.088 127.784 466.088 109.263V84.0825V76.1126V71.6293C470 65.9878 482.5 71.6293 487.409 76.1126V84.0825V109.263C487.409 116.098 492.998 121.645 499.852 121.645C518.477 121.645 533.615 136.726 533.615 155.247V1143.5Z" fill="#F4F4F4"/>
<path d="M682.68 1143.5H661.359V202.717C661.359 184.181 676.513 169.116 695.123 169.116H739.836C746.705 169.116 752.279 163.553 752.279 156.733V26.9329H773.6V156.733C773.6 175.269 758.447 190.335 739.836 190.335H695.123C688.254 190.335 682.68 195.897 682.68 202.717V1143.5Z" fill="#F4F4F4"/>
<path d="M1374.98 1143H1353.66V163.513C1353.66 156.677 1348.07 151.13 1341.22 151.13H755.5V129.911H1341.22C1359.84 129.911 1374.98 144.991 1374.98 163.513V1143Z" fill="#F4F4F4"/>
<path d="M648.917 142.865H579.562C569.907 142.865 560.693 138.742 554.281 131.543L514.974 87.3618L530.935 73.2966L570.242 117.478C572.602 120.13 575.999 121.646 579.562 121.646H648.917C655.785 121.646 661.359 116.083 661.359 109.263V103.322C661.359 84.7852 676.513 69.7197 695.123 69.7197H762.939V90.9388H695.123C688.254 90.9388 682.68 96.5012 682.68 103.322V109.263C682.68 127.799 667.527 142.865 648.917 142.865Z" fill="#F4F4F4"/>
<path d="M436.726 1144H415.404V101.851C415.404 83.315 430.558 68.2495 449.168 68.2495H595.248C602.117 68.2495 607.691 62.6871 607.691 55.8667V49.9253C607.691 31.389 622.844 16.3235 641.454 16.3235H1440V37.5425H641.454C634.586 37.5425 629.012 43.1049 629.012 49.9253V55.8667C629.012 74.403 613.859 89.4685 595.248 89.4685H449.168C442.3 89.4685 436.726 95.0309 436.726 101.851V1144Z" fill="#DCE0FF"/>
</svg>
