<svg width="649" height="667" viewBox="0 0 649 667" fill="none" xmlns="http://www.w3.org/2000/svg">
<g clip-path="url(#clip0_8_649)">
<path d="M475.431 262.006L489.975 268.165C490.148 268.223 490.321 268.338 490.436 268.483C490.552 268.627 490.667 268.772 490.725 268.945C490.783 269.119 490.812 269.321 490.812 269.495C490.812 269.668 490.754 269.871 490.667 270.044L475.489 306.189C475.431 306.362 475.316 306.536 475.172 306.681C475.027 306.825 474.883 306.941 474.681 306.999C474.508 307.085 474.306 307.114 474.104 307.114C473.902 307.114 473.7 307.056 473.527 306.97L459.647 299.943C459.33 299.77 459.099 299.48 458.983 299.134C458.868 298.787 458.868 298.411 459.012 298.064L473.556 262.786C473.613 262.613 473.729 262.439 473.844 262.295C473.989 262.15 474.133 262.035 474.306 261.977C474.479 261.89 474.681 261.861 474.854 261.861C475.056 261.89 475.258 261.919 475.431 262.006Z" fill="#0550FC"/>
<path d="M277.825 449.496L252.519 479.048L260.108 485.207L283.683 458.778L277.825 449.496Z" fill="white"/>
<path d="M260.339 487.231L250.441 479.25L277.999 447.096L285.53 458.893L260.339 487.231ZM254.539 478.903L259.964 483.24L281.865 458.604L277.595 451.954L254.539 478.903Z" fill="#0B0B0B"/>
<path d="M329.795 366.479C329.795 366.479 406.581 398.633 411.573 425.293C416.565 451.954 366.182 508.686 366.182 508.686L332.277 496.599C332.277 496.599 371.752 438.074 361.19 433.072C350.629 428.069 320.705 427.346 320.705 427.346L310.865 373.389L329.795 366.479Z" fill="#0B0B0B"/>
<path d="M1.50051 455.741H1.15424C0.952248 455.712 0.779112 455.626 0.605976 455.539C0.461696 455.423 0.317416 455.279 0.201992 455.134C0.086568 454.961 0.028856 454.787 0 454.585C0 454.382 0 454.18 0.057712 453.977C0.201992 453.631 2.51047 444.782 7.9354 442.035C8.80108 441.573 9.75332 441.283 10.7344 441.197C11.7155 441.11 12.6966 441.226 13.6489 441.515C16.1016 438.768 24.643 429.92 35.6371 429.92H35.6949C42.7069 429.92 49.1995 433.534 55.0861 440.705C57.5388 439.259 63.7717 436.281 70.2066 438.016C74.6216 439.173 78.1709 442.296 80.9122 447.298C83.3649 444.753 88.5013 440.185 94.5899 440.185C98.2835 440.185 101.602 441.775 104.574 445.043C107.027 440.561 113.75 430.18 123.734 429.457C131.41 428.879 139.144 434.228 146.646 445.39C148.551 443.886 150.83 442.99 153.225 442.787C156.601 442.7 159.891 443.828 162.488 445.968C164.364 441.486 169.789 430.816 179.34 429.312C187.362 427.924 196.105 433.592 205.368 445.91C205.599 446.228 205.685 446.604 205.657 446.98C205.599 447.356 205.397 447.703 205.079 447.934C204.762 448.137 204.387 448.223 204.012 448.165C203.637 448.108 203.29 447.934 203.06 447.645C194.518 436.194 186.641 431.047 179.773 432.146C169.644 433.823 164.508 448.744 164.508 448.888L163.787 450.999L162.113 449.467C159.227 446.777 156.255 445.563 153.427 445.708C150.599 445.852 147.512 448.599 147.425 448.599L146.184 450.045L145.088 448.455C137.932 437.293 130.775 431.857 123.908 432.377C113.144 433.187 106.19 448.108 106.132 448.252L105.122 450.508L103.68 448.541C100.938 444.927 97.8795 443.105 94.5611 443.105C87.6933 443.105 81.7779 450.71 81.7779 450.797L80.2485 452.676L79.2962 450.508C76.8435 445.216 73.5251 441.949 69.4564 440.879C62.5021 438.999 55.6343 443.77 55.5766 443.857L54.4224 444.638L53.6144 443.539C48.0452 436.455 42.0432 432.811 35.6949 432.811H35.6371C24.2967 432.811 15.3802 444.03 15.236 444.117L14.6011 444.985L13.5912 444.551C12.9275 444.233 12.1772 444.059 11.427 444.059C10.6767 444.088 9.92646 444.262 9.26277 444.609C4.96323 446.749 2.8856 454.643 2.8856 454.729C2.79903 455.018 2.62589 455.308 2.36619 455.481C2.10649 455.655 1.81793 455.741 1.50051 455.741Z" fill="#0B0B0B"/>
<path d="M611.833 431.886H565.202L563.817 355.028H535.538L536.923 423.067C536.923 423.443 536.779 423.818 536.491 424.079C536.231 424.339 535.856 424.512 535.481 424.512C535.279 424.512 535.105 424.483 534.932 424.426C534.759 424.368 534.586 424.252 534.471 424.136C534.326 424.021 534.24 423.847 534.153 423.674C534.067 423.5 534.038 423.327 534.038 423.124L532.595 352.136H566.645L568.03 428.994H608.948V380.242L647.557 380.879C647.759 380.879 647.932 380.907 648.134 380.965C648.307 381.023 648.481 381.139 648.596 381.283C648.74 381.428 648.856 381.572 648.913 381.775C648.971 381.948 649 382.151 649 382.353C649 382.729 648.856 383.105 648.567 383.365C648.307 383.626 647.932 383.799 647.528 383.799L611.805 383.221V431.886H611.833Z" fill="#0B0B0B"/>
<path d="M595.212 431.886C594.837 431.886 594.462 431.741 594.202 431.452C593.943 431.192 593.77 430.816 593.77 430.44L595.01 270.391H623.434L641.728 282.478V283.259L639.708 382.151C639.68 382.527 639.535 382.874 639.247 383.134C638.987 383.394 638.612 383.539 638.237 383.539C638.035 383.539 637.862 383.51 637.66 383.452C637.486 383.394 637.313 383.279 637.169 383.134C637.025 382.989 636.938 382.845 636.852 382.642C636.794 382.469 636.765 382.266 636.765 382.064L638.785 284.04L622.597 273.254H597.809L596.655 430.382C596.655 430.758 596.511 431.134 596.222 431.394C595.963 431.741 595.588 431.886 595.212 431.886Z" fill="#0B0B0B"/>
<path d="M622.25 383.365C622.048 383.365 621.875 383.336 621.673 383.278C621.5 383.221 621.327 383.105 621.183 382.96C621.039 382.816 620.952 382.642 620.865 382.469C620.808 382.295 620.779 382.093 620.779 381.89V288.493C620.779 288.29 620.808 288.117 620.865 287.914C620.923 287.741 621.039 287.567 621.183 287.423C621.327 287.278 621.471 287.191 621.673 287.105C621.846 287.047 622.048 287.018 622.25 287.018C622.452 287.018 622.626 287.047 622.828 287.105C623.001 287.162 623.174 287.278 623.318 287.423C623.462 287.567 623.549 287.712 623.636 287.914C623.693 288.088 623.722 288.29 623.722 288.493V381.89C623.722 382.266 623.578 382.642 623.289 382.902C623.001 383.192 622.654 383.365 622.25 383.365Z" fill="#0B0B0B"/>
<path d="M620.808 443.337C620.606 443.337 620.433 443.308 620.231 443.25C620.057 443.192 619.884 443.076 619.74 442.932C619.596 442.787 619.509 442.614 619.423 442.44C619.365 442.267 619.336 442.064 619.336 441.862V393.833C619.336 393.63 619.365 393.457 619.423 393.255C619.48 393.081 619.596 392.908 619.74 392.763C619.884 392.618 620.029 392.532 620.231 392.445C620.404 392.387 620.606 392.358 620.808 392.358C621.183 392.358 621.558 392.503 621.818 392.792C622.077 393.052 622.25 393.428 622.25 393.804V441.833C622.25 442.209 622.106 442.585 621.818 442.845C621.558 443.192 621.183 443.337 620.808 443.337Z" fill="#0B0B0B"/>
<path d="M633.043 443.337C632.668 443.337 632.292 443.192 632.004 442.903C631.744 442.643 631.571 442.267 631.571 441.891V393.862C631.571 393.486 631.715 393.11 632.004 392.85C632.292 392.589 632.639 392.416 633.043 392.416C633.418 392.416 633.793 392.561 634.053 392.85C634.312 393.11 634.486 393.486 634.486 393.862V441.891C634.486 442.267 634.341 442.643 634.053 442.903C633.793 443.192 633.418 443.337 633.043 443.337Z" fill="#0B0B0B"/>
<path d="M645.393 443.337C645.018 443.337 644.643 443.192 644.383 442.903C644.123 442.642 643.95 442.267 643.95 441.891V394.44C643.95 394.064 644.094 393.688 644.383 393.428C644.643 393.168 645.018 392.994 645.393 392.994C645.768 392.994 646.143 393.139 646.403 393.428C646.663 393.717 646.836 394.064 646.836 394.44V441.891C646.836 442.267 646.691 442.642 646.403 442.903C646.143 443.192 645.768 443.337 645.393 443.337Z" fill="#0B0B0B"/>
<path d="M348.811 187.895C348.552 187.895 348.292 187.808 348.09 187.692C347.368 187.258 340.847 183.413 339.924 178.41C339.75 177.485 339.779 176.531 340.039 175.634C340.299 174.738 340.732 173.899 341.366 173.205C343.04 171.181 344.829 170.314 346.791 170.516C350.629 170.95 352.995 175.952 353.313 176.444C353.399 176.617 353.457 176.82 353.457 176.993C353.457 177.196 353.428 177.398 353.37 177.572C353.313 177.745 353.197 177.919 353.053 178.063C352.909 178.208 352.765 178.323 352.591 178.381C352.418 178.468 352.245 178.497 352.043 178.526C351.841 178.526 351.668 178.497 351.495 178.439C351.322 178.381 351.149 178.266 351.033 178.121C350.918 177.976 350.802 177.832 350.716 177.658C350.225 176.646 348.321 173.61 346.445 173.379C344.569 173.148 344.569 173.813 343.617 174.969C343.271 175.374 343.011 175.837 342.867 176.328C342.723 176.82 342.665 177.34 342.751 177.861C343.329 180.984 347.888 184.164 349.533 185.119C349.706 185.205 349.85 185.35 349.965 185.495C350.081 185.639 350.167 185.842 350.225 186.015C350.283 186.217 350.283 186.391 350.254 186.593C350.225 186.796 350.167 186.969 350.052 187.143C349.937 187.374 349.763 187.548 349.533 187.663C349.302 187.779 349.071 187.895 348.811 187.895Z" fill="#0B0B0B"/>
<path d="M368.375 167.48C368.577 166.15 368.029 164.936 367.163 164.82C366.298 164.675 365.432 165.687 365.23 167.018C365.028 168.348 365.576 169.562 366.442 169.678C367.308 169.822 368.173 168.839 368.375 167.48Z" fill="#0B0B0B"/>
<path d="M360.469 161.957C360.036 161.928 359.632 161.755 359.344 161.466C359.055 161.176 358.853 160.772 358.795 160.338C358.738 159.904 358.853 159.499 359.084 159.123C359.315 158.776 359.69 158.516 360.094 158.401L368.404 156.723C368.866 156.637 369.328 156.723 369.732 156.984C370.136 157.244 370.395 157.649 370.511 158.082C370.569 158.314 370.569 158.545 370.54 158.805C370.511 159.037 370.424 159.268 370.28 159.47C370.165 159.673 369.991 159.846 369.789 159.991C369.587 160.136 369.386 160.222 369.155 160.28L360.844 161.957H360.469Z" fill="#0B0B0B"/>
<path d="M365.23 195.557C364.942 195.557 364.682 195.499 364.422 195.355C361.681 193.533 360.152 188.386 360.007 187.808C359.95 187.634 359.921 187.432 359.95 187.23C359.978 187.027 360.036 186.854 360.123 186.68C360.209 186.507 360.354 186.362 360.498 186.246C360.642 186.131 360.815 186.044 361.017 185.986C361.19 185.928 361.392 185.899 361.566 185.928C361.739 185.957 361.941 186.015 362.085 186.102C362.258 186.189 362.402 186.333 362.489 186.478C362.604 186.622 362.691 186.796 362.72 186.998C363.239 188.82 364.538 192.001 365.98 192.868C366.24 193.042 366.471 193.273 366.586 193.591C366.702 193.88 366.702 194.198 366.615 194.516C366.529 194.805 366.327 195.095 366.096 195.268C365.865 195.471 365.548 195.586 365.23 195.557Z" fill="#0B0B0B"/>
<path d="M357.583 209.9C354.784 209.9 351.899 208.801 348.898 206.632C348.753 206.516 348.609 206.401 348.494 206.227C348.407 206.083 348.321 205.88 348.292 205.707C348.263 205.533 348.263 205.331 348.321 205.157C348.378 204.984 348.465 204.81 348.58 204.666C348.696 204.521 348.84 204.377 348.984 204.261C349.128 204.145 349.33 204.088 349.504 204.059C349.706 204.03 349.879 204.03 350.081 204.059C350.283 204.116 350.456 204.174 350.6 204.29C354.149 206.892 357.324 207.557 360.353 206.459C369.328 203.047 373.57 185.09 373.656 184.945L373.945 183.702H375.157C376.686 183.847 378.562 183.789 379.139 182.69C379.716 181.591 377.84 175.953 375.82 173.119L375.532 172.83V172.396C374.955 165.369 369.674 150.015 369.674 149.87C369.616 149.697 369.587 149.495 369.587 149.321C369.587 149.119 369.645 148.945 369.732 148.772C369.818 148.598 369.934 148.454 370.078 148.338C370.222 148.222 370.395 148.107 370.568 148.078C370.742 148.02 370.915 147.991 371.117 147.991C371.319 147.991 371.492 148.049 371.665 148.136C371.838 148.222 371.982 148.338 372.098 148.483C372.213 148.627 372.329 148.801 372.386 148.974C372.617 149.639 377.667 164.328 378.388 171.789C379.629 173.524 383.871 180.261 381.707 184.165C380.755 185.842 378.879 186.709 376.224 186.709C375.07 190.989 370.424 205.678 361.392 209.09C360.18 209.639 358.882 209.9 357.583 209.9Z" fill="#0B0B0B"/>
<path d="M355.679 156.434C355.679 156.434 382.63 151.23 384.679 133.764C386.699 116.299 371.954 135.875 363.643 131.74C355.333 127.605 332.623 116.299 330.69 133.273C330.69 133.273 306.826 137.263 314.703 164.646C320.705 185.813 323.533 197.235 324.457 201.37C324.572 201.89 324.861 202.324 325.265 202.671C325.669 202.989 326.188 203.191 326.708 203.191C332.046 203.423 347.397 203.567 349.186 199.779L349.677 186.362C349.677 186.362 338.048 182.083 342.434 174.044C346.82 166.006 350.889 175.287 350.889 175.287C350.889 175.287 360.527 169.186 355.679 156.434Z" fill="#0B0B0B"/>
<path d="M325.034 219.037C324.745 219.037 324.486 218.95 324.226 218.835C323.908 218.603 323.678 218.285 323.62 217.909C323.533 217.533 323.591 217.129 323.793 216.811C325.207 214.555 326.13 212.039 326.505 209.437C326.881 206.835 326.736 204.145 326.044 201.601C325.928 201.225 325.957 200.849 326.102 200.502C326.275 200.155 326.563 199.895 326.938 199.779C327.313 199.663 327.717 199.692 328.064 199.837C328.41 200.01 328.67 200.3 328.814 200.676C329.651 203.654 329.882 206.777 329.449 209.813C329.016 212.878 327.948 215.798 326.275 218.401C326.13 218.603 325.957 218.777 325.755 218.892C325.524 218.979 325.294 219.037 325.034 219.037Z" fill="#0B0B0B"/>
<path d="M349.763 234.102C349.561 234.102 349.359 234.073 349.157 233.986C348.955 233.9 348.811 233.755 348.667 233.61C343.906 227.74 346.647 220.512 348.725 217.533C348.84 217.389 348.984 217.244 349.129 217.128C349.273 217.013 349.475 216.955 349.648 216.926C349.821 216.897 350.023 216.897 350.225 216.955C350.427 216.984 350.6 217.071 350.745 217.186C350.889 217.302 351.033 217.418 351.149 217.591C351.264 217.736 351.322 217.909 351.351 218.112C351.379 218.285 351.379 218.487 351.351 218.661C351.293 218.834 351.235 219.008 351.12 219.152C350.889 219.499 346.358 226.266 350.889 231.76C351.12 232.078 351.206 232.454 351.177 232.859C351.149 233.234 350.947 233.61 350.687 233.871C350.427 234.015 350.11 234.131 349.763 234.102Z" fill="#0B0B0B"/>
<path d="M320.994 162.102C320.792 162.102 320.59 162.044 320.417 161.928C320.244 161.813 320.128 161.639 320.042 161.466C314.559 149.379 326.621 140.444 326.708 140.386C326.938 140.213 327.227 140.126 327.515 140.184C327.804 140.213 328.064 140.386 328.237 140.617C328.41 140.849 328.497 141.138 328.439 141.427C328.41 141.716 328.237 141.976 328.006 142.15C327.573 142.439 317.243 150.131 322.004 160.627C322.119 160.887 322.119 161.148 322.033 161.408C321.946 161.668 321.744 161.87 321.513 161.986L320.994 162.102Z" fill="white"/>
<path d="M325.986 179.422C325.755 179.422 325.524 179.336 325.351 179.191C325.178 179.046 325.034 178.844 324.976 178.613L322.956 171.066C322.898 170.776 322.927 170.487 323.072 170.256C323.216 169.996 323.447 169.822 323.735 169.764C323.88 169.707 323.995 169.707 324.139 169.707C324.284 169.707 324.399 169.764 324.543 169.822C324.659 169.88 324.774 169.996 324.861 170.082C324.947 170.198 325.005 170.314 325.034 170.458L327.054 178.063C327.111 178.352 327.083 178.642 326.938 178.873C326.794 179.104 326.563 179.278 326.275 179.364H325.986V179.422Z" fill="white"/>
<path d="M360.094 148.772C359.95 148.801 359.805 148.772 359.661 148.743C359.517 148.685 359.401 148.627 359.286 148.54C359.17 148.454 359.084 148.338 359.026 148.222C358.968 148.107 358.911 147.962 358.911 147.817C358.882 147.673 358.911 147.528 358.94 147.384C358.968 147.239 359.055 147.123 359.142 147.008C359.228 146.892 359.344 146.805 359.459 146.748C359.574 146.69 359.719 146.632 359.863 146.632C359.921 146.632 365.721 145.186 373.079 139.519C373.31 139.345 373.598 139.258 373.887 139.316C374.176 139.345 374.435 139.519 374.608 139.75C374.782 139.981 374.868 140.27 374.81 140.56C374.782 140.849 374.608 141.109 374.378 141.282C366.558 147.21 360.556 148.685 360.354 148.743L360.094 148.772Z" fill="white"/>
<path d="M367.25 268.801L365.865 266.256C369.992 263.856 375.849 259.288 375.128 256.974C374.406 254.661 372.964 252.782 370.713 252.203C368.462 251.625 365.865 253.302 364.336 254.806L362.229 252.782C366.067 249.022 369.386 248.878 371.405 249.369C374.955 250.324 377.119 253.562 377.84 256.194C379.485 261.572 369.357 267.644 367.25 268.801Z" fill="#0B0B0B"/>
<path d="M364.797 251.365C361.392 241.215 349.186 233.986 349.042 233.9L350.485 231.442C351.062 231.731 363.73 239.249 367.539 250.411L364.797 251.365Z" fill="#0B0B0B"/>
<path d="M323.88 283.375C323.62 283.403 323.389 283.346 323.158 283.23C303.276 273.023 298.082 259.692 297.188 250.266C296.582 244.049 297.563 237.803 300.073 232.078C300.247 231.731 300.535 231.471 300.91 231.355C301.285 231.239 301.689 231.268 302.036 231.442C302.382 231.615 302.642 231.904 302.757 232.28C302.872 232.656 302.844 233.061 302.67 233.379C300.42 238.642 299.525 244.396 300.073 250.121C301.285 262.671 309.538 272.936 324.514 280.685C324.688 280.772 324.832 280.888 324.947 281.032C325.063 281.177 325.149 281.321 325.207 281.495C325.265 281.668 325.294 281.842 325.265 282.044C325.236 282.218 325.178 282.391 325.092 282.565C324.976 282.796 324.832 282.999 324.601 283.143C324.399 283.317 324.139 283.375 323.88 283.375Z" fill="#0B0B0B"/>
<path d="M358.016 255.124C357.785 255.124 357.583 255.066 357.381 254.95C357.179 254.864 357.006 254.719 356.862 254.517C356.718 254.372 346.156 240.174 335.537 232.28C335.364 232.165 335.249 232.02 335.133 231.875C335.047 231.702 334.96 231.529 334.931 231.326C334.903 231.124 334.931 230.95 334.96 230.748C335.018 230.574 335.105 230.401 335.22 230.227C335.307 230.083 335.451 229.938 335.624 229.822C335.768 229.707 335.941 229.649 336.143 229.62C336.316 229.591 336.518 229.591 336.692 229.649C336.865 229.707 337.038 229.794 337.182 229.909C348.234 238.092 358.738 252.145 359.17 252.724C359.401 253.042 359.488 253.418 359.459 253.794C359.401 254.17 359.199 254.517 358.882 254.748C358.622 255.037 358.334 255.124 358.016 255.124Z" fill="#0B0B0B"/>
<path d="M349.908 245.35L346.156 241.302C345.926 241.071 324.11 218.112 305.296 226.584L304.431 226.931L298.371 221.061L299.525 219.962C301.199 218.517 307.605 216.406 308.413 216.261C313.895 215.394 341.655 212.56 348.609 239.943L349.908 245.35ZM314.328 221.726C326.477 221.726 337.961 230.054 343.963 235.288C335.941 216.666 315.396 218.198 308.817 219.124C306.768 219.76 304.777 220.512 302.815 221.379L305.065 223.548C308.009 222.333 311.154 221.726 314.328 221.726Z" fill="#0B0B0B"/>
<path d="M244.641 346.035H242.535C242.275 346.006 242.015 345.919 241.784 345.775C241.553 345.63 241.38 345.428 241.236 345.168C241.092 344.936 241.005 344.676 241.005 344.416C241.005 344.156 241.063 343.895 241.149 343.635L245.622 333.052L246.199 332.821C246.776 332.589 303.825 308.184 326.246 278.835L326.592 278.488L327.025 278.343C327.602 278.199 332.883 276.955 334.845 279.876C336.807 282.767 335.566 284.878 332.681 289.071L332.45 289.302C330.026 291.645 273.555 346.035 244.641 346.035ZM244.497 343.144H244.699C271.823 343.144 327.544 290.025 330.372 287.278C333.258 282.941 332.681 281.698 332.536 281.495C332.392 281.293 329.795 280.685 328.266 281.061C305.989 309.543 254.077 332.503 247.873 335.25L244.497 343.144Z" fill="#0B0B0B"/>
<path d="M454.886 364.946C449.605 364.946 443.978 362.112 443.603 361.91L438.12 359.076H444.353C448.826 359.163 450.557 356.387 451.221 354.796C452.462 351.76 451.856 347.857 449.923 346.093C447.96 344.358 446.95 344.792 444.93 345.804C434.658 350.864 429.377 346.902 428.165 345.746C400.839 334.382 389.7 325.245 381.62 318.652C378.85 316.194 375.878 313.967 372.733 312.001C361.739 305.408 337.096 290.112 336.865 289.967C336.547 289.736 336.317 289.418 336.259 289.042C336.172 288.666 336.23 288.261 336.432 287.943C336.519 287.799 336.663 287.654 336.807 287.538C336.951 287.423 337.124 287.336 337.326 287.307C337.5 287.278 337.702 287.249 337.875 287.307C338.048 287.336 338.221 287.423 338.394 287.509C338.683 287.654 363.268 302.951 374.176 309.457C377.465 311.538 380.582 313.852 383.496 316.396C391.46 322.931 402.368 331.895 429.55 343.201L429.925 343.346L430.127 343.548C430.272 343.693 434.254 347.886 443.632 343.172C447.903 341.061 450.644 342.739 451.942 343.895C454.77 346.584 455.636 351.645 453.962 355.837C453.068 358.035 451.394 359.857 449.259 360.898C452.952 362.054 457.944 362.864 460.109 359.654C462.273 356.474 464.437 352.281 463.081 347.857C462.129 344.821 459.387 342.276 454.828 340.454L454.02 340.165C443.892 336.117 443.747 336.03 438.9 332.127L435.639 329.524C432.234 326.922 426.751 321.775 420.951 316.281C412.41 308.242 401.877 298.324 398.328 296.849C391.951 294.247 367.164 269.668 364.336 266.864C364.163 266.748 364.018 266.574 363.932 266.401C363.845 266.227 363.787 266.025 363.759 265.823C363.73 265.62 363.787 265.418 363.845 265.215C363.932 265.013 364.047 264.84 364.163 264.695C364.307 264.55 364.48 264.435 364.682 264.377C364.884 264.29 365.086 264.261 365.288 264.29C365.49 264.319 365.692 264.377 365.865 264.464C366.038 264.55 366.211 264.695 366.327 264.868C373.858 272.329 394.461 292.194 399.367 294.218C404.301 296.242 413.333 305.148 422.856 314.228C428.627 319.664 434.138 324.811 437.312 327.326L440.631 329.929C445.104 333.543 445.104 333.543 454.943 337.534L455.809 337.823C461.148 339.992 464.553 343.115 465.707 347.105C467.38 352.396 464.755 357.746 462.388 361.303C460.08 364.888 457.858 364.946 454.886 364.946Z" fill="#0B0B0B"/>
<path d="M289.743 376.339C276.008 376.339 259.098 373.794 239.649 365.987C238.61 365.553 237.716 364.772 237.225 363.76C236.706 362.748 236.561 361.592 236.85 360.464L240.948 344.098C241.005 343.924 241.063 343.751 241.178 343.577C241.294 343.432 241.438 343.288 241.582 343.201C241.756 343.114 241.929 343.057 242.102 343.028C242.275 342.999 242.477 343.028 242.65 343.086C242.823 343.114 242.996 343.201 243.169 343.317C243.314 343.433 243.458 343.577 243.545 343.722C243.66 343.895 243.718 344.069 243.747 344.242C243.775 344.416 243.775 344.618 243.718 344.82L239.591 361.129C239.476 361.563 239.534 362.025 239.736 362.43C239.938 362.835 240.255 363.153 240.688 363.327C286.598 381.862 317.964 370.209 326.419 366.218C326.736 366.074 326.996 365.842 327.198 365.553C327.4 365.264 327.487 364.917 327.515 364.57C326.506 332.416 344.858 307.259 345.089 307.056C345.204 306.883 345.348 306.767 345.493 306.652C345.666 306.565 345.839 306.478 346.041 306.449C346.243 306.42 346.416 306.449 346.618 306.478C346.791 306.536 346.964 306.623 347.109 306.738C347.397 306.97 347.599 307.317 347.657 307.693C347.715 308.069 347.628 308.444 347.397 308.762C347.166 308.994 329.478 333.312 330.401 364.396C330.43 365.322 330.17 366.218 329.68 367.028C329.189 367.808 328.497 368.445 327.66 368.821C322.581 371.192 309.336 376.339 289.743 376.339Z" fill="#0B0B0B"/>
<path d="M305.816 228.753L250.73 339.153C250.008 340.628 248.796 341.813 247.325 342.478C245.824 343.143 244.151 343.288 242.563 342.854C221.095 336.984 145.405 315.037 133.978 295.982C120.733 273.803 163.325 158.69 179.455 160.714C195.557 162.738 323.735 203.683 305.816 228.753Z" fill="#0550FC"/>
<path d="M289.599 241.071L289.022 240.926C261.551 229.707 164.97 180.145 163.96 179.625C163.787 179.538 163.642 179.422 163.498 179.278C163.383 179.133 163.267 178.96 163.209 178.786C163.152 178.613 163.123 178.41 163.152 178.208C163.181 178.006 163.209 177.832 163.296 177.659C163.498 177.34 163.787 177.109 164.162 176.993C164.537 176.878 164.912 176.907 165.258 177.08C166.268 177.572 262.705 227.076 290.118 238.237C290.291 238.295 290.464 238.411 290.609 238.526C290.753 238.642 290.868 238.815 290.926 238.989C291.013 239.162 291.041 239.365 291.041 239.567C291.041 239.77 290.984 239.943 290.926 240.117C290.839 240.406 290.666 240.637 290.436 240.811C290.176 240.984 289.887 241.071 289.599 241.071Z" fill="#0B0B0B"/>
<path d="M162.517 287.365C161.189 287.365 159.891 287.133 158.679 286.642L151.667 283.75C150.426 283.259 149.33 282.507 148.377 281.582C147.425 280.656 146.675 279.529 146.184 278.314C145.694 277.1 145.405 275.77 145.405 274.439C145.405 273.109 145.665 271.808 146.184 270.565L154.206 250.844C155.245 248.357 157.207 246.391 159.689 245.379C162.171 244.338 164.941 244.338 167.422 245.35L174.434 248.184C176.887 249.254 178.878 251.22 179.917 253.678C180.927 256.165 180.927 258.941 179.917 261.427L171.895 281.148C171.116 282.999 169.817 284.56 168.144 285.688C166.47 286.758 164.508 287.365 162.517 287.365ZM159.776 283.953C161.565 284.676 163.556 284.647 165.316 283.924C167.076 283.172 168.49 281.755 169.24 279.991L177.262 260.357C177.984 258.565 177.984 256.57 177.262 254.777C176.483 253.042 175.098 251.625 173.367 250.873L166.355 248.039C165.489 247.663 164.537 247.49 163.585 247.461C162.632 247.461 161.68 247.635 160.814 248.01C159.949 248.386 159.141 248.907 158.448 249.572C157.784 250.237 157.236 251.047 156.89 251.943L148.868 271.664C148.147 273.427 148.147 275.394 148.868 277.158C149.618 278.921 151.003 280.309 152.764 281.061L159.776 283.953Z" fill="#0B0B0B"/>
<path d="M175.098 308.647L204.445 236.56C204.647 236.039 205.051 235.606 205.57 235.374C206.089 235.143 206.667 235.085 207.215 235.259L213.996 237.369C214.285 237.485 214.573 237.63 214.804 237.861C215.035 238.063 215.208 238.324 215.352 238.613C215.468 238.902 215.554 239.191 215.554 239.509C215.554 239.827 215.496 240.116 215.381 240.406L186.179 313.071C186.063 313.36 185.919 313.591 185.717 313.823C185.515 314.025 185.284 314.199 184.996 314.343C184.707 314.488 184.447 314.546 184.13 314.546C183.841 314.546 183.553 314.517 183.264 314.401L176.31 311.654C176.021 311.538 175.791 311.365 175.56 311.162C175.358 310.96 175.185 310.7 175.069 310.411C174.954 310.15 174.896 309.832 174.896 309.543C174.925 309.225 174.983 308.936 175.098 308.647Z" fill="white"/>
<path d="M197.721 315.818C203.868 302.632 226.346 249.225 231.425 237.138C231.714 236.444 232.233 235.895 232.897 235.577C233.56 235.259 234.339 235.201 235.032 235.403L242.563 237.659C242.967 237.774 243.343 238.006 243.66 238.295C243.977 238.584 244.237 238.931 244.41 239.307C244.583 239.683 244.67 240.116 244.67 240.55C244.67 240.984 244.583 241.389 244.41 241.794L208.629 320.242C208.34 320.907 207.821 321.457 207.128 321.746C206.465 322.035 205.685 322.064 204.993 321.832L199.424 319.953C199.02 319.808 198.673 319.577 198.356 319.288C198.039 318.999 197.808 318.652 197.635 318.247C197.462 317.871 197.404 317.437 197.404 317.032C197.462 316.628 197.548 316.223 197.721 315.818Z" fill="white"/>
<path d="M245.507 156.666C245.968 157.157 246.546 157.562 247.18 157.793C247.815 158.054 248.479 158.14 249.171 158.082C249.835 158.025 250.499 157.822 251.076 157.475C251.653 157.128 252.144 156.666 252.519 156.087C269.082 131.451 341.366 16.482 264.898 1.90844C173.511 -15.4699 183.899 89.581 245.507 156.666Z" fill="#0550FC"/>
<path d="M248.537 85.8221C264.177 85.8221 276.873 73.0991 276.873 57.4268C276.873 41.7544 264.177 29.0315 248.537 29.0315C232.897 29.0315 220.2 41.7544 220.2 57.4268C220.2 73.0991 232.897 85.8221 248.537 85.8221Z" fill="#DCE0FF"/>
<path d="M464.206 359.22C463.831 359.22 463.485 359.047 463.225 358.816C462.965 358.555 462.792 358.208 462.763 357.861C462.763 357.659 462.792 357.486 462.85 357.312C462.908 357.139 463.023 356.965 463.139 356.82C463.254 356.676 463.427 356.56 463.6 356.473C463.773 356.387 463.947 356.358 464.149 356.329L482.299 355.23C482.876 354.999 483.338 354.594 483.684 354.073C484.03 353.553 484.203 352.946 484.175 352.338V349.216C484.146 348.348 483.828 347.538 483.222 346.902C482.559 346.324 481.722 346.035 480.827 346.035L463.831 346.266C463.629 346.266 463.456 346.237 463.283 346.179C463.11 346.122 462.937 346.006 462.821 345.89C462.677 345.775 462.59 345.601 462.504 345.428C462.417 345.254 462.388 345.081 462.388 344.878C462.417 344.502 462.561 344.126 462.821 343.837C463.081 343.548 463.456 343.375 463.831 343.346L480.741 343.143C481.549 343.114 482.357 343.259 483.136 343.548C483.886 343.837 484.607 344.271 485.185 344.849C485.762 345.428 486.223 346.093 486.57 346.844C486.887 347.596 487.06 348.406 487.06 349.216V352.338C487.06 353.582 486.685 354.796 485.992 355.808C485.3 356.82 484.319 357.63 483.165 358.064H482.732L464.293 359.163L464.206 359.22Z" fill="#0B0B0B"/>
<path d="M437.601 362.054C436.822 362.112 436.043 361.968 435.321 361.621C434.6 361.274 433.994 360.753 433.561 360.117C431.022 356.56 433.417 349.245 433.706 348.464L433.936 347.886L441.814 344.127C441.987 344.04 442.16 343.982 442.362 343.982C442.564 343.953 442.737 343.982 442.939 344.04C443.113 344.098 443.286 344.184 443.43 344.329C443.574 344.445 443.69 344.618 443.776 344.792C443.863 344.965 443.921 345.168 443.921 345.341C443.921 345.543 443.892 345.717 443.834 345.919C443.776 346.093 443.661 346.266 443.545 346.411C443.401 346.556 443.257 346.671 443.084 346.729L436.274 349.997C435.466 352.599 434.744 356.821 435.927 358.469C436.129 358.729 436.389 358.931 436.707 359.047C437.024 359.163 437.341 359.221 437.659 359.192H448.566C448.941 359.192 449.317 359.336 449.576 359.625C449.836 359.886 450.009 360.262 450.009 360.638C450.009 361.013 449.865 361.389 449.576 361.65C449.317 361.91 448.941 362.083 448.566 362.083H437.601V362.054Z" fill="#0B0B0B"/>
<path d="M445.912 403.924L436.216 374.141C435.927 373.216 435.985 372.204 436.418 371.307C436.822 370.411 437.572 369.717 438.467 369.341C440.717 368.387 444.757 366.305 446.719 362.806C446.806 362.633 446.921 362.459 447.066 362.315C447.21 362.17 447.383 362.083 447.585 361.997C447.787 361.91 447.989 361.91 448.191 361.91C448.393 361.939 448.595 361.997 448.768 362.083C448.941 362.17 449.115 362.315 449.23 362.459C449.345 362.604 449.432 362.806 449.49 363.009C449.547 363.211 449.547 363.413 449.519 363.616C449.49 363.818 449.403 363.992 449.288 364.165C446.979 368.445 442.189 370.903 439.592 372.001C439.361 372.117 439.188 372.291 439.073 372.522C438.957 372.753 438.928 373.013 438.986 373.245L447.816 400.426L451.423 399.616L445.796 377.438C445.565 376.599 445.565 375.731 445.796 374.893C445.998 374.054 446.431 373.274 447.037 372.666L456.357 362.517C456.473 362.344 456.617 362.199 456.819 362.112C456.992 361.997 457.194 361.939 457.396 361.91C457.598 361.881 457.8 361.91 458.002 361.968C458.204 362.025 458.377 362.141 458.522 362.286C458.666 362.43 458.781 362.604 458.868 362.777C458.954 362.98 458.983 363.182 458.983 363.384C458.983 363.587 458.926 363.789 458.839 363.992C458.752 364.165 458.608 364.339 458.464 364.483L449.143 374.633C448.884 374.922 448.711 375.24 448.624 375.616C448.537 375.992 448.537 376.368 448.653 376.744L454.943 401.727L445.912 403.924Z" fill="#0B0B0B"/>
<path d="M193.104 580.715C189.93 580.715 186.842 579.761 184.217 578.026C181.591 576.262 179.542 573.775 178.33 570.855C177.118 567.934 176.801 564.725 177.407 561.602C178.013 558.508 179.542 555.645 181.793 553.419C184.015 551.192 186.871 549.66 189.988 549.024C193.075 548.416 196.307 548.734 199.222 549.949C202.136 551.163 204.647 553.216 206.378 555.848C208.138 558.479 209.062 561.573 209.062 564.754C209.033 569.004 207.359 573.053 204.358 576.06C201.386 578.98 197.317 580.686 193.104 580.715ZM193.104 551.568C190.507 551.568 187.997 552.349 185.833 553.766C183.668 555.212 181.995 557.265 181.014 559.665C180.032 562.065 179.773 564.696 180.263 567.24C180.783 569.785 182.024 572.127 183.841 573.949C185.688 575.771 187.997 577.043 190.536 577.534C193.075 578.026 195.701 577.766 198.096 576.783C200.491 575.8 202.54 574.122 203.954 571.954C205.397 569.785 206.176 567.269 206.176 564.667C206.147 561.197 204.762 557.872 202.309 555.414C199.857 552.956 196.567 551.597 193.104 551.568Z" fill="#0B0B0B"/>
<path d="M193.104 575.134C191.056 575.163 189.064 574.556 187.391 573.428C185.688 572.301 184.361 570.71 183.582 568.831C182.803 566.951 182.572 564.869 182.976 562.874C183.351 560.879 184.332 559.028 185.775 557.583C187.218 556.137 189.036 555.154 191.027 554.749C193.018 554.344 195.095 554.546 196.971 555.327C198.847 556.108 200.463 557.438 201.588 559.115C202.713 560.821 203.319 562.787 203.319 564.84C203.319 567.559 202.252 570.161 200.347 572.098C198.385 574.007 195.788 575.106 193.104 575.134ZM193.104 557.438C191.633 557.438 190.219 557.843 188.978 558.653C187.766 559.462 186.785 560.59 186.237 561.949C185.659 563.308 185.515 564.783 185.775 566.228C186.063 567.674 186.756 568.975 187.766 570.016C188.805 571.057 190.103 571.78 191.546 572.069C192.989 572.359 194.461 572.214 195.817 571.665C197.173 571.115 198.327 570.161 199.135 568.947C199.943 567.732 200.376 566.286 200.376 564.84C200.376 562.903 199.597 561.024 198.241 559.636C196.884 558.248 195.038 557.467 193.104 557.438Z" fill="#0B0B0B"/>
<path d="M360.036 577.361L351.206 569.525L352.216 568.426L462.619 444.262V458.835L462.273 459.269L360.036 577.361ZM355.333 569.265L359.805 573.255L459.734 457.765V451.895L355.333 569.265Z" fill="#0B0B0B"/>
<path d="M461.176 439.722L300.448 441.978L307.547 451.375L466.457 448.05L461.176 439.722Z" fill="white"/>
<path d="M306.826 452.821L297.563 440.503L461.956 438.247L469.054 449.409L306.826 452.821ZM303.334 443.337L308.24 449.929L463.831 446.662L460.368 441.168L303.334 443.337Z" fill="#0B0B0B"/>
<path d="M365.461 625.997H342.751C341.193 625.997 339.693 625.39 338.596 624.291C337.5 623.193 336.894 621.689 336.894 620.128C336.894 618.566 337.5 617.091 338.596 615.993C339.693 614.894 341.193 614.258 342.751 614.258H365.461C367.019 614.258 368.491 614.865 369.616 615.993C370.713 617.091 371.319 618.595 371.319 620.128C371.319 621.66 370.713 623.164 369.616 624.291C368.491 625.361 366.99 625.997 365.461 625.997ZM342.751 617.149C341.972 617.149 341.222 617.467 340.645 618.017C340.097 618.566 339.779 619.318 339.779 620.128C339.779 620.937 340.097 621.66 340.645 622.238C341.193 622.788 341.943 623.106 342.751 623.106H365.461C366.24 623.106 366.99 622.788 367.568 622.238C368.116 621.689 368.433 620.937 368.433 620.128C368.433 619.318 368.116 618.595 367.568 618.017C367.019 617.467 366.24 617.149 365.461 617.149H342.751Z" fill="#0B0B0B"/>
<path d="M355.91 562.296C355.246 562.325 354.582 562.18 353.948 561.949L332.536 554.2C331.065 553.679 329.882 552.609 329.218 551.221C328.554 549.804 328.497 548.185 328.987 546.739C329.535 545.265 330.603 544.079 332.017 543.414C333.431 542.749 335.047 542.662 336.49 543.183L357.901 550.932C358.622 551.192 359.286 551.597 359.863 552.118C360.44 552.638 360.902 553.274 361.219 553.968C361.537 554.662 361.71 555.443 361.739 556.195C361.768 556.975 361.623 557.727 361.364 558.45C361.104 559.173 360.729 559.809 360.209 560.387C359.69 560.937 359.084 561.4 358.391 561.718C357.67 562.122 356.775 562.325 355.91 562.296ZM354.9 559.26C355.65 559.52 356.487 559.462 357.208 559.115C357.555 558.942 357.872 558.71 358.132 558.45C358.391 558.161 358.593 557.814 358.709 557.467C358.853 557.091 358.911 556.686 358.882 556.31C358.853 555.906 358.767 555.53 358.593 555.183C358.42 554.836 358.189 554.518 357.901 554.228C357.612 553.968 357.266 553.766 356.891 553.621L335.48 545.93C335.133 545.785 334.73 545.698 334.354 545.727C333.979 545.727 333.604 545.843 333.258 546.016C332.565 546.363 332.017 546.971 331.728 547.693C331.469 548.445 331.498 549.284 331.786 550.007C332.161 550.701 332.767 551.25 333.518 551.539L354.9 559.26Z" fill="#0B0B0B"/>
<path d="M325.467 502.238L317.791 526.643C316.868 529.679 317.069 532.975 318.397 535.867C319.724 538.758 322.033 541.072 324.947 542.373L376.138 560.763C386.901 565.477 395.298 555.616 387.767 546.566C386.728 545.322 385.429 544.281 384.015 543.53C372.819 537.602 369.126 530.402 373.598 514.614C374.002 513.168 373.858 511.635 373.137 510.305C372.444 508.975 371.261 507.992 369.818 507.529L335.97 496.744C334.931 496.397 333.806 496.281 332.709 496.368C331.613 496.455 330.545 496.773 329.564 497.293C328.583 497.814 327.717 498.508 326.996 499.346C326.332 500.214 325.813 501.197 325.467 502.238Z" fill="#0550FC"/>
<path d="M367.77 541.881C367.452 541.881 367.135 541.795 366.904 541.592C366.615 541.361 366.413 541.014 366.385 540.638C366.327 540.262 366.413 539.886 366.644 539.568C368.145 537.428 370.309 535.838 372.819 535.057C375.301 534.248 377.985 534.306 380.466 535.144C380.668 535.202 380.87 535.289 381.014 535.404C381.188 535.52 381.303 535.694 381.418 535.867C381.505 536.04 381.563 536.243 381.592 536.445C381.592 536.648 381.563 536.85 381.505 537.053C381.447 537.255 381.303 537.428 381.159 537.573C381.014 537.718 380.841 537.833 380.639 537.891C380.437 537.978 380.235 538.007 380.033 537.978C379.831 537.949 379.629 537.891 379.456 537.804C379.168 537.747 373.079 535.636 368.982 541.274C368.866 541.448 368.693 541.621 368.491 541.708C368.289 541.795 368 541.881 367.77 541.881Z" fill="#0B0B0B"/>
<path d="M374.118 548.532C373.829 548.532 373.57 548.445 373.31 548.33C373.166 548.214 373.021 548.069 372.906 547.925C372.79 547.751 372.733 547.578 372.704 547.404C372.675 547.202 372.675 547.028 372.733 546.826C372.762 546.652 372.848 546.479 372.964 546.305C376.946 540.291 384.304 540.493 387.651 541.534C387.998 541.65 388.286 541.881 388.459 542.228C388.632 542.546 388.69 542.922 388.575 543.298C388.517 543.472 388.43 543.645 388.315 543.819C388.2 543.963 388.055 544.108 387.882 544.195C387.709 544.281 387.536 544.339 387.334 544.368C387.132 544.397 386.959 544.368 386.757 544.31C386.468 544.252 379.168 542.199 375.33 547.925C375.186 548.127 375.012 548.301 374.81 548.416C374.608 548.474 374.378 548.532 374.118 548.532Z" fill="#0B0B0B"/>
<path d="M352.216 549.197C351.899 549.226 351.581 549.139 351.35 548.937C351.091 548.763 350.918 548.474 350.86 548.185L343.848 526.816C343.761 526.441 343.79 526.065 343.963 525.718C344.136 525.4 344.425 525.11 344.771 524.995C344.944 524.937 345.146 524.908 345.348 524.908C345.55 524.908 345.724 524.966 345.897 525.053C346.07 525.139 346.214 525.255 346.33 525.4C346.445 525.544 346.532 525.718 346.589 525.92L353.601 547.289C353.688 547.665 353.659 548.041 353.486 548.388C353.313 548.735 353.024 548.995 352.678 549.11L352.216 549.197Z" fill="white"/>
<path d="M340.645 545.265C340.328 545.265 340.039 545.178 339.779 544.976C339.52 544.802 339.346 544.542 339.26 544.253L332.306 522.884C332.219 522.71 332.19 522.508 332.19 522.306C332.19 522.103 332.248 521.901 332.334 521.727C332.421 521.554 332.536 521.38 332.681 521.236C332.825 521.091 332.998 521.004 333.2 520.947C333.402 520.889 333.604 520.86 333.806 520.889C334.008 520.918 334.21 520.976 334.383 521.062C334.556 521.149 334.701 521.294 334.816 521.467C334.931 521.641 335.018 521.814 335.076 522.016L342.001 543.385C342.059 543.559 342.088 543.761 342.088 543.935C342.088 544.137 342.03 544.311 341.944 544.484C341.857 544.658 341.742 544.802 341.597 544.918C341.453 545.033 341.28 545.12 341.078 545.178L340.645 545.265Z" fill="white"/>
<path d="M324.976 542.373H325.034L376.138 560.764C379.976 562.441 383.525 562.296 386.18 560.908C386.266 560.85 386.324 560.764 386.382 560.677C386.439 560.59 386.439 560.474 386.439 560.359C386.411 560.243 386.382 560.156 386.324 560.07C386.266 559.983 386.18 559.925 386.064 559.896C378.677 557.872 339.635 546.421 329.247 533.814C325.957 529.824 323.274 525.371 321.369 520.542C321.283 520.397 321.167 520.281 321.023 520.195C320.879 520.108 320.706 520.079 320.532 520.079C320.359 520.079 320.186 520.137 320.042 520.224C319.898 520.31 319.782 520.455 319.724 520.6L317.849 526.614C316.925 529.65 317.127 532.947 318.455 535.838C319.724 538.759 322.062 541.072 324.976 542.373Z" fill="#0B0B0B"/>
<path d="M243.256 365.813C243.256 365.813 241.149 401.467 272.545 448.05C303.911 494.633 316.146 577.361 316.146 577.361L348.551 573.891L312.193 372.406L284.433 375.095C279.672 375.558 274.853 375.067 270.265 373.707L243.256 365.813Z" fill="#0B0B0B"/>
<path d="M504.345 403.635C503.97 403.635 503.595 403.491 503.335 403.201C503.075 402.941 502.902 402.565 502.902 402.189L501.229 165.138H441.208V283.808C441.208 284.184 441.064 284.56 440.775 284.82C440.516 285.081 440.14 285.254 439.765 285.254C439.39 285.254 439.015 285.109 438.755 284.82C438.496 284.56 438.323 284.184 438.323 283.808V162.246H504.028V163.692L505.759 402.189C505.759 402.565 505.615 402.941 505.326 403.201C505.095 403.491 504.72 403.635 504.345 403.635Z" fill="#0B0B0B"/>
<path d="M141.337 419.568C140.961 419.568 140.586 419.423 140.327 419.134C140.067 418.874 139.894 418.498 139.894 418.122V359.134H213.707C214.083 359.134 214.458 359.278 214.717 359.568C214.977 359.857 215.15 360.204 215.15 360.58C215.15 360.955 215.006 361.331 214.717 361.592C214.429 361.852 214.083 362.025 213.707 362.025H142.779V418.093C142.779 418.469 142.635 418.845 142.347 419.105C142.087 419.423 141.712 419.568 141.337 419.568Z" fill="#0B0B0B"/>
<path d="M88.9919 419.568C88.7899 419.568 88.6168 419.539 88.4436 419.481C88.2705 419.423 88.0974 419.308 87.9819 419.192C87.8376 419.076 87.7511 418.903 87.6645 418.729C87.5779 418.556 87.5491 418.382 87.5491 418.18L81.8356 70.8725H40.3984V314.17L2.94334 315.558V360.609C2.94334 360.984 2.79906 361.36 2.5105 361.621C2.22194 361.881 1.87567 362.054 1.50054 362.054C1.12541 362.054 0.750283 361.91 0.490579 361.621C0.230875 361.331 0.0577393 360.984 0.0577393 360.609V312.724L37.5128 311.423V67.981H84.6635L90.4347 418.122C90.4347 418.498 90.2904 418.874 90.0018 419.134C89.7421 419.423 89.367 419.568 88.9919 419.568Z" fill="#0B0B0B"/>
<path d="M203.579 556.079C203.233 556.05 202.915 555.935 202.627 555.703C202.338 555.472 202.136 555.125 202.107 554.72C202.078 554.344 202.194 553.968 202.425 553.65L255.635 487.086C255.751 486.942 255.895 486.797 256.068 486.71C256.241 486.624 256.414 486.566 256.616 486.537C256.818 486.508 256.991 486.537 257.193 486.595C257.367 486.652 257.54 486.739 257.684 486.884C257.973 487.115 258.175 487.462 258.203 487.867C258.232 488.243 258.146 488.619 257.886 488.937L204.733 555.501C204.589 555.674 204.416 555.819 204.214 555.906C204.012 556.021 203.81 556.079 203.579 556.079Z" fill="#0B0B0B"/>
<path d="M182.168 556.802C181.937 556.802 181.735 556.744 181.533 556.629C181.331 556.542 181.158 556.397 181.014 556.224L127.861 489.66C127.63 489.37 127.515 488.966 127.543 488.59C127.572 488.214 127.774 487.867 128.063 487.607C128.351 487.375 128.727 487.26 129.131 487.289C129.506 487.317 129.852 487.52 130.083 487.809L183.236 554.373C183.466 554.691 183.582 555.067 183.553 555.472C183.524 555.877 183.322 556.224 183.034 556.484C182.774 556.686 182.485 556.773 182.168 556.802Z" fill="#0B0B0B"/>
<path d="M257.511 644.099C257.078 644.07 256.674 643.896 256.357 643.607L203.204 576.956C202.973 576.667 202.858 576.262 202.886 575.886C202.944 575.51 203.117 575.163 203.406 574.903C203.694 574.672 204.07 574.556 204.474 574.585C204.849 574.614 205.195 574.816 205.455 575.106L258.579 641.756C258.809 642.046 258.925 642.422 258.896 642.826C258.867 643.202 258.665 643.549 258.377 643.809C258.117 644.012 257.828 644.099 257.511 644.099Z" fill="#0B0B0B"/>
<path d="M129.765 643.376C129.419 643.376 129.073 643.231 128.813 643C128.525 642.769 128.323 642.422 128.294 642.017C128.265 641.641 128.38 641.265 128.611 640.947L181.764 574.383C182.024 574.094 182.399 573.92 182.774 573.862C183.149 573.833 183.553 573.92 183.87 574.151C184.159 574.383 184.361 574.73 184.39 575.135C184.419 575.51 184.332 575.886 184.072 576.204L130.833 642.797C130.718 642.971 130.544 643.116 130.371 643.202C130.169 643.318 129.967 643.376 129.765 643.376Z" fill="#0B0B0B"/>
<path d="M93.176 566.807C92.8008 566.807 92.4257 566.662 92.166 566.373C91.9063 566.113 91.7332 565.737 91.7332 565.361C91.7332 564.985 91.8774 564.609 92.166 564.32C92.4257 564.06 92.8008 563.886 93.176 563.886L178.474 563.221C178.849 563.221 179.225 563.366 179.484 563.655C179.744 563.915 179.917 564.291 179.917 564.667C179.917 564.869 179.888 565.043 179.83 565.216C179.773 565.39 179.657 565.563 179.542 565.679C179.426 565.824 179.253 565.91 179.08 565.997C178.907 566.084 178.734 566.113 178.532 566.113L93.176 566.807Z" fill="#0B0B0B"/>
<path d="M293.292 566.807L208.715 566.142C208.34 566.142 207.965 565.997 207.705 565.708C207.446 565.448 207.273 565.072 207.273 564.667C207.301 564.291 207.446 563.944 207.705 563.655C207.965 563.395 208.34 563.221 208.715 563.221H208.802L293.321 563.886C293.696 563.886 294.071 564.031 294.331 564.32C294.591 564.58 294.764 564.956 294.764 565.361C294.764 565.766 294.62 566.113 294.331 566.373C294.043 566.633 293.696 566.807 293.292 566.807Z" fill="#0B0B0B"/>
<path d="M193.393 550.99C193.018 550.99 192.643 550.845 192.383 550.556C192.123 550.296 191.95 549.92 191.95 549.544L189.93 462.161C189.93 461.756 190.074 461.409 190.334 461.12C190.594 460.83 190.969 460.657 191.373 460.657C191.748 460.657 192.123 460.802 192.383 461.091C192.643 461.351 192.816 461.727 192.816 462.103L194.836 549.486C194.836 549.689 194.807 549.862 194.749 550.036C194.691 550.209 194.576 550.383 194.461 550.527C194.345 550.672 194.172 550.787 193.999 550.874C193.826 550.961 193.653 550.99 193.451 551.019H193.393V550.99Z" fill="#0B0B0B"/>
<path d="M195.124 663.443C194.749 663.414 194.374 663.27 194.114 663.01C193.854 662.749 193.681 662.373 193.681 661.998L192.441 579.848C192.441 579.645 192.469 579.472 192.527 579.298C192.585 579.125 192.7 578.951 192.816 578.836C192.96 578.691 193.104 578.605 193.277 578.518C193.451 578.46 193.624 578.402 193.826 578.402H193.912C194.287 578.402 194.662 578.547 194.922 578.836C195.182 579.096 195.355 579.472 195.355 579.848L196.596 661.998C196.596 662.2 196.567 662.374 196.509 662.547C196.452 662.72 196.336 662.894 196.221 663.01C196.105 663.154 195.932 663.241 195.759 663.328C195.586 663.414 195.413 663.443 195.211 663.443H195.124Z" fill="#0B0B0B"/>
<path d="M193.104 458.344C172.501 458.344 152.388 464.445 135.277 475.925C118.165 487.375 104.805 503.684 96.9272 522.739C89.0496 541.795 87.0008 562.788 91.0118 583.029C95.0227 603.27 104.949 621.862 119.493 636.436C134.065 651.038 152.59 660.957 172.79 664.976C192.989 668.995 213.909 666.942 232.954 659.048C251.97 651.154 268.245 637.795 279.672 620.619C291.099 603.472 297.217 583.289 297.217 562.672C297.217 548.966 294.533 535.404 289.31 522.739C284.087 510.074 276.411 498.566 266.745 488.879C257.078 479.192 245.593 471.5 232.954 466.267C220.315 461.033 206.753 458.315 193.104 458.344ZM193.595 660.118C174.348 660.147 155.505 654.422 139.49 643.723C123.475 633.024 110.98 617.785 103.622 599.973C96.2347 582.161 94.3013 562.527 98.0526 543.616C101.804 524.705 111.067 507.298 124.687 493.679C138.307 480.031 155.649 470.749 174.521 466.99C193.393 463.231 212.986 465.168 230.761 472.57C248.537 479.973 263.744 492.464 274.42 508.513C285.097 524.561 290.811 543.414 290.782 562.73C290.782 588.58 280.538 613.361 262.301 631.636C244.122 649.853 219.392 660.118 193.595 660.118Z" fill="#0550FC"/>
<path d="M238.783 520.455C241.092 516.465 239.707 511.375 235.725 509.062C231.742 506.749 226.664 508.137 224.384 512.098L220.777 518.344C218.498 522.334 219.854 527.424 223.807 529.737C227.789 532.05 232.868 530.662 235.176 526.701L238.783 520.455Z" fill="white"/>
<path d="M227.933 532.224C226.231 532.195 224.557 531.761 223.086 530.922C220.864 529.621 219.219 527.481 218.555 524.995C217.892 522.508 218.238 519.848 219.536 517.592L223.143 511.375C223.778 510.248 224.615 509.264 225.625 508.484C226.635 507.703 227.789 507.125 229.03 506.778C230.271 506.431 231.569 506.344 232.839 506.517C234.109 506.691 235.349 507.096 236.446 507.732C238.668 509.033 240.313 511.202 240.976 513.717C241.64 516.233 241.294 518.893 239.995 521.149L236.388 527.366C235.551 528.869 234.311 530.084 232.81 530.951C231.338 531.819 229.665 532.252 227.933 532.224ZM224.528 528.464C226.116 529.361 227.991 529.592 229.751 529.13C231.512 528.667 233.012 527.51 233.935 525.92L237.542 519.703C238.466 518.113 238.697 516.233 238.235 514.469C237.773 512.705 236.619 511.202 235.032 510.276C233.445 509.351 231.569 509.12 229.809 509.582C228.049 510.074 226.548 511.231 225.625 512.792L222.018 519.009C221.123 520.599 220.893 522.479 221.354 524.243C221.816 526.036 222.97 527.539 224.528 528.464Z" fill="#0B0B0B"/>
<path d="M535.509 556.079C535.163 556.079 534.817 555.934 534.557 555.703C534.413 555.587 534.269 555.443 534.182 555.269C534.095 555.096 534.038 554.922 534.009 554.72C533.98 554.518 534.009 554.344 534.067 554.142C534.124 553.968 534.211 553.795 534.355 553.65L587.479 487.086C587.594 486.913 587.739 486.768 587.912 486.652C588.085 486.537 588.258 486.479 588.46 486.45C588.662 486.421 588.864 486.421 589.066 486.479C589.268 486.537 589.441 486.623 589.586 486.739C589.73 486.855 589.874 487.028 589.961 487.202C590.047 487.375 590.105 487.578 590.105 487.78C590.134 487.982 590.076 488.185 590.018 488.387C589.961 488.561 589.845 488.734 589.701 488.879L536.548 555.443C536.433 555.616 536.26 555.761 536.058 555.848C535.913 555.992 535.711 556.05 535.509 556.079Z" fill="#0B0B0B"/>
<path d="M514.012 556.802C513.81 556.802 513.579 556.744 513.406 556.629C513.204 556.542 513.059 556.397 512.944 556.224L459.734 489.631C459.503 489.313 459.387 488.937 459.445 488.532C459.503 488.156 459.705 487.78 459.993 487.549C460.311 487.317 460.686 487.202 461.09 487.26C461.465 487.317 461.84 487.52 462.071 487.809L515.195 554.373C515.426 554.691 515.512 555.067 515.483 555.472C515.454 555.877 515.252 556.224 514.993 556.484C514.675 556.686 514.358 556.773 514.012 556.802Z" fill="#0B0B0B"/>
<path d="M589.355 644.099C588.922 644.07 588.518 643.896 588.201 643.607L535.048 576.956C534.904 576.812 534.788 576.638 534.73 576.465C534.673 576.262 534.644 576.06 534.644 575.886C534.644 575.684 534.702 575.482 534.788 575.308C534.875 575.135 535.019 574.961 535.163 574.846C535.308 574.73 535.509 574.614 535.683 574.585C535.885 574.527 536.087 574.527 536.289 574.556C536.491 574.585 536.693 574.672 536.837 574.759C537.01 574.874 537.154 575.019 537.27 575.192L590.48 641.843C590.711 642.133 590.826 642.508 590.798 642.913C590.769 643.289 590.567 643.636 590.278 643.896C590.018 644.012 589.701 644.099 589.355 644.099Z" fill="#0B0B0B"/>
<path d="M461.609 643.376C461.292 643.376 460.974 643.231 460.744 643C460.599 642.884 460.455 642.74 460.368 642.566C460.282 642.393 460.224 642.219 460.195 642.017C460.166 641.814 460.195 641.641 460.253 641.438C460.311 641.265 460.397 641.091 460.542 640.947L513.694 574.383C513.925 574.094 514.271 573.891 514.675 573.862C515.051 573.833 515.426 573.92 515.743 574.18C516.032 574.412 516.234 574.759 516.262 575.163C516.291 575.539 516.205 575.915 515.945 576.233L462.792 642.797C462.648 642.971 462.475 643.115 462.273 643.202C462.042 643.318 461.84 643.376 461.609 643.376Z" fill="#0B0B0B"/>
<path d="M425.106 566.807C424.731 566.807 424.356 566.662 424.096 566.373C423.837 566.113 423.664 565.737 423.664 565.361C423.664 564.985 423.808 564.609 424.096 564.32C424.356 564.06 424.731 563.886 425.106 563.886L510.405 563.221C510.78 563.221 511.155 563.366 511.415 563.655C511.674 563.915 511.847 564.291 511.847 564.667C511.847 565.043 511.703 565.419 511.415 565.708C511.155 565.968 510.78 566.142 510.405 566.142L425.106 566.807Z" fill="#0B0B0B"/>
<path d="M625.136 566.807L540.617 566.142C540.242 566.142 539.867 565.997 539.607 565.708C539.347 565.448 539.174 565.072 539.174 564.667C539.174 564.291 539.318 563.915 539.607 563.655C539.867 563.395 540.242 563.221 540.617 563.221L625.223 563.886C625.425 563.886 625.598 563.915 625.771 564.002C625.944 564.06 626.088 564.175 626.233 564.32C626.348 564.465 626.463 564.609 626.521 564.783C626.579 564.956 626.608 565.13 626.608 565.332C626.608 565.708 626.463 566.084 626.175 566.344C625.886 566.633 625.54 566.807 625.136 566.807Z" fill="#0B0B0B"/>
<path d="M525.294 550.99C524.919 550.99 524.544 550.845 524.255 550.556C523.996 550.296 523.823 549.92 523.823 549.544L521.803 462.161C521.803 461.756 521.947 461.409 522.236 461.12C522.495 460.83 522.87 460.657 523.246 460.657C523.621 460.657 523.996 460.802 524.255 461.091C524.515 461.351 524.688 461.727 524.688 462.103L526.708 549.486C526.708 549.689 526.679 549.891 526.622 550.065C526.564 550.238 526.449 550.412 526.304 550.556C526.16 550.701 526.016 550.816 525.814 550.903C525.698 550.961 525.496 550.99 525.294 550.99Z" fill="#0B0B0B"/>
<path d="M527.026 663.443C526.651 663.443 526.275 663.299 526.016 663.01C525.756 662.749 525.583 662.373 525.583 661.998L524.284 579.848C524.284 579.472 524.429 579.096 524.717 578.836C524.977 578.576 525.352 578.402 525.756 578.402C526.131 578.402 526.506 578.547 526.766 578.836C527.026 579.096 527.199 579.472 527.199 579.848L528.497 661.998C528.497 662.373 528.353 662.749 528.065 663.01C527.805 663.299 527.43 663.443 527.026 663.443Z" fill="#0B0B0B"/>
<path d="M575.821 610.614C572.878 607.058 567.655 606.566 564.106 609.516C560.556 612.436 560.066 617.699 563.009 621.255L567.597 626.807C570.512 630.364 575.763 630.855 579.313 627.906C582.862 624.986 583.353 619.723 580.409 616.166L575.821 610.614Z" fill="white"/>
<path d="M573.974 631.781C572.532 631.81 571.118 631.491 569.79 630.884C568.492 630.277 567.338 629.381 566.443 628.253L561.826 622.759C560.181 620.764 559.431 618.19 559.662 615.617C559.893 613.043 561.162 610.672 563.125 608.995C564.106 608.156 565.26 607.549 566.472 607.173C567.713 606.797 569.011 606.682 570.281 606.826C571.551 606.942 572.791 607.289 573.917 607.896C575.042 608.503 576.052 609.313 576.86 610.296L581.477 615.877C583.093 617.872 583.872 620.417 583.641 622.99C583.41 625.564 582.141 627.906 580.178 629.554C578.418 630.971 576.225 631.781 573.974 631.781ZM569.329 609.602C567.742 609.573 566.183 610.152 565 611.193C564.308 611.771 563.731 612.465 563.298 613.246C562.865 614.026 562.605 614.894 562.519 615.819C562.432 616.716 562.519 617.612 562.778 618.479C563.038 619.347 563.471 620.157 564.048 620.822L568.665 626.402C569.819 627.79 571.493 628.687 573.282 628.86C575.071 629.034 576.889 628.484 578.274 627.357C578.995 626.778 579.572 626.055 580.005 625.246C580.438 624.436 580.669 623.54 580.727 622.643C580.9 620.851 580.352 619.058 579.197 617.641L574.58 612.06C573.426 610.672 571.753 609.776 569.963 609.602H569.329Z" fill="#0B0B0B"/>
<path d="M311.962 580.773L314.069 606.219C314.328 609.4 315.771 612.378 318.08 614.576C320.388 616.773 323.447 618.017 326.65 618.103L380.957 615.935C392.73 616.224 396.799 603.993 386.382 598.412C384.939 597.66 383.381 597.168 381.765 596.966C369.184 595.665 363.037 590.431 361.306 574.152C361.248 573.4 361.046 572.677 360.7 572.041C360.354 571.376 359.892 570.797 359.315 570.306C358.738 569.814 358.074 569.467 357.381 569.236C356.66 569.005 355.91 568.947 355.188 569.005L319.753 571.751C318.657 571.838 317.56 572.127 316.579 572.619C315.598 573.111 314.703 573.805 313.982 574.643C313.261 575.482 312.712 576.465 312.366 577.506C311.991 578.547 311.876 579.674 311.962 580.773Z" fill="#0550FC"/>
<path d="M365.519 601.65H365.173C364.797 601.535 364.509 601.274 364.307 600.956C364.105 600.609 364.076 600.233 364.163 599.858C364.74 597.313 366.154 595.029 368.145 593.38C370.136 591.703 372.617 590.72 375.214 590.604C375.416 590.604 375.59 590.633 375.763 590.691C375.936 590.749 376.109 590.865 376.253 590.98C376.398 591.125 376.513 591.27 376.6 591.443C376.686 591.617 376.715 591.79 376.744 591.992C376.744 592.368 376.6 592.744 376.34 593.033C376.08 593.323 375.734 593.496 375.359 593.525C373.397 593.641 371.492 594.392 369.992 595.665C368.491 596.937 367.423 598.672 366.962 600.609C366.875 600.927 366.673 601.188 366.413 601.39C366.154 601.535 365.836 601.65 365.519 601.65Z" fill="#0B0B0B"/>
<path d="M373.916 605.409H373.627C373.454 605.38 373.281 605.294 373.108 605.178C372.964 605.062 372.819 604.918 372.733 604.773C372.617 604.6 372.56 604.426 372.531 604.253C372.502 604.079 372.502 603.877 372.56 603.674C374.002 596.561 380.87 594.045 384.333 593.67C384.535 593.641 384.708 593.67 384.91 593.727C385.083 593.785 385.256 593.872 385.401 593.988C385.545 594.103 385.66 594.248 385.747 594.421C385.833 594.595 385.891 594.768 385.92 594.971C385.949 595.173 385.92 595.347 385.862 595.549C385.805 595.723 385.718 595.896 385.603 596.041C385.487 596.185 385.343 596.301 385.17 596.388C384.997 596.474 384.823 596.532 384.621 596.561C384.246 596.648 376.744 597.515 375.359 604.253C375.301 604.6 375.099 604.889 374.839 605.091C374.58 605.294 374.262 605.409 373.916 605.409Z" fill="#0B0B0B"/>
<path d="M353.803 614.315C353.399 614.287 352.995 614.113 352.707 613.795L338.25 596.561C337.99 596.272 337.875 595.896 337.904 595.52C337.932 595.144 338.106 594.797 338.394 594.537C338.712 594.306 339.087 594.19 339.491 594.219C339.866 594.248 340.241 594.45 340.501 594.739L354.9 611.915C355.044 612.06 355.131 612.233 355.188 612.407C355.246 612.58 355.275 612.783 355.275 612.956C355.275 613.159 355.217 613.332 355.131 613.506C355.044 613.679 354.929 613.824 354.784 613.94C354.496 614.171 354.15 614.315 353.803 614.315Z" fill="white"/>
<path d="M341.655 614.981C341.453 614.981 341.251 614.952 341.049 614.865C340.847 614.778 340.703 614.634 340.558 614.489L326.101 597.313C325.957 597.169 325.813 596.995 325.755 596.822C325.669 596.619 325.64 596.417 325.64 596.214C325.64 596.012 325.697 595.81 325.784 595.636C325.871 595.434 325.986 595.289 326.159 595.144C326.303 595 326.505 594.913 326.679 594.855C326.881 594.797 327.083 594.769 327.285 594.797C327.487 594.826 327.689 594.884 327.862 595C328.035 595.116 328.179 595.26 328.295 595.434L342.751 612.667C342.953 612.87 343.069 613.13 343.098 613.39C343.155 613.679 343.098 613.94 342.982 614.2C342.867 614.46 342.665 614.663 342.434 614.807C342.203 614.923 341.943 614.981 341.655 614.981Z" fill="white"/>
<path d="M326.563 618.075H326.621L380.928 615.906C385.112 615.964 388.373 614.518 390.248 612.291C390.306 612.205 390.364 612.118 390.364 612.002C390.393 611.887 390.364 611.771 390.306 611.684C390.248 611.597 390.191 611.511 390.104 611.453C390.018 611.395 389.902 611.366 389.816 611.366C382.14 612.234 341.741 616.369 327.342 608.619C322.812 606.161 318.686 603.038 315.05 599.337C314.934 599.193 314.761 599.106 314.588 599.048C314.415 599.019 314.213 599.019 314.04 599.106C313.867 599.164 313.722 599.308 313.636 599.453C313.549 599.597 313.491 599.8 313.52 599.973L314.011 606.19C314.271 609.371 315.685 612.349 317.993 614.547C320.33 616.745 323.36 618.017 326.563 618.075Z" fill="#0B0B0B"/>
<path d="M320.619 418.266C320.33 418.266 320.071 418.151 319.869 417.977C319.667 417.804 319.551 417.544 319.522 417.254C317.993 401.813 310.779 381.833 310.692 381.688C310.606 381.399 310.606 381.11 310.721 380.821C310.837 380.56 311.068 380.329 311.327 380.242C311.472 380.184 311.616 380.156 311.76 380.156C311.904 380.156 312.049 380.184 312.164 380.242C312.28 380.3 312.395 380.387 312.51 380.502C312.597 380.618 312.655 380.734 312.712 380.878C312.799 381.11 320.157 401.322 321.687 417.023C321.687 417.312 321.6 417.601 321.398 417.833C321.225 418.064 320.965 418.209 320.677 418.266H320.619Z" fill="white"/>
<path d="M429.348 319.751C427.646 319.751 425.943 319.519 424.298 319.028H424.01L419.681 315.326C419.479 315.037 419.364 314.69 419.364 314.343C419.393 313.996 419.508 313.649 419.739 313.389C419.97 313.129 420.287 312.955 420.634 312.897C420.98 312.84 421.326 312.897 421.644 313.071L425.395 316.396C429.29 317.408 433.792 316.541 438.12 315.731L441.525 315.066C446.893 314.112 452.202 312.84 457.425 311.307C457.8 311.22 458.175 311.249 458.522 311.423C458.868 311.596 459.128 311.885 459.243 312.232C459.301 312.435 459.33 312.608 459.301 312.811C459.272 313.013 459.214 313.187 459.128 313.36C459.041 313.534 458.897 313.678 458.752 313.794C458.608 313.91 458.435 313.996 458.233 314.054C452.895 315.702 447.47 317.004 441.958 317.958L438.698 318.536C435.61 319.259 432.493 319.635 429.348 319.751Z" fill="#0B0B0B"/>
<path d="M473.758 320.676C472.776 320.676 471.824 320.473 470.93 320.011L451.337 309.659C450.009 308.965 448.97 307.779 448.451 306.363C447.931 304.946 447.989 303.384 448.566 301.996L453.76 289.187C453.934 288.84 454.222 288.55 454.568 288.406C454.943 288.261 455.347 288.261 455.694 288.406C455.867 288.464 456.011 288.579 456.155 288.724C456.3 288.868 456.386 289.013 456.473 289.187C456.531 289.36 456.559 289.562 456.559 289.736C456.559 289.938 456.502 290.112 456.415 290.285L451.221 303.182C450.932 303.905 450.904 304.714 451.163 305.466C451.423 306.218 451.971 306.825 452.664 307.172L472.171 317.466C472.575 317.669 473.007 317.813 473.44 317.842C473.902 317.871 474.335 317.813 474.768 317.669C475.576 317.322 476.239 316.685 476.585 315.847L496.814 267.008C497.131 266.227 497.131 265.389 496.814 264.608C496.496 263.827 495.89 263.22 495.14 262.873L475.46 254.112C475.085 253.938 474.681 253.851 474.277 253.823C473.873 253.794 473.469 253.88 473.065 254.025C472.257 254.372 471.622 254.979 471.247 255.76L460.253 281.9C460.195 282.073 460.08 282.247 459.936 282.362C459.791 282.507 459.647 282.594 459.474 282.652C459.301 282.709 459.099 282.738 458.926 282.738C458.724 282.738 458.551 282.681 458.377 282.594C458.031 282.449 457.743 282.16 457.598 281.813C457.454 281.466 457.454 281.061 457.598 280.714L468.592 254.574C469.256 253.071 470.468 251.914 471.997 251.307C472.748 251.018 473.556 250.873 474.364 250.902C475.172 250.931 475.951 251.133 476.701 251.451L496.294 260.213C497.737 260.849 498.891 262.006 499.497 263.48C500.103 264.955 500.103 266.574 499.497 268.049L479.24 316.946C478.923 317.726 478.432 318.42 477.826 318.97C477.22 319.519 476.499 319.982 475.72 320.271C475.143 320.589 474.45 320.705 473.758 320.676Z" fill="#0B0B0B"/>
<path d="M462.186 288.521C462.186 288.521 465.158 294.536 462.273 296.126C459.387 297.717 457.425 293.235 457.425 293.235L462.186 288.521Z" fill="white"/>
<path d="M426.607 303.731C413.651 303.731 387.42 299.249 371.001 265.909C370.915 265.736 370.857 265.562 370.857 265.389C370.828 265.215 370.857 265.013 370.915 264.839C370.973 264.666 371.059 264.492 371.203 264.377C371.319 264.232 371.492 264.116 371.636 264.059C371.809 263.972 371.983 263.914 372.185 263.914C372.386 263.914 372.56 263.914 372.762 263.972C372.935 264.03 373.108 264.116 373.252 264.261C373.396 264.377 373.512 264.55 373.598 264.724C391.835 301.678 422.48 301.533 431.426 300.666L435.841 300.29C437.716 300.232 439.534 297.601 442.218 291.239C443.949 287.047 447.556 279.876 452.635 278.864C454.078 278.574 456.242 278.632 458.55 280.974C459.272 281.639 467.525 288.955 465.187 295.606C464.177 298.497 461.927 298.931 460.195 298.295C456.79 297.138 452.664 291.211 453.76 287.798C453.818 287.625 453.934 287.452 454.049 287.307C454.164 287.162 454.337 287.047 454.511 286.96C454.684 286.873 454.886 286.844 455.059 286.815C455.261 286.815 455.434 286.844 455.636 286.902C455.809 286.96 455.982 287.047 456.127 287.162C456.271 287.278 456.386 287.452 456.473 287.596C456.559 287.77 456.588 287.943 456.617 288.145C456.617 288.348 456.588 288.521 456.531 288.695C456.011 290.227 458.781 294.709 461.148 295.519C461.58 295.75 462.013 295.866 462.446 294.652C463.889 290.517 458.695 284.878 456.588 283.056H456.531C455.434 281.958 454.28 281.524 453.212 281.755C450.529 282.276 447.412 286.237 444.902 292.396C442.362 298.555 439.765 303.124 436.014 303.268L431.743 303.615C430.445 303.587 428.713 303.731 426.607 303.731Z" fill="#0B0B0B"/>
<path d="M464.639 310.613C466.024 310.613 467.178 309.485 467.178 308.069C467.178 306.652 466.053 305.524 464.639 305.524C463.254 305.524 462.1 306.652 462.1 308.069C462.129 309.485 463.254 310.613 464.639 310.613Z" fill="#0550FC"/>
<path d="M487.58 264.984H487.002L479.413 261.659C479.067 261.485 478.807 261.196 478.663 260.82C478.519 260.444 478.548 260.068 478.692 259.693C478.836 259.346 479.125 259.085 479.5 258.941C479.846 258.796 480.25 258.825 480.596 258.97L488.186 262.295C488.359 262.353 488.532 262.468 488.647 262.613C488.792 262.758 488.878 262.902 488.965 263.076C489.022 263.249 489.051 263.452 489.051 263.625C489.051 263.828 488.994 264.001 488.907 264.175C488.792 264.435 488.618 264.637 488.388 264.782C488.099 264.926 487.839 264.984 487.58 264.984Z" fill="#0B0B0B"/>
<path d="M455.838 400.801C460.022 415.809 493.437 532.166 521.053 552.956L513.319 556.426C513.319 556.426 478.461 518.315 468.275 479.134L442.68 404.011C442.622 403.78 442.593 403.548 442.622 403.288C442.651 403.057 442.737 402.826 442.853 402.594C442.968 402.363 443.141 402.189 443.314 402.045C443.516 401.9 443.718 401.785 443.949 401.727L453.703 399.558C454.135 399.471 454.597 399.529 455.001 399.76C455.405 400.021 455.694 400.397 455.838 400.801Z" fill="white"/>
<path d="M512.944 558.161L512.223 557.438C511.934 557.004 477.018 518.604 466.89 479.568L441.295 404.503C441.15 404.069 441.093 403.606 441.15 403.172C441.208 402.71 441.352 402.276 441.583 401.9C441.785 401.495 442.074 401.148 442.42 400.888C442.766 400.628 443.17 400.425 443.603 400.31L453.443 398.141C454.251 397.968 455.088 398.112 455.78 398.546C456.473 398.98 456.992 399.674 457.194 400.454C460.946 413.785 494.563 531.212 521.889 551.8L523.909 553.245L512.944 558.161ZM454.078 400.946L444.238 403.115L444.007 403.259V403.491L469.689 478.7C478.807 514.064 508.731 549.053 513.637 554.633L518.34 552.522C491.216 528.465 460.426 422.546 454.366 401.119C454.338 401.062 454.28 401.033 454.251 401.004C454.193 400.975 454.136 400.946 454.078 400.946Z" fill="#0B0B0B"/>
<path d="M524.948 458.344C504.345 458.344 484.232 464.445 467.121 475.925C450.009 487.375 436.649 503.684 428.771 522.739C420.893 541.795 418.845 562.788 422.856 583.029C426.867 603.27 436.793 621.862 451.336 636.436C465.909 651.038 484.463 660.957 504.633 664.976C524.833 668.995 545.753 666.942 564.798 659.048C583.814 651.154 600.089 637.795 611.516 620.619C622.943 603.472 629.06 583.289 629.06 562.672C629.06 534.999 618.095 508.455 598.56 488.908C579.024 469.332 552.563 458.344 524.948 458.344ZM525.439 660.118C506.192 660.147 487.349 654.422 471.334 643.723C455.319 633.024 442.824 617.785 435.466 599.973C428.107 582.161 426.174 562.527 429.925 543.616C433.677 524.705 442.939 507.298 456.559 493.679C470.179 480.031 487.522 470.749 506.394 466.99C525.266 463.231 544.859 465.168 562.634 472.57C580.409 479.973 595.616 492.464 606.293 508.513C616.97 524.561 622.683 543.414 622.654 562.73C622.654 588.58 612.411 613.361 594.174 631.636C575.965 649.853 551.236 660.118 525.439 660.118Z" fill="#0550FC"/>
<path d="M524.948 579.27C532.97 579.27 539.492 572.764 539.492 564.696C539.492 556.658 532.97 550.123 524.948 550.123C516.926 550.123 510.405 556.658 510.405 564.696C510.405 572.735 516.926 579.27 524.948 579.27Z" fill="white"/>
<path d="M524.948 580.715C521.774 580.715 518.686 579.761 516.06 578.026C513.435 576.262 511.386 573.775 510.174 570.855C508.962 567.934 508.644 564.725 509.25 561.602C509.856 558.508 511.386 555.645 513.637 553.419C515.858 551.192 518.715 549.66 521.832 549.024C524.919 548.416 528.151 548.734 531.066 549.949C533.98 551.163 536.491 553.216 538.222 555.848C539.982 558.479 540.905 561.573 540.905 564.754C540.905 569.004 539.232 573.081 536.231 576.089C533.259 579.009 529.19 580.715 524.948 580.715ZM524.948 551.568C522.351 551.568 519.841 552.349 517.676 553.766C515.541 555.212 513.839 557.265 512.857 559.665C511.876 562.065 511.617 564.696 512.107 567.24C512.627 569.785 513.867 572.127 515.685 573.949C517.503 575.771 519.841 577.043 522.38 577.534C524.919 578.026 527.545 577.766 529.94 576.783C532.335 575.8 534.384 574.122 535.798 571.954C537.241 569.785 538.02 567.269 538.02 564.667C538.02 561.197 536.635 557.843 534.182 555.385C531.758 552.956 528.411 551.568 524.948 551.568Z" fill="#0B0B0B"/>
<path d="M524.948 575.135C522.928 575.135 520.937 574.528 519.235 573.4C517.532 572.272 516.234 570.653 515.455 568.773C514.675 566.894 514.473 564.812 514.877 562.846C515.281 560.85 516.262 559.029 517.676 557.583C519.119 556.137 520.937 555.154 522.928 554.778C524.919 554.402 526.997 554.576 528.873 555.356C530.748 556.137 532.364 557.467 533.49 559.144C534.615 560.821 535.221 562.817 535.221 564.87C535.192 567.588 534.124 570.19 532.191 572.128C530.258 574.007 527.661 575.106 524.948 575.135ZM524.948 557.438C523.476 557.438 522.063 557.872 520.851 558.682C519.639 559.491 518.686 560.648 518.138 562.007C517.59 563.366 517.446 564.841 517.705 566.287C517.994 567.732 518.686 569.034 519.725 570.074C520.764 571.115 522.063 571.809 523.505 572.099C524.919 572.388 526.42 572.243 527.776 571.694C529.132 571.144 530.287 570.19 531.094 568.976C531.902 567.761 532.335 566.315 532.335 564.87C532.335 562.903 531.556 561.024 530.171 559.636C528.786 558.248 526.91 557.438 524.948 557.438Z" fill="#0B0B0B"/>
<path d="M356.198 254.661L328.958 276.666C326.563 278.604 326.188 282.102 328.121 284.502L330.257 287.163C332.19 289.563 335.682 289.938 338.077 288.001L365.317 265.967C367.712 264.03 368.087 260.531 366.154 258.131L364.018 255.471C362.085 253.1 358.593 252.724 356.198 254.661Z" fill="white"/>
<path d="M334.643 290.69H333.835C332.94 290.603 332.046 290.343 331.267 289.91C330.459 289.476 329.766 288.869 329.218 288.175L326.967 285.485C325.813 284.04 325.265 282.189 325.467 280.338C325.669 278.488 326.592 276.811 328.035 275.625L355.304 253.591C356.747 252.435 358.593 251.885 360.44 252.059C362.287 252.261 363.989 253.158 365.144 254.603L367.308 257.35C367.885 258.073 368.289 258.883 368.549 259.75C368.808 260.618 368.895 261.543 368.78 262.468C368.693 263.365 368.404 264.261 367.972 265.042C367.539 265.852 366.933 266.546 366.24 267.124L338.971 289.216C337.759 290.228 336.23 290.719 334.643 290.69ZM359.661 254.835C358.738 254.864 357.843 255.182 357.122 255.789L329.853 277.823C329.016 278.517 328.468 279.5 328.381 280.599C328.266 281.697 328.612 282.767 329.276 283.606L331.44 286.295C331.786 286.7 332.19 287.047 332.652 287.307C333.114 287.567 333.633 287.712 334.181 287.77C334.729 287.828 335.249 287.77 335.768 287.625C336.288 287.481 336.749 287.22 337.153 286.873L364.422 264.84C365.259 264.146 365.778 263.191 365.923 262.093C366.038 261.023 365.75 259.953 365.086 259.114L362.922 256.367C362.229 255.558 361.248 255.037 360.18 254.921L359.661 254.835Z" fill="#0B0B0B"/>
<path d="M471.218 449.149H522.899C524.025 449.149 525.121 448.888 526.102 448.339C527.083 447.79 527.891 447.009 528.469 446.055L549.216 411.269C549.649 410.488 549.88 409.621 549.88 408.753C549.88 407.857 549.649 406.989 549.216 406.209C548.783 405.428 548.148 404.792 547.369 404.358C546.619 403.924 545.724 403.664 544.859 403.664H456.79L471.218 449.149Z" fill="white"/>
<path d="M522.928 450.594H470.151L454.886 402.189H544.888C546.042 402.189 547.167 402.508 548.148 403.086C549.129 403.664 549.966 404.503 550.514 405.486C551.092 406.498 551.38 407.626 551.351 408.782C551.351 409.939 551.034 411.067 550.428 412.05L529.68 446.749C528.988 447.934 527.978 448.888 526.795 449.582C525.612 450.276 524.284 450.594 522.928 450.594ZM472.315 447.674H522.928C523.794 447.674 524.66 447.443 525.41 447.009C526.16 446.575 526.795 445.968 527.257 445.216L547.946 410.517C548.293 409.968 548.495 409.361 548.495 408.724C548.523 408.088 548.35 407.452 548.004 406.903C547.687 406.353 547.225 405.891 546.677 405.573C546.128 405.255 545.522 405.081 544.888 405.081H458.781L472.315 447.674Z" fill="#0B0B0B"/>
<path d="M509.481 449.496L508.818 449.351C508.471 449.206 508.212 448.917 508.067 448.57C507.923 448.223 507.952 447.818 508.096 447.471L528.036 403.635C528.122 403.462 528.238 403.288 528.353 403.173C528.497 403.028 528.671 402.941 528.844 402.883C529.017 402.826 529.219 402.797 529.421 402.797C529.623 402.797 529.796 402.854 529.969 402.941C530.315 403.086 530.575 403.375 530.719 403.751C530.864 404.098 530.864 404.503 530.69 404.85L510.751 448.686C510.636 448.946 510.462 449.149 510.232 449.322C510.03 449.409 509.741 449.496 509.481 449.496Z" fill="#0B0B0B"/>
<path d="M495.024 449.496C494.649 449.496 494.274 449.351 494.014 449.062C493.755 448.802 493.582 448.426 493.582 448.05V404.213C493.582 403.838 493.726 403.462 494.014 403.201C494.274 402.941 494.649 402.768 495.024 402.768C495.226 402.739 495.4 402.797 495.602 402.854C495.775 402.912 495.948 403.028 496.092 403.173C496.236 403.317 496.323 403.462 496.41 403.664C496.467 403.838 496.496 404.04 496.496 404.242V448.079C496.496 448.281 496.467 448.455 496.41 448.657C496.352 448.831 496.236 449.004 496.092 449.149C495.948 449.293 495.804 449.38 495.602 449.467C495.4 449.467 495.198 449.496 495.024 449.496Z" fill="#0B0B0B"/>
<path d="M479.76 449.727C479.442 449.727 479.096 449.64 478.836 449.438C478.577 449.235 478.375 448.946 478.317 448.628L467.034 404.589C467.005 404.416 466.976 404.213 467.005 404.011C467.034 403.809 467.092 403.635 467.207 403.491C467.323 403.317 467.438 403.201 467.611 403.086C467.756 402.97 467.929 402.883 468.131 402.854C468.304 402.797 468.506 402.797 468.679 402.797C468.881 402.826 469.054 402.883 469.198 402.97C469.372 403.057 469.516 403.201 469.602 403.346C469.718 403.491 469.804 403.664 469.833 403.867L481.116 447.905C481.202 448.281 481.145 448.657 480.972 448.975C480.77 449.293 480.481 449.524 480.106 449.64L479.76 449.727Z" fill="#0B0B0B"/>
<path d="M544.541 420.291H461.84C461.465 420.291 461.09 420.146 460.83 419.857C460.57 419.568 460.397 419.221 460.397 418.845C460.397 418.469 460.541 418.093 460.83 417.833C461.119 417.573 461.465 417.399 461.84 417.399H544.541C544.916 417.399 545.292 417.544 545.551 417.833C545.811 418.093 545.984 418.469 545.984 418.845C545.984 419.221 545.84 419.597 545.551 419.857C545.292 420.146 544.916 420.291 544.541 420.291Z" fill="#0B0B0B"/>
<path d="M533.98 436.888H468.102C467.727 436.888 467.352 436.744 467.063 436.455C466.803 436.194 466.63 435.818 466.63 435.414C466.63 435.038 466.774 434.662 467.063 434.401C467.352 434.141 467.698 433.968 468.102 433.968H533.98C534.355 433.968 534.73 434.112 534.99 434.401C535.25 434.662 535.423 435.038 535.423 435.414C535.423 435.789 535.278 436.165 534.99 436.455C534.73 436.744 534.355 436.888 533.98 436.888Z" fill="#0B0B0B"/>
<path d="M75.4584 352.57H13.4181C12.7544 352.57 12.0907 352.31 11.629 351.818C11.1673 351.356 10.8787 350.691 10.8787 350.025V328.57C10.8787 327.905 11.1384 327.24 11.629 326.748C12.0907 326.257 12.7544 325.968 13.4181 325.968H75.4584C75.8047 325.968 76.1221 326.025 76.4395 326.17C76.7569 326.286 77.0455 326.488 77.2764 326.748C77.5072 326.98 77.7092 327.269 77.8246 327.587C77.94 327.905 77.9977 328.223 77.9977 328.57V350.025C77.9977 350.691 77.738 351.356 77.2475 351.818C76.7858 352.31 76.1221 352.57 75.4584 352.57ZM13.7932 349.678H75.1122V328.888H13.7932V349.678Z" fill="#0B0B0B"/>
<path d="M34.8292 395.307H14.9474C14.2837 395.307 13.62 395.047 13.1295 394.556C12.6389 394.093 12.3503 393.428 12.3503 392.763V363.847C12.3792 363.182 12.6389 362.517 13.1295 362.054C13.62 361.592 14.2548 361.302 14.9474 361.302H34.8292C35.4928 361.302 36.1565 361.563 36.6471 362.054C37.1376 362.517 37.4262 363.182 37.4262 363.847V392.763C37.3973 393.428 37.1376 394.093 36.6471 394.556C36.1565 395.047 35.5217 395.307 34.8292 395.307ZM15.2359 392.416H34.5406V364.223H15.2359V392.416Z" fill="#0B0B0B"/>
<path d="M73.2076 395.539H53.3259C52.6333 395.539 51.9696 395.279 51.4791 394.787C50.9885 394.295 50.7288 393.63 50.7288 392.936V364.107C50.7288 363.76 50.7865 363.442 50.9308 363.124C51.0751 362.806 51.2482 362.517 51.5079 362.286C51.7388 362.054 52.0273 361.852 52.3448 361.736C52.6622 361.621 53.0084 361.563 53.3259 361.563H73.2076C73.5539 361.563 73.8713 361.621 74.1887 361.736C74.5062 361.852 74.7947 362.054 75.0256 362.286C75.2564 362.517 75.4584 362.806 75.6027 363.124C75.747 363.442 75.8047 363.76 75.8047 364.107V392.936C75.8047 393.63 75.545 394.295 75.0544 394.787C74.5639 395.279 73.9002 395.539 73.2076 395.539ZM53.6433 392.618H72.9479V364.425H53.6433V392.618Z" fill="#0B0B0B"/>
<path d="M168 412.917H153.6C152.85 412.888 152.129 412.599 151.609 412.05C151.09 411.5 150.773 410.777 150.773 410.026V374.517C150.801 373.765 151.09 373.071 151.609 372.551C152.129 372.03 152.85 371.712 153.572 371.712H167.971C168.721 371.712 169.442 372.001 169.991 372.551C170.539 373.071 170.856 373.794 170.856 374.546V410.054C170.856 410.835 170.539 411.558 170.019 412.107C169.5 412.599 168.779 412.917 168 412.917ZM153.687 410.026H168V374.604H153.687V410.026Z" fill="#0B0B0B"/>
<path d="M200.693 412.917H186.294C185.544 412.888 184.823 412.599 184.303 412.05C183.784 411.5 183.466 410.777 183.466 410.026V374.517C183.495 373.765 183.784 373.071 184.303 372.551C184.823 372.03 185.544 371.712 186.265 371.712H200.665C201.415 371.712 202.136 372.001 202.684 372.551C203.233 373.071 203.55 373.794 203.55 374.546V410.054C203.55 410.835 203.233 411.558 202.713 412.107C202.194 412.657 201.444 412.917 200.693 412.917ZM186.381 410.026H200.693V374.604H186.381V410.026Z" fill="#0B0B0B"/>
</g>
<defs>
<clipPath id="clip0_8_649">
<rect width="649" height="667" fill="white"/>
</clipPath>
</defs>
</svg>
