<svg width="584" height="611" viewBox="0 0 584 611" fill="none" xmlns="http://www.w3.org/2000/svg">
<g clip-path="url(#clip0_52_130)">
<path d="M451.399 140.154C447.338 140.154 443.954 139.034 441.247 136.768C427.607 125.435 436.614 89.7456 437.004 88.2867C437.108 87.9481 437.317 87.6615 437.603 87.4791C437.889 87.2968 438.254 87.2186 438.592 87.2968C438.931 87.401 439.243 87.6094 439.425 87.922C439.607 88.2346 439.659 88.5993 439.581 88.964C439.451 89.3027 430.575 124.524 442.965 134.736C447.859 138.852 455.824 138.461 466.497 133.407C466.653 133.329 466.836 133.303 467.018 133.277C467.2 133.277 467.382 133.303 467.538 133.355C467.695 133.407 467.851 133.511 467.981 133.641C468.111 133.772 468.215 133.902 468.293 134.058C468.371 134.215 468.397 134.397 468.423 134.579C468.423 134.762 468.397 134.944 468.345 135.1C468.293 135.257 468.189 135.413 468.059 135.543C467.929 135.673 467.799 135.778 467.642 135.856C461.395 138.695 455.981 140.154 451.399 140.154Z" fill="#0B0B0B"/>
<path d="M481.491 161.177C481.205 161.177 480.892 161.047 480.684 160.865C480.45 160.682 480.293 160.396 480.241 160.109L478.706 153.414C478.029 150.418 477.716 147.344 477.768 144.27L478.419 119.053L479.278 118.714C480.814 118.193 484.901 116.265 486.046 113.608C486.254 113.139 486.385 112.592 486.359 112.071C486.359 111.55 486.228 111.029 485.968 110.56C485.63 109.701 484.979 108.711 484.172 108.58C483.365 108.45 480.788 110.56 480.059 111.628C479.955 111.785 479.825 111.889 479.695 111.993C479.539 112.097 479.382 112.149 479.2 112.175C479.018 112.201 478.862 112.201 478.68 112.175C478.497 112.149 478.341 112.071 478.211 111.967C478.055 111.863 477.951 111.733 477.847 111.602C477.742 111.446 477.69 111.29 477.664 111.107C477.638 110.925 477.638 110.743 477.69 110.586C477.716 110.404 477.794 110.248 477.899 110.117C478.237 109.648 481.152 105.663 484.458 106.001C486.124 106.132 487.452 107.33 488.441 109.518C488.832 110.326 489.04 111.212 489.04 112.097C489.066 112.983 488.858 113.869 488.493 114.676C487.035 118.063 482.87 120.121 481.074 120.903L480.398 144.322C480.319 147.188 480.606 150.028 481.257 152.815L482.792 159.51C482.844 159.849 482.792 160.213 482.61 160.5C482.428 160.787 482.142 161.021 481.803 161.099L481.491 161.177Z" fill="#0B0B0B"/>
<path d="M451.478 102.354C451.582 101.026 450.983 99.9054 450.15 99.8533C449.317 99.7752 448.536 100.791 448.432 102.12C448.328 103.448 448.927 104.569 449.759 104.621C450.592 104.673 451.373 103.657 451.478 102.354Z" fill="#0B0B0B"/>
<path d="M465.612 104.934C465.716 103.631 465.117 102.511 464.258 102.433C463.425 102.381 462.671 103.37 462.566 104.699C462.462 106.028 463.061 107.122 463.92 107.2C464.753 107.252 465.508 106.262 465.612 104.934Z" fill="#0B0B0B"/>
<path d="M451.269 99.4106H451.061L443.044 98.4206C442.601 98.3685 442.211 98.1341 441.95 97.7954C441.69 97.4568 441.56 97.0139 441.586 96.571C441.664 96.1282 441.872 95.7374 442.211 95.4769C442.549 95.2164 442.991 95.0861 443.434 95.1122L451.451 96.1802C451.66 96.2063 451.868 96.2845 452.076 96.3887C452.258 96.4929 452.441 96.6492 452.571 96.8055C452.701 96.9878 452.805 97.1702 452.857 97.3786C452.909 97.587 452.935 97.8215 452.909 98.0299C452.831 98.4206 452.623 98.7593 452.337 99.0198C452.05 99.2803 451.66 99.4106 451.269 99.4106Z" fill="#0B0B0B"/>
<path d="M471.209 99.3584L470.558 99.2282L463.139 95.8415C462.749 95.6592 462.436 95.3205 462.28 94.9037C462.124 94.4869 462.15 94.044 462.332 93.6532C462.515 93.2625 462.853 92.9499 463.269 92.7936C463.686 92.6372 464.128 92.6633 464.519 92.8457L471.886 96.1541C472.094 96.2323 472.276 96.3625 472.432 96.5188C472.588 96.6752 472.693 96.8575 472.797 97.0659C472.875 97.2743 472.927 97.4827 472.901 97.7172C472.901 97.9256 472.849 98.1601 472.771 98.3424C472.641 98.629 472.406 98.8895 472.146 99.0458C471.86 99.2542 471.547 99.3584 471.209 99.3584Z" fill="#0B0B0B"/>
<path d="M452.779 117.204H452.571C450.306 116.865 449.525 115.823 449.317 115.015C448.588 112.619 451.425 109.909 452.31 109.102C452.571 108.867 452.909 108.737 453.274 108.763C453.638 108.789 453.95 108.945 454.211 109.206C454.445 109.466 454.575 109.831 454.549 110.17C454.523 110.535 454.367 110.847 454.107 111.108C452.727 112.306 451.712 113.817 451.842 114.234C452.18 114.468 452.571 114.598 452.961 114.625C453.326 114.651 453.638 114.807 453.872 115.093C454.107 115.354 454.211 115.719 454.185 116.057C454.159 116.422 454.002 116.735 453.716 116.969C453.456 117.204 453.091 117.308 452.753 117.282V117.204H452.779Z" fill="#0B0B0B"/>
<path d="M451.009 163.834L450.488 163.704C450.176 163.574 449.915 163.313 449.759 163.001C449.629 162.688 449.629 162.324 449.759 161.985C454.21 151.695 451.607 140.623 451.555 140.493C451.503 140.31 451.503 140.154 451.529 139.972C451.555 139.789 451.633 139.633 451.712 139.477C451.816 139.32 451.92 139.19 452.076 139.112C452.206 139.008 452.362 138.93 452.545 138.904C452.701 138.852 452.883 138.852 453.065 138.852C453.247 138.878 453.404 138.93 453.56 139.008C453.716 139.086 453.846 139.216 453.95 139.347C454.054 139.477 454.132 139.659 454.158 139.815C454.289 140.336 457.022 151.877 452.232 163.027C452.128 163.261 451.946 163.444 451.738 163.6C451.503 163.73 451.243 163.808 451.009 163.834Z" fill="#0B0B0B"/>
<path d="M515.149 545.873C515.149 545.873 458.011 415.618 449.213 377.14C449.213 377.14 456.762 476.577 471.677 541.157C471.807 541.731 471.807 542.304 471.677 542.851C471.547 543.424 471.313 543.945 470.948 544.388C470.584 544.831 470.141 545.195 469.621 545.456C469.1 545.716 468.528 545.847 467.955 545.847H449.213C449.213 545.847 399.702 424.136 396.787 321.86C396.787 321.86 448.354 328.425 472.797 319.594L541.986 540.011L515.149 545.873Z" fill="#0B0B0B"/>
<path d="M430.262 235.579H429.742C429.429 235.423 429.169 235.136 429.065 234.824C428.935 234.485 428.961 234.12 429.091 233.782L456.788 170.504C456.866 170.295 456.97 170.139 457.126 169.983C457.178 169.644 457.361 169.332 457.621 169.123C457.881 168.915 458.246 168.811 458.584 168.863C463.946 169.462 473.031 164.095 477.482 160.578C478.289 159.953 479.226 159.51 480.242 159.276C481.231 159.041 482.272 159.041 483.287 159.25C484.302 159.458 485.239 159.901 486.046 160.526C486.853 161.152 487.53 161.933 488.025 162.845C491.331 169.41 491.877 180.95 491.877 181.471L492.007 183.321L490.159 182.8C487.634 181.992 478.419 186.187 466.836 193.403C466.419 193.663 465.951 193.793 465.482 193.793C465.014 193.793 464.519 193.663 464.128 193.403C463.738 193.142 463.426 192.751 463.243 192.335C463.061 191.892 462.983 191.423 463.061 190.954C464.441 181.341 460.927 174.907 459.026 172.197L431.59 234.876C431.46 235.11 431.278 235.293 431.069 235.423C430.757 235.527 430.523 235.605 430.262 235.579ZM461.604 171.311C463.79 174.62 466.966 181.341 465.638 190.876C473.786 185.848 483.86 180.273 489.092 179.986C488.832 176.678 487.973 168.706 485.578 163.991C485.291 163.418 484.875 162.923 484.38 162.532C483.886 162.142 483.287 161.881 482.662 161.751C482.038 161.621 481.413 161.621 480.788 161.751C480.163 161.881 479.591 162.168 479.096 162.558C475.53 165.476 467.903 170.322 461.604 171.311Z" fill="#0B0B0B"/>
<path d="M429.065 325.872C417.585 325.872 403.737 324.882 390.826 321.417C390.019 321.183 389.316 320.688 388.821 319.984C388.327 319.307 388.067 318.474 388.119 317.64L389.706 288.723C389.733 288.385 389.915 288.046 390.149 287.812C390.409 287.577 390.748 287.447 391.086 287.447C391.268 287.447 391.424 287.499 391.581 287.577C391.737 287.655 391.893 287.759 391.997 287.89C392.101 288.02 392.205 288.176 392.257 288.333C392.31 288.489 392.336 288.671 392.336 288.854L390.748 317.77C390.722 318.031 390.8 318.265 390.956 318.474C391.112 318.682 391.32 318.838 391.555 318.916C425.03 327.93 468.502 320.584 474.411 317.51C470.506 310.007 469.907 293.308 469.907 292.579C469.907 292.396 469.933 292.24 469.985 292.084C470.037 291.928 470.142 291.771 470.246 291.641C470.35 291.511 470.506 291.433 470.662 291.354C470.818 291.276 470.975 291.25 471.157 291.25C471.339 291.224 471.521 291.25 471.677 291.302C471.86 291.354 471.99 291.459 472.146 291.563C472.276 291.693 472.38 291.823 472.458 291.98C472.536 292.136 472.562 292.318 472.562 292.501C472.562 292.709 473.161 310.554 477.144 316.91C477.326 317.197 477.404 317.536 477.378 317.848C477.352 318.187 477.222 318.5 477.014 318.76C475.087 321.339 459.781 324.074 446.141 325.195C441.716 325.533 435.755 325.872 429.065 325.872Z" fill="#0B0B0B"/>
<path d="M402.227 226.096H401.837C401.655 226.07 401.498 225.992 401.368 225.888C401.238 225.784 401.108 225.654 401.03 225.497C400.952 225.341 400.9 225.185 400.874 225.002C400.848 224.82 400.874 224.664 400.926 224.481L404.31 212.602C404.362 212.42 404.44 212.263 404.544 212.133C404.648 212.003 404.778 211.873 404.934 211.794C405.091 211.716 405.247 211.664 405.429 211.638C405.611 211.612 405.793 211.638 405.95 211.69C406.132 211.742 406.288 211.821 406.418 211.925C406.548 212.029 406.678 212.159 406.757 212.315C406.835 212.472 406.887 212.628 406.913 212.81C406.939 212.993 406.913 213.175 406.861 213.331L403.477 225.211C403.373 225.471 403.216 225.68 402.982 225.836C402.774 226.018 402.488 226.096 402.227 226.096Z" fill="#0B0B0B"/>
<path d="M437.291 176.235H437.03C436.614 176.183 436.223 176.053 435.885 175.87C435.521 175.662 435.234 175.375 434.974 175.063L429.872 168.159C429.664 167.899 429.533 167.612 429.455 167.299C429.377 166.987 429.403 166.648 429.481 166.335C429.559 166.023 429.716 165.736 429.924 165.476C430.132 165.215 430.392 165.033 430.679 164.903L446.714 157.218C447.052 157.087 447.417 157.061 447.729 157.192C448.067 157.322 448.328 157.556 448.484 157.869C448.614 158.182 448.614 158.546 448.51 158.859C448.38 159.171 448.145 159.432 447.833 159.588L432.319 167.013L437.082 173.5H437.291C437.291 173.5 437.421 173.5 437.421 173.447L450.072 161.438C450.332 161.203 450.67 161.073 451.009 161.099C451.347 161.099 451.686 161.256 451.92 161.516C452.05 161.62 452.154 161.777 452.232 161.933C452.31 162.089 452.336 162.272 452.336 162.428C452.336 162.61 452.31 162.767 452.232 162.949C452.154 163.105 452.05 163.261 451.92 163.366L439.269 175.375C439.009 175.636 438.696 175.87 438.358 176C438.019 176.131 437.655 176.235 437.291 176.235Z" fill="#0B0B0B"/>
<path d="M371.407 226.096C371.199 226.096 370.99 226.044 370.808 225.94C370.626 225.862 370.47 225.706 370.34 225.549C370.235 225.419 370.157 225.263 370.105 225.08C370.053 224.898 370.053 224.742 370.079 224.559C370.105 224.377 370.157 224.221 370.261 224.064C370.34 223.908 370.47 223.778 370.6 223.674C370.73 223.596 382.392 215.051 391.945 199.342C410.167 169.305 430.913 168.107 431.772 168.107C431.954 168.107 432.111 168.133 432.293 168.185C432.449 168.237 432.605 168.341 432.735 168.446C432.865 168.55 432.97 168.706 433.048 168.862C433.126 169.019 433.152 169.201 433.178 169.357C433.178 169.696 433.048 170.035 432.813 170.295C432.579 170.556 432.267 170.712 431.902 170.738C431.642 170.738 411.624 171.936 394.184 200.723C384.37 216.9 372.63 225.471 372.188 225.784C371.979 226.018 371.693 226.123 371.407 226.096Z" fill="#0B0B0B"/>
<path d="M361.463 274.916C351.91 274.916 326.868 252.043 319.371 245.01C318.851 244.515 318.538 243.837 318.486 243.134C318.434 242.43 318.668 241.727 319.111 241.154L338.92 217.682C339.155 217.369 339.467 217.135 339.805 216.979C340.144 216.796 340.534 216.718 340.899 216.692C341.263 216.666 341.654 216.718 341.992 216.848C342.357 216.979 342.669 217.161 342.929 217.421L353.992 227.842C354.253 228.076 354.383 228.415 354.409 228.754C354.435 229.092 354.305 229.431 354.07 229.692C353.81 229.952 353.472 230.108 353.133 230.108C352.769 230.108 352.43 230.004 352.144 229.744L341.081 219.323H340.951L321.141 242.873C321.115 242.873 321.115 242.899 321.115 242.925C321.115 242.951 321.115 242.951 321.115 242.978C321.115 243.004 321.115 243.004 321.115 243.03C321.115 243.056 321.141 243.056 321.141 243.082C335.51 256.55 354.617 272.259 361.359 272.259H361.489C370.496 271.92 373.021 262.438 373.099 262.047C373.151 261.864 373.229 261.708 373.333 261.578C373.437 261.448 373.567 261.317 373.724 261.239C373.88 261.161 374.036 261.109 374.218 261.083C374.4 261.057 374.583 261.083 374.739 261.135C374.921 261.161 375.077 261.239 375.207 261.343C375.337 261.448 375.468 261.578 375.546 261.734C375.624 261.891 375.676 262.047 375.702 262.229C375.728 262.412 375.702 262.568 375.65 262.75C375.65 262.88 372.604 274.551 361.541 274.942H361.463V274.916Z" fill="#0B0B0B"/>
<path d="M336.864 221.72C336.682 221.72 336.5 221.694 336.317 221.616C336.135 221.538 335.979 221.434 335.849 221.303C335.771 221.225 331.267 216.275 326.894 211.013C317.679 199.941 317.809 198.274 317.94 197.362C318.538 191.188 319.866 158.442 310.13 152.19C309.844 151.982 309.636 151.695 309.558 151.33C309.48 150.992 309.532 150.627 309.714 150.314C309.922 150.028 310.208 149.819 310.573 149.741C310.911 149.663 311.276 149.715 311.588 149.898C323.927 157.843 320.595 197.18 320.543 197.597C320.751 199.577 329.627 210.518 337.775 219.48C337.905 219.61 337.983 219.74 338.061 219.923C338.139 220.079 338.166 220.261 338.166 220.444C338.166 220.626 338.113 220.782 338.035 220.939C337.957 221.095 337.853 221.225 337.723 221.355C337.619 221.46 337.463 221.564 337.333 221.616C337.202 221.694 337.02 221.746 336.864 221.72Z" fill="#0B0B0B"/>
<path d="M313.28 161.699C312.994 161.699 312.681 161.595 312.447 161.412C312.213 161.23 312.031 160.995 311.953 160.709C309.896 152.164 306.642 144.323 304.716 143.124C304.586 145.052 305.835 150.809 307.293 155.655C307.397 155.994 307.371 156.358 307.215 156.671C307.059 156.984 306.772 157.218 306.434 157.322C306.278 157.374 306.096 157.4 305.913 157.4C305.731 157.4 305.575 157.348 305.419 157.27C305.263 157.192 305.132 157.088 305.028 156.931C304.924 156.801 304.846 156.645 304.794 156.463C303.336 151.695 301.072 143.255 302.66 141.145C302.842 140.884 303.05 140.676 303.31 140.519C303.571 140.363 303.883 140.285 304.169 140.259H304.247C309.141 140.259 313.072 154.066 314.53 160.031C314.582 160.188 314.608 160.37 314.582 160.553C314.556 160.735 314.504 160.891 314.425 161.047C314.347 161.204 314.217 161.334 314.087 161.438C313.957 161.542 313.801 161.621 313.618 161.647L313.28 161.699Z" fill="#0B0B0B"/>
<path d="M301.15 166.414C300.785 166.414 300.447 166.284 300.213 166.023C299.952 165.763 299.822 165.424 299.822 165.085C299.822 163.105 298.286 158.572 296.985 154.613C294.408 146.719 293.393 143.411 294.59 141.744C294.772 141.483 295.007 141.275 295.293 141.144C295.579 141.014 295.866 140.936 296.204 140.962C300.785 140.962 305.08 149.064 305.887 150.653C305.966 150.809 306.018 150.992 306.018 151.148C306.018 151.33 306.018 151.487 305.939 151.669C305.887 151.825 305.783 151.982 305.679 152.112C305.575 152.242 305.419 152.346 305.263 152.424C305.106 152.503 304.95 152.555 304.768 152.555C304.586 152.555 304.43 152.555 304.274 152.477C304.117 152.424 303.961 152.32 303.831 152.216C303.701 152.112 303.597 151.956 303.545 151.799C301.957 148.621 298.911 144.297 296.725 143.645C296.725 145.443 298.391 150.34 299.51 153.727C301.046 158.312 302.503 162.689 302.503 165.059C302.503 165.398 302.373 165.737 302.113 165.997C301.853 166.284 301.514 166.414 301.15 166.414Z" fill="#0B0B0B"/>
<path d="M317.653 230.343C317.419 230.317 317.211 230.265 317.003 230.134C316.794 230.03 316.638 229.848 316.508 229.665C316.039 228.936 304.586 210.831 301.592 205.256C300.265 202.729 295.501 198.43 290.868 194.314C286.234 190.198 280.533 185.014 279.206 181.966C278.425 180.169 276.759 178.058 275.301 176.209C272.906 173.161 271.006 170.764 271.865 168.784C272.256 167.794 273.193 167.247 274.65 167.065C279.753 166.466 284.855 174.359 287.848 179.127C288.239 179.648 288.577 180.247 288.915 180.716C289.254 179.465 289.644 177.277 289.983 175.219L290.92 169.983C291.779 165.476 290.191 158.442 288.863 152.815C287.536 147.188 287.015 144.453 287.874 143.072C288.733 141.691 290.399 140.936 291.128 141.092C295.241 141.483 298.547 150.523 298.547 150.575C298.651 150.913 298.625 151.278 298.469 151.617C298.312 151.929 298.026 152.19 297.688 152.294C297.349 152.372 296.985 152.346 296.699 152.19C296.386 152.033 296.152 151.773 296.048 151.434C295.241 148.907 292.403 143.88 290.868 143.671C290.607 143.671 290.269 144.14 290.139 144.348C290.009 144.557 290.79 149.116 291.466 152.242C292.846 158.155 294.512 165.502 293.523 170.556C293.184 172.405 292.924 174.203 292.664 175.74C291.675 181.523 291.258 183.633 289.67 184.154C289.306 184.259 288.941 184.259 288.577 184.154C288.213 184.05 287.9 183.842 287.666 183.555C286.911 182.617 286.234 181.627 285.688 180.559C283.293 176.912 278.477 169.357 275.015 169.748L274.364 169.878C274.416 170.738 276.212 173.057 277.41 174.594C279.05 176.521 280.481 178.632 281.653 180.898C282.772 183.477 288.082 188.192 292.716 192.36C297.349 196.529 302.451 201.114 303.987 204.031C306.903 209.528 318.695 228.102 318.825 228.311C319.007 228.623 319.059 228.962 318.981 229.327C318.903 229.665 318.695 229.978 318.408 230.186C318.174 230.291 317.914 230.369 317.653 230.343Z" fill="#0B0B0B"/>
<path d="M418.262 222.71C417.924 222.267 417.481 221.876 416.987 221.642C416.466 221.381 415.919 221.251 415.347 221.251H353.237C352.613 221.251 351.988 221.433 351.441 221.746C350.895 222.059 350.452 222.527 350.14 223.075C349.827 223.622 349.671 224.247 349.697 224.898C349.697 225.523 349.879 226.149 350.218 226.696L394.678 298.596C394.991 299.117 395.433 299.56 395.98 299.847C396.526 300.159 397.125 300.316 397.724 300.316H461.603C462.228 300.316 462.827 300.159 463.373 299.847C463.92 299.534 464.363 299.091 464.675 298.544C464.987 297.997 465.17 297.398 465.17 296.773C465.17 296.148 465.039 295.548 464.727 295.001L418.262 222.71Z" fill="#0550FC"/>
<path d="M441.247 73.2296C441.247 73.2296 427.321 64.6067 436.614 63.6167C445.881 62.6268 468.944 60.5688 478.966 73.2296C478.966 73.2296 492.033 76.8767 495.599 94.383C499.166 111.889 479.565 127.155 479.565 127.155L479.773 119.991C479.773 119.991 497.656 111.368 480.892 107.252C480.892 107.252 480.684 114.156 477.378 111.967C474.072 109.779 472.406 86.9584 469.282 84.4315C469.282 84.4315 455.226 94.5914 450.54 91.5174C445.829 88.4694 451.009 84.4315 451.009 84.4315C451.009 84.4315 435.755 94.1746 431.382 92.0644C427.008 89.9282 435.104 81.8524 435.104 81.8524C435.104 81.8524 423.052 91.5434 421.256 84.9004C419.46 78.2574 440.024 73.2296 440.675 73.2296H441.247Z" fill="#0B0B0B"/>
<path d="M275.562 146.85C284.126 146.85 291.076 139.894 291.076 131.323C291.076 122.752 284.126 115.797 275.562 115.797C266.997 115.797 260.047 122.752 260.047 131.323C260.073 139.894 266.997 146.85 275.562 146.85Z" fill="white"/>
<path d="M275.562 148.178C272.23 148.204 268.976 147.214 266.191 145.365C263.405 143.515 261.245 140.91 259.969 137.81C258.694 134.736 258.355 131.349 258.98 128.067C259.631 124.784 261.219 121.788 263.561 119.418C265.904 117.047 268.924 115.458 272.178 114.781C275.457 114.129 278.841 114.468 281.913 115.719C284.985 116.995 287.614 119.157 289.488 121.919C291.336 124.68 292.325 127.963 292.325 131.297C292.325 135.752 290.555 140.024 287.406 143.176C284.282 146.381 280.013 148.152 275.562 148.178ZM275.562 117.203C272.75 117.203 269.991 118.011 267.648 119.574C265.305 121.137 263.483 123.352 262.39 125.931C261.323 128.536 261.036 131.375 261.557 134.137C262.104 136.898 263.457 139.425 265.436 141.431C267.414 143.411 269.965 144.765 272.724 145.312C275.483 145.86 278.347 145.573 280.924 144.479C283.527 143.385 285.74 141.561 287.275 139.217C288.837 136.872 289.644 134.111 289.644 131.297C289.618 127.546 288.134 123.977 285.479 121.32C282.876 118.714 279.31 117.203 275.562 117.203Z" fill="#0B0B0B"/>
<path d="M275.562 137.028C278.711 137.028 281.262 134.475 281.262 131.323C281.262 128.171 278.711 125.618 275.562 125.618C272.412 125.618 269.861 128.171 269.861 131.323C269.861 134.475 272.412 137.028 275.562 137.028Z" fill="#0B0B0B"/>
<path d="M487.66 279.162C487.66 279.162 468.501 278.303 466.523 273.588C464.545 268.872 461.083 262.724 457.699 260.328C454.315 257.931 447.755 247.328 444.371 247.328C440.987 247.328 440.466 254.232 444.501 257.28C448.536 260.328 452.519 265.642 450.8 266.293C449.082 266.945 431.173 262.516 427.06 256.993C424.275 253.216 422.687 256.342 423.807 259.989C425.603 265.902 437.447 269.55 437.447 269.55C437.447 269.55 420.214 255.873 415.373 259.129C413.837 260.119 416.154 262.724 416.31 266.033C416.57 273.978 423.859 288.645 426.123 291.354C429.429 295.34 435.468 300.446 479.408 289.557L489.951 295.522L487.66 279.162Z" fill="white"/>
<path d="M487.66 279.162C487.66 279.162 468.501 278.303 466.523 273.588C464.545 268.872 461.083 262.724 457.699 260.328C454.315 257.931 447.755 247.328 444.371 247.328C440.987 247.328 440.466 254.232 444.501 257.28C448.536 260.328 452.519 265.642 450.8 266.293C449.082 266.945 431.173 262.516 427.06 256.993C424.275 253.216 422.687 256.342 423.807 259.989C425.603 265.902 437.447 269.55 437.447 269.55C437.447 269.55 420.214 255.873 415.373 259.129C413.837 260.119 416.154 262.724 416.31 266.033C416.57 273.978 423.859 288.645 426.123 291.354C429.429 295.34 435.468 300.446 479.408 289.557L489.951 295.522L487.66 279.162Z" fill="white"/>
<path d="M441.976 286.665C441.82 286.691 441.638 286.639 441.508 286.535C421.36 277.99 413.134 265.121 413.342 260.458C413.316 259.885 413.498 259.338 413.811 258.869C414.123 258.4 414.592 258.061 415.138 257.879C419.381 256.629 424.692 260.406 425.212 260.849C425.499 261.057 425.681 261.37 425.733 261.708C425.785 262.047 425.733 262.412 425.525 262.698C425.316 262.985 425.004 263.167 424.64 263.219C424.301 263.272 423.937 263.167 423.65 262.959C422.323 262.021 418.496 259.703 416.023 260.38C415.945 261.005 416.049 261.656 416.284 262.23C418.08 267.257 426.488 277.287 442.471 284.112C442.783 284.243 443.043 284.503 443.2 284.816C443.33 285.128 443.33 285.493 443.2 285.832C443.095 286.066 442.913 286.275 442.679 286.405C442.497 286.587 442.262 286.665 441.976 286.665Z" fill="#0B0B0B"/>
<path d="M435.625 292.24H435.156C409.828 281.507 414.878 268.039 415.086 267.439C415.217 267.127 415.477 266.84 415.789 266.71C416.102 266.58 416.492 266.58 416.804 266.71C416.961 266.762 417.117 266.866 417.247 266.971C417.377 267.075 417.481 267.231 417.559 267.387C417.637 267.544 417.663 267.726 417.689 267.908C417.689 268.091 417.663 268.273 417.611 268.429C417.403 268.898 413.499 280.178 436.171 289.791C436.484 289.921 436.744 290.182 436.9 290.495C437.03 290.807 437.03 291.172 436.9 291.511C436.796 291.745 436.614 291.927 436.38 292.058C436.145 292.188 435.885 292.24 435.625 292.24Z" fill="#0B0B0B"/>
<path d="M439.061 297.346C431.252 297.346 422.635 295.028 420.241 285.467C420.215 285.363 420.215 285.232 420.162 285.128C420.032 284.815 420.006 284.503 420.11 284.19C420.188 283.878 420.371 283.591 420.631 283.409C420.943 283.226 421.282 283.174 421.646 283.252C421.985 283.331 422.297 283.539 422.505 283.826C422.635 284.138 422.766 284.477 422.844 284.816C424.64 292.058 431.069 295.366 441.924 294.637C452.805 293.907 454.653 293.1 457.23 292.448C460.172 291.641 463.191 291.172 466.237 291.068C477.43 290.416 489.092 294.376 489.639 294.585C489.821 294.611 490.029 294.689 490.185 294.793C490.341 294.897 490.498 295.054 490.602 295.21C490.706 295.366 490.758 295.575 490.784 295.757C490.81 295.939 490.784 296.148 490.732 296.33C490.654 296.512 490.55 296.695 490.419 296.825C490.289 296.955 490.107 297.059 489.925 297.138C489.743 297.216 489.534 297.242 489.352 297.216C489.17 297.19 488.962 297.138 488.806 297.033C488.675 297.033 477.066 293.126 466.471 293.725C463.582 293.829 460.718 294.272 457.933 295.054C455.278 295.783 452.232 296.591 442.158 297.32L439.061 297.346Z" fill="#0B0B0B"/>
<path d="M487.66 280.491H487.582C484.276 280.361 467.512 279.371 465.248 274.056C462.983 268.742 460.016 263.584 456.97 261.448C455.278 260.119 453.664 258.66 452.206 257.071C449.499 254.492 445.516 250.506 443.85 250.506C443.538 250.506 443.226 250.636 442.991 250.845C442.757 251.053 442.601 251.34 442.523 251.652C442.002 253.241 442.575 255.768 444.657 257.279C446.714 258.816 453.065 264.834 452.675 267.57C452.649 267.908 452.519 268.221 452.284 268.481C452.076 268.742 451.79 268.924 451.477 269.028C448.822 270.096 430.523 263.532 426.28 257.879C425.993 257.384 425.577 256.967 425.082 256.68C424.9 257.149 424.822 257.644 424.822 258.139C424.822 258.634 424.952 259.129 425.134 259.598C426.384 263.896 434.74 267.283 437.863 268.299C438.046 268.351 438.202 268.429 438.332 268.533C438.462 268.638 438.592 268.768 438.67 268.924C438.748 269.081 438.8 269.263 438.8 269.419C438.8 269.602 438.774 269.758 438.722 269.94C438.618 270.279 438.384 270.565 438.072 270.722C437.759 270.878 437.395 270.904 437.056 270.8C436.588 270.67 424.536 266.892 422.531 260.379C421.672 257.592 422.271 255.065 423.859 254.284C425.447 253.502 426.384 253.554 428.362 256.263C431.668 260.77 445.594 265.694 449.707 266.423C447.885 263.74 445.621 261.369 443.017 259.39C441.716 258.452 440.701 257.123 440.154 255.586C439.607 254.049 439.555 252.408 439.946 250.845C440.623 248.995 442.002 247.875 443.798 247.875C445.595 247.875 449.499 250.793 454.002 255.247C455.72 256.915 457.308 258.504 458.376 259.285C462.879 262.411 466.601 270.618 467.669 273.066C468.736 275.515 480.059 277.521 487.686 277.834C487.868 277.834 488.025 277.886 488.181 277.964C488.337 278.042 488.467 278.146 488.597 278.277C488.701 278.407 488.806 278.563 488.858 278.719C488.91 278.876 488.936 279.058 488.936 279.24C488.936 279.423 488.91 279.579 488.832 279.735C488.753 279.892 488.675 280.048 488.545 280.152C488.415 280.256 488.285 280.361 488.103 280.413C487.999 280.465 487.816 280.491 487.66 280.491Z" fill="#0B0B0B"/>
<path d="M414.67 243.212H378.487C378.123 243.212 377.784 243.082 377.55 242.821C377.29 242.561 377.16 242.248 377.16 241.883C377.16 241.545 377.29 241.18 377.55 240.945C377.81 240.685 378.123 240.555 378.487 240.555H414.67C415.008 240.555 415.347 240.685 415.607 240.945C415.867 241.18 415.997 241.545 415.997 241.883C415.997 242.248 415.867 242.561 415.607 242.821C415.373 243.082 415.034 243.212 414.67 243.212Z" fill="#0B0B0B"/>
<path d="M413.368 254.231H384.136C383.772 254.231 383.433 254.101 383.199 253.841C382.939 253.58 382.808 253.241 382.808 252.903C382.808 252.538 382.939 252.199 383.199 251.965C383.433 251.704 383.772 251.574 384.136 251.574H413.368C413.707 251.574 414.045 251.704 414.306 251.965C414.566 252.225 414.696 252.564 414.696 252.903C414.696 253.241 414.566 253.58 414.306 253.841C414.045 254.075 413.707 254.231 413.368 254.231Z" fill="#0B0B0B"/>
<path d="M401.55 294.428C403.086 294.428 404.336 293.178 404.336 291.641C404.336 290.104 403.086 288.854 401.55 288.854C400.015 288.854 398.765 290.104 398.765 291.641C398.765 293.178 400.015 294.428 401.55 294.428Z" fill="#0B0B0B"/>
<path d="M469.491 606.285L475.322 468.527C475.348 468.032 475.27 467.511 475.087 467.042C474.905 466.573 474.645 466.13 474.306 465.765C473.968 465.401 473.552 465.088 473.083 464.906C472.614 464.697 472.12 464.593 471.599 464.593L305.575 461.207C305.054 461.207 304.534 461.285 304.039 461.493C303.545 461.702 303.102 461.988 302.738 462.379C302.373 462.744 302.087 463.212 301.905 463.707C301.722 464.202 301.644 464.723 301.67 465.271L309.297 607.405C309.376 608.395 309.818 609.333 310.521 610.01C311.25 610.687 312.213 611.052 313.202 611.052L465.69 609.984C466.679 609.958 467.59 609.593 468.293 608.916C469.022 608.186 469.439 607.274 469.491 606.285Z" fill="#0550FC"/>
<path d="M431.642 601.179C429.273 601.179 426.957 600.267 425.239 598.626C423.52 596.985 422.479 594.744 422.375 592.348L421.594 576.639C421.516 575.415 421.672 574.19 422.063 573.044C422.453 571.898 423.078 570.83 423.911 569.918C424.718 569.006 425.707 568.277 426.826 567.756C427.92 567.235 429.117 566.948 430.341 566.896L453.143 565.645C454.367 565.593 455.59 565.75 456.736 566.166C457.881 566.583 458.948 567.208 459.833 568.016C460.744 568.824 461.499 569.814 462.02 570.934C462.541 572.054 462.853 573.226 462.879 574.451L463.738 590.159C463.79 591.384 463.608 592.608 463.217 593.754C462.801 594.901 462.176 595.969 461.369 596.854C460.562 597.766 459.599 598.496 458.506 599.017C457.413 599.538 456.215 599.85 455.018 599.902L432.215 601.153H431.642V601.179ZM453.638 568.277H453.248L430.445 569.527C429.586 569.579 428.727 569.788 427.946 570.152C427.165 570.517 426.462 571.064 425.889 571.715C425.291 572.341 424.848 573.122 424.562 573.93C424.275 574.763 424.171 575.623 424.223 576.483L425.004 592.191C425.108 593.963 425.915 595.604 427.217 596.776C428.544 597.949 430.262 598.574 432.033 598.47L454.835 597.219C455.694 597.167 456.554 596.959 457.334 596.594C458.115 596.229 458.818 595.682 459.391 595.031C459.99 594.38 460.432 593.65 460.718 592.817C461.005 591.983 461.109 591.123 461.057 590.264L460.198 574.555C460.094 572.862 459.365 571.272 458.141 570.126C456.944 568.98 455.33 568.303 453.638 568.277Z" fill="#0B0B0B"/>
<path d="M429.846 578.957C429.507 578.957 429.195 578.801 428.935 578.566C428.7 578.332 428.544 578.019 428.518 577.681C428.492 577.498 428.518 577.316 428.57 577.16C428.622 576.977 428.727 576.847 428.831 576.691C428.935 576.56 429.091 576.456 429.247 576.378C429.403 576.3 429.586 576.274 429.768 576.274L453.352 575.023C453.534 574.997 453.69 575.023 453.872 575.076C454.028 575.128 454.185 575.206 454.315 575.336C454.445 575.44 454.549 575.597 454.627 575.727C454.705 575.883 454.731 576.039 454.757 576.222C454.783 576.404 454.757 576.586 454.705 576.769C454.653 576.951 454.575 577.107 454.445 577.238C454.315 577.368 454.185 577.472 454.028 577.55C453.872 577.629 453.69 577.681 453.508 577.681L429.924 578.931H429.846V578.957Z" fill="#0B0B0B"/>
<path d="M432.579 585.522C432.214 585.522 431.876 585.392 431.642 585.157C431.382 584.923 431.225 584.584 431.225 584.22C431.225 583.881 431.355 583.516 431.59 583.282C431.824 583.021 432.162 582.865 432.527 582.865L451.087 581.875C451.269 581.875 451.425 581.901 451.607 581.953C451.764 582.005 451.92 582.109 452.05 582.214C452.18 582.318 452.284 582.474 452.362 582.63C452.44 582.787 452.466 582.969 452.492 583.125C452.518 583.308 452.492 583.49 452.44 583.646C452.388 583.803 452.284 583.959 452.18 584.089C452.05 584.22 451.92 584.324 451.764 584.402C451.607 584.48 451.425 584.506 451.243 584.506L432.683 585.496H432.579V585.522Z" fill="#0B0B0B"/>
<path d="M457.438 128.483H456.762C456.579 128.457 456.423 128.405 456.267 128.327C456.111 128.249 455.981 128.145 455.877 127.989C455.773 127.858 455.694 127.702 455.642 127.52C455.59 127.337 455.564 127.181 455.59 126.999C455.59 126.816 455.642 126.66 455.72 126.504C455.799 126.347 455.903 126.217 456.033 126.113C456.163 126.009 456.319 125.931 456.475 125.878C456.632 125.826 456.814 125.8 456.996 125.826C457.204 125.826 461.968 126.165 462.905 122.57C463.009 122.231 463.217 121.945 463.504 121.762C463.79 121.58 464.154 121.502 464.493 121.58C464.831 121.684 465.144 121.893 465.326 122.205C465.508 122.518 465.56 122.883 465.482 123.247C464.389 127.415 460.068 128.483 457.438 128.483Z" fill="#0B0B0B"/>
<path d="M19.6792 545.143V543.814L18.1694 21.1533C18.1694 20.6584 18.2475 20.1634 18.4297 19.7205C18.612 19.2777 18.8723 18.8609 19.2367 18.5222C19.5751 18.1575 19.9916 17.897 20.4341 17.7146C20.9027 17.5323 21.3712 17.4541 21.8658 17.4541H216.394C217.383 17.4541 218.32 17.8188 219.023 18.5222C219.726 19.1995 220.142 20.1374 220.168 21.1012L232.767 541.574L19.6792 545.143ZM21.8658 20.0853C21.7096 20.0592 21.5795 20.0853 21.4233 20.1113C21.2931 20.1634 21.163 20.2416 21.0849 20.3458C20.9547 20.45 20.9027 20.5802 20.8506 20.7365C20.7985 20.8668 20.7985 21.0231 20.7985 21.1533L22.3344 542.408L230.034 538.891L217.513 21.1533C217.487 20.8668 217.383 20.6063 217.149 20.3979C216.94 20.1895 216.654 20.0853 216.368 20.0853H21.8658Z" fill="#0B0B0B"/>
<path d="M189.556 271.399H59.1939C57.2676 271.373 55.4195 270.592 54.0398 269.237C52.6602 267.883 51.8793 266.033 51.8272 264.105L49.5105 62.6007C49.4845 61.6368 49.6927 60.6729 50.0571 59.7612C50.4216 58.8494 50.9682 58.0418 51.645 57.3645C52.3218 56.6611 53.1288 56.114 54.0398 55.7232C54.9509 55.3325 55.914 55.1241 56.8772 55.1241L184.246 54.5249H184.298C186.224 54.551 188.072 55.3064 189.426 56.6611C190.805 58.0157 191.586 59.8393 191.638 61.7671L196.871 263.793C196.923 264.783 196.74 265.772 196.376 266.71C196.012 267.648 195.465 268.482 194.736 269.159C194.059 269.862 193.252 270.436 192.341 270.826C191.508 271.217 190.519 271.399 189.556 271.399ZM56.8512 57.7813C56.2264 57.7813 55.6017 57.9115 55.029 58.172C54.4563 58.4326 53.9357 58.7712 53.4932 59.2401C53.0507 59.683 52.7123 60.2301 52.478 60.8032C52.2437 61.3763 52.1396 62.0015 52.1396 62.6268L54.4563 264.053C54.4563 265.304 54.9509 266.502 55.836 267.388C56.721 268.273 57.9184 268.768 59.1679 268.768H189.53C190.155 268.768 190.779 268.638 191.352 268.378C191.925 268.117 192.445 267.752 192.888 267.309C193.747 266.398 194.215 265.173 194.215 263.923L188.983 61.8192C188.957 60.5948 188.437 59.4225 187.578 58.5368C186.693 57.6771 185.521 57.1821 184.298 57.1561H184.246L56.8512 57.7813Z" fill="#0B0B0B"/>
<path d="M64.5562 502.68C62.3696 502.68 60.2872 501.82 58.7253 500.283C57.9184 499.528 57.2937 498.59 56.8511 497.574C56.4086 496.558 56.2004 495.438 56.2004 494.317L55.5236 299.925C55.5236 297.711 56.4086 295.574 57.9705 294.011C59.5323 292.448 61.6668 291.563 63.8794 291.563L188.801 291.042H188.879C191.066 291.068 193.148 291.901 194.71 293.438C196.272 294.949 197.183 297.033 197.235 299.195L202.129 491.087C202.181 493.301 201.374 495.438 199.89 497.053C198.328 498.642 196.22 499.58 193.981 499.632L64.7385 502.68H64.5562ZM63.8794 294.22C62.3697 294.246 60.938 294.845 59.8707 295.913C58.8034 296.981 58.2047 298.414 58.1787 299.925L58.8295 494.317C58.8295 495.073 58.9596 495.828 59.246 496.532C59.5323 497.235 59.9748 497.886 60.5215 498.407C61.0681 498.955 61.7189 499.371 62.4217 499.632C63.1245 499.892 63.8794 500.023 64.6604 499.997L193.903 496.949C194.658 496.949 195.413 496.792 196.116 496.48C196.818 496.167 197.443 495.724 197.964 495.151C198.484 494.63 198.875 493.979 199.161 493.301C199.422 492.598 199.552 491.869 199.5 491.113L194.606 299.222C194.58 297.737 193.955 296.304 192.888 295.288C191.821 294.246 190.389 293.673 188.905 293.673H188.827L63.8794 294.22Z" fill="#0B0B0B"/>
<path d="M41.7533 288.645C45.8922 288.645 49.2502 284.477 49.2502 279.371C49.2502 274.239 45.8922 270.097 41.7533 270.097C37.6144 270.097 34.2565 274.265 34.2565 279.371C34.2565 284.503 37.6144 288.645 41.7533 288.645Z" fill="#0B0B0B"/>
<path d="M1.32757 545.664C0.963138 545.664 0.624738 545.534 0.390461 545.273C0.130154 545.013 0 544.7 0 544.336L2.05643 5.96568C2.05643 5.18415 2.18658 4.40262 2.49895 3.67319C2.78529 2.94376 3.22781 2.29249 3.77446 1.71937C4.91981 0.625224 6.4296 0 8.01747 0H8.09556L228.993 1.3286C230.554 1.3286 232.038 1.92777 233.157 3.02192C234.277 4.11606 234.902 5.60096 234.954 7.16402L246.355 540.688C246.355 541.027 246.225 541.366 245.965 541.626C245.704 541.887 245.366 542.017 245.027 542.017C244.845 542.017 244.689 541.991 244.533 541.939C244.377 541.887 244.221 541.783 244.09 541.678C243.96 541.574 243.856 541.418 243.804 541.262C243.726 541.105 243.7 540.923 243.7 540.767L232.298 7.21613C232.272 6.35644 231.934 5.52281 231.309 4.92364C230.685 4.32447 229.852 3.9858 228.993 3.9858L8.01747 2.6572C7.15846 2.6572 6.32547 2.99586 5.70074 3.59504C5.076 4.22026 4.71157 5.07994 4.71157 5.96568L2.65514 544.336C2.65514 544.7 2.52498 545.013 2.26468 545.273C2.00437 545.534 1.66597 545.664 1.32757 545.664Z" fill="#0B0B0B"/>
<path d="M486.983 90.2145C486.801 90.2145 486.645 90.1624 486.489 90.0582C486.332 89.98 486.202 89.8498 486.124 89.6935C481.23 81.1488 475.061 79.4033 474.983 79.4033C474.723 79.3252 474.515 79.1428 474.358 78.9084C474.228 78.6739 474.176 78.3873 474.254 78.1268C474.306 77.8663 474.488 77.6579 474.697 77.5277C474.905 77.3974 475.191 77.3453 475.452 77.3974C475.712 77.5277 482.48 79.3252 487.842 88.6775C487.972 88.9119 487.998 89.1985 487.92 89.459C487.842 89.7195 487.686 89.9279 487.452 90.0842L486.983 90.2145Z" fill="white"/>
<path d="M488.832 105.585L488.363 105.454C488.129 105.324 487.973 105.116 487.868 104.881C487.79 104.647 487.79 104.36 487.894 104.126C488.806 102.38 488.988 100.374 488.441 98.4987C488.389 98.3684 488.363 98.2382 488.363 98.1079C488.363 97.9777 488.389 97.8474 488.441 97.7172C488.493 97.5869 488.571 97.4827 488.675 97.4045C488.779 97.3264 488.884 97.2482 489.014 97.2222C489.144 97.1701 489.274 97.144 489.404 97.144C489.534 97.144 489.665 97.1701 489.795 97.2222C489.925 97.2743 490.029 97.3524 490.107 97.4567C490.185 97.5609 490.263 97.6651 490.289 97.7953C491.044 100.166 490.836 102.745 489.691 104.959C489.612 105.142 489.508 105.272 489.352 105.376C489.196 105.532 489.04 105.585 488.832 105.585Z" fill="white"/>
<path d="M502.368 549.78L502.888 575.779C502.966 579.035 504.216 582.161 506.454 584.558C508.667 586.955 511.713 588.414 514.967 588.726L570.438 589.846C582.438 590.915 587.332 578.697 577.128 572.34C575.696 571.507 574.134 570.907 572.494 570.621C559.765 568.511 553.804 562.806 553.076 546.081C552.997 544.544 552.347 543.111 551.227 542.043C550.108 541.001 548.624 540.428 547.114 540.428L510.854 541.027C509.734 541.053 508.615 541.287 507.574 541.73C506.533 542.173 505.595 542.824 504.815 543.632C504.034 544.44 503.409 545.403 502.992 546.446C502.55 547.514 502.342 548.634 502.368 549.78Z" fill="white"/>
<path d="M571.896 591.227H570.36L514.81 590.107C511.244 589.795 507.912 588.153 505.491 585.548C503.044 582.917 501.639 579.504 501.561 575.909L501.04 549.858C501.014 548.556 501.248 547.253 501.717 546.055C502.185 544.831 502.914 543.736 503.799 542.799C504.71 541.861 505.778 541.105 506.975 540.584C508.172 540.063 509.448 539.803 510.75 539.777L547.062 539.177C548.937 539.151 550.759 539.855 552.112 541.131C553.466 542.434 554.273 544.205 554.351 546.081C555.08 563.196 561.64 567.573 572.651 569.423C574.473 569.683 576.191 570.334 577.753 571.272C582.777 574.398 585.041 579.374 583.453 584.011C581.892 588.648 578.247 591.227 571.896 591.227ZM515.019 587.398L570.568 588.518C576.737 589.117 580.043 585.939 580.98 583.073C581.892 580.234 580.382 575.988 576.399 573.461C575.124 572.731 573.744 572.21 572.286 571.924C558.047 569.527 552.477 562.571 551.748 546.133C551.696 544.961 551.201 543.867 550.368 543.059C549.535 542.251 548.416 541.783 547.245 541.783H547.114L510.854 542.382C509.891 542.382 508.953 542.59 508.068 542.955C507.183 543.346 506.402 543.893 505.752 544.57C505.075 545.247 504.554 546.055 504.216 546.941C503.851 547.826 503.695 548.79 503.695 549.728L504.216 575.805C504.294 578.723 505.413 581.536 507.418 583.673C509.422 585.783 512.103 587.111 515.019 587.398Z" fill="#0B0B0B"/>
<path d="M517.465 580.494H517.075C516.736 580.39 516.476 580.156 516.294 579.843C516.138 579.53 516.112 579.166 516.216 578.853C516.268 578.723 520.667 565.645 515.695 559.341C513.639 556.762 510.125 555.616 505.231 556.084C505.049 556.11 504.866 556.084 504.71 556.032C504.528 555.98 504.398 555.902 504.242 555.798C504.111 555.694 503.981 555.537 503.903 555.407C503.825 555.251 503.773 555.094 503.747 554.912C503.721 554.73 503.747 554.573 503.799 554.391C503.851 554.235 503.929 554.079 504.033 553.922C504.137 553.792 504.294 553.662 504.424 553.584C504.58 553.505 504.736 553.453 504.918 553.427C510.827 552.906 515.122 554.365 517.778 557.726C523.608 565.098 518.897 579.087 518.715 579.687C518.611 579.921 518.428 580.13 518.194 580.26C517.986 580.416 517.726 580.494 517.465 580.494Z" fill="#0550FC"/>
<path d="M560.624 577.29C559.401 577.29 558.203 576.873 557.266 576.066C556.329 575.284 555.678 574.19 555.47 572.966L555.21 571.455C555.184 571.194 555.054 570.934 554.872 570.725C554.689 570.543 554.429 570.413 554.169 570.387L547.739 569.318C547.192 569.214 546.646 569.006 546.177 568.693C545.709 568.381 545.318 567.964 545.006 567.469C544.746 566.974 544.563 566.401 544.537 565.828C544.511 565.254 544.589 564.681 544.798 564.16V563.952L550.707 554.209C550.785 554.053 550.915 553.922 551.045 553.844C551.175 553.74 551.331 553.662 551.514 553.636C551.696 553.61 551.852 553.61 552.034 553.636C552.19 553.662 552.373 553.74 552.503 553.818C552.659 553.896 552.789 554 552.893 554.157C552.997 554.287 553.075 554.443 553.127 554.626C553.18 554.808 553.18 554.964 553.153 555.147C553.127 555.329 553.075 555.485 552.971 555.616L547.192 565.228C547.14 565.385 547.114 565.541 547.114 565.697C547.114 565.854 547.166 566.01 547.244 566.166C547.323 566.323 547.453 566.453 547.609 566.557C547.765 566.661 547.921 566.739 548.104 566.765L554.533 567.755C555.34 567.886 556.095 568.276 556.694 568.85C557.292 569.423 557.657 570.178 557.787 571.012L558.047 572.549C558.151 573.226 558.542 573.799 559.088 574.19C559.635 574.581 560.312 574.763 560.989 574.659L571.323 571.95C571.661 571.871 572.026 571.924 572.338 572.08C572.65 572.262 572.885 572.523 572.989 572.861C573.067 573.2 573.015 573.591 572.833 573.903C572.651 574.216 572.364 574.424 572 574.529L561.457 577.238L560.624 577.29Z" fill="#0550FC"/>
<path d="M571.765 591.436H570.178L514.185 589.977C509.031 589.378 504.71 585.6 502.524 579.765C502.393 579.4 502.341 579.035 502.419 578.644C502.498 578.254 502.654 577.915 502.914 577.629C503.174 577.342 503.487 577.134 503.851 577.003C504.216 576.899 504.606 576.873 504.971 576.951C531.47 582.526 581.397 579.739 581.839 579.739H582.438L583.766 581.067L583.635 581.797C583.141 584.558 581.657 587.033 579.471 588.804C577.284 590.576 574.551 591.514 571.765 591.436ZM514.42 587.241L570.36 588.7C575.982 589.299 579.497 586.121 580.694 582.396C572.807 582.787 529.986 584.584 505.335 579.687C507.261 584.063 510.515 586.798 514.42 587.241Z" fill="#0B0B0B"/>
<path d="M567.522 590.029C567.158 590.029 566.82 589.899 566.585 589.638C566.325 589.378 566.195 589.065 566.195 588.7V582.995C566.195 582.63 566.325 582.318 566.585 582.057C566.846 581.797 567.184 581.667 567.522 581.667C567.861 581.667 568.199 581.797 568.46 582.057C568.694 582.318 568.85 582.63 568.85 582.995V588.7C568.85 589.065 568.72 589.378 568.46 589.638C568.199 589.899 567.861 590.029 567.522 590.029Z" fill="#0B0B0B"/>
<path d="M555.184 589.716C554.846 589.69 554.507 589.56 554.273 589.299C554.039 589.065 553.882 588.726 553.856 588.388V583.073C553.856 582.735 553.987 582.396 554.247 582.135C554.507 581.875 554.846 581.745 555.184 581.745C555.522 581.745 555.861 581.875 556.121 582.135C556.381 582.396 556.512 582.735 556.512 583.073V588.388C556.512 588.57 556.486 588.726 556.433 588.883C556.381 589.039 556.277 589.195 556.173 589.325C556.069 589.456 555.913 589.534 555.757 589.612C555.6 589.69 555.418 589.716 555.262 589.716H555.184Z" fill="#0B0B0B"/>
<path d="M542.924 589.377C542.559 589.377 542.221 589.247 541.986 588.987C541.726 588.726 541.596 588.414 541.596 588.049L541.466 582.943C541.466 582.578 541.596 582.266 541.856 582.005C542.091 581.745 542.429 581.614 542.793 581.614C543.158 581.614 543.47 581.745 543.731 582.005C543.991 582.266 544.121 582.578 544.121 582.943L544.251 588.049C544.251 588.414 544.121 588.726 543.861 588.987C543.6 589.247 543.262 589.377 542.924 589.377Z" fill="#0B0B0B"/>
<path d="M529.674 588.987C529.309 588.987 528.971 588.857 528.737 588.596C528.476 588.336 528.346 587.997 528.346 587.658V582.474C528.346 582.135 528.476 581.797 528.737 581.536C528.997 581.276 529.335 581.146 529.674 581.146C529.83 581.146 530.012 581.172 530.168 581.224C530.325 581.276 530.481 581.38 530.611 581.484C530.741 581.614 530.845 581.745 530.897 581.901C530.975 582.057 531.001 582.214 531.001 582.396V587.632C531.001 587.971 530.871 588.31 530.611 588.57C530.351 588.831 530.012 588.987 529.674 588.987Z" fill="#0B0B0B"/>
<path d="M540.138 555.147C539.019 555.147 537.925 554.704 537.145 553.896C536.364 553.115 535.895 552.021 535.895 550.901C535.895 549.78 536.338 548.686 537.145 547.905C537.951 547.097 539.019 546.654 540.138 546.654C541.257 546.654 542.351 547.097 543.132 547.905C543.939 548.712 544.381 549.78 544.381 550.901C544.381 552.021 543.939 553.115 543.132 553.896C542.351 554.704 541.257 555.147 540.138 555.147ZM540.138 549.312C539.722 549.312 539.305 549.494 539.019 549.78C538.706 550.067 538.55 550.484 538.55 550.901C538.55 551.317 538.732 551.734 539.019 552.021C539.305 552.307 539.722 552.49 540.138 552.49C540.555 552.49 540.971 552.333 541.257 552.021C541.544 551.708 541.726 551.317 541.726 550.901C541.726 550.484 541.544 550.067 541.257 549.78C540.971 549.494 540.555 549.312 540.138 549.312Z" fill="#0550FC"/>
<path d="M406.6 610.401C406.236 610.401 405.898 610.27 405.663 610.01C405.403 609.749 405.273 609.437 405.273 609.072L405.481 464.749C405.481 464.385 405.611 464.072 405.872 463.812C406.106 463.551 406.444 463.421 406.809 463.421C407.173 463.421 407.485 463.551 407.746 463.812C408.006 464.072 408.136 464.385 408.136 464.749L407.928 609.072C407.928 609.437 407.798 609.749 407.537 610.01C407.277 610.27 406.939 610.401 406.6 610.401Z" fill="#0B0B0B"/>
<path d="M377.888 610.323C377.524 610.323 377.186 610.192 376.951 609.932C376.691 609.671 376.561 609.359 376.561 608.994L378.357 463.994C378.357 463.812 378.383 463.655 378.461 463.499C378.539 463.343 378.617 463.213 378.747 463.082C378.878 462.978 379.034 462.874 379.19 462.822C379.346 462.77 379.528 462.744 379.685 462.744H379.763C379.945 462.744 380.101 462.77 380.257 462.848C380.413 462.926 380.544 463.004 380.674 463.134C380.804 463.265 380.882 463.395 380.934 463.577C380.986 463.734 381.012 463.916 381.012 464.072L379.216 608.994C379.216 609.359 379.086 609.671 378.826 609.932C378.591 610.192 378.253 610.323 377.888 610.323Z" fill="#0B0B0B"/>
<path d="M307.059 535.374C306.72 535.374 306.408 535.217 306.148 534.983C305.913 534.749 305.757 534.436 305.731 534.097C305.731 533.915 305.757 533.759 305.809 533.576C305.861 533.42 305.965 533.264 306.07 533.133C306.174 533.003 306.33 532.899 306.486 532.821C306.642 532.743 306.825 532.717 306.981 532.691L377.29 529.643C377.628 529.643 377.967 529.773 378.227 530.007C378.487 530.242 378.643 530.554 378.669 530.919C378.643 531.284 378.513 531.596 378.279 531.857C378.045 532.117 377.706 532.274 377.368 532.3L307.111 535.348H307.059V535.374Z" fill="#0B0B0B"/>
<path d="M307.97 563.04C307.631 563.04 307.293 562.91 307.059 562.675C306.798 562.441 306.668 562.128 306.642 561.79C306.616 561.607 306.642 561.425 306.694 561.269C306.746 561.086 306.851 560.956 306.955 560.8C307.085 560.669 307.215 560.565 307.371 560.487C307.527 560.409 307.71 560.383 307.892 560.383L377.16 557.335C377.342 557.335 377.498 557.361 377.68 557.413C377.836 557.465 377.993 557.569 378.123 557.674C378.253 557.778 378.357 557.934 378.435 558.09C378.513 558.247 378.565 558.429 378.565 558.585C378.565 558.924 378.435 559.263 378.201 559.523C377.967 559.784 377.654 559.94 377.29 559.966L308.022 563.014H307.97V563.04Z" fill="#0B0B0B"/>
<path d="M407.928 529.825C407.746 529.825 407.59 529.799 407.433 529.747C407.277 529.695 407.121 529.591 406.991 529.486C406.861 529.382 406.757 529.226 406.704 529.07C406.626 528.913 406.6 528.731 406.6 528.575C406.6 528.392 406.626 528.236 406.678 528.054C406.73 527.897 406.835 527.741 406.939 527.611C407.043 527.48 407.199 527.376 407.355 527.298C407.511 527.22 407.694 527.194 407.85 527.168L471.677 524.38H471.729C471.912 524.38 472.068 524.406 472.224 524.459C472.38 524.511 472.536 524.615 472.666 524.719C472.797 524.849 472.901 524.98 472.953 525.136C473.031 525.292 473.057 525.448 473.057 525.631C473.057 525.813 473.031 525.97 472.979 526.152C472.927 526.308 472.823 526.464 472.718 526.595C472.588 526.725 472.458 526.829 472.302 526.907C472.146 526.985 471.964 527.012 471.807 527.038L407.98 529.825H407.928Z" fill="#0B0B0B"/>
<path d="M408.449 558.064C408.11 558.064 407.798 557.908 407.538 557.674C407.303 557.439 407.147 557.127 407.121 556.788C407.121 556.605 407.147 556.423 407.199 556.267C407.251 556.084 407.355 555.954 407.486 555.824C407.616 555.694 407.746 555.59 407.928 555.511C408.084 555.433 408.266 555.407 408.449 555.407L470.142 552.828C470.324 552.828 470.48 552.854 470.636 552.906C470.792 552.958 470.949 553.063 471.079 553.167C471.209 553.297 471.313 553.427 471.365 553.584C471.443 553.74 471.469 553.922 471.469 554.079C471.469 554.261 471.443 554.443 471.391 554.6C471.339 554.756 471.235 554.912 471.131 555.042C471.027 555.173 470.87 555.277 470.714 555.355C470.558 555.433 470.376 555.459 470.22 555.485L408.527 558.064H408.449Z" fill="#0B0B0B"/>
<path d="M491.747 303.364C491.174 303.364 490.628 303.181 490.159 302.843C489.847 302.634 489.56 302.348 489.378 302.009C489.17 301.67 489.066 301.306 489.04 300.915L486.515 277.365C486.463 276.687 486.645 276.01 487.061 275.463C487.478 274.916 488.077 274.551 488.753 274.447C496.511 273.118 504.866 270.149 505.049 265.694C505.179 262.776 501.144 253.893 495.053 243.551C488.962 233.208 484.12 227.165 482.402 225.836C479.695 231.02 471.729 260.067 472.068 275.255C472.042 275.619 471.911 275.932 471.677 276.192C471.443 276.453 471.105 276.609 470.74 276.635C470.376 276.635 470.037 276.505 469.803 276.245C469.569 275.984 469.413 275.645 469.413 275.307C469.074 259.259 477.899 227.217 480.684 223.648C480.944 223.309 481.283 223.101 481.673 222.996C482.063 222.892 482.48 222.944 482.87 223.127C486.775 224.533 496.25 240.424 497.37 242.3C499.816 246.468 507.964 260.614 507.704 265.85C507.443 273.223 494.662 276.14 489.222 277.052H489.144L491.669 300.602L492.007 301.931L491.747 300.654C497.916 299.143 529.127 291.25 535.01 280.569C535.453 279.84 535.739 279.006 535.843 278.146C535.947 277.287 535.869 276.427 535.609 275.593C508.25 192.491 490.081 182.669 489.951 182.617C489.638 182.461 489.378 182.2 489.248 181.862C489.118 181.523 489.144 181.158 489.3 180.82C489.456 180.481 489.717 180.247 490.055 180.116C490.393 179.986 490.758 180.012 491.096 180.142C491.825 180.533 510.177 189.833 538.16 274.786C538.55 275.958 538.68 277.208 538.55 278.433C538.42 279.657 538.004 280.83 537.379 281.898C531.079 293.178 501.326 301.071 492.372 303.259L491.747 303.364Z" fill="#0B0B0B"/>
<path d="M10.2822 608.734C8.9546 608.734 7.65306 608.395 6.50771 607.744C5.33633 607.119 4.37319 606.181 3.64433 605.087C2.91547 603.967 2.49897 602.69 2.39485 601.388C2.29073 600.059 2.52501 598.73 3.07165 597.532L18.3777 563.119C19.0025 561.738 20.0177 560.592 21.2932 559.758C22.5427 558.924 24.0264 558.455 25.5362 558.429L226.207 555.512H226.337C227.509 555.512 228.68 555.772 229.747 556.267C230.815 556.762 231.752 557.518 232.507 558.429L260.464 593.051C261.401 594.223 261.974 595.63 262.156 597.089C262.338 598.574 262.078 600.059 261.453 601.414C260.828 602.768 259.813 603.914 258.563 604.696C257.314 605.504 255.856 605.946 254.373 605.972L10.4123 608.734H10.2822ZM226.337 558.143H226.259L25.5883 561.061C24.5731 561.061 23.5839 561.373 22.7509 561.92C21.8919 562.467 21.2411 563.249 20.8246 564.187L5.44045 598.6C5.07602 599.408 4.91983 600.319 4.99793 601.205C5.07602 602.091 5.36236 602.951 5.83091 603.706C6.29946 604.462 6.97626 605.087 7.75719 605.504C8.53811 605.92 9.42315 606.129 10.3342 606.103L254.294 603.315C255.31 603.315 256.299 603.055 257.132 602.508C257.965 601.961 258.642 601.179 259.058 600.267C259.475 599.382 259.631 598.366 259.527 597.402C259.422 596.412 259.006 595.474 258.407 594.718L230.424 560.097C229.93 559.471 229.305 559.003 228.602 558.664C227.899 558.299 227.118 558.117 226.337 558.143Z" fill="#0B0B0B"/>
<path d="M55.862 588.44L65.2591 571.663C65.6496 571.038 66.1702 570.543 66.821 570.204C67.4717 569.865 68.1746 569.709 68.9034 569.735L191.899 568.276C193.096 568.276 194.242 568.693 195.153 569.475L212.255 586.33C214.389 588.44 212.515 591.644 209.131 591.644L59.6104 592.973C56.669 593.025 54.6646 590.576 55.862 588.44Z" fill="#0550FC"/>
<path d="M369.481 457.247L371.589 417.389C371.615 416.842 371.537 416.321 371.355 415.826C371.173 415.331 370.886 414.862 370.522 414.471C370.157 414.08 369.715 413.768 369.22 413.559C368.726 413.351 368.205 413.221 367.658 413.221L279.57 411.371C279.024 411.345 278.477 411.449 277.983 411.658C277.462 411.866 277.019 412.153 276.629 412.543C276.238 412.934 275.926 413.377 275.744 413.898C275.536 414.393 275.458 414.94 275.458 415.487L276.707 456.283C276.733 457.325 277.176 458.289 277.904 459.018C278.659 459.748 279.648 460.139 280.664 460.139L365.42 460.998C365.914 461.024 366.435 460.946 366.904 460.764C367.372 460.581 367.815 460.321 368.179 459.982C368.544 459.644 368.856 459.227 369.064 458.758C369.35 458.263 369.455 457.768 369.481 457.247Z" fill="#DCE0FF"/>
<path d="M365.498 462.301H365.42L280.716 461.441C279.362 461.441 278.035 460.894 277.071 459.957C276.082 458.993 275.536 457.69 275.484 456.335L274.156 415.54C274.156 414.081 274.703 412.7 275.692 411.632C276.212 411.111 276.811 410.72 277.488 410.434C278.165 410.147 278.868 410.017 279.596 410.043L367.737 411.892C369.168 411.945 370.548 412.57 371.511 413.612C371.98 414.133 372.344 414.732 372.604 415.383C372.839 416.035 372.943 416.738 372.917 417.441L370.782 457.299C370.704 458.654 370.131 459.93 369.142 460.868C368.179 461.806 366.852 462.301 365.498 462.301ZM279.492 412.674C279.154 412.674 278.789 412.752 278.477 412.882C278.165 413.013 277.878 413.221 277.644 413.482C277.384 413.742 277.176 414.055 277.045 414.393C276.915 414.732 276.837 415.097 276.863 415.461L278.113 456.179C278.139 456.856 278.425 457.508 278.946 458.003C279.44 458.472 280.091 458.758 280.768 458.758L365.524 459.618C365.862 459.618 366.201 459.566 366.513 459.436C366.826 459.305 367.112 459.123 367.372 458.888C367.632 458.654 367.815 458.367 367.945 458.055C368.075 457.742 368.153 457.404 368.179 457.065L370.288 417.259C370.314 416.894 370.262 416.556 370.131 416.217C370.001 415.878 369.819 415.592 369.559 415.331C369.324 415.071 369.038 414.836 368.726 414.706C368.413 414.55 368.049 414.472 367.711 414.472L279.57 412.622H279.492V412.674Z" fill="#0B0B0B"/>
<path d="M342.044 422.834L356.621 422.964C357.038 422.99 357.454 423.146 357.741 423.433C358.053 423.72 358.235 424.11 358.261 424.553L358.912 435.104C358.912 435.338 358.886 435.547 358.808 435.781C358.73 435.99 358.6 436.198 358.443 436.354C358.287 436.511 358.105 436.667 357.897 436.745C357.689 436.849 357.48 436.901 357.246 436.901L342.409 437.032C341.966 437.032 341.524 436.849 341.211 436.563C340.899 436.25 340.691 435.833 340.691 435.39L340.3 424.579C340.3 424.345 340.326 424.136 340.404 423.902C340.482 423.667 340.612 423.485 340.769 423.329C340.925 423.172 341.133 423.042 341.341 422.964C341.576 422.86 341.81 422.808 342.044 422.834Z" fill="#0550FC"/>
<path d="M313.801 426.533L287.744 426.272C287.38 426.272 287.041 426.142 286.807 425.882C286.573 425.621 286.416 425.282 286.416 424.944C286.416 424.605 286.547 424.266 286.807 424.006C287.067 423.745 287.406 423.615 287.744 423.615L313.801 423.876C313.983 423.876 314.139 423.902 314.321 423.954C314.478 424.006 314.634 424.11 314.764 424.24C314.894 424.371 314.972 424.527 315.05 424.683C315.102 424.84 315.128 425.022 315.128 425.204C315.128 425.543 314.998 425.882 314.738 426.142C314.504 426.403 314.165 426.533 313.801 426.533Z" fill="#0B0B0B"/>
<path d="M311.692 436.015L296.126 435.807C295.761 435.807 295.423 435.677 295.189 435.416C294.928 435.156 294.798 434.843 294.798 434.478C294.824 434.14 294.955 433.801 295.215 433.567C295.449 433.332 295.788 433.176 296.126 433.15L311.692 433.358C312.031 433.358 312.369 433.489 312.629 433.749C312.89 434.01 313.02 434.322 313.02 434.687C313.02 435.026 312.89 435.364 312.629 435.625C312.369 435.885 312.031 436.015 311.692 436.015Z" fill="#0B0B0B"/>
<path d="M133.876 89.3286H111.542C107.143 89.3286 103.602 92.8976 103.602 97.3002V107.799C103.602 112.201 107.169 115.744 111.542 115.744H133.876C138.275 115.744 141.816 112.175 141.816 107.799V97.3002C141.816 92.8976 138.275 89.3286 133.876 89.3286Z" fill="#0550FC"/>
<path d="M133.017 101.156H114.067C113.885 101.156 113.702 101.13 113.546 101.078C113.39 101 113.234 100.922 113.104 100.792C112.974 100.661 112.869 100.505 112.817 100.349C112.765 100.192 112.739 100.01 112.739 99.8276C112.739 99.4629 112.869 99.1242 113.13 98.8898C113.39 98.6293 113.702 98.499 114.067 98.499H133.017C133.356 98.499 133.694 98.6293 133.954 98.8898C134.215 99.1503 134.345 99.489 134.345 99.8276C134.345 100.01 134.319 100.192 134.267 100.349C134.215 100.505 134.111 100.661 133.98 100.792C133.85 100.922 133.694 101 133.538 101.078C133.356 101.13 133.199 101.156 133.017 101.156Z" fill="#0B0B0B"/>
<path d="M476.988 360.936H476.597C462.41 355.83 461.551 335.198 461.551 334.338C461.525 334.208 461.551 334.078 461.577 333.948C461.603 333.817 461.681 333.687 461.76 333.609C461.838 333.505 461.968 333.427 462.072 333.375C462.202 333.322 462.332 333.296 462.462 333.296C462.723 333.296 462.983 333.401 463.191 333.583C463.4 333.765 463.504 334.026 463.53 334.286C463.53 334.495 464.337 354.45 477.326 359.087C477.534 359.165 477.716 359.321 477.821 359.53C477.925 359.738 477.977 359.973 477.925 360.181C477.873 360.415 477.768 360.624 477.586 360.754C477.404 360.91 477.196 360.989 476.962 360.989V360.936H476.988Z" fill="white"/>
<path d="M402.748 363.464C402.436 363.464 402.149 363.333 401.941 363.125C401.759 362.917 401.681 362.63 401.707 362.369C401.733 362.109 401.863 361.848 402.071 361.666C406.835 357.42 404.778 343.352 403.529 338.246C403.503 338.012 403.555 337.751 403.685 337.543C403.815 337.334 404.023 337.204 404.284 337.152C404.518 337.1 404.778 337.126 404.987 337.256C405.195 337.361 405.377 337.569 405.455 337.803C405.663 338.611 410.036 357.237 403.399 363.203C403.216 363.359 402.982 363.438 402.748 363.464Z" fill="white"/>
</g>
<defs>
<clipPath id="clip0_52_130">
<rect width="584" height="611" fill="white"/>
</clipPath>
</defs>
</svg>
