<svg width="682" height="603" viewBox="0 0 682 603" fill="none" xmlns="http://www.w3.org/2000/svg">
<g clip-path="url(#clip0_8_1439)">
<path d="M459.735 281.18H459.583C457.73 281.027 413.942 277.647 400.463 275.334C386.984 273.021 377.744 248.672 367.971 210.446C359.67 177.456 344.186 177.151 343.957 177.151C343.551 177.151 343.145 176.999 342.866 176.694C342.587 176.414 342.409 176.007 342.409 175.601C342.409 175.397 342.434 175.194 342.485 175.016C342.561 174.838 342.663 174.66 342.79 174.508C342.916 174.355 343.094 174.254 343.272 174.177C343.45 174.101 343.653 174.05 343.856 174.05C344.617 174.05 361.955 174.05 370.966 209.658C379.978 245.267 388.735 270.098 400.996 272.233C413.231 274.394 459.354 278.104 459.811 278.104C460.217 278.13 460.598 278.333 460.877 278.663C461.157 278.968 461.283 279.401 461.258 279.807C461.233 280.188 461.055 280.544 460.75 280.798C460.446 281.053 460.116 281.18 459.735 281.18Z" fill="#0B0B0B"/>
<path d="M246.05 135.189H160.759C155.657 135.189 151.519 139.332 151.519 144.44V190.876C151.519 195.985 155.657 200.127 160.759 200.127H246.05C251.152 200.127 255.29 195.985 255.29 190.876V144.44C255.265 139.332 251.152 135.189 246.05 135.189Z" fill="#DCE0FF"/>
<path d="M246.05 201.729H160.759C157.89 201.729 155.149 200.585 153.144 198.577C151.113 196.544 149.996 193.799 149.996 190.952V144.441C149.996 141.569 151.138 138.824 153.144 136.816C155.174 134.782 157.916 133.664 160.759 133.664H246.05C248.918 133.664 251.66 134.808 253.665 136.816C255.696 138.849 256.813 141.594 256.813 144.441V190.927C256.813 193.799 255.671 196.544 253.665 198.552C251.635 200.585 248.893 201.729 246.05 201.729ZM160.733 136.739C158.703 136.739 156.723 137.553 155.301 139.001C153.854 140.45 153.042 142.407 153.042 144.466V190.952C153.042 192.986 153.854 194.968 155.301 196.417C156.748 197.865 158.703 198.679 160.733 198.679H246.025C248.055 198.679 250.01 197.865 251.457 196.417C252.904 194.968 253.716 193.011 253.716 190.952V144.441C253.716 142.407 252.904 140.425 251.457 138.976C250.01 137.527 248.055 136.714 246.025 136.714H160.733V136.739Z" fill="#0B0B0B"/>
<path d="M538.426 287.127C528.958 287.127 521.267 278.257 521.267 267.328C521.267 256.373 528.958 247.452 538.426 247.452C547.895 247.452 555.586 256.399 555.586 267.328C555.586 278.257 547.895 287.127 538.426 287.127ZM538.426 250.502C530.659 250.502 524.338 258.051 524.338 267.302C524.338 276.554 530.659 284.026 538.426 284.026C546.194 284.026 552.515 276.477 552.515 267.302C552.515 258.127 546.194 250.502 538.426 250.502Z" fill="#0B0B0B"/>
<path d="M680.452 502.631H53.0532C52.6471 502.631 52.2409 502.479 51.9617 502.174C51.6824 501.894 51.5048 501.487 51.5048 501.081C51.5048 500.674 51.6571 500.267 51.9617 499.988C52.2409 499.708 52.6471 499.53 53.0532 499.53H680.477C680.883 499.53 681.264 499.683 681.568 499.988C681.848 500.267 682.025 500.674 682.025 501.081C682.025 501.487 681.873 501.894 681.568 502.174C681.264 502.479 680.858 502.631 680.452 502.631Z" fill="#0B0B0B"/>
<path d="M456.283 269.387C455.877 268.141 455.851 266.82 456.156 265.574C456.486 264.329 457.171 263.185 458.11 262.296C463.111 257.746 473.036 250.655 481.515 257.822C493.065 267.608 500.071 267.836 513.067 245.801C513.677 244.759 514.591 243.92 515.682 243.411C520.454 241.327 533.476 236.473 536.319 243.64C539.848 252.51 543.402 293.278 538.096 294.422C532.791 295.591 526.318 286.187 515.707 289.11C505.097 292.033 503.396 291.499 508.625 304.436C513.854 317.398 548.199 406.024 524.034 470.938C524.034 470.938 463.289 547.085 432.574 541.773C401.859 536.461 292.224 540.858 292.224 540.858L171.979 480.977C171.979 480.977 182.615 415.454 250.975 384.777L348.907 382.997C348.907 382.997 305.881 424.934 311.11 465.092C316.339 505.249 320.578 504.029 352.994 511.121C385.41 518.212 435.595 494.015 456.232 465.651C476.869 437.286 492.176 377.711 478.012 335.164C466.97 302.072 459.202 278.257 456.283 269.387Z" fill="#0550FC"/>
<path d="M352.664 364.672H153.956C148.904 364.672 144.792 368.789 144.792 373.847V378.524C144.792 383.582 148.904 387.699 153.956 387.699H352.639C357.69 387.699 361.802 383.582 361.802 378.524V373.847C361.828 368.764 357.715 364.672 352.664 364.672Z" fill="white"/>
<path d="M352.664 389.249H153.956C151.113 389.249 148.397 388.131 146.391 386.098C144.386 384.09 143.269 381.37 143.269 378.524V373.822C143.294 370.975 144.411 368.281 146.417 366.273C148.422 364.265 151.138 363.122 153.956 363.122H352.639C355.482 363.122 358.198 364.24 360.203 366.248C362.209 368.256 363.326 370.975 363.326 373.822V378.524C363.326 381.37 362.209 384.09 360.203 386.098C358.223 388.131 355.507 389.249 352.664 389.249ZM153.956 366.197C151.95 366.222 150.021 367.036 148.6 368.459C147.178 369.882 146.366 371.814 146.341 373.847V378.549C146.341 380.583 147.153 382.514 148.574 383.937C149.996 385.361 151.95 386.174 153.956 386.174H352.639C354.669 386.174 356.599 385.361 358.02 383.937C359.442 382.514 360.254 380.557 360.254 378.549V373.847C360.254 371.814 359.442 369.882 358.02 368.459C356.599 367.036 354.644 366.222 352.639 366.222H153.956V366.197Z" fill="#0B0B0B"/>
<path d="M446.586 304.537L433.818 315.263C433.361 315.669 433.005 316.203 432.802 316.762C432.599 317.347 432.548 317.957 432.65 318.567C433.183 321.032 434.655 324.743 439.047 325.734C439.986 325.887 440.951 325.658 441.738 325.124L455.369 315.186C455.8 314.856 456.156 314.424 456.384 313.916C456.613 313.407 456.74 312.874 456.74 312.34L456.511 305.172C456.486 304.613 456.334 304.054 456.054 303.571C455.775 303.063 455.369 302.656 454.912 302.351C454.43 302.046 453.897 301.868 453.313 301.818C452.754 301.767 452.171 301.868 451.663 302.097L447.348 304.105L446.586 304.537Z" fill="#0B0B0B"/>
<path d="M355.126 115.619C355.177 114.221 354.466 113.052 353.527 113.001C352.588 112.95 351.801 114.068 351.725 115.466C351.674 116.864 352.385 118.033 353.324 118.084C354.263 118.135 355.076 117.016 355.126 115.619Z" fill="#0B0B0B"/>
<path d="M358.655 109.925H358.579L349.872 109.467C349.364 109.417 348.907 109.188 348.577 108.832C348.247 108.451 348.07 107.968 348.095 107.485C348.095 107.231 348.146 106.977 348.247 106.748C348.349 106.519 348.501 106.316 348.679 106.138C348.856 105.96 349.085 105.833 349.339 105.757C349.593 105.68 349.846 105.63 350.1 105.655L358.731 106.113C359.239 106.113 359.721 106.341 360.076 106.697C360.432 107.078 360.609 107.561 360.609 108.07C360.609 108.578 360.381 109.061 360.026 109.417C359.67 109.722 359.162 109.925 358.655 109.925Z" fill="#0B0B0B"/>
<path d="M347.511 146.982H347.283C343.881 146.372 340.429 142.127 339.972 141.67C339.744 141.339 339.617 140.933 339.667 140.551C339.718 140.17 339.896 139.789 340.2 139.509C340.53 139.255 340.937 139.128 341.368 139.179C341.774 139.23 342.18 139.433 342.434 139.738C343.577 141.212 346.14 143.678 347.816 143.906C348.222 144.008 348.577 144.237 348.806 144.593C349.034 144.949 349.11 145.355 349.06 145.762C348.983 146.118 348.806 146.423 348.526 146.651C348.222 146.88 347.866 147.007 347.511 146.982Z" fill="#0B0B0B"/>
<path d="M340.023 159.944C336.24 159.944 332.636 158.394 329.082 155.242C328.93 155.115 328.803 154.937 328.701 154.759C328.625 154.581 328.574 154.378 328.549 154.175C328.549 153.971 328.574 153.768 328.651 153.59C328.727 153.412 328.828 153.234 328.981 153.082C329.26 152.777 329.615 152.599 330.021 152.574C330.427 152.548 330.834 152.675 331.138 152.929C334.692 156.157 338.373 157.403 342.079 156.716C351.776 154.785 358.934 140.069 359.01 139.916L359.619 138.671L360.939 139.052C362.412 139.586 364.239 139.967 365.102 139.128C365.94 138.29 365.483 132.113 364.189 128.809L364.036 128.428V127.971C365.255 120.956 364.036 104.384 363.96 104.156C363.96 103.952 363.985 103.749 364.062 103.571C364.138 103.393 364.239 103.19 364.366 103.063C364.493 102.91 364.671 102.783 364.849 102.707C365.026 102.631 365.229 102.58 365.432 102.554C365.635 102.529 365.839 102.554 366.016 102.605C366.219 102.656 366.397 102.758 366.524 102.885C366.676 103.012 366.803 103.164 366.879 103.342C366.981 103.52 367.006 103.724 367.032 103.927C367.108 104.613 368.352 120.498 367.184 128.123C368.022 130.436 370.408 137.908 367.26 141.238C365.864 142.712 363.884 143.093 361.168 142.382C359.086 146.169 352.156 157.809 342.536 159.716C341.723 159.868 340.886 159.944 340.023 159.944Z" fill="#0B0B0B"/>
<path d="M311.313 170.035H310.78C310.399 169.882 310.095 169.577 309.917 169.221C309.739 168.84 309.714 168.433 309.841 168.027C311.541 163.248 315.451 149.752 313.471 144.745V144.593C313.395 144.288 310.856 136.358 311.694 128.327C309.612 126.929 304.916 123.472 304.155 119.228C304.028 118.262 304.078 117.296 304.332 116.356C304.586 115.415 305.068 114.551 305.678 113.839C307.378 111.755 309.206 110.84 311.211 111.145C315.222 111.603 317.684 116.686 317.989 117.321C318.091 117.499 318.116 117.703 318.141 117.906C318.141 118.109 318.116 118.313 318.04 118.49C317.964 118.668 317.862 118.846 317.71 118.999C317.583 119.151 317.405 119.253 317.228 119.329C317.05 119.431 316.847 119.482 316.669 119.482C316.466 119.507 316.263 119.482 316.085 119.405C315.908 119.329 315.73 119.228 315.578 119.1C315.425 118.973 315.324 118.795 315.222 118.618C314.689 117.55 312.836 114.449 310.831 114.144C309.993 114.068 309.054 114.602 308.064 115.847C307.708 116.203 307.429 116.66 307.277 117.169C307.125 117.677 307.099 118.185 307.201 118.694C307.734 121.845 312.354 125.175 314.131 126.166L314.968 126.7L314.816 127.691C313.725 135.087 316.111 142.966 316.364 143.576C319.208 150.667 313.445 167.163 312.811 169.094C312.684 169.374 312.455 169.628 312.176 169.78C311.897 169.933 311.643 170.06 311.313 170.035Z" fill="#0B0B0B"/>
<path d="M314.486 146.067C314.486 146.067 306.236 140.907 302.708 134.274C299.179 127.64 295.245 104.766 297.555 101.207C299.865 97.6491 329.031 96.0479 329.031 99.9874C329.031 103.927 317.253 116.559 317.253 116.559C317.253 116.559 312.1 108.324 306.795 114.78C301.489 121.261 313.344 127.411 313.344 127.411L314.486 146.067Z" fill="#0B0B0B"/>
<path d="M363.985 325.277C364.036 324.972 364.163 324.692 364.315 324.438C364.493 324.184 364.696 323.955 364.95 323.803C365.204 323.625 365.483 323.523 365.788 323.447C366.092 323.396 366.397 323.371 366.702 323.447C380.028 326.294 439.834 340.095 439.148 361.749C438.311 386.174 405.743 466.896 405.743 466.896L361.701 468.447C361.701 468.447 376.246 394.053 388.024 386.988L360.457 384.599C360.457 384.599 357.309 364.952 329.057 366.477C300.804 368.027 270.089 369.628 267.703 357.073C265.317 344.517 261.458 314.526 289.711 314.526C316.542 314.475 361.346 337.604 363.985 325.277Z" fill="#0B0B0B"/>
<path d="M401.935 466.032L401.402 465.879C401.199 465.803 401.021 465.701 400.869 465.574C400.717 465.447 400.59 465.269 400.513 465.091C400.437 464.913 400.387 464.71 400.361 464.507C400.361 464.303 400.387 464.1 400.463 463.897C400.843 463.134 433.259 381.497 427.573 361.622C421.887 341.721 373.53 334.02 373.073 333.944C372.667 333.867 372.312 333.639 372.058 333.308C371.804 332.978 371.702 332.571 371.753 332.164C371.829 331.758 372.058 331.402 372.388 331.148C372.718 330.894 373.124 330.792 373.53 330.843C375.611 331.148 424.4 339.383 430.568 360.758C436.737 382.107 404.702 461.66 403.382 465.04C403.255 465.32 403.052 465.574 402.798 465.752C402.544 465.93 402.24 466.006 401.935 466.032Z" fill="white"/>
<path d="M299.306 327.895C292.3 327.895 269.048 327.666 265.977 325.2C264.911 324.362 263.286 323.04 268.744 295.286C271.663 280.951 275.14 266.235 276.587 261.533C278.06 256.831 277.603 249.13 277.349 239.039C277.044 223.688 276.587 204.728 280.116 189.63C284.964 168.814 293.976 166.044 297.682 165.892L300.905 165.587C306.82 164.748 321.391 166.044 327.381 196.721C329.311 206.964 329.996 216.927 330.681 226.636C332.382 251.392 333.677 270.962 355.634 275.817L360.33 276.884C394.04 284.357 407.824 287.61 410.286 291.905C412.749 296.226 418.587 313.865 415.059 318.109C414.627 318.643 414.018 318.999 413.333 319.126C412.673 319.253 411.962 319.177 411.353 318.872C409.5 318.262 401.503 317.474 392.187 316.559C369.24 314.322 337.84 311.247 328.981 304.537C318.192 296.302 295.727 279.095 288.34 226.763C288.315 226.56 288.315 226.357 288.366 226.153C288.416 225.95 288.493 225.772 288.619 225.594C288.746 225.416 288.899 225.289 289.076 225.188C289.254 225.086 289.457 225.01 289.66 224.984C290.066 224.933 290.473 225.035 290.803 225.289C291.133 225.543 291.361 225.899 291.437 226.306C298.596 277.418 320.451 294.066 330.935 302.072C339.007 308.248 371.271 311.399 392.517 313.484C403.839 314.551 410.388 315.263 412.47 316.025H412.774C414.399 313.941 410.236 297.827 407.697 293.354C405.768 290.05 385.435 285.5 359.746 279.782L355.05 278.714C330.884 273.402 329.336 251.748 327.635 226.763C326.95 217.131 326.239 207.269 324.31 197.255C318.928 169.119 306.465 167.823 301.286 168.586L297.834 168.891C294.915 169.043 287.528 171.432 283.136 190.24C279.684 204.956 280.141 223.764 280.446 238.887C280.674 249.689 280.827 258.229 279.608 262.397C275.978 273.961 266.662 317.804 268.058 322.837C270.52 324.006 285.675 324.768 299.306 324.768C299.509 324.768 299.712 324.794 299.916 324.87C300.093 324.946 300.271 325.048 300.423 325.2C300.575 325.353 300.677 325.505 300.753 325.709C300.829 325.912 300.855 326.115 300.855 326.319C300.855 326.522 300.829 326.725 300.753 326.929C300.677 327.132 300.575 327.31 300.423 327.463C300.271 327.615 300.119 327.742 299.916 327.818C299.712 327.844 299.509 327.895 299.306 327.895Z" fill="#0B0B0B"/>
<path d="M330.732 179.133C321.568 179.133 316.568 175.982 316.263 175.829C316.085 175.728 315.933 175.575 315.831 175.397C315.73 175.219 315.628 175.041 315.578 174.838C315.527 174.635 315.527 174.431 315.578 174.228C315.603 174.025 315.679 173.821 315.806 173.669C315.908 173.491 316.06 173.339 316.238 173.237C316.415 173.11 316.593 173.034 316.796 172.983C316.999 172.932 317.202 172.932 317.405 172.983C317.608 173.008 317.786 173.084 317.964 173.211C318.04 173.288 326.747 178.6 342.206 174.431C341.673 170.822 340.505 161.495 342.282 157.631C342.358 157.453 342.485 157.275 342.637 157.123C342.79 156.97 342.967 156.869 343.145 156.793C343.348 156.716 343.551 156.691 343.754 156.691C343.957 156.691 344.16 156.742 344.338 156.843C344.693 157.021 344.998 157.326 345.125 157.682C345.277 158.063 345.252 158.47 345.1 158.851C343.627 162.079 344.871 171.788 345.48 175.27L345.709 176.668L344.389 177.049C339.972 178.396 335.352 179.083 330.732 179.133Z" fill="#0B0B0B"/>
<path d="M366.6 278.867H366.448C366.245 278.842 366.042 278.791 365.864 278.689C365.686 278.587 365.534 278.46 365.407 278.308C365.28 278.155 365.179 277.977 365.128 277.774C365.077 277.571 365.052 277.367 365.077 277.164C365.61 270.836 362.158 221.198 362.082 220.74C362.056 220.537 362.082 220.333 362.133 220.13C362.183 219.927 362.31 219.749 362.437 219.596C362.564 219.444 362.742 219.317 362.945 219.241C363.122 219.164 363.326 219.113 363.554 219.113C363.757 219.088 363.96 219.113 364.138 219.164C364.316 219.215 364.493 219.317 364.646 219.444C364.798 219.571 364.925 219.723 365.001 219.901C365.077 220.079 365.128 220.283 365.153 220.486C365.306 222.57 368.707 270.886 368.072 277.444C368.047 277.825 367.895 278.181 367.616 278.435C367.336 278.74 366.956 278.867 366.6 278.867Z" fill="#0B0B0B"/>
<path d="M365.204 328.276C364.798 328.276 364.392 328.123 364.112 327.818C363.833 327.513 363.655 327.132 363.655 326.725L363.275 312.772C363.224 312.543 363.199 312.314 363.249 312.086C363.3 311.857 363.402 311.654 363.529 311.476C363.681 311.298 363.859 311.145 364.062 311.044C364.265 310.942 364.493 310.891 364.722 310.866C364.95 310.866 365.179 310.917 365.382 310.993C365.585 311.094 365.788 311.222 365.915 311.399C366.067 311.577 366.169 311.781 366.219 312.009C366.27 312.238 366.27 312.467 366.245 312.696L366.702 326.649C366.676 327.056 366.524 327.463 366.245 327.742C365.991 328.073 365.61 328.25 365.204 328.276Z" fill="#0B0B0B"/>
<path d="M447.424 545.966C446.484 545.788 445.621 545.33 444.987 544.644C444.327 543.958 443.921 543.068 443.819 542.128C442.423 531.961 441.357 499.886 478.621 476.3C522.663 448.469 578.61 483.315 583.94 537.731C584.017 538.646 583.839 539.561 583.382 540.374C582.95 541.188 582.29 541.848 581.478 542.28C571.68 547.491 533.578 562.995 447.424 545.966Z" fill="white"/>
<path d="M518.55 555.217C499.614 555.217 476.057 553.209 447.119 547.516C445.875 547.237 444.758 546.601 443.895 545.686C443.032 544.771 442.474 543.602 442.271 542.357C440.976 532.648 439.504 499.2 477.758 474.978C497.075 462.804 520.251 461.635 541.193 471.979C565.74 483.925 582.697 509.138 585.463 537.578C585.565 538.798 585.311 539.993 584.727 541.061C584.143 542.128 583.28 542.992 582.214 543.577C575.665 547.033 556.348 555.217 518.55 555.217ZM511.849 468.04C500.324 468.09 489.079 471.42 479.357 477.596C442.728 500.801 444.022 532.699 445.342 541.95C445.444 542.56 445.723 543.119 446.154 543.577C446.586 544.034 447.119 544.339 447.728 544.492C533.324 561.368 571.223 545.966 580.742 540.883C581.275 540.578 581.707 540.146 581.986 539.612C582.265 539.078 582.392 538.468 582.367 537.883C579.676 510.434 563.43 486.238 539.873 474.75C531.166 470.378 521.597 468.09 511.849 468.04Z" fill="#0B0B0B"/>
<path d="M154.895 547.033C154.007 546.805 153.22 546.347 152.636 545.661C152.027 544.975 151.646 544.136 151.519 543.246C149.97 531.072 147.28 485.196 189.24 451.9C237.419 413.598 298.799 461.991 303.952 537.223C304.002 538.061 303.825 538.9 303.469 539.637C303.114 540.4 302.555 541.035 301.895 541.518C292.3 548.279 250.975 571.001 154.895 547.033Z" fill="white"/>
<path d="M232.952 559.284C212.238 559.284 186.371 556.438 154.514 548.584C153.346 548.279 152.28 547.618 151.468 546.703C150.681 545.788 150.173 544.645 150.047 543.425C148.27 530.157 146.036 484.306 188.301 450.706C206.78 436.066 228.332 432.966 249.121 442.141C263.895 448.698 277.07 460.873 287.147 477.368C297.225 493.863 303.926 515.136 305.398 537.096C305.475 538.214 305.272 539.333 304.789 540.324C304.332 541.34 303.596 542.205 302.682 542.865C295.702 547.796 274.683 559.284 232.952 559.284ZM225.413 440.057C213.177 440.057 201.094 444.454 190.154 453.172C149.209 485.704 151.417 530.183 153.042 543.043C153.118 543.628 153.372 544.187 153.778 544.645C154.184 545.102 154.692 545.407 155.276 545.585C186.905 553.439 212.543 556.311 233.028 556.311C273.744 556.311 294.153 545.127 300.931 540.349C301.413 540.019 301.819 539.587 302.073 539.053C302.327 538.519 302.454 537.935 302.403 537.35C299.484 495.261 277.628 458.102 247.903 445.013C240.821 441.785 233.155 440.082 225.413 440.057Z" fill="#0B0B0B"/>
<path d="M411.556 295.591C411.556 295.591 429.249 301.538 443.819 291.651C458.364 281.79 469.762 295.21 470.143 303.826C470.523 312.467 463.441 321.541 458.364 318.389C458.364 318.389 456.74 318.389 454.43 308.604C452.12 298.819 438.717 310.154 438.717 310.154L415.465 311.298L411.556 295.591Z" fill="white"/>
<path d="M460.598 320.651C459.608 320.651 458.618 320.397 457.755 319.889C456.511 319.507 454.912 317.347 452.907 308.934C452.374 306.774 451.358 306.393 450.977 306.316C448.134 305.401 442.575 308.934 439.656 311.323L439.275 311.705L414.323 312.925L409.398 293.278L412.013 294.117C412.241 294.193 429.172 299.657 442.956 290.406C450.724 285.094 457.197 286.39 461.131 288.398C467.68 291.626 471.437 298.717 471.666 303.826C471.894 308.909 468.67 316.94 464.126 319.558C463.06 320.245 461.842 320.626 460.598 320.651ZM458.973 317.042H459.126C460.141 317.652 461.309 317.576 462.578 316.813C465.65 315.034 468.823 309.57 468.569 303.851C468.416 299.683 465.04 293.761 459.786 291.067C456.486 289.44 451.231 288.449 444.606 292.922C432.828 300.852 419.272 299.022 413.663 297.7L416.658 309.722L438.057 308.655C439.986 307.028 446.992 301.716 451.917 303.343C453.313 303.8 455.064 304.969 455.851 308.197C457.501 314.882 458.669 316.635 458.973 317.042Z" fill="#0B0B0B"/>
<path d="M464.203 318.796H464.05C463.847 318.77 463.644 318.694 463.467 318.593C463.289 318.491 463.137 318.338 463.01 318.186C462.883 318.033 462.807 317.83 462.756 317.627C462.705 317.423 462.705 317.22 462.73 317.017C464.05 307.155 460.801 304.842 460.725 304.842C460.42 304.639 460.192 304.309 460.09 303.927C459.989 303.546 460.065 303.165 460.243 302.835C460.42 302.504 460.725 302.25 461.08 302.123C461.436 301.996 461.842 302.021 462.197 302.174C462.73 302.479 467.426 305.402 465.726 317.5C465.675 317.881 465.472 318.211 465.193 318.44C464.939 318.669 464.583 318.796 464.203 318.796Z" fill="#0B0B0B"/>
<path d="M254.884 363.274H147.965C146.518 363.274 145.122 362.69 144.107 361.673C143.091 360.656 142.507 359.258 142.507 357.81V284.586C142.507 283.137 143.091 281.739 144.107 280.722C145.122 279.706 146.518 279.121 147.965 279.121H254.884C256.331 279.121 257.727 279.706 258.742 280.722C259.758 281.739 260.341 283.137 260.341 284.586V357.81C260.341 359.258 259.758 360.656 258.742 361.673C257.727 362.69 256.331 363.274 254.884 363.274ZM147.965 282.196C147.33 282.196 146.721 282.451 146.264 282.908C145.807 283.366 145.579 283.976 145.579 284.586V357.81C145.579 358.445 145.833 359.055 146.264 359.513C146.721 359.945 147.33 360.199 147.965 360.199H254.884C255.518 360.199 256.128 359.945 256.584 359.513C257.041 359.055 257.27 358.445 257.27 357.81V284.586C257.27 283.95 257.016 283.34 256.584 282.908C256.128 282.451 255.518 282.196 254.884 282.196H147.965Z" fill="#0B0B0B"/>
<path d="M237.191 199.949H130.247C128.089 199.949 126.312 201.703 126.312 203.889V277.113C126.312 279.273 128.064 281.052 130.247 281.052H237.165C239.323 281.052 241.1 279.299 241.1 277.113V203.889C241.1 201.703 239.349 199.949 237.191 199.949Z" fill="#0B0B0B"/>
<path d="M219.549 363.274C219.193 363.274 218.863 363.147 218.584 362.944C218.305 362.741 218.102 362.436 218 362.105L162.053 134.579C161.952 134.198 162.028 133.791 162.231 133.435C162.434 133.08 162.764 132.851 163.145 132.724C163.348 132.673 163.551 132.673 163.754 132.698C163.957 132.724 164.135 132.8 164.313 132.902C164.49 133.003 164.643 133.156 164.744 133.308C164.871 133.486 164.947 133.664 164.998 133.867L221.046 361.317C221.148 361.724 221.072 362.156 220.869 362.512C220.64 362.868 220.31 363.122 219.904 363.249H219.549V363.274Z" fill="#0550FC"/>
<path d="M179.822 362.893H179.442C179.238 362.842 179.061 362.766 178.909 362.639C178.756 362.511 178.604 362.359 178.502 362.206C178.401 362.029 178.325 361.851 178.325 361.647C178.299 361.444 178.325 361.241 178.375 361.063L233.967 133.511C234.069 133.105 234.297 132.774 234.652 132.545C235.008 132.317 235.414 132.266 235.82 132.342C236.226 132.444 236.556 132.673 236.785 133.028C236.988 133.384 237.064 133.791 236.988 134.198L181.32 361.749C181.244 362.079 181.066 362.384 180.787 362.588C180.508 362.791 180.178 362.893 179.822 362.893Z" fill="#0550FC"/>
<path d="M152.814 274.724C161.901 274.724 169.288 267.506 169.288 258.61C169.288 249.714 161.901 242.496 152.814 242.496C143.726 242.496 136.339 249.714 136.339 258.61C136.339 267.506 143.726 274.724 152.814 274.724Z" fill="#0550FC"/>
<path d="M238.486 320.117H226.022C223.153 320.117 220.412 318.974 218.407 316.966C216.376 314.932 215.259 312.187 215.259 309.341V303.165C215.259 300.293 216.401 297.548 218.407 295.54C220.412 293.532 223.179 292.388 226.022 292.388H238.486C241.354 292.388 244.095 293.532 246.101 295.54C248.132 297.573 249.248 300.318 249.248 303.165V309.341C249.248 312.213 248.106 314.932 246.101 316.966C244.095 318.974 241.354 320.117 238.486 320.117ZM226.022 295.438C223.966 295.438 222.011 296.251 220.59 297.7C219.143 299.149 218.33 301.106 218.33 303.165V309.341C218.33 311.374 219.143 313.357 220.59 314.78C222.037 316.229 223.991 317.042 226.022 317.042H238.486C240.516 317.042 242.496 316.229 243.918 314.78C245.365 313.331 246.177 311.374 246.177 309.341V303.165C246.177 301.131 245.365 299.149 243.918 297.7C242.471 296.251 240.516 295.438 238.486 295.438H226.022Z" fill="#0B0B0B"/>
<path d="M240.872 303.317H224.093C223.686 303.317 223.28 303.165 223.001 302.86C222.722 302.58 222.544 302.173 222.544 301.767C222.544 301.36 222.696 300.953 223.001 300.674C223.306 300.394 223.686 300.216 224.093 300.216H240.872C241.278 300.216 241.659 300.369 241.963 300.674C242.242 300.953 242.42 301.36 242.42 301.767C242.42 302.173 242.268 302.58 241.963 302.86C241.684 303.139 241.278 303.317 240.872 303.317Z" fill="#0B0B0B"/>
<path d="M237.496 310.714H227.037C226.631 310.714 226.225 310.561 225.946 310.256C225.666 309.951 225.489 309.57 225.489 309.163C225.489 308.757 225.641 308.35 225.946 308.07C226.225 307.791 226.631 307.613 227.037 307.613H237.496C237.902 307.613 238.282 307.765 238.587 308.07C238.866 308.35 239.044 308.757 239.044 309.163C239.044 309.57 238.892 309.977 238.587 310.256C238.282 310.536 237.902 310.714 237.496 310.714Z" fill="#0B0B0B"/>
<path d="M158.906 256.069H146.29C146.087 256.069 145.884 256.043 145.68 255.967C145.503 255.891 145.325 255.789 145.173 255.636C145.02 255.484 144.919 255.306 144.843 255.128C144.767 254.95 144.741 254.721 144.741 254.518C144.741 254.112 144.894 253.705 145.198 253.425C145.477 253.146 145.884 252.968 146.29 252.968H158.906C159.312 252.968 159.693 253.12 159.997 253.425C160.276 253.705 160.454 254.112 160.454 254.518C160.454 254.721 160.429 254.925 160.353 255.128C160.276 255.331 160.175 255.509 160.023 255.636C159.87 255.789 159.693 255.891 159.515 255.967C159.312 256.043 159.109 256.069 158.906 256.069Z" fill="#0B0B0B"/>
<path d="M156.266 264.989H149.412C149.006 264.989 148.6 264.837 148.32 264.532C148.041 264.252 147.864 263.846 147.864 263.439C147.864 263.032 148.016 262.626 148.32 262.346C148.6 262.067 149.006 261.889 149.412 261.889H156.266C156.672 261.889 157.053 262.041 157.357 262.346C157.636 262.626 157.814 263.032 157.814 263.439C157.814 263.846 157.662 264.252 157.357 264.532C157.078 264.837 156.672 264.989 156.266 264.989Z" fill="#0B0B0B"/>
<path d="M361.828 476.351L362.285 504.029C362.336 507.486 363.656 510.815 366.016 513.357C368.352 515.899 371.55 517.5 375.002 517.83L433.97 519.381C446.662 520.626 451.993 507.664 441.128 500.801C439.605 499.912 437.93 499.302 436.204 498.946C422.649 496.633 416.429 490.559 415.719 472.742C415.643 471.115 414.932 469.59 413.764 468.472C412.596 467.354 411.023 466.744 409.398 466.744L370.915 467.125C369.722 467.125 368.529 467.379 367.412 467.862C366.295 468.319 365.306 469.006 364.468 469.87C363.63 470.734 362.945 471.751 362.513 472.869C362.031 473.962 361.802 475.156 361.828 476.351Z" fill="white"/>
<path d="M435.569 520.982H433.792L374.825 519.432C371.017 519.076 367.463 517.322 364.874 514.501C362.285 511.68 360.812 508.02 360.736 504.182L360.279 476.504C360.254 473.682 361.346 470.937 363.326 468.904C365.305 466.871 367.996 465.702 370.814 465.625L409.373 465.244H409.449C411.48 465.244 413.409 466.032 414.856 467.43C416.303 468.853 417.14 470.759 417.216 472.793C417.902 490.915 424.527 495.464 436.382 497.548C438.336 497.828 440.215 498.539 441.839 499.632C447.221 502.936 449.607 508.35 447.931 513.281C446.281 518.212 442.271 520.982 435.569 520.982ZM375.053 516.28L434.021 517.83C440.494 518.44 444.022 515.212 445.038 512.213C446.028 509.214 444.428 504.741 440.265 502.123C438.92 501.361 437.473 500.801 435.95 500.496C420.694 497.879 414.856 490.406 414.17 472.818C414.145 471.598 413.612 470.454 412.749 469.59C411.86 468.752 410.693 468.269 409.474 468.269H409.398L370.915 468.65C369.925 468.65 368.91 468.879 367.996 469.26C367.082 469.641 366.245 470.226 365.534 470.937C364.823 471.649 364.29 472.488 363.909 473.428C363.529 474.369 363.351 475.36 363.351 476.351L363.808 504.029C363.833 507.105 365.001 510.053 367.082 512.315C369.164 514.577 372.007 516 375.053 516.28Z" fill="#0B0B0B"/>
<path d="M380.054 498.641C383.709 498.641 386.679 495.667 386.679 492.007C386.679 488.347 383.709 485.374 380.054 485.374C376.398 485.374 373.428 488.347 373.428 492.007C373.454 495.667 376.398 498.641 380.054 498.641Z" fill="#CCFF00"/>
<path d="M418.409 502.86H417.952C417.572 502.708 417.267 502.428 417.064 502.047C416.886 501.665 416.836 501.259 416.937 500.852C417.775 498.158 419.45 495.82 421.735 494.142C424.019 492.49 426.761 491.575 429.578 491.601C429.985 491.626 430.391 491.804 430.67 492.109C430.949 492.414 431.127 492.821 431.127 493.227C431.127 493.431 431.076 493.634 431 493.812C430.924 494.015 430.797 494.168 430.645 494.32C430.492 494.447 430.315 494.574 430.112 494.625C429.909 494.701 429.705 494.701 429.502 494.701C429.274 494.701 422.192 494.625 419.882 501.869C419.78 502.174 419.577 502.428 419.298 502.606C419.019 502.784 418.714 502.885 418.409 502.86Z" fill="#0B0B0B"/>
<path d="M427.243 507.486H426.786C426.405 507.359 426.075 507.104 425.872 506.723C425.669 506.367 425.619 505.961 425.72 505.554C427.802 498.005 435.493 495.769 439.199 495.616C439.605 495.616 440.011 495.769 440.316 496.048C440.621 496.328 440.798 496.735 440.824 497.141C440.849 497.345 440.798 497.548 440.748 497.726C440.671 497.904 440.57 498.082 440.443 498.234C440.316 498.387 440.138 498.488 439.961 498.565C439.783 498.641 439.58 498.692 439.377 498.692C438.996 498.768 430.746 499.149 428.766 506.393C428.665 506.698 428.462 506.977 428.208 507.155C427.903 507.358 427.573 507.486 427.243 507.486Z" fill="#0B0B0B"/>
<path d="M348.196 478.511L348.577 507.181C348.628 510.764 350.024 514.196 352.436 516.839C354.873 519.457 358.172 521.109 361.726 521.465L422.852 523.091C436.026 524.311 441.484 510.917 430.239 503.826C428.69 502.835 426.964 502.174 425.162 501.894C411.15 499.505 404.677 493.1 403.915 474.75C403.864 473.072 403.179 471.471 401.96 470.302C400.742 469.133 399.117 468.497 397.442 468.523L357.487 468.904C356.243 468.904 354.999 469.158 353.857 469.666C352.715 470.149 351.674 470.886 350.811 471.776C349.948 472.666 349.263 473.733 348.806 474.902C348.374 476.021 348.171 477.266 348.196 478.511Z" fill="white"/>
<path d="M424.552 524.692H422.699L361.574 523.066C357.639 522.685 353.959 520.855 351.293 517.957C348.603 515.034 347.105 511.247 347.029 507.257L346.648 478.587C346.623 477.139 346.851 475.69 347.384 474.343C347.917 472.996 348.704 471.75 349.72 470.734C351.776 468.65 354.568 467.481 357.487 467.43L397.442 467.048C399.524 467.023 401.529 467.811 403.027 469.26C404.524 470.708 405.387 472.665 405.463 474.75C406.225 493.481 413.383 498.412 425.39 500.42C427.421 500.776 429.35 501.487 431.076 502.58C436.534 506.037 438.996 511.603 437.321 516.686C435.645 521.744 431.482 524.692 424.552 524.692ZM361.904 519.914L422.953 521.541C429.731 522.151 433.335 518.77 434.427 515.593C435.518 512.442 433.818 507.816 429.426 505.122C428.055 504.283 426.532 503.699 424.959 503.419C409.246 500.725 403.179 492.948 402.468 474.826C402.417 473.555 401.859 472.36 400.945 471.445C400.031 470.556 398.813 470.048 397.544 470.048H397.467L357.512 470.429C356.472 470.429 355.456 470.632 354.492 471.039C353.527 471.445 352.689 472.055 351.979 472.818C351.243 473.555 350.659 474.419 350.278 475.385C349.897 476.351 349.72 477.393 349.77 478.435L350.151 507.104C350.202 510.307 351.446 513.382 353.603 515.746C355.761 518.11 358.706 519.584 361.904 519.914Z" fill="#0B0B0B"/>
<path d="M367.057 501.564C370.839 501.564 373.911 498.488 373.911 494.701C373.911 490.914 370.839 487.839 367.057 487.839C363.275 487.839 360.203 490.914 360.203 494.701C360.203 498.488 363.275 501.564 367.057 501.564Z" fill="#0550FC"/>
<path d="M406.783 505.809H406.327C406.123 505.758 405.946 505.656 405.768 505.504C405.616 505.376 405.489 505.199 405.387 505.021C405.286 504.843 405.235 504.639 405.235 504.411C405.235 504.207 405.26 503.979 405.337 503.801C406.2 501.03 407.926 498.59 410.261 496.862C412.596 495.134 415.439 494.219 418.333 494.244C418.739 494.27 419.12 494.473 419.399 494.752C419.679 495.057 419.856 495.439 419.856 495.845C419.856 496.049 419.806 496.252 419.704 496.43C419.628 496.608 419.501 496.786 419.349 496.913C419.196 497.04 419.019 497.167 418.841 497.218C418.638 497.294 418.435 497.32 418.232 497.294C417.927 497.294 410.616 497.218 408.23 504.766C408.103 505.046 407.9 505.3 407.646 505.478C407.393 505.681 407.088 505.783 406.783 505.809Z" fill="#0B0B0B"/>
<path d="M415.871 510.663H415.49C415.287 510.612 415.109 510.51 414.932 510.383C414.779 510.256 414.627 510.103 414.526 509.926C414.424 509.748 414.373 509.544 414.348 509.341C414.322 509.138 414.348 508.934 414.399 508.731C416.556 500.954 424.476 498.641 428.335 498.488C428.741 498.488 429.147 498.641 429.426 498.946C429.705 499.225 429.883 499.632 429.883 500.039C429.883 500.242 429.858 500.445 429.782 500.623C429.705 500.801 429.604 500.979 429.477 501.132C429.35 501.284 429.172 501.386 428.995 501.462C428.817 501.538 428.614 501.589 428.411 501.589C428.03 501.665 419.475 502.047 417.394 509.595C417.292 509.926 417.089 510.205 416.81 510.408C416.531 510.561 416.201 510.663 415.871 510.663Z" fill="#0B0B0B"/>
<path d="M144.259 432.965H143.878L20.0028 398.679C19.7998 398.628 19.6221 398.526 19.4698 398.399C19.3175 398.272 19.1652 398.12 19.0636 397.942C18.9621 397.764 18.8859 397.561 18.8859 397.357C18.8606 397.154 18.8859 396.951 18.9367 396.747C19.0636 396.366 19.3175 396.036 19.6728 395.832C20.0282 395.629 20.4598 395.578 20.8405 395.68L144.64 429.992C144.97 430.093 145.274 430.322 145.452 430.627C145.655 430.932 145.731 431.288 145.681 431.644C145.63 432 145.477 432.33 145.198 432.584C144.97 432.787 144.614 432.94 144.259 432.965Z" fill="#0B0B0B"/>
<path d="M86.6112 470.81L1.54845 468.421C1.1423 468.396 0.761535 468.192 0.482308 467.913C0.203081 467.608 0.0253906 467.227 0.0253906 466.82C0.0507749 466.413 0.228465 466.057 0.507692 465.778C0.78692 465.498 1.16768 465.346 1.57383 465.346H1.64999L81.7121 467.582L72.1676 447.3L147.99 454.696C148.397 454.722 148.777 454.951 149.031 455.256C149.285 455.561 149.412 455.993 149.361 456.399C149.31 456.806 149.107 457.187 148.803 457.441C148.498 457.696 148.067 457.823 147.66 457.797L77.2191 450.935L86.6112 470.81Z" fill="#0B0B0B"/>
<path d="M597.09 103.52C596.81 103.52 596.556 103.444 596.328 103.291L562.542 81.5605V40.5387C562.542 40.132 562.694 39.7254 562.998 39.4458C563.278 39.1662 563.684 38.9883 564.09 38.9883C564.496 38.9883 564.902 39.1408 565.181 39.4458C565.461 39.7254 565.638 40.132 565.638 40.5387V79.8576L597.978 100.673C598.308 100.902 598.562 101.258 598.638 101.665C598.714 102.071 598.663 102.478 598.435 102.834C598.283 103.037 598.105 103.215 597.876 103.342C597.597 103.469 597.343 103.52 597.09 103.52Z" fill="#0B0B0B"/>
<path d="M509.869 31.4397H509.641C507.356 31.3126 505.173 30.4739 503.396 29.0506C501.568 27.6527 500.299 25.6702 499.766 23.4336C499.461 22.4169 499.411 21.3494 499.614 20.3328C499.817 19.2907 500.274 18.3249 500.934 17.5116C501.594 16.6983 502.457 16.0629 503.421 15.6308C504.386 15.1987 505.427 14.9954 506.493 15.0462C508.777 15.1733 510.961 16.012 512.737 17.4608C514.514 18.9095 515.809 20.8665 516.418 23.0778C516.697 24.0944 516.748 25.1873 516.545 26.2294C516.342 27.2714 515.91 28.2627 515.25 29.1014C514.59 29.8893 513.778 30.4993 512.839 30.9314C511.9 31.2872 510.884 31.4905 509.869 31.4397ZM506.315 18.1216C505.757 18.0708 505.173 18.1724 504.665 18.4012C504.132 18.6299 503.675 18.9857 503.32 19.4178C502.964 19.8753 502.711 20.4345 502.609 20.9936C502.508 21.5782 502.533 22.1628 502.711 22.7219C503.142 24.2723 504.056 25.6448 505.325 26.6614C506.569 27.7035 508.118 28.2881 509.717 28.3643C510.301 28.3897 510.884 28.2881 511.443 28.0593C511.976 27.8306 512.484 27.4748 512.864 27.0427C513.22 26.5852 513.448 26.026 513.524 25.4415C513.626 24.8569 513.575 24.2723 513.397 23.7132C513.017 22.1374 512.103 20.7395 510.783 19.7736C509.514 18.7824 507.991 18.1978 506.391 18.0708H506.315V18.1216Z" fill="#0B0B0B"/>
<path d="M495.222 27.8306C493.801 27.8306 492.43 27.3731 491.288 26.509C489.892 25.4161 488.952 23.8657 488.673 22.112C488.419 20.3837 488.851 18.6046 489.892 17.1812L496.669 8.00598C497.152 7.29433 497.786 6.68434 498.548 6.22685C499.284 5.76936 500.122 5.48978 500.985 5.38811C501.848 5.23561 502.736 5.26103 503.574 5.48978C504.411 5.69311 505.224 6.09977 505.909 6.63351C506.62 7.11642 507.229 7.77724 507.686 8.51431C508.143 9.25138 508.422 10.0901 508.524 10.9543C508.676 11.8184 508.651 12.6826 508.448 13.5467C508.244 14.3855 507.889 15.1988 507.381 15.885L500.604 25.1365C499.512 26.5344 497.964 27.4748 496.212 27.7544L495.222 27.8306ZM502 8.41264H501.467C501.01 8.48889 500.553 8.66681 500.172 8.92097C499.766 9.17513 499.436 9.50554 499.157 9.88678L492.379 19.062C491.846 19.8245 491.618 20.7649 491.77 21.6799C491.821 22.1628 491.948 22.6203 492.202 23.027C492.43 23.4336 492.76 23.7895 493.166 24.069C493.928 24.6028 494.867 24.8315 495.781 24.679C496.72 24.5519 497.583 24.0436 498.167 23.2811L504.868 14.1059C505.173 13.7246 505.376 13.2926 505.503 12.8351C505.63 12.3776 505.63 11.8947 505.554 11.4118C505.478 10.9543 505.325 10.5222 505.097 10.1155C504.868 9.70887 504.538 9.37846 504.183 9.09888C503.548 8.64139 502.787 8.38723 502 8.41264Z" fill="#0B0B0B"/>
<path d="M628.49 32.2276C627.475 32.2784 626.459 32.0751 625.52 31.6684C624.581 31.2618 623.768 30.6263 623.108 29.8384C622.448 28.9997 622.017 28.0085 621.814 26.9664C621.611 25.9243 621.662 24.8314 621.941 23.8148C622.575 21.629 623.87 19.6974 625.647 18.2741C627.424 16.8508 629.607 16.012 631.866 15.8849C632.907 15.8341 633.948 16.012 634.912 16.4187C635.877 16.8253 636.714 17.4607 637.4 18.2741C640.014 21.4257 638.872 26.6868 634.938 29.8384C633.186 31.338 631.003 32.1767 628.693 32.2276H628.49ZM632.018 18.8841H631.866C630.292 19.0111 628.795 19.5957 627.551 20.5869C626.307 21.5782 625.393 22.9252 624.936 24.4502C624.758 25.0094 624.708 25.6194 624.809 26.2039C624.911 26.7885 625.139 27.3477 625.469 27.8306C625.85 28.2881 626.332 28.6185 626.891 28.8472C627.449 29.0505 628.033 29.1268 628.617 29.076C630.216 28.9997 631.764 28.4151 633.008 27.3731C635.547 25.2889 636.461 21.9848 635.014 20.1294C634.658 19.6974 634.176 19.367 633.668 19.1382C633.161 18.9349 632.602 18.8332 632.018 18.8841Z" fill="#0B0B0B"/>
<path d="M643.111 28.5934C642.071 28.5934 641.03 28.3646 640.091 27.8817C639.151 27.4242 638.339 26.738 637.73 25.8738L630.952 16.6986C629.937 15.2244 629.505 13.4453 629.708 11.6916C629.861 10.8274 630.165 10.0141 630.622 9.25163C631.079 8.51456 631.688 7.87916 632.399 7.37083C633.084 6.83709 633.897 6.45585 634.734 6.25252C635.572 6.04919 636.461 5.99835 637.324 6.12544C639.05 6.40501 640.598 7.34541 641.639 8.74331L648.417 17.9186C649.457 19.3419 649.889 21.121 649.635 22.8747C649.381 24.6284 648.442 26.2043 647.02 27.2463C645.904 28.1359 644.533 28.5934 643.111 28.5934ZM636.334 9.17538C635.547 9.17538 634.811 9.40413 634.176 9.86162C633.795 10.1412 633.491 10.4716 633.262 10.8783C633.034 11.2849 632.856 11.717 632.805 12.1745C632.653 13.1149 632.856 14.0807 633.414 14.8686L640.192 24.0439C640.801 24.6539 641.614 25.0351 642.477 25.1114C643.34 25.1876 644.203 24.9334 644.914 24.4251C645.624 23.9168 646.107 23.1543 646.31 22.3156C646.513 21.4768 646.386 20.5873 645.98 19.7994L639.202 10.6241C638.948 10.2429 638.593 9.91245 638.212 9.68371C637.806 9.45496 637.374 9.30246 636.892 9.25163L636.334 9.17538Z" fill="#0B0B0B"/>
<path d="M511.621 153.082L510.707 152.853C485.145 134.35 480.22 107.536 479.992 106.367C479.941 105.96 480.042 105.554 480.296 105.223C480.55 104.893 480.906 104.664 481.286 104.588C481.692 104.512 482.099 104.613 482.429 104.842C482.759 105.071 482.987 105.427 483.063 105.833C483.063 106.138 487.988 132.571 512.458 150.312C512.788 150.566 512.991 150.922 513.067 151.328C513.144 151.735 513.067 152.142 512.839 152.472C512.687 152.65 512.509 152.803 512.306 152.93C512.103 153.006 511.874 153.082 511.621 153.082Z" fill="#0B0B0B"/>
<path d="M525.176 176.134H524.643C488.394 163.63 477.225 128.25 477.149 127.869C477.073 127.666 477.047 127.462 477.047 127.259C477.073 127.056 477.123 126.852 477.199 126.674C477.301 126.496 477.428 126.319 477.58 126.217C477.733 126.09 477.936 125.988 478.113 125.937C478.494 125.81 478.926 125.861 479.281 126.039C479.636 126.217 479.916 126.547 480.042 126.929C480.119 127.31 490.907 161.24 525.607 173.186C525.988 173.313 526.318 173.618 526.521 173.999C526.699 174.381 526.75 174.813 526.623 175.194C526.496 175.474 526.293 175.702 526.013 175.88C525.785 176.033 525.48 176.134 525.176 176.134Z" fill="#0B0B0B"/>
<path d="M640.725 140.679C640.522 140.704 640.319 140.654 640.141 140.603C639.964 140.552 639.786 140.425 639.634 140.298C639.481 140.171 639.354 139.993 639.278 139.815C639.202 139.637 639.151 139.434 639.151 139.23C639.151 139.027 639.202 138.824 639.278 138.646C639.354 138.468 639.481 138.29 639.634 138.163C653.265 123.904 656.869 103.165 656.869 102.936C656.895 102.733 656.971 102.529 657.098 102.377C657.199 102.199 657.352 102.046 657.529 101.945C657.707 101.818 657.885 101.741 658.088 101.691C658.291 101.64 658.494 101.64 658.697 101.665C658.9 101.691 659.103 101.767 659.256 101.894C659.433 101.996 659.586 102.148 659.687 102.326C659.789 102.504 659.89 102.682 659.941 102.885C659.992 103.088 659.992 103.292 659.966 103.495C659.814 104.334 656.184 125.378 641.867 140.272C641.563 140.501 641.157 140.679 640.725 140.679Z" fill="#0B0B0B"/>
<path d="M630.114 163.706C629.835 163.706 629.581 163.63 629.353 163.477C629.124 163.35 628.921 163.147 628.794 162.918C628.693 162.74 628.617 162.537 628.591 162.334C628.566 162.13 628.591 161.927 628.642 161.724C628.693 161.52 628.794 161.342 628.921 161.19C629.048 161.037 629.226 160.91 629.404 160.809C652.732 147.694 657.504 131.758 657.504 131.605C657.606 131.199 657.885 130.868 658.24 130.665C658.418 130.563 658.621 130.487 658.824 130.487C659.027 130.462 659.23 130.487 659.433 130.538C659.636 130.589 659.814 130.69 659.966 130.817C660.119 130.945 660.271 131.097 660.347 131.275C660.449 131.453 660.525 131.656 660.55 131.859C660.576 132.063 660.55 132.266 660.499 132.469C660.271 133.156 655.346 149.727 630.851 163.528L630.114 163.706Z" fill="#0B0B0B"/>
<path d="M223.864 602.314C254.655 602.314 279.608 578.55 279.608 549.22C279.608 519.889 254.655 496.1 223.864 496.1C193.073 496.1 168.12 519.889 168.12 549.22C168.12 578.55 193.073 602.314 223.864 602.314Z" fill="#0B0B0B"/>
<path d="M223.788 587.649C246.025 587.649 264.048 570.467 264.048 549.27C264.048 528.073 246.025 510.892 223.788 510.892C201.551 510.892 183.529 528.073 183.529 549.27C183.529 570.467 201.551 587.649 223.788 587.649Z" fill="white"/>
<path d="M223.788 589.199C200.764 589.199 181.98 571.306 181.98 549.27C181.98 527.234 200.764 509.341 223.788 509.341C246.811 509.341 265.596 527.311 265.596 549.27C265.596 571.23 246.888 589.199 223.788 589.199ZM223.788 512.417C202.465 512.417 185.077 528.988 185.077 549.27C185.077 569.552 202.465 586.124 223.788 586.124C245.111 586.124 262.499 569.629 262.499 549.27C262.524 528.912 245.111 512.417 223.788 512.417Z" fill="#0B0B0B"/>
<path d="M223.407 566.451C233.409 566.451 241.506 558.725 241.506 549.194C241.506 539.663 233.409 531.936 223.407 531.936C213.406 531.936 205.308 539.663 205.308 549.194C205.308 558.725 213.406 566.451 223.407 566.451Z" fill="#0550FC"/>
<path d="M188.529 146.601L210.614 146.067C211.121 146.067 211.578 146.27 211.934 146.601C212.289 146.956 212.517 147.414 212.517 147.922L213.914 167.722C213.939 168.23 213.761 168.738 213.406 169.145C213.076 169.526 212.594 169.78 212.06 169.806L187.514 171.28C187.235 171.305 186.981 171.254 186.702 171.178C186.448 171.076 186.219 170.949 186.016 170.746C185.813 170.568 185.661 170.314 185.559 170.06C185.458 169.806 185.407 169.526 185.432 169.272L186.6 148.456C186.625 147.948 186.828 147.49 187.184 147.134C187.565 146.804 188.047 146.601 188.529 146.601Z" fill="#0550FC"/>
<path d="M206.628 154.404H192.235C191.829 154.404 191.423 154.251 191.144 153.946C190.865 153.666 190.687 153.26 190.687 152.853C190.687 152.446 190.839 152.04 191.144 151.76C191.423 151.481 191.829 151.303 192.235 151.303H206.628C207.034 151.303 207.415 151.455 207.72 151.76C207.999 152.04 208.177 152.446 208.177 152.853C208.177 153.26 208.024 153.666 207.72 153.946C207.415 154.226 207.034 154.404 206.628 154.404Z" fill="white"/>
<path d="M568.202 1.62646C552.692 1.62646 537.513 6.2268 524.617 14.8683C511.722 23.5098 501.67 35.7605 495.73 50.1206C489.79 64.4808 488.242 80.2643 491.288 95.514C494.334 110.764 501.797 124.743 512.788 135.722C523.754 146.702 537.741 154.175 552.972 157.199C568.202 160.224 583.966 158.648 598.308 152.701C612.625 146.753 624.885 136.663 633.491 123.726C642.096 110.789 646.69 95.6157 646.665 80.061C646.64 59.2451 638.364 39.2933 623.667 24.5773C608.944 9.88674 588.992 1.62646 568.202 1.62646ZM568.202 143.297C555.713 143.297 543.503 139.586 533.121 132.647C522.739 125.708 514.641 115.822 509.869 104.283C505.097 92.7436 503.828 80.0355 506.265 67.7595C508.701 55.5089 514.717 44.2241 523.551 35.4046C532.385 26.5598 543.63 20.5361 555.865 18.0962C568.126 15.6562 580.818 16.9016 592.343 21.7053C603.867 26.4835 613.742 34.5913 620.672 44.9866C627.601 55.3818 631.308 67.607 631.308 80.1118C631.308 96.8865 624.657 112.95 612.828 124.794C600.999 136.637 584.956 143.297 568.202 143.297Z" fill="#DCE0FF"/>
<path d="M568.202 160.173C552.388 160.173 536.929 155.471 523.754 146.677C510.605 137.883 500.35 125.378 494.283 110.738C488.242 96.0985 486.642 80.0101 489.739 64.4554C492.836 48.9006 500.451 34.6421 511.621 23.459C522.815 12.2504 537.056 4.62555 552.565 1.55019C568.075 -1.55059 584.169 0.0506311 598.765 6.09969C613.386 12.1488 625.875 22.4169 634.658 35.5825C643.441 48.7481 648.137 64.2266 648.137 80.0863C648.112 101.309 639.684 121.667 624.682 136.688C609.756 151.709 589.423 160.147 568.202 160.173ZM568.202 3.15141C552.997 3.15141 538.122 7.6755 525.455 16.1391C512.814 24.6027 502.939 36.6246 497.126 50.7052C491.313 64.7858 489.79 80.2642 492.76 95.209C495.73 110.154 503.066 123.878 513.829 134.63C524.592 145.406 538.299 152.726 553.225 155.7C568.151 158.648 583.61 157.123 597.673 151.277C611.736 145.431 623.718 135.57 632.171 122.887C640.624 110.205 645.117 95.3106 645.091 80.0863C645.04 59.6771 636.943 40.132 622.525 25.721C608.132 11.2846 588.586 3.17683 568.202 3.15141ZM568.202 144.821C555.408 144.821 542.919 141.034 532.283 133.918C521.647 126.801 513.372 116.686 508.473 104.867C503.574 93.0232 502.305 80.0101 504.792 67.4545C507.28 54.8989 513.448 43.3599 522.485 34.3117C531.522 25.2635 543.046 19.0874 555.586 16.5966C568.126 14.1058 581.123 15.3766 592.952 20.2819C604.756 25.1873 614.859 33.473 621.966 44.1224C629.074 54.7718 632.856 67.302 632.856 80.0863C632.831 97.2423 626.028 113.712 613.894 125.861C601.786 137.984 585.362 144.821 568.202 144.821ZM568.202 18.5028C556.018 18.5028 544.112 22.1119 533.984 28.898C523.856 35.6842 515.961 45.3169 511.291 56.5763C506.62 67.8357 505.427 80.2642 507.788 92.2099C510.174 104.181 516.037 115.161 524.668 123.777C533.273 132.393 544.265 138.264 556.221 140.628C568.177 142.992 580.564 141.772 591.81 137.095C603.055 132.418 612.675 124.488 619.428 114.347C626.18 104.206 629.784 92.2607 629.759 80.0609C629.708 63.7183 623.21 48.0873 611.685 36.5229C600.161 25.0094 584.524 18.5282 568.202 18.5028Z" fill="#0B0B0B"/>
<path d="M364.595 95.7432C364.595 95.7432 388.456 88.042 397.315 96.1244C406.174 104.207 369.824 103.444 369.824 103.444L364.595 95.7432Z" fill="#0550FC"/>
<path d="M372.819 103.292C372.819 103.292 300.753 106.138 296.92 105.071C293.062 104.003 290.066 78.4854 311.846 64.6844C333.626 50.8834 354.111 58.737 362.818 71.1656C371.525 83.5433 372.819 103.292 372.819 103.292Z" fill="#0550FC"/>
<path d="M223.864 515.365C223.458 515.365 223.077 515.212 222.773 514.907C222.493 514.628 222.316 514.221 222.316 513.814V496.074C222.316 495.667 222.468 495.26 222.773 494.981C223.052 494.701 223.458 494.523 223.864 494.523C224.27 494.523 224.651 494.676 224.956 494.981C225.235 495.26 225.413 495.667 225.413 496.074V513.814C225.413 514.221 225.26 514.628 224.956 514.907C224.676 515.187 224.27 515.365 223.864 515.365Z" fill="white"/>
<path d="M222.468 603C222.062 603 221.681 602.847 221.376 602.542C221.097 602.263 220.92 601.856 220.92 601.449L221.148 586.962C221.148 586.759 221.199 586.556 221.275 586.378C221.351 586.2 221.453 586.022 221.605 585.895C221.757 585.768 221.91 585.641 222.113 585.59C222.29 585.513 222.493 585.488 222.696 585.513C223.103 585.513 223.509 585.666 223.788 585.971C224.067 586.251 224.245 586.657 224.245 587.064L224.016 601.475C224.016 601.881 223.864 602.288 223.56 602.568C223.28 602.822 222.9 603 222.468 603Z" fill="white"/>
<path d="M185.534 551.278L169.745 551.049C169.542 551.049 169.339 550.998 169.161 550.922C168.983 550.846 168.806 550.719 168.679 550.592C168.552 550.439 168.425 550.287 168.374 550.083C168.298 549.905 168.272 549.702 168.272 549.499C168.272 549.092 168.425 548.685 168.729 548.406C169.009 548.101 169.415 547.948 169.821 547.948L185.534 548.177C185.94 548.202 186.346 548.38 186.625 548.685C186.905 548.99 187.082 549.397 187.057 549.804C187.057 550.007 187.031 550.185 186.93 550.388C186.854 550.566 186.727 550.744 186.6 550.871C186.448 550.998 186.295 551.125 186.092 551.176C185.915 551.252 185.737 551.278 185.534 551.278Z" fill="white"/>
<path d="M277.907 553.21H277.831L261.509 552.752C261.103 552.727 260.697 552.549 260.418 552.244C260.138 551.939 259.961 551.532 259.961 551.126C259.961 550.922 260.011 550.719 260.113 550.541C260.189 550.363 260.316 550.185 260.468 550.058C260.621 549.931 260.798 549.804 260.976 549.753C261.154 549.677 261.357 549.651 261.56 549.651L277.958 550.109C278.161 550.109 278.364 550.134 278.542 550.236C278.72 550.312 278.897 550.439 279.024 550.566C279.151 550.719 279.278 550.871 279.329 551.075C279.405 551.253 279.43 551.456 279.405 551.659C279.405 552.066 279.253 552.473 278.948 552.752C278.72 553.032 278.314 553.21 277.907 553.21Z" fill="white"/>
<path d="M185.534 588.589C185.128 588.589 184.747 588.411 184.442 588.132C184.163 587.827 183.985 587.42 183.985 587.013C183.985 586.607 184.138 586.2 184.442 585.895L195.916 574.788C196.043 574.636 196.221 574.508 196.398 574.432C196.576 574.356 196.779 574.305 196.982 574.305C197.185 574.305 197.388 574.356 197.566 574.432C197.744 574.508 197.921 574.636 198.048 574.788C198.327 575.093 198.505 575.5 198.505 575.906C198.505 576.313 198.353 576.72 198.048 577.025L186.575 588.132C186.321 588.411 185.94 588.564 185.534 588.589Z" fill="white"/>
<path d="M251.203 524.769C250.822 524.769 250.441 524.617 250.111 524.388C249.832 524.083 249.655 523.676 249.655 523.27C249.655 522.863 249.807 522.456 250.111 522.151L260.976 511.349C261.281 511.121 261.636 511.019 262.017 511.044C262.397 511.07 262.727 511.222 263.007 511.502C263.261 511.756 263.438 512.112 263.464 512.493C263.489 512.874 263.387 513.23 263.159 513.535L252.295 524.413C251.965 524.617 251.584 524.744 251.203 524.769Z" fill="white"/>
<path d="M259.58 589.732C259.377 589.732 259.148 589.707 258.945 589.631C258.742 589.555 258.564 589.428 258.412 589.275L247.548 577.787C247.268 577.482 247.116 577.075 247.142 576.643C247.167 576.236 247.319 575.83 247.624 575.55C247.928 575.271 248.309 575.144 248.715 575.144C249.122 575.144 249.502 575.321 249.782 575.626L260.646 587.115C260.925 587.42 261.078 587.826 261.052 588.258C261.027 588.665 260.874 589.072 260.57 589.351C260.316 589.605 259.961 589.732 259.58 589.732Z" fill="white"/>
<path d="M196.525 524.692C196.119 524.692 195.738 524.515 195.434 524.235L184.188 512.671C184.036 512.543 183.909 512.366 183.833 512.188C183.757 512.01 183.706 511.806 183.706 511.603C183.706 511.4 183.757 511.196 183.833 511.019C183.909 510.841 184.036 510.663 184.188 510.536C184.493 510.256 184.899 510.104 185.305 510.104C185.712 510.104 186.118 510.256 186.422 510.536L197.591 522.1C197.744 522.227 197.871 522.405 197.947 522.583C198.023 522.761 198.074 522.964 198.074 523.167C198.074 523.371 198.023 523.574 197.947 523.752C197.871 523.93 197.744 524.108 197.591 524.235C197.338 524.515 196.931 524.667 196.525 524.692Z" fill="white"/>
<path d="M513.854 602.314C544.646 602.314 569.598 578.55 569.598 549.22C569.598 519.889 544.646 496.1 513.854 496.1C483.063 496.1 458.11 519.889 458.11 549.22C458.11 578.55 483.089 602.314 513.854 602.314Z" fill="#0B0B0B"/>
<path d="M513.778 587.649C536.015 587.649 554.038 570.467 554.038 549.27C554.038 528.073 536.015 510.892 513.778 510.892C491.542 510.892 473.519 528.073 473.519 549.27C473.519 570.467 491.542 587.649 513.778 587.649Z" fill="white"/>
<path d="M513.778 589.199C490.755 589.199 471.97 571.306 471.97 549.27C471.97 527.234 490.755 509.341 513.778 509.341C536.802 509.341 555.586 527.311 555.586 549.27C555.586 571.23 536.878 589.199 513.778 589.199ZM513.778 512.417C492.455 512.417 475.042 528.988 475.042 549.27C475.042 569.552 492.43 586.124 513.778 586.124C535.101 586.124 552.489 569.629 552.489 549.27C552.515 528.912 535.101 512.417 513.778 512.417Z" fill="#0B0B0B"/>
<path d="M513.397 566.451C523.399 566.451 531.496 558.725 531.496 549.194C531.496 539.663 523.399 531.936 513.397 531.936C503.396 531.936 495.298 539.663 495.298 549.194C495.298 558.725 503.421 566.451 513.397 566.451Z" fill="#0550FC"/>
<path d="M513.854 515.365C513.448 515.365 513.042 515.212 512.763 514.907C512.484 514.628 512.306 514.221 512.306 513.814V496.074C512.306 495.667 512.458 495.26 512.763 494.981C513.042 494.701 513.448 494.523 513.854 494.523C514.26 494.523 514.641 494.676 514.946 494.981C515.225 495.26 515.403 495.667 515.403 496.074V513.814C515.403 514.221 515.25 514.628 514.946 514.907C514.667 515.187 514.26 515.365 513.854 515.365Z" fill="white"/>
<path d="M512.484 603C512.077 603 511.671 602.847 511.392 602.542C511.113 602.263 510.935 601.856 510.935 601.449L511.164 586.962C511.164 586.759 511.214 586.556 511.291 586.378C511.367 586.2 511.494 586.022 511.621 585.895C511.773 585.768 511.925 585.641 512.128 585.59C512.306 585.513 512.509 585.488 512.712 585.513C513.118 585.513 513.524 585.666 513.804 585.971C514.083 586.251 514.261 586.657 514.261 587.064L514.032 601.475C514.032 601.881 513.88 602.288 513.575 602.568C513.271 602.822 512.89 603 512.484 603Z" fill="white"/>
<path d="M567.898 553.21H567.821L551.499 552.752C551.296 552.752 551.093 552.701 550.916 552.625C550.738 552.549 550.56 552.422 550.433 552.269C550.281 552.117 550.179 551.939 550.103 551.761C550.027 551.558 550.002 551.38 550.002 551.176C550.002 550.973 550.052 550.77 550.129 550.592C550.205 550.414 550.332 550.236 550.484 550.109C550.636 549.982 550.789 549.855 550.992 549.778C551.169 549.702 551.372 549.677 551.576 549.677L567.974 550.134C568.177 550.134 568.38 550.16 568.558 550.261C568.735 550.338 568.913 550.465 569.04 550.592C569.167 550.744 569.294 550.897 569.345 551.1C569.421 551.278 569.446 551.481 569.446 551.685C569.446 552.091 569.294 552.498 568.989 552.778C568.71 553.032 568.304 553.21 567.898 553.21Z" fill="white"/>
<path d="M475.524 588.589C475.118 588.589 474.737 588.411 474.433 588.132C474.153 587.827 474.001 587.42 474.001 587.013C474.001 586.607 474.153 586.2 474.433 585.895L485.906 574.788C486.033 574.636 486.211 574.508 486.389 574.432C486.566 574.356 486.769 574.305 486.972 574.305C487.175 574.305 487.379 574.356 487.556 574.432C487.734 574.508 487.912 574.636 488.038 574.788C488.318 575.093 488.495 575.5 488.495 575.906C488.495 576.313 488.343 576.72 488.038 577.025L476.565 588.132C476.311 588.411 475.93 588.564 475.524 588.589Z" fill="white"/>
<path d="M541.193 524.769C540.787 524.769 540.406 524.642 540.102 524.388C539.822 524.083 539.645 523.676 539.645 523.27C539.645 522.863 539.797 522.456 540.102 522.151L550.966 511.349C551.271 511.121 551.626 511.019 552.007 511.044C552.362 511.07 552.718 511.222 552.997 511.502C553.251 511.756 553.428 512.112 553.454 512.493C553.479 512.874 553.378 513.23 553.149 513.535L542.285 524.413C541.955 524.617 541.574 524.744 541.193 524.769Z" fill="white"/>
<path d="M549.595 589.732C549.392 589.732 549.164 589.707 548.961 589.631C548.758 589.555 548.58 589.428 548.428 589.275L537.563 577.787C537.284 577.482 537.132 577.075 537.157 576.643C537.183 576.236 537.335 575.83 537.639 575.55C537.944 575.271 538.325 575.144 538.731 575.144C539.137 575.169 539.518 575.321 539.797 575.626L550.662 587.115C550.941 587.42 551.093 587.826 551.068 588.258C551.042 588.665 550.865 589.072 550.585 589.351C550.306 589.605 549.951 589.732 549.595 589.732Z" fill="white"/>
<path d="M486.541 524.692C486.135 524.692 485.754 524.515 485.475 524.235L474.23 512.671C474.077 512.543 473.976 512.366 473.874 512.188C473.798 512.01 473.747 511.806 473.747 511.603C473.747 511.4 473.798 511.196 473.874 511.019C473.95 510.841 474.077 510.663 474.23 510.536C474.534 510.256 474.94 510.104 475.346 510.104C475.753 510.104 476.159 510.256 476.463 510.536L487.632 522.1C487.785 522.227 487.912 522.405 487.988 522.583C488.064 522.761 488.115 522.964 488.115 523.167C488.115 523.371 488.064 523.574 487.988 523.752C487.912 523.93 487.785 524.108 487.632 524.235C487.328 524.515 486.947 524.667 486.541 524.692Z" fill="white"/>
<path d="M475.676 550.516H475.6L459.887 550.287C459.481 550.236 459.1 550.058 458.821 549.778C458.542 549.473 458.364 549.092 458.364 548.686C458.364 548.482 458.415 548.279 458.491 548.101C458.567 547.923 458.694 547.745 458.821 547.618C458.973 547.491 459.126 547.364 459.329 547.313C459.507 547.237 459.71 547.211 459.913 547.211H459.989L475.702 547.44C476.108 547.44 476.489 547.593 476.793 547.898C477.072 548.177 477.25 548.584 477.25 548.991C477.225 549.397 477.072 549.778 476.768 550.058C476.463 550.312 476.082 550.49 475.676 550.516Z" fill="white"/>
</g>
<defs>
<clipPath id="clip0_8_1439">
<rect width="682" height="603" fill="white"/>
</clipPath>
</defs>
</svg>
