<svg width="539" height="476" viewBox="0 0 539 476" fill="none" xmlns="http://www.w3.org/2000/svg">
<g clip-path="url(#clip0_54_2114)">
<path d="M362.793 221.61H362.672C361.21 221.489 326.655 218.825 316.019 217.002C305.382 215.18 298.09 195.989 290.378 165.842C283.808 139.841 271.609 139.6 271.428 139.6C271.108 139.6 270.787 139.48 270.567 139.24C270.347 139.019 270.206 138.699 270.206 138.378C270.206 138.218 270.206 138.058 270.267 137.918C270.327 137.777 270.407 137.637 270.507 137.517C270.607 137.397 270.747 137.317 270.887 137.257C271.028 137.196 271.188 137.156 271.348 137.156C271.949 137.156 285.631 137.156 292.742 165.221C299.853 193.285 306.764 212.856 316.439 214.559C326.095 216.261 362.492 219.186 362.853 219.186C363.173 219.206 363.494 219.366 363.694 219.627C363.914 219.867 364.014 220.207 363.994 220.528C363.974 220.828 363.814 221.109 363.594 221.309C363.373 221.509 363.073 221.63 362.773 221.63L362.793 221.61Z" fill="#0B0B0B"/>
<path d="M194.166 106.548H126.86C122.834 106.548 119.569 109.813 119.569 113.84V150.437C119.569 154.464 122.834 157.729 126.86 157.729H194.166C198.193 157.729 201.458 154.464 201.458 150.437V113.84C201.458 109.813 198.193 106.548 194.166 106.548Z" fill="#DCE0FF"/>
<path d="M194.167 158.991H126.861C124.597 158.991 122.434 158.089 120.851 156.507C119.249 154.904 118.367 152.741 118.367 150.497V113.86C118.367 111.596 119.269 109.433 120.851 107.85C122.454 106.248 124.617 105.366 126.861 105.366H194.167C196.43 105.366 198.594 106.268 200.176 107.85C201.779 109.453 202.66 111.616 202.66 113.86V150.497C202.66 152.761 201.759 154.924 200.176 156.507C198.574 158.109 196.41 158.991 194.167 158.991ZM126.861 107.77C125.258 107.77 123.696 108.411 122.574 109.553C121.432 110.695 120.791 112.237 120.791 113.84V150.477C120.791 152.08 121.432 153.642 122.574 154.764C123.716 155.906 125.258 156.547 126.861 156.547H194.167C195.769 156.547 197.332 155.906 198.454 154.764C199.595 153.622 200.236 152.08 200.236 150.477V113.84C200.236 112.237 199.595 110.675 198.454 109.553C197.312 108.411 195.769 107.77 194.167 107.77H126.861Z" fill="#0B0B0B"/>
<path d="M424.891 226.297C417.419 226.297 411.35 219.306 411.35 210.692C411.35 202.079 417.419 195.028 424.891 195.028C432.363 195.028 438.432 202.079 438.432 210.692C438.432 219.306 432.363 226.297 424.891 226.297ZM424.891 197.431C418.761 197.431 413.773 203.381 413.773 210.672C413.773 217.964 418.761 223.853 424.891 223.853C431.021 223.853 436.009 217.904 436.009 210.672C436.009 203.441 431.021 197.431 424.891 197.431Z" fill="#0B0B0B"/>
<path d="M536.967 396.145H41.8662C41.5457 396.145 41.2252 396.025 41.0049 395.785C40.7845 395.564 40.6443 395.244 40.6443 394.923C40.6443 394.603 40.7645 394.282 41.0049 394.062C41.2252 393.842 41.5457 393.701 41.8662 393.701H536.988C537.308 393.701 537.629 393.821 537.849 394.062C538.069 394.282 538.209 394.603 538.209 394.923C538.209 395.244 538.089 395.564 537.849 395.785C537.629 396.005 537.308 396.145 536.988 396.145H536.967Z" fill="#0B0B0B"/>
<path d="M360.069 212.315C359.748 211.333 359.728 210.292 359.988 209.31C360.249 208.329 360.79 207.427 361.531 206.726C365.477 203.141 373.309 197.552 380 203.201C389.114 210.913 394.643 211.093 404.899 193.726C405.38 192.904 406.101 192.243 406.963 191.843C410.728 190.2 421.005 186.374 423.248 192.023C426.033 199.014 428.837 231.145 424.65 232.066C420.464 232.968 415.356 225.576 406.963 227.88C398.569 230.183 397.247 229.763 401.374 239.959C405.5 250.155 432.603 320.025 413.533 371.186C413.533 371.186 365.597 431.2 341.359 427.014C317.121 422.827 230.604 426.293 230.604 426.293L135.714 379.098C135.714 379.098 144.108 327.457 198.053 303.279L275.335 301.876C275.335 301.876 241.381 334.929 245.508 366.578C249.634 398.228 252.98 397.267 278.56 402.856C304.14 408.445 343.743 389.374 360.028 367.019C376.314 344.664 388.393 297.71 377.216 264.177C368.522 238.116 362.392 219.346 360.089 212.355L360.069 212.315Z" fill="#0550FC"/>
<path d="M278.299 287.414H121.492C117.506 287.414 114.26 290.659 114.26 294.645V298.331C114.26 302.317 117.506 305.562 121.492 305.562H278.279C282.266 305.562 285.511 302.317 285.511 298.331V294.645C285.511 290.659 282.266 287.414 278.279 287.414H278.299Z" fill="white"/>
<path d="M278.299 306.784H121.492C119.248 306.784 117.105 305.903 115.522 304.32C113.94 302.738 113.058 300.594 113.058 298.351V294.645C113.058 292.401 113.96 290.278 115.542 288.696C117.125 287.113 119.268 286.212 121.492 286.212H278.279C280.523 286.212 282.666 287.093 284.249 288.676C285.831 290.258 286.712 292.401 286.712 294.645V298.351C286.712 300.594 285.831 302.738 284.249 304.32C282.666 305.903 280.523 306.784 278.279 306.784H278.299ZM121.512 288.615C119.929 288.615 118.407 289.276 117.285 290.398C116.163 291.52 115.522 293.042 115.502 294.625V298.331C115.502 299.933 116.143 301.456 117.265 302.577C118.387 303.699 119.929 304.34 121.512 304.34H278.299C279.902 304.34 281.424 303.699 282.546 302.577C283.668 301.456 284.309 299.913 284.309 298.331V294.625C284.309 293.022 283.668 291.5 282.546 290.378C281.424 289.256 279.882 288.615 278.299 288.615H121.492H121.512Z" fill="#0B0B0B"/>
<path d="M352.416 240.019L342.34 248.472C341.98 248.793 341.699 249.193 341.539 249.654C341.379 250.115 341.339 250.595 341.419 251.076C341.84 253.019 343.001 255.944 346.467 256.725C347.208 256.845 347.969 256.665 348.59 256.244L359.347 248.412C359.688 248.152 359.968 247.811 360.149 247.41C360.329 247.03 360.429 246.589 360.429 246.168L360.249 240.52C360.249 240.079 360.108 239.638 359.888 239.237C359.668 238.857 359.347 238.516 358.987 238.276C358.606 238.036 358.185 237.895 357.725 237.855C357.284 237.815 356.823 237.895 356.423 238.076L353.017 239.658L352.416 240.019Z" fill="#0B0B0B"/>
<path d="M280.243 91.1238C280.283 90.0221 279.722 89.1006 278.981 89.0606C278.239 89.0405 277.618 89.9019 277.558 91.0036C277.518 92.1054 278.079 93.0268 278.82 93.0669C279.561 93.0869 280.182 92.2256 280.243 91.1238Z" fill="#0B0B0B"/>
<path d="M283.027 86.6367H282.967L276.096 86.2761C275.695 86.2361 275.335 86.0558 275.075 85.7753C274.814 85.4749 274.674 85.0943 274.694 84.6936C274.694 84.4933 274.734 84.293 274.814 84.1127C274.894 83.9324 275.014 83.7522 275.155 83.632C275.295 83.4917 275.475 83.3916 275.675 83.3315C275.876 83.2714 276.076 83.2313 276.276 83.2514L283.087 83.6119C283.488 83.6119 283.868 83.7922 284.149 84.0727C284.429 84.3731 284.59 84.7537 284.569 85.1544C284.549 85.555 284.389 85.9356 284.109 86.216C283.828 86.4965 283.428 86.6567 283.027 86.6367Z" fill="#0B0B0B"/>
<path d="M274.233 115.843H274.053C271.389 115.362 268.644 112.017 268.284 111.656C268.103 111.396 268.023 111.075 268.043 110.775C268.083 110.454 268.224 110.174 268.464 109.954C268.724 109.753 269.045 109.653 269.385 109.693C269.706 109.733 270.026 109.893 270.227 110.134C271.128 111.296 273.151 113.239 274.473 113.419C274.794 113.499 275.074 113.679 275.255 113.96C275.435 114.24 275.515 114.561 275.455 114.881C275.395 115.162 275.255 115.402 275.014 115.582C274.794 115.763 274.513 115.863 274.233 115.843Z" fill="#0B0B0B"/>
<path d="M268.323 126.059C265.339 126.059 262.494 124.837 259.69 122.353C259.57 122.253 259.47 122.113 259.389 121.972C259.329 121.832 259.289 121.672 259.269 121.512C259.269 121.351 259.289 121.191 259.349 121.051C259.409 120.911 259.49 120.771 259.61 120.65C259.81 120.41 260.11 120.27 260.431 120.25C260.752 120.23 261.072 120.33 261.312 120.53C264.097 123.074 267.021 124.056 269.946 123.515C277.598 121.992 283.247 110.394 283.307 110.274L283.788 109.292L284.83 109.593C285.991 110.014 287.434 110.314 288.115 109.653C288.776 108.992 288.415 104.124 287.394 101.52L287.273 101.22V100.859C288.255 95.3304 287.273 82.2698 287.213 82.0895C287.213 81.9292 287.213 81.769 287.273 81.6288C287.333 81.4685 287.414 81.3483 287.514 81.2281C287.614 81.1079 287.754 81.0078 287.894 80.9477C288.035 80.8876 288.195 80.8475 288.355 80.8275C288.515 80.8275 288.676 80.8275 288.816 80.8675C288.956 80.9076 289.096 80.9877 289.216 81.0879C289.337 81.1881 289.437 81.3082 289.497 81.4485C289.557 81.5887 289.597 81.7489 289.617 81.9092C289.677 82.45 290.659 94.9698 289.737 100.979C290.398 102.802 292.281 108.691 289.797 111.316C288.696 112.477 287.133 112.778 284.99 112.217C283.347 115.202 277.879 124.376 270.287 125.879C269.626 125.999 268.944 126.059 268.283 126.059H268.323Z" fill="#0B0B0B"/>
<path d="M245.668 134.011H245.247C244.947 133.891 244.707 133.651 244.566 133.37C244.426 133.07 244.406 132.749 244.506 132.429C245.848 128.663 248.933 118.026 247.371 114.08V113.96C247.311 113.719 245.308 107.45 245.969 101.14C244.326 100.038 240.62 97.3135 240.019 93.9683C239.899 93.2071 239.959 92.4458 240.159 91.7047C240.36 90.9635 240.74 90.2824 241.221 89.7015C242.563 88.0589 244.005 87.3378 245.588 87.5782C248.753 87.9387 250.696 91.9451 250.936 92.4459C250.997 92.5861 251.037 92.7463 251.057 92.9066C251.057 93.0668 251.057 93.2271 250.976 93.3673C250.916 93.5075 250.836 93.6477 250.716 93.7679C250.596 93.8881 250.476 93.9682 250.315 94.0283C250.175 94.1085 250.015 94.1485 249.875 94.1485C249.714 94.1485 249.554 94.1485 249.414 94.0884C249.274 94.0283 249.134 93.9482 249.013 93.8481C248.893 93.7479 248.813 93.6077 248.733 93.4675C248.312 92.6261 246.85 90.1823 245.267 89.9419C244.606 89.8818 243.865 90.3025 243.084 91.284C242.804 91.5845 242.583 91.925 242.463 92.3257C242.343 92.7263 242.323 93.1269 242.403 93.5276C242.824 96.0115 246.469 98.6356 247.872 99.4169L248.533 99.8375L248.412 100.619C247.571 106.448 249.454 112.638 249.634 113.139C251.878 118.727 247.331 131.728 246.85 133.25C246.75 133.471 246.57 133.671 246.349 133.791C246.129 133.911 245.888 133.991 245.628 133.971L245.668 134.011Z" fill="#0B0B0B"/>
<path d="M248.172 115.122C248.172 115.122 241.661 111.055 238.877 105.827C236.093 100.599 232.988 82.5503 234.811 79.7659C236.633 76.9615 259.65 75.6995 259.65 78.7844C259.65 81.8693 250.355 91.845 250.355 91.845C250.355 91.845 246.289 85.3548 242.082 90.4428C237.895 95.5508 247.25 100.398 247.25 100.398L248.152 115.102L248.172 115.122Z" fill="#0B0B0B"/>
<path d="M287.233 256.365C287.273 256.124 287.374 255.904 287.494 255.704C287.614 255.503 287.794 255.323 287.994 255.203C288.195 255.063 288.415 254.982 288.656 254.922C288.896 254.882 289.136 254.862 289.357 254.922C299.873 257.166 347.068 268.043 346.527 285.11C345.866 304.36 320.165 367.981 320.165 367.981L285.41 369.203C285.41 369.203 296.889 310.57 306.183 304.981L284.429 303.098C284.429 303.098 281.945 287.614 259.65 288.816C237.355 290.038 213.116 291.3 211.233 281.404C209.35 271.508 206.306 247.871 228.601 247.871C250.896 247.871 285.15 266.1 287.233 256.385V256.365Z" fill="#0B0B0B"/>
<path d="M317.181 367.3L316.76 367.179C316.6 367.119 316.46 367.039 316.34 366.939C316.219 366.839 316.119 366.699 316.059 366.559C315.999 366.418 315.959 366.258 315.939 366.098C315.939 365.938 315.959 365.777 316.019 365.617C316.32 365.016 341.9 300.675 337.393 285.01C332.906 269.345 294.746 263.255 294.385 263.195C294.065 263.135 293.784 262.955 293.604 262.695C293.403 262.434 293.323 262.114 293.363 261.793C293.424 261.473 293.604 261.192 293.864 261.012C294.125 260.812 294.445 260.731 294.766 260.772C296.408 261.012 334.929 267.522 339.777 284.349C344.644 301.175 319.364 363.874 318.323 366.538C318.223 366.759 318.062 366.959 317.862 367.099C317.662 367.24 317.421 367.32 317.161 367.32L317.181 367.3Z" fill="white"/>
<path d="M236.193 258.428C230.664 258.428 212.315 258.248 209.891 256.304C209.05 255.643 207.768 254.602 212.075 232.727C214.378 221.429 217.123 209.831 218.264 206.125C219.426 202.419 219.046 196.35 218.865 188.377C218.625 176.298 218.264 161.335 221.049 149.436C224.875 133.03 231.986 130.846 234.891 130.726L237.435 130.486C242.102 129.825 253.6 130.846 258.328 155.025C259.85 163.097 260.391 170.95 260.932 178.602C262.274 198.113 263.296 213.537 280.623 217.363L284.329 218.204C310.931 224.094 321.808 226.658 323.751 230.043C325.694 233.448 330.321 247.35 327.517 250.696C327.176 251.116 326.696 251.397 326.155 251.497C325.634 251.597 325.073 251.537 324.592 251.297C323.13 250.816 316.82 250.195 309.468 249.474C291.36 247.711 266.581 245.287 259.59 239.999C251.076 233.508 233.348 219.947 227.519 178.702C227.499 178.542 227.519 178.381 227.519 178.221C227.559 178.061 227.619 177.921 227.719 177.781C227.82 177.66 227.94 177.54 228.08 177.46C228.22 177.38 228.38 177.32 228.541 177.3C228.861 177.26 229.182 177.36 229.442 177.54C229.703 177.74 229.883 178.021 229.943 178.321C235.592 218.605 252.839 231.726 261.112 238.036C267.482 242.903 292.942 245.387 309.709 247.03C318.643 247.871 323.811 248.432 325.454 249.033H325.694C326.976 247.39 323.691 234.69 321.688 231.165C320.165 228.561 304.14 224.975 283.848 220.468L280.142 219.627C261.072 215.44 259.85 198.373 258.508 178.682C257.967 171.09 257.406 163.318 255.904 155.425C251.657 133.25 241.802 132.209 237.735 132.83L235.011 133.07C232.707 133.19 226.878 135.073 223.413 149.897C220.688 161.495 221.049 176.318 221.289 188.237C221.47 196.75 221.59 203.481 220.628 206.766C217.764 215.881 210.432 250.435 211.514 254.401C213.457 255.303 225.416 255.924 236.173 255.924C236.333 255.924 236.493 255.924 236.654 256.004C236.814 256.064 236.934 256.144 237.054 256.264C237.174 256.385 237.254 256.525 237.315 256.665C237.375 256.825 237.395 256.986 237.395 257.146C237.395 257.306 237.395 257.466 237.315 257.627C237.254 257.787 237.174 257.927 237.054 258.047C236.934 258.167 236.794 258.268 236.654 258.328C236.513 258.388 236.333 258.428 236.173 258.428H236.193Z" fill="#0B0B0B"/>
<path d="M260.992 141.183C253.76 141.183 249.814 138.699 249.574 138.579C249.434 138.499 249.313 138.378 249.233 138.238C249.133 138.098 249.073 137.958 249.033 137.797C248.993 137.637 248.993 137.477 249.033 137.317C249.053 137.156 249.113 137.016 249.213 136.876C249.293 136.736 249.414 136.616 249.554 136.535C249.694 136.435 249.834 136.375 249.995 136.355C250.155 136.315 250.315 136.315 250.475 136.355C250.636 136.375 250.776 136.435 250.916 136.535C250.976 136.596 257.847 140.782 270.046 137.517C269.625 134.652 268.704 127.321 270.106 124.276C270.166 124.136 270.266 123.996 270.387 123.875C270.507 123.755 270.647 123.675 270.807 123.615C270.968 123.555 271.128 123.535 271.288 123.535C271.448 123.535 271.609 123.575 271.749 123.655C272.029 123.795 272.27 124.036 272.37 124.316C272.49 124.617 272.47 124.937 272.37 125.238C271.208 127.782 272.19 135.434 272.67 138.178L272.851 139.28L271.809 139.58C268.303 140.642 264.658 141.183 260.992 141.223V141.183Z" fill="#0B0B0B"/>
<path d="M289.297 219.787H289.176C289.016 219.787 288.856 219.727 288.716 219.647C288.575 219.567 288.455 219.466 288.355 219.346C288.255 219.226 288.175 219.086 288.135 218.925C288.095 218.765 288.075 218.605 288.095 218.445C288.515 213.457 285.791 174.335 285.731 173.975C285.731 173.814 285.731 173.654 285.771 173.494C285.831 173.334 285.911 173.193 286.011 173.073C286.112 172.953 286.252 172.853 286.392 172.793C286.532 172.733 286.692 172.693 286.873 172.693C287.033 172.693 287.193 172.693 287.333 172.733C287.474 172.773 287.614 172.853 287.734 172.953C287.854 173.053 287.954 173.173 288.015 173.334C288.075 173.474 288.115 173.634 288.135 173.794C288.255 175.437 290.939 213.517 290.438 218.685C290.438 218.986 290.298 219.266 290.078 219.466C289.857 219.667 289.577 219.787 289.277 219.787H289.297Z" fill="#0B0B0B"/>
<path d="M288.195 258.728C287.875 258.728 287.554 258.608 287.334 258.368C287.113 258.147 286.973 257.827 286.973 257.506L286.673 246.509C286.633 246.329 286.613 246.148 286.673 245.968C286.713 245.788 286.793 245.628 286.893 245.467C287.013 245.327 287.153 245.207 287.314 245.127C287.474 245.047 287.654 245.007 287.835 244.987C288.015 244.987 288.195 245.027 288.355 245.087C288.516 245.167 288.676 245.267 288.796 245.407C288.916 245.547 288.996 245.708 289.036 245.888C289.076 246.068 289.076 246.249 289.036 246.429L289.397 257.426C289.397 257.747 289.257 258.067 289.036 258.288C288.816 258.528 288.516 258.668 288.195 258.688V258.728Z" fill="#0B0B0B"/>
<path d="M353.077 430.299C352.336 430.159 351.655 429.798 351.154 429.257C350.634 428.717 350.313 428.015 350.233 427.274C349.131 419.262 348.29 393.982 377.696 375.392C412.451 353.458 456.621 380.921 460.807 423.809C460.868 424.53 460.727 425.251 460.367 425.892C460.026 426.533 459.505 427.054 458.864 427.394C451.152 431.521 421.085 443.74 353.097 430.299H353.077Z" fill="white"/>
<path d="M409.206 437.591C394.262 437.591 375.673 436.008 352.837 431.521C351.855 431.321 350.974 430.8 350.293 430.079C349.612 429.358 349.171 428.436 349.011 427.455C347.969 419.802 346.828 393.441 377.015 374.351C392.259 364.756 410.548 363.834 427.074 371.987C446.445 381.402 459.826 401.273 462.009 423.689C462.089 424.65 461.889 425.592 461.428 426.433C460.968 427.274 460.287 427.975 459.445 428.416C454.277 431.14 439.033 437.591 409.206 437.591ZM403.918 368.882C394.823 368.922 385.949 371.526 378.277 376.414C349.352 394.703 350.393 419.843 351.435 427.134C351.515 427.615 351.735 428.056 352.076 428.416C352.416 428.777 352.837 429.017 353.318 429.137C420.864 442.438 450.772 430.299 458.303 426.293C458.724 426.052 459.045 425.712 459.285 425.291C459.505 424.87 459.605 424.39 459.585 423.929C457.462 402.295 444.642 383.225 426.053 374.17C419.182 370.745 411.61 368.922 403.938 368.882H403.918Z" fill="#0B0B0B"/>
<path d="M122.233 431.14C121.532 430.96 120.911 430.6 120.45 430.059C119.97 429.538 119.669 428.877 119.569 428.156C118.347 418.561 116.224 382.403 149.336 356.162C187.356 325.974 235.792 364.115 239.859 423.408C239.899 424.069 239.759 424.73 239.478 425.311C239.198 425.912 238.757 426.413 238.216 426.794C230.684 432.082 198.053 449.99 122.253 431.1L122.233 431.14Z" fill="white"/>
<path d="M183.83 440.796C167.484 440.796 147.072 438.552 121.932 432.342C121.011 432.102 120.17 431.581 119.529 430.86C118.908 430.139 118.507 429.237 118.407 428.276C117.005 417.819 115.242 381.682 148.595 355.201C163.178 343.662 180.184 341.218 196.59 348.45C208.249 353.618 218.645 363.213 226.598 376.214C234.55 389.214 239.839 405.981 241 423.288C241.06 424.169 240.9 425.051 240.52 425.832C240.139 426.633 239.578 427.314 238.857 427.835C233.328 431.721 216.742 440.776 183.81 440.776L183.83 440.796ZM177.881 346.807C168.226 346.807 158.69 350.273 150.057 357.144C117.746 382.784 119.509 417.839 120.771 427.975C120.831 428.436 121.031 428.877 121.352 429.237C121.672 429.598 122.073 429.858 122.533 429.979C147.493 436.168 167.725 438.432 183.89 438.432C216.021 438.432 232.126 429.618 237.475 425.852C237.855 425.592 238.176 425.231 238.376 424.83C238.577 424.41 238.677 423.949 238.637 423.488C236.333 390.316 219.066 361.03 195.629 350.713C190.06 348.189 184.01 346.867 177.881 346.827V346.807Z" fill="#0B0B0B"/>
<path d="M324.773 232.968C324.773 232.968 338.735 237.655 350.233 229.863C361.711 222.09 370.705 232.647 371.006 239.458C371.306 246.269 365.718 253.42 361.711 250.936C361.711 250.936 360.429 250.936 358.606 243.224C356.783 235.512 346.207 244.446 346.207 244.446L327.858 245.347L324.753 232.948L324.773 232.968Z" fill="white"/>
<path d="M363.474 252.719C362.693 252.719 361.911 252.519 361.23 252.118C360.249 251.817 358.987 250.115 357.404 243.484C356.984 241.782 356.182 241.481 355.882 241.421C353.638 240.7 349.251 243.484 346.948 245.367L346.647 245.668L326.956 246.629L323.07 231.145L325.133 231.806C325.314 231.866 338.675 236.173 349.552 228.881C355.682 224.695 360.79 225.716 363.895 227.299C369.063 229.843 372.027 235.432 372.228 239.458C372.408 243.464 369.864 249.794 366.278 251.857C365.437 252.378 364.475 252.679 363.474 252.699V252.719ZM362.192 249.874H362.312C363.113 250.355 364.035 250.295 365.036 249.694C367.46 248.292 369.964 243.985 369.784 239.498C369.664 236.213 366.999 231.545 362.853 229.422C360.249 228.14 356.102 227.359 350.894 230.884C341.599 237.134 330.902 235.692 326.475 234.65L328.839 244.125L345.726 243.284C347.248 242.002 352.777 237.815 356.663 239.097C357.765 239.458 359.147 240.379 359.768 242.923C361.05 248.212 361.951 249.614 362.192 249.914V249.874Z" fill="#0B0B0B"/>
<path d="M366.318 251.257H366.198C366.038 251.237 365.878 251.176 365.737 251.096C365.597 251.016 365.477 250.896 365.377 250.776C365.277 250.656 365.217 250.495 365.176 250.335C365.136 250.175 365.136 250.015 365.176 249.854C366.218 242.082 363.654 240.259 363.594 240.259C363.334 240.099 363.153 239.839 363.093 239.538C363.013 239.238 363.053 238.937 363.213 238.677C363.374 238.416 363.594 238.216 363.874 238.116C364.155 238.016 364.475 238.036 364.756 238.156C365.176 238.396 368.882 240.7 367.54 250.235C367.5 250.515 367.34 250.796 367.12 250.976C366.899 251.176 366.619 251.277 366.318 251.257Z" fill="#0B0B0B"/>
<path d="M201.137 286.312H116.764C115.622 286.312 114.521 285.851 113.719 285.05C112.918 284.249 112.457 283.147 112.457 282.005V224.294C112.457 223.152 112.918 222.05 113.719 221.249C114.521 220.448 115.622 219.987 116.764 219.987H201.137C202.279 219.987 203.381 220.448 204.182 221.249C204.983 222.05 205.444 223.152 205.444 224.294V282.005C205.444 283.147 204.983 284.249 204.182 285.05C203.381 285.851 202.279 286.312 201.137 286.312ZM116.764 222.411C116.263 222.411 115.783 222.611 115.442 222.972C115.082 223.332 114.881 223.813 114.881 224.294V282.005C114.881 282.506 115.082 282.987 115.442 283.347C115.803 283.708 116.283 283.888 116.764 283.888H201.137C201.638 283.888 202.119 283.688 202.459 283.347C202.82 282.987 203.02 282.506 203.02 282.005V224.294C203.02 223.793 202.82 223.312 202.459 222.972C202.099 222.611 201.618 222.411 201.137 222.411H116.764Z" fill="#0B0B0B"/>
<path d="M187.176 157.589H102.803C101.1 157.589 99.6976 158.971 99.6976 160.694V218.405C99.6976 220.107 101.08 221.51 102.803 221.51H187.176C188.878 221.51 190.281 220.127 190.281 218.405V160.694C190.281 158.991 188.898 157.589 187.176 157.589Z" fill="#0B0B0B"/>
<path d="M173.253 286.312C172.973 286.312 172.713 286.212 172.492 286.051C172.272 285.891 172.112 285.651 172.031 285.39L127.862 106.047C127.782 105.747 127.842 105.426 128.002 105.146C128.162 104.866 128.423 104.665 128.723 104.585C128.883 104.545 129.044 104.545 129.204 104.585C129.364 104.605 129.504 104.665 129.645 104.745C129.785 104.825 129.905 104.946 129.985 105.066C130.085 105.186 130.145 105.346 130.185 105.507L174.415 284.789C174.495 285.11 174.415 285.45 174.275 285.731C174.095 286.011 173.834 286.212 173.514 286.312H173.273H173.253Z" fill="#0550FC"/>
<path d="M141.904 286.011H141.604C141.443 285.971 141.303 285.911 141.183 285.811C141.063 285.711 140.943 285.591 140.863 285.471C140.782 285.33 140.722 285.19 140.722 285.03C140.722 284.87 140.722 284.709 140.762 284.569L184.632 105.246C184.712 104.926 184.892 104.665 185.172 104.485C185.453 104.305 185.773 104.265 186.094 104.325C186.414 104.405 186.675 104.585 186.855 104.866C187.015 105.146 187.075 105.466 187.015 105.787L143.086 285.13C143.026 285.39 142.886 285.631 142.665 285.791C142.445 285.951 142.185 286.051 141.924 286.031L141.904 286.011Z" fill="#0550FC"/>
<path d="M120.59 216.522C127.762 216.522 133.591 210.833 133.591 203.822C133.591 196.811 127.762 191.122 120.59 191.122C113.419 191.122 107.59 196.811 107.59 203.822C107.59 210.833 113.419 216.522 120.59 216.522Z" fill="#0550FC"/>
<path d="M188.197 252.298H178.362C176.098 252.298 173.935 251.397 172.352 249.814C170.75 248.212 169.868 246.048 169.868 243.805V238.937C169.868 236.673 170.77 234.51 172.352 232.928C173.955 231.325 176.118 230.444 178.362 230.444H188.197C190.461 230.444 192.624 231.345 194.207 232.928C195.809 234.53 196.691 236.693 196.691 238.937V243.805C196.691 246.068 195.789 248.232 194.207 249.814C192.604 251.417 190.441 252.298 188.197 252.298ZM178.362 232.867C176.739 232.867 175.197 233.508 174.075 234.65C172.933 235.792 172.292 237.334 172.292 238.937V243.805C172.292 245.407 172.933 246.97 174.075 248.091C175.217 249.233 176.759 249.874 178.362 249.874H188.197C189.8 249.874 191.362 249.233 192.484 248.091C193.626 246.95 194.267 245.407 194.267 243.805V238.937C194.267 237.314 193.626 235.772 192.484 234.65C191.342 233.508 189.8 232.867 188.197 232.867H178.362Z" fill="#0B0B0B"/>
<path d="M190.08 239.057H176.839C176.519 239.057 176.198 238.937 175.978 238.697C175.757 238.476 175.617 238.156 175.617 237.835C175.617 237.515 175.737 237.194 175.978 236.974C176.198 236.754 176.519 236.613 176.839 236.613H190.08C190.401 236.613 190.721 236.734 190.941 236.974C191.162 237.194 191.302 237.515 191.302 237.835C191.302 238.156 191.182 238.476 190.941 238.697C190.721 238.917 190.401 239.057 190.08 239.057Z" fill="#0B0B0B"/>
<path d="M187.416 244.886H179.143C178.823 244.886 178.502 244.766 178.282 244.526C178.061 244.306 177.921 243.985 177.921 243.665C177.921 243.344 178.041 243.024 178.282 242.803C178.522 242.583 178.823 242.443 179.143 242.443H187.416C187.737 242.443 188.057 242.563 188.278 242.803C188.498 243.024 188.638 243.344 188.638 243.665C188.638 243.985 188.518 244.306 188.278 244.526C188.057 244.746 187.737 244.886 187.416 244.886Z" fill="#0B0B0B"/>
<path d="M125.398 201.819H115.442C115.282 201.819 115.122 201.819 114.962 201.738C114.801 201.678 114.681 201.598 114.561 201.478C114.441 201.358 114.361 201.218 114.301 201.077C114.24 200.917 114.22 200.757 114.22 200.597C114.22 200.276 114.341 199.956 114.581 199.735C114.801 199.515 115.122 199.375 115.442 199.375H125.398C125.719 199.375 126.039 199.495 126.259 199.735C126.48 199.956 126.62 200.276 126.62 200.597C126.62 200.757 126.62 200.917 126.54 201.077C126.48 201.238 126.4 201.358 126.279 201.478C126.159 201.598 126.019 201.678 125.879 201.738C125.719 201.799 125.558 201.819 125.398 201.819Z" fill="#0B0B0B"/>
<path d="M123.315 208.85H117.906C117.586 208.85 117.265 208.729 117.045 208.489C116.825 208.269 116.684 207.948 116.684 207.628C116.684 207.307 116.805 206.987 117.045 206.766C117.265 206.546 117.586 206.406 117.906 206.406H123.315C123.635 206.406 123.956 206.526 124.176 206.766C124.397 206.987 124.537 207.307 124.537 207.628C124.537 207.948 124.417 208.269 124.176 208.489C123.956 208.709 123.635 208.85 123.315 208.85Z" fill="#0B0B0B"/>
<path d="M285.531 375.432L285.891 397.247C285.932 399.971 286.993 402.595 288.836 404.599C290.679 406.602 293.203 407.864 295.927 408.124L342.461 409.346C352.477 410.328 356.683 400.111 348.11 394.703C346.908 394.002 345.586 393.521 344.224 393.241C333.527 391.418 328.619 386.61 328.058 372.588C327.998 371.306 327.437 370.104 326.516 369.223C325.594 368.341 324.352 367.841 323.07 367.841L292.702 368.141C291.761 368.141 290.819 368.341 289.938 368.722C289.056 369.103 288.275 369.623 287.614 370.304C286.953 370.985 286.412 371.787 286.072 372.668C285.711 373.55 285.531 374.491 285.551 375.432H285.531Z" fill="white"/>
<path d="M343.723 410.608H342.32L295.787 409.386C292.782 409.106 289.978 407.723 287.935 405.5C285.891 403.276 284.73 400.392 284.669 397.367L284.309 375.553C284.309 373.309 285.15 371.166 286.713 369.563C288.275 367.961 290.398 367.039 292.622 366.979L323.05 366.679H323.11C324.713 366.679 326.235 367.3 327.377 368.421C328.519 369.523 329.18 371.046 329.24 372.648C329.781 386.931 335.009 390.516 344.364 392.159C345.906 392.379 347.368 392.94 348.67 393.801C352.917 396.406 354.8 400.672 353.478 404.558C352.136 408.445 348.991 410.628 343.703 410.628L343.723 410.608ZM295.967 406.902L342.501 408.124C347.609 408.605 350.393 406.061 351.194 403.697C351.976 401.333 350.714 397.808 347.428 395.744C346.367 395.123 345.225 394.703 344.023 394.462C332.004 392.399 327.377 386.51 326.836 372.648C326.796 371.687 326.395 370.785 325.714 370.104C325.013 369.443 324.092 369.062 323.13 369.062H323.07L292.702 369.363C291.921 369.363 291.14 369.543 290.398 369.844C289.677 370.144 289.016 370.605 288.455 371.166C287.895 371.727 287.474 372.388 287.173 373.129C286.873 373.87 286.733 374.651 286.733 375.432L287.093 397.247C287.093 399.671 288.035 401.994 289.677 403.777C291.32 405.56 293.563 406.682 295.967 406.902Z" fill="#0B0B0B"/>
<path d="M299.914 393C302.798 393 305.142 390.657 305.142 387.772C305.142 384.887 302.798 382.544 299.914 382.544C297.029 382.544 294.685 384.887 294.685 387.772C294.685 390.657 297.029 393 299.914 393Z" fill="#CCFF00"/>
<path d="M330.181 396.325H329.821C329.52 396.205 329.28 395.985 329.12 395.684C328.979 395.404 328.939 395.063 329.019 394.743C329.68 392.62 331.002 390.777 332.805 389.455C334.608 388.133 336.772 387.431 338.995 387.451C339.316 387.451 339.636 387.612 339.856 387.852C340.077 388.092 340.217 388.413 340.217 388.733C340.217 388.894 340.177 389.054 340.117 389.214C340.057 389.354 339.957 389.495 339.836 389.595C339.716 389.695 339.576 389.795 339.416 389.835C339.256 389.895 339.095 389.895 338.935 389.895C338.755 389.895 333.166 389.835 331.343 395.544C331.263 395.785 331.103 395.985 330.882 396.125C330.682 396.265 330.422 396.345 330.181 396.345V396.325Z" fill="#0B0B0B"/>
<path d="M337.152 399.971H336.792C336.491 399.871 336.231 399.651 336.07 399.37C335.91 399.09 335.87 398.749 335.95 398.449C337.593 392.499 343.662 390.737 346.587 390.616C346.908 390.616 347.228 390.737 347.468 390.977C347.709 391.197 347.849 391.518 347.869 391.838C347.869 391.999 347.869 392.159 347.809 392.299C347.749 392.439 347.669 392.58 347.569 392.7C347.468 392.82 347.328 392.9 347.188 392.96C347.048 393.02 346.887 393.06 346.727 393.06C346.427 393.12 339.916 393.421 338.334 399.13C338.254 399.37 338.094 399.591 337.893 399.731C337.693 399.891 337.433 399.971 337.192 399.971H337.152Z" fill="#0B0B0B"/>
<path d="M274.774 377.135L275.074 399.731C275.115 402.555 276.216 405.26 278.119 407.343C280.022 409.426 282.646 410.708 285.451 410.969L333.687 412.251C344.083 413.212 348.39 402.655 339.516 397.067C338.294 396.285 336.932 395.785 335.51 395.544C324.452 393.661 319.344 388.613 318.743 374.15C318.703 372.828 318.162 371.566 317.201 370.645C316.239 369.723 314.957 369.223 313.635 369.243L282.106 369.543C281.124 369.543 280.142 369.764 279.241 370.144C278.34 370.525 277.518 371.106 276.837 371.807C276.156 372.508 275.615 373.349 275.255 374.271C274.894 375.192 274.734 376.174 274.754 377.155L274.774 377.135Z" fill="white"/>
<path d="M335.029 413.533H333.567L285.331 412.251C282.226 411.95 279.321 410.508 277.218 408.224C275.094 405.921 273.913 402.936 273.853 399.811L273.552 377.215C273.512 376.074 273.712 374.932 274.133 373.87C274.554 372.808 275.175 371.827 275.976 371.026C277.598 369.383 279.802 368.461 282.106 368.421L313.635 368.121C315.278 368.121 316.86 368.722 318.042 369.864C319.224 371.006 319.905 372.548 319.965 374.191C320.566 388.954 326.215 392.84 335.69 394.422C337.293 394.703 338.815 395.264 340.177 396.125C344.484 398.849 346.427 403.236 345.105 407.243C343.763 411.249 340.478 413.553 335.029 413.553V413.533ZM285.571 409.767L333.747 411.049C339.095 411.529 341.94 408.865 342.801 406.361C343.643 403.877 342.321 400.232 338.855 398.108C337.773 397.447 336.571 396.987 335.33 396.766C322.93 394.643 318.142 388.493 317.581 374.231C317.541 373.229 317.101 372.268 316.38 371.566C315.658 370.865 314.697 370.465 313.695 370.465H313.635L282.106 370.765C281.284 370.765 280.483 370.925 279.722 371.266C278.961 371.586 278.3 372.067 277.739 372.668C277.158 373.249 276.697 373.93 276.397 374.691C276.096 375.453 275.956 376.274 275.976 377.095L276.276 399.691C276.316 402.215 277.298 404.639 279.001 406.502C280.723 408.364 283.047 409.526 285.571 409.787V409.767Z" fill="#0B0B0B"/>
<path d="M289.657 395.304C292.642 395.304 295.066 392.88 295.066 389.895C295.066 386.911 292.642 384.487 289.657 384.487C286.673 384.487 284.249 386.911 284.249 389.895C284.249 392.88 286.673 395.304 289.657 395.304Z" fill="#0550FC"/>
<path d="M321.007 398.649H320.646C320.486 398.609 320.346 398.529 320.205 398.409C320.085 398.309 319.985 398.168 319.905 398.028C319.825 397.888 319.785 397.728 319.785 397.547C319.785 397.387 319.785 397.227 319.865 397.067C320.546 394.883 321.908 392.96 323.751 391.598C325.594 390.236 327.837 389.515 330.121 389.535C330.441 389.555 330.742 389.715 330.962 389.935C331.183 390.176 331.323 390.476 331.323 390.797C331.323 390.957 331.283 391.117 331.203 391.257C331.143 391.398 331.042 391.538 330.922 391.638C330.802 391.738 330.662 391.838 330.522 391.878C330.361 391.939 330.201 391.959 330.061 391.939C329.821 391.939 324.051 391.878 322.168 397.828C322.068 398.048 321.908 398.249 321.708 398.389C321.507 398.529 321.267 398.609 321.007 398.609V398.649Z" fill="#0B0B0B"/>
<path d="M328.178 402.475H327.877C327.717 402.435 327.577 402.355 327.437 402.255C327.317 402.155 327.196 402.034 327.116 401.894C327.036 401.754 326.996 401.594 326.976 401.434C326.976 401.273 326.976 401.113 327.016 400.953C328.719 394.823 334.969 393 338.014 392.88C338.334 392.88 338.655 393 338.875 393.241C339.095 393.461 339.235 393.781 339.235 394.102C339.235 394.262 339.235 394.422 339.175 394.563C339.115 394.703 339.035 394.843 338.935 394.963C338.835 395.083 338.695 395.164 338.554 395.224C338.414 395.284 338.254 395.324 338.094 395.324C337.793 395.384 331.043 395.684 329.4 401.634C329.32 401.894 329.16 402.115 328.939 402.275C328.719 402.435 328.458 402.495 328.178 402.495V402.475Z" fill="#0B0B0B"/>
<path d="M113.84 341.239H113.539L15.7851 314.196C15.6248 314.156 15.4846 314.076 15.3444 313.975C15.2242 313.875 15.104 313.755 15.0239 313.615C14.9438 313.475 14.9037 313.314 14.8837 313.154C14.8837 312.994 14.8837 312.834 14.9237 312.673C15.0239 312.373 15.2242 312.113 15.5247 311.952C15.8051 311.792 16.1457 311.752 16.4461 311.832L114.14 338.875C114.401 338.955 114.641 339.135 114.801 339.376C114.962 339.616 115.022 339.896 114.982 340.177C114.942 340.457 114.821 340.718 114.601 340.918C114.401 341.118 114.12 341.218 113.84 341.239Z" fill="#0B0B0B"/>
<path d="M68.3482 371.066L1.22228 369.183C0.901777 369.163 0.601302 369.002 0.380955 368.782C0.160607 368.542 0.0203857 368.241 0.0203857 367.921C0.0203857 367.6 0.180639 367.32 0.400986 367.099C0.621334 366.879 0.921808 366.759 1.24231 366.759H1.30241L64.4821 368.522L56.9502 352.536L116.785 358.366C117.105 358.406 117.406 358.566 117.606 358.806C117.806 359.067 117.906 359.387 117.866 359.708C117.826 360.028 117.666 360.329 117.426 360.529C117.165 360.729 116.845 360.829 116.524 360.789L60.9365 355.381L68.3482 371.046V371.066Z" fill="#0B0B0B"/>
<path d="M471.184 81.5888C470.964 81.5888 470.763 81.5287 470.583 81.4085L443.921 64.2815V31.9505C443.921 31.63 444.041 31.3094 444.282 31.0891C444.502 30.8688 444.822 30.7285 445.143 30.7285C445.463 30.7285 445.784 30.8487 446.004 31.0891C446.225 31.3094 446.365 31.63 446.365 31.9505V62.9394L471.885 79.3453C472.146 79.5255 472.346 79.806 472.406 80.1265C472.466 80.447 472.406 80.7675 472.246 81.0479C472.126 81.2282 471.985 81.3484 471.805 81.4486C471.625 81.5487 471.424 81.5888 471.224 81.5888H471.184Z" fill="#0B0B0B"/>
<path d="M402.355 24.7791H402.175C400.372 24.6789 398.649 24.0179 397.247 22.8961C395.805 21.7944 394.803 20.2319 394.403 18.4691C394.162 17.6679 394.122 16.8266 394.282 16.0253C394.443 15.204 394.803 14.4428 395.324 13.8018C395.845 13.1608 396.526 12.66 397.287 12.3194C398.048 11.9789 398.87 11.8187 399.711 11.8587C401.514 11.9589 403.237 12.6199 404.639 13.7617C406.041 14.9035 407.063 16.446 407.543 18.1887C407.784 18.99 407.804 19.8513 407.664 20.6726C407.503 21.4939 407.163 22.2752 406.642 22.9362C406.121 23.5572 405.48 24.0379 404.739 24.3785C403.998 24.699 403.197 24.8592 402.395 24.8192L402.355 24.7791ZM399.551 14.2625C399.11 14.2224 398.649 14.3026 398.249 14.4829C397.828 14.6631 397.467 14.9436 397.187 15.2841C396.907 15.6447 396.706 16.0854 396.626 16.5261C396.546 16.9868 396.566 17.4475 396.706 17.8882C397.047 19.1102 397.768 20.1919 398.77 20.9931C399.751 21.8144 400.973 22.2752 402.235 22.3352C402.696 22.3553 403.156 22.2752 403.597 22.0949C404.018 21.9146 404.418 21.6542 404.719 21.2936C404.999 20.913 405.18 20.4923 405.24 20.0316C405.32 19.5709 405.28 19.1102 405.14 18.6695C404.839 17.4275 404.098 16.3258 403.076 15.5646C402.075 14.7833 400.873 14.3226 399.611 14.2224H399.551V14.2625Z" fill="#0B0B0B"/>
<path d="M390.797 21.9346C389.675 21.9346 388.593 21.574 387.692 20.8929C386.59 20.0316 385.849 18.8096 385.629 17.4275C385.428 16.0453 385.769 14.6631 386.59 13.5413L391.939 6.30991C392.319 5.74903 392.82 5.26827 393.421 4.9077C394.002 4.54713 394.663 4.32678 395.344 4.24665C396.025 4.12646 396.726 4.1465 397.387 4.32678C398.048 4.50707 398.689 4.80754 399.23 5.2282C399.791 5.6088 400.272 6.10959 400.632 6.71054C400.993 7.29146 401.213 7.9525 401.293 8.63358C401.413 9.31465 401.393 9.99573 401.233 10.6768C401.073 11.3378 400.792 11.9789 400.392 12.5197L395.043 19.8112C394.182 20.913 392.96 21.6541 391.578 21.8745L390.797 21.9346ZM396.145 6.63042H395.724C395.364 6.69051 395.003 6.83073 394.703 7.03105C394.382 7.23136 394.122 7.49178 393.902 7.79225L388.553 15.0237C388.133 15.6246 387.952 16.3658 388.072 17.0869C388.112 17.4675 388.213 17.8281 388.413 18.1486C388.593 18.4691 388.854 18.7495 389.174 18.9699C389.775 19.3906 390.516 19.5708 391.237 19.4506C391.979 19.3505 392.66 18.9499 393.12 18.3489L398.409 11.1175C398.649 10.817 398.809 10.4765 398.91 10.1159C399.01 9.75535 399.01 9.37475 398.95 8.99415C398.889 8.63358 398.769 8.29304 398.589 7.97253C398.409 7.65203 398.148 7.39162 397.868 7.17127C397.367 6.8107 396.786 6.61038 396.165 6.63042H396.145Z" fill="#0B0B0B"/>
<path d="M495.963 25.4C495.162 25.4401 494.36 25.2798 493.619 24.9593C492.878 24.6388 492.237 24.138 491.716 23.5171C491.195 22.856 490.855 22.0748 490.695 21.2535C490.534 20.4322 490.574 19.5909 490.795 18.7696C491.296 17.0468 492.317 15.5244 493.719 14.4027C495.122 13.2809 496.844 12.6199 498.627 12.5197C499.448 12.4596 500.27 12.6199 501.031 12.9404C501.792 13.2609 502.453 13.7617 502.994 14.4027C505.057 16.8866 504.156 21.0331 501.051 23.5171C499.669 24.6989 497.946 25.36 496.123 25.4H495.943H495.963ZM498.747 14.8834H498.627C497.385 14.9836 496.183 15.4443 495.222 16.2256C494.24 17.0068 493.539 18.0685 493.159 19.2503C493.018 19.691 492.978 20.1718 493.058 20.6325C493.138 21.0932 493.319 21.5339 493.579 21.9145C493.88 22.2751 494.26 22.5355 494.701 22.7158C495.142 22.876 495.602 22.9361 496.063 22.8961C497.325 22.836 498.547 22.3753 499.529 21.554C501.532 19.9114 502.253 17.3073 501.111 15.845C500.831 15.5044 500.45 15.244 500.049 15.0637C499.629 14.9035 499.188 14.8233 498.747 14.8634V14.8834Z" fill="#0B0B0B"/>
<path d="M507.501 22.5356C506.68 22.5356 505.859 22.3553 505.118 21.9747C504.376 21.6142 503.735 21.0733 503.255 20.3922L497.906 13.1608C497.105 11.999 496.764 10.5968 496.925 9.21459C497.045 8.53352 497.285 7.89251 497.646 7.29156C498.006 6.71064 498.487 6.20985 499.048 5.80922C499.589 5.38855 500.23 5.08808 500.891 4.92783C501.552 4.76757 502.253 4.72751 502.934 4.82767C504.296 5.04802 505.518 5.78919 506.339 6.89092L511.688 14.1223C512.509 15.2441 512.85 16.6463 512.649 18.0285C512.449 19.4107 511.708 20.6526 510.586 21.4739C509.705 22.155 508.603 22.5156 507.481 22.5156L507.501 22.5356ZM502.153 7.23146C501.552 7.23146 500.951 7.41175 500.45 7.77232C500.15 7.99266 499.909 8.25307 499.709 8.57358C499.529 8.89409 499.388 9.23462 499.348 9.59519C499.228 10.3364 499.388 11.0976 499.829 11.7185L505.178 18.95C505.658 19.4307 506.299 19.7312 506.98 19.7913C507.662 19.8514 508.343 19.6511 508.904 19.2504C509.464 18.8498 509.845 18.2488 510.005 17.5878C510.166 16.9268 510.065 16.2257 509.745 15.6047L504.396 8.37326C504.196 8.07279 503.916 7.81238 503.615 7.63209C503.295 7.45181 502.954 7.33162 502.574 7.29156L502.153 7.23146Z" fill="#0B0B0B"/>
<path d="M403.737 120.65L403.016 120.47C382.844 105.887 378.958 84.7538 378.778 83.8323C378.738 83.5118 378.818 83.1913 379.018 82.9309C379.219 82.6705 379.499 82.4902 379.799 82.4301C380.12 82.37 380.44 82.4301 380.701 82.6304C380.961 82.8107 381.142 83.0912 381.202 83.4117C381.202 83.6521 385.088 104.485 404.398 118.467C404.659 118.667 404.819 118.948 404.879 119.248C404.939 119.569 404.879 119.889 404.699 120.15C404.579 120.29 404.438 120.41 404.258 120.51C404.098 120.59 403.897 120.63 403.717 120.65H403.737Z" fill="#0B0B0B"/>
<path d="M414.434 138.819H414.014C385.409 128.984 376.595 101.1 376.535 100.799C376.474 100.639 376.454 100.479 376.474 100.318C376.474 100.158 376.535 99.9978 376.595 99.8576C376.675 99.7174 376.775 99.5972 376.895 99.497C377.015 99.3969 377.176 99.3167 377.316 99.2767C377.616 99.1765 377.957 99.2166 378.237 99.3568C378.518 99.497 378.738 99.7574 378.838 100.058C378.898 100.358 387.412 127.101 414.795 136.515C415.095 136.636 415.356 136.856 415.516 137.156C415.656 137.457 415.696 137.797 415.596 138.098C415.496 138.318 415.336 138.499 415.115 138.639C414.915 138.759 414.675 138.839 414.434 138.839V138.819Z" fill="#0B0B0B"/>
<path d="M505.618 110.875C505.458 110.875 505.298 110.875 505.157 110.815C505.017 110.755 504.877 110.675 504.757 110.574C504.637 110.474 504.536 110.334 504.476 110.194C504.416 110.054 504.376 109.893 504.376 109.733C504.376 109.573 504.416 109.413 504.476 109.272C504.536 109.132 504.637 108.992 504.757 108.892C515.514 97.6541 518.358 81.3083 518.358 81.128C518.378 80.9677 518.438 80.8075 518.539 80.6873C518.619 80.5471 518.739 80.4269 518.879 80.3468C519.019 80.2466 519.16 80.1865 519.32 80.1464C519.48 80.1064 519.64 80.1064 519.801 80.1464C519.961 80.1665 520.121 80.2266 520.241 80.3267C520.381 80.4069 520.502 80.527 520.582 80.6673C520.682 80.8075 520.742 80.9477 520.782 81.108C520.822 81.2682 520.822 81.4285 520.782 81.5887C520.662 82.2498 517.797 98.8359 506.5 110.574C506.259 110.815 505.919 110.935 505.598 110.935L505.618 110.875Z" fill="#0B0B0B"/>
<path d="M497.245 129.024C497.045 129.024 496.824 128.964 496.644 128.843C496.464 128.743 496.303 128.583 496.203 128.403C496.123 128.262 496.063 128.102 496.043 127.942C496.043 127.782 496.043 127.621 496.083 127.461C496.123 127.301 496.203 127.161 496.303 127.04C496.404 126.92 496.544 126.82 496.684 126.74C515.093 116.404 518.859 103.844 518.859 103.724C518.939 103.403 519.159 103.143 519.44 102.983C519.58 102.902 519.74 102.862 519.901 102.842C520.061 102.842 520.221 102.842 520.381 102.882C520.542 102.922 520.682 103.003 520.802 103.103C520.922 103.203 521.042 103.323 521.123 103.463C521.203 103.604 521.263 103.764 521.263 103.924C521.263 104.084 521.263 104.245 521.223 104.405C521.042 104.946 517.156 118.006 497.826 128.883L497.225 129.004L497.245 129.024Z" fill="#0B0B0B"/>
<path d="M176.659 474.689C200.957 474.689 220.648 455.96 220.648 432.843C220.648 409.727 200.957 390.977 176.659 390.977C152.361 390.977 132.669 409.727 132.669 432.843C132.669 455.96 152.361 474.689 176.659 474.689Z" fill="#0B0B0B"/>
<path d="M176.599 463.151C194.147 463.151 208.369 449.61 208.369 432.903C208.369 416.197 194.147 402.655 176.599 402.655C159.051 402.655 144.829 416.197 144.829 432.903C144.829 449.61 159.051 463.151 176.599 463.151Z" fill="white"/>
<path d="M176.599 464.373C158.43 464.373 143.607 450.271 143.607 432.903C143.607 415.536 158.43 401.434 176.599 401.434C194.767 401.434 209.591 415.596 209.591 432.903C209.591 450.21 194.828 464.373 176.599 464.373ZM176.599 403.857C159.772 403.857 146.051 416.918 146.051 432.903C146.051 448.888 159.772 461.949 176.599 461.949C193.425 461.949 207.147 448.948 207.147 432.903C207.147 416.858 193.425 403.857 176.599 403.857Z" fill="#0B0B0B"/>
<path d="M176.298 446.444C184.191 446.444 190.581 440.355 190.581 432.843C190.581 425.331 184.191 419.242 176.298 419.242C168.406 419.242 162.016 425.331 162.016 432.843C162.016 440.355 168.406 446.444 176.298 446.444Z" fill="#0550FC"/>
<path d="M148.775 115.542L166.203 115.122C166.603 115.122 166.964 115.282 167.264 115.542C167.545 115.823 167.705 116.183 167.725 116.584L168.827 132.189C168.827 132.589 168.706 132.99 168.426 133.31C168.146 133.611 167.765 133.811 167.364 133.831L147.994 134.993C147.773 134.993 147.573 134.993 147.353 134.913C147.152 134.833 146.972 134.733 146.812 134.572C146.652 134.432 146.531 134.252 146.451 134.052C146.371 133.851 146.331 133.631 146.351 133.431L147.253 117.025C147.253 116.624 147.433 116.263 147.713 115.983C147.994 115.703 148.374 115.562 148.775 115.562V115.542Z" fill="#0550FC"/>
<path d="M163.058 121.672H151.7C151.379 121.672 151.059 121.552 150.838 121.311C150.618 121.091 150.478 120.771 150.478 120.45C150.478 120.13 150.598 119.809 150.838 119.589C151.059 119.368 151.379 119.228 151.7 119.228H163.058C163.378 119.228 163.699 119.348 163.919 119.589C164.139 119.809 164.28 120.13 164.28 120.45C164.28 120.771 164.159 121.091 163.919 121.311C163.699 121.532 163.378 121.672 163.058 121.672Z" fill="white"/>
<path d="M448.388 1.28201C436.148 1.28201 424.17 4.90773 413.994 11.7185C403.817 18.5292 395.885 28.2045 391.198 39.5023C386.51 50.8202 385.288 63.2598 387.692 75.2788C390.076 87.2978 395.985 98.3151 404.659 106.969C413.312 115.622 424.35 121.512 436.369 123.896C448.388 126.279 460.827 125.037 472.145 120.35C483.463 115.663 493.118 107.71 499.909 97.5139C506.7 87.3178 510.326 75.3589 510.306 63.0996C510.306 46.6937 503.755 30.9689 492.157 19.3706C480.539 7.77225 464.814 1.26198 448.408 1.26198L448.388 1.28201ZM448.388 112.938C438.532 112.938 428.897 110.014 420.704 104.545C412.511 99.0763 406.121 91.284 402.355 82.1897C398.589 73.0953 397.608 63.0795 399.511 53.4043C401.434 43.749 406.181 34.855 413.152 27.904C420.123 20.933 428.997 16.1855 438.652 14.2625C448.308 12.3395 458.323 13.321 467.438 17.107C476.552 20.893 484.325 27.263 489.793 35.4559C495.262 43.6489 498.186 53.2841 498.186 63.1396C498.186 76.3605 492.938 89.0205 483.603 98.3552C474.269 107.69 461.589 112.938 448.388 112.938Z" fill="#DCE0FF"/>
<path d="M448.388 126.239C435.908 126.239 423.709 122.533 413.313 115.602C402.936 108.672 394.843 98.816 390.056 87.2778C385.268 75.7396 384.026 63.0596 386.47 50.8002C388.914 38.5609 394.924 27.3031 403.737 18.4892C412.571 9.65528 423.809 3.6458 436.048 1.22197C448.288 -1.22189 460.988 0.0401058 472.526 4.80763C484.064 9.57515 493.92 17.6679 500.851 28.0643C507.782 38.4407 511.487 50.64 511.487 63.1397C511.487 79.8661 504.817 95.9114 492.978 107.75C481.14 119.589 465.094 126.239 448.368 126.259L448.388 126.239ZM448.388 2.48396C436.389 2.48396 424.65 6.04959 414.675 12.7201C404.699 19.3906 396.907 28.8656 392.319 39.9631C387.732 51.0606 386.53 63.2599 388.874 75.0385C391.218 86.8171 397.007 97.6341 405.5 106.108C413.994 114.601 424.811 120.37 436.589 122.694C448.368 125.037 460.567 123.815 471.665 119.208C482.762 114.601 492.237 106.809 498.888 96.8329C505.558 86.8371 509.104 75.0986 509.084 63.0996C509.044 47.0142 502.654 31.6099 491.276 20.252C479.898 8.89408 464.473 2.50399 448.408 2.48396H448.388ZM448.388 114.14C438.292 114.14 428.436 111.155 420.043 105.547C411.65 99.9378 405.12 91.9652 401.254 82.6505C397.387 73.3358 396.386 63.0596 398.349 53.164C400.312 43.2683 405.18 34.174 412.311 27.0427C419.442 19.9115 428.537 15.0438 438.432 13.0807C448.328 11.1176 458.584 12.1192 467.919 15.9853C477.233 19.8514 485.206 26.3817 490.815 34.7749C496.424 43.1682 499.408 53.0237 499.408 63.1197C499.408 76.641 494.02 89.6215 484.445 99.1766C474.87 108.752 461.909 114.12 448.388 114.14ZM448.388 14.563C438.773 14.563 429.378 17.4075 421.385 22.756C413.393 28.1044 407.163 35.6964 403.477 44.5704C399.791 53.4644 398.85 63.2198 400.713 72.6547C402.596 82.0896 407.223 90.7433 414.034 97.534C420.844 104.325 429.498 108.952 438.933 110.815C448.368 112.678 458.143 111.716 467.017 108.031C475.891 104.345 483.483 98.0949 488.812 90.1022C494.14 82.1096 496.985 72.6948 496.965 63.0796C496.925 50.1993 491.796 37.8598 482.682 28.7654C473.568 19.6711 461.228 14.543 448.348 14.543L448.388 14.563Z" fill="#0B0B0B"/>
<path d="M287.714 75.4591C287.714 75.4591 306.544 69.3895 313.535 75.7596C320.526 82.1296 291.84 81.5287 291.84 81.5287L287.714 75.4591Z" fill="#0550FC"/>
<path d="M294.204 81.4085C294.204 81.4085 237.335 83.6521 234.31 82.8107C231.265 81.9694 228.901 61.8577 246.088 50.9805C263.276 40.1033 279.441 46.2931 286.312 56.0886C293.183 65.864 294.204 81.4285 294.204 81.4285V81.4085Z" fill="#0550FC"/>
<path d="M176.659 406.181C176.339 406.181 176.038 406.061 175.798 405.82C175.577 405.6 175.437 405.28 175.437 404.959V390.977C175.437 390.656 175.557 390.336 175.798 390.116C176.018 389.895 176.339 389.755 176.659 389.755C176.98 389.755 177.3 389.875 177.521 390.116C177.741 390.336 177.881 390.656 177.881 390.977V404.959C177.881 405.28 177.761 405.6 177.521 405.82C177.3 406.041 176.98 406.181 176.659 406.181Z" fill="white"/>
<path d="M175.557 475.25C175.237 475.25 174.936 475.13 174.696 474.889C174.476 474.669 174.335 474.349 174.335 474.028L174.516 462.61C174.516 462.45 174.556 462.29 174.616 462.149C174.676 462.009 174.776 461.869 174.876 461.769C174.997 461.669 175.117 461.568 175.277 461.528C175.417 461.468 175.577 461.448 175.738 461.468C176.058 461.468 176.379 461.588 176.599 461.829C176.819 462.049 176.96 462.37 176.96 462.69L176.779 474.048C176.779 474.369 176.659 474.689 176.419 474.909C176.198 475.13 175.878 475.27 175.557 475.27V475.25Z" fill="white"/>
<path d="M146.411 434.486L133.951 434.305C133.791 434.305 133.631 434.265 133.491 434.205C133.35 434.145 133.21 434.045 133.11 433.945C133.01 433.825 132.91 433.704 132.87 433.544C132.81 433.404 132.79 433.244 132.81 433.084C132.81 432.763 132.93 432.443 133.17 432.222C133.391 432.002 133.711 431.862 134.032 431.862L146.431 432.042C146.752 432.042 147.072 432.202 147.292 432.443C147.513 432.683 147.653 433.003 147.653 433.324C147.653 433.484 147.613 433.644 147.553 433.785C147.493 433.925 147.393 434.065 147.292 434.165C147.172 434.265 147.052 434.366 146.892 434.406C146.752 434.466 146.591 434.486 146.431 434.466L146.411 434.486Z" fill="white"/>
<path d="M219.306 436.008H219.246L206.366 435.648C206.045 435.648 205.725 435.487 205.504 435.247C205.284 435.007 205.144 434.686 205.144 434.365C205.144 434.205 205.184 434.045 205.264 433.905C205.324 433.765 205.424 433.624 205.544 433.524C205.665 433.424 205.805 433.324 205.945 433.284C206.105 433.224 206.266 433.204 206.406 433.224L219.346 433.584C219.506 433.584 219.667 433.624 219.807 433.684C219.947 433.745 220.087 433.845 220.188 433.945C220.288 434.065 220.388 434.185 220.428 434.345C220.488 434.486 220.508 434.646 220.488 434.806C220.488 435.127 220.368 435.447 220.127 435.668C219.907 435.888 219.587 436.028 219.266 436.028L219.306 436.008Z" fill="white"/>
<path d="M146.411 463.892C146.091 463.892 145.79 463.752 145.57 463.532C145.349 463.291 145.209 462.971 145.209 462.65C145.209 462.33 145.329 462.009 145.57 461.769L154.624 453.015C154.724 452.895 154.864 452.795 155.005 452.735C155.145 452.674 155.305 452.634 155.465 452.634C155.626 452.634 155.786 452.674 155.926 452.735C156.066 452.795 156.207 452.895 156.307 453.015C156.527 453.255 156.667 453.576 156.667 453.896C156.667 454.217 156.547 454.537 156.307 454.778L147.252 463.532C147.032 463.752 146.732 463.892 146.411 463.892Z" fill="white"/>
<path d="M198.233 413.593C197.933 413.593 197.632 413.473 197.392 413.292C197.171 413.052 197.031 412.731 197.031 412.411C197.031 412.09 197.151 411.77 197.392 411.529L205.965 403.016C206.206 402.836 206.486 402.756 206.787 402.776C207.087 402.796 207.348 402.916 207.568 403.136C207.768 403.337 207.908 403.617 207.928 403.917C207.948 404.218 207.868 404.498 207.688 404.739L199.115 413.312C198.874 413.493 198.574 413.613 198.273 413.613L198.233 413.593Z" fill="white"/>
<path d="M204.843 464.793C204.683 464.793 204.503 464.773 204.342 464.713C204.182 464.653 204.042 464.553 203.922 464.433L195.348 455.379C195.128 455.138 195.008 454.818 195.028 454.477C195.028 454.157 195.168 453.836 195.408 453.616C195.649 453.395 195.949 453.295 196.27 453.295C196.59 453.295 196.891 453.436 197.111 453.676L205.685 462.73C205.905 462.971 206.025 463.291 206.005 463.632C206.005 463.952 205.865 464.273 205.625 464.493C205.404 464.693 205.124 464.793 204.843 464.793Z" fill="white"/>
<path d="M155.085 413.533C154.764 413.533 154.464 413.392 154.243 413.172L145.369 404.058C145.249 403.958 145.149 403.817 145.089 403.677C145.029 403.537 144.989 403.377 144.989 403.216C144.989 403.056 145.029 402.896 145.089 402.756C145.149 402.615 145.249 402.475 145.369 402.375C145.61 402.155 145.93 402.014 146.251 402.014C146.571 402.014 146.892 402.135 147.132 402.375L155.946 411.489C156.066 411.59 156.166 411.73 156.227 411.87C156.287 412.01 156.327 412.17 156.327 412.331C156.327 412.491 156.287 412.651 156.227 412.791C156.166 412.932 156.066 413.072 155.946 413.172C155.726 413.392 155.425 413.533 155.105 413.533H155.085Z" fill="white"/>
<path d="M405.5 474.689C429.798 474.689 449.489 455.96 449.489 432.843C449.489 409.727 429.798 390.977 405.5 390.977C381.202 390.977 361.511 409.727 361.511 432.843C361.511 455.96 381.202 474.689 405.5 474.689Z" fill="#0B0B0B"/>
<path d="M405.44 463.151C422.988 463.151 437.21 449.61 437.21 432.903C437.21 416.197 422.988 402.655 405.44 402.655C387.892 402.655 373.67 416.197 373.67 432.903C373.67 449.61 387.892 463.151 405.44 463.151Z" fill="white"/>
<path d="M405.44 464.373C387.271 464.373 372.448 450.271 372.448 432.903C372.448 415.536 387.271 401.434 405.44 401.434C423.609 401.434 438.432 415.596 438.432 432.903C438.432 450.21 423.669 464.373 405.44 464.373ZM405.44 403.857C388.613 403.857 374.892 416.918 374.892 432.903C374.892 448.888 388.613 461.949 405.44 461.949C422.267 461.949 435.988 448.948 435.988 432.903C435.988 416.858 422.267 403.857 405.44 403.857Z" fill="#0B0B0B"/>
<path d="M405.14 446.444C413.032 446.444 419.422 440.355 419.422 432.843C419.422 425.331 413.032 419.242 405.14 419.242C397.247 419.242 390.857 425.331 390.857 432.843C390.857 440.355 397.247 446.444 405.14 446.444Z" fill="#0550FC"/>
<path d="M405.5 406.181C405.18 406.181 404.859 406.061 404.639 405.82C404.419 405.6 404.278 405.28 404.278 404.959V390.977C404.278 390.656 404.398 390.336 404.639 390.116C404.859 389.895 405.18 389.755 405.5 389.755C405.821 389.755 406.141 389.875 406.362 390.116C406.582 390.336 406.722 390.656 406.722 390.977V404.959C406.722 405.28 406.602 405.6 406.362 405.82C406.141 406.041 405.821 406.181 405.5 406.181Z" fill="white"/>
<path d="M404.418 475.25C404.098 475.25 403.777 475.13 403.557 474.889C403.337 474.669 403.197 474.349 403.197 474.028L403.377 462.61C403.377 462.45 403.417 462.29 403.477 462.149C403.537 462.009 403.637 461.869 403.737 461.769C403.858 461.669 403.978 461.568 404.138 461.528C404.298 461.488 404.438 461.448 404.599 461.468C404.919 461.468 405.24 461.588 405.46 461.829C405.68 462.049 405.821 462.37 405.821 462.69L405.64 474.048C405.64 474.369 405.52 474.689 405.28 474.909C405.059 475.13 404.739 475.27 404.418 475.27V475.25Z" fill="white"/>
<path d="M448.147 436.008H448.087L435.207 435.648C435.047 435.648 434.886 435.607 434.746 435.547C434.606 435.487 434.466 435.387 434.366 435.267C434.245 435.147 434.165 435.007 434.105 434.866C434.045 434.726 434.025 434.566 434.025 434.406C434.025 434.245 434.065 434.085 434.125 433.945C434.185 433.805 434.285 433.664 434.406 433.564C434.526 433.464 434.666 433.364 434.806 433.304C434.946 433.244 435.107 433.224 435.267 433.224L448.207 433.584C448.368 433.584 448.528 433.624 448.668 433.684C448.808 433.745 448.949 433.845 449.049 433.945C449.149 434.065 449.249 434.185 449.289 434.346C449.349 434.486 449.369 434.646 449.349 434.806C449.349 435.127 449.229 435.447 448.989 435.668C448.768 435.888 448.448 436.028 448.127 436.028L448.147 436.008Z" fill="white"/>
<path d="M375.252 463.892C374.932 463.892 374.631 463.752 374.411 463.532C374.191 463.291 374.05 462.971 374.05 462.65C374.05 462.33 374.17 462.009 374.411 461.769L383.465 453.015C383.565 452.895 383.706 452.795 383.846 452.735C383.986 452.674 384.146 452.634 384.306 452.634C384.467 452.634 384.627 452.674 384.767 452.735C384.907 452.795 385.048 452.895 385.148 453.015C385.368 453.255 385.508 453.576 385.508 453.896C385.508 454.217 385.388 454.537 385.148 454.778L376.094 463.532C375.873 463.752 375.573 463.892 375.252 463.892Z" fill="white"/>
<path d="M427.074 413.593C426.754 413.593 426.453 413.493 426.233 413.292C426.013 413.052 425.872 412.731 425.872 412.411C425.872 412.09 425.993 411.77 426.233 411.529L434.807 403.016C435.047 402.836 435.327 402.756 435.628 402.776C435.928 402.796 436.189 402.916 436.409 403.136C436.609 403.337 436.75 403.617 436.77 403.917C436.77 404.218 436.71 404.498 436.529 404.739L427.956 413.312C427.715 413.493 427.415 413.613 427.114 413.613L427.074 413.593Z" fill="white"/>
<path d="M433.684 464.793C433.524 464.793 433.344 464.773 433.184 464.713C433.023 464.653 432.883 464.553 432.763 464.433L424.189 455.379C423.969 455.138 423.849 454.818 423.869 454.477C423.869 454.157 424.009 453.836 424.25 453.616C424.49 453.395 424.79 453.295 425.111 453.295C425.431 453.295 425.732 453.436 425.952 453.676L434.526 462.73C434.746 462.971 434.866 463.291 434.846 463.632C434.846 463.952 434.706 464.273 434.466 464.493C434.245 464.693 433.965 464.793 433.684 464.793Z" fill="white"/>
<path d="M383.946 413.533C383.625 413.533 383.325 413.392 383.105 413.172L374.231 404.058C374.11 403.958 374.01 403.817 373.95 403.677C373.89 403.537 373.85 403.377 373.85 403.216C373.85 403.056 373.89 402.896 373.95 402.756C374.01 402.615 374.11 402.475 374.231 402.375C374.471 402.155 374.791 402.014 375.112 402.014C375.432 402.014 375.753 402.135 375.993 402.375L384.807 411.489C384.927 411.59 385.028 411.73 385.088 411.87C385.148 412.01 385.188 412.17 385.188 412.331C385.188 412.491 385.148 412.651 385.088 412.791C385.028 412.932 384.927 413.072 384.807 413.172C384.587 413.392 384.286 413.533 383.966 413.533H383.946Z" fill="white"/>
<path d="M375.373 433.885H375.313L362.913 433.704C362.593 433.684 362.292 433.524 362.072 433.304C361.851 433.063 361.711 432.763 361.711 432.442C361.711 432.282 361.751 432.122 361.811 431.982C361.871 431.841 361.972 431.701 362.072 431.601C362.192 431.501 362.312 431.401 362.472 431.361C362.613 431.301 362.773 431.281 362.933 431.301H362.993L375.393 431.481C375.713 431.481 376.034 431.601 376.254 431.841C376.474 432.062 376.615 432.382 376.615 432.703C376.615 433.023 376.474 433.324 376.234 433.544C375.994 433.764 375.713 433.905 375.393 433.925L375.373 433.885Z" fill="white"/>
</g>
<defs>
<clipPath id="clip0_54_2114">
<rect width="538.189" height="475.25" fill="white"/>
</clipPath>
</defs>
</svg>
