<svg width="83" height="82" viewBox="0 0 83 82" fill="none" xmlns="http://www.w3.org/2000/svg">
<mask id="mask0_54_1723" style="mask-type:alpha" maskUnits="userSpaceOnUse" x="0" y="0" width="83" height="82">
<rect x="0.5" width="82" height="82" fill="#D9D9D9"/>
</mask>
<g mask="url(#mask0_54_1723)">
<g clip-path="url(#clip0_54_1723)">
<path d="M22.17 69.4101C18.51 69.2402 16.95 66.4001 17.24 63.4201C17.56 60.0901 19.02 57.1801 20.54 54.2801C20.98 53.4401 21.47 53.1301 22.46 53.1401C27.74 53.2001 33.02 53.1701 38.31 53.1701H39.2C38.46 55.7501 38.95 57.9801 40.97 60.0001C41.04 59.0201 41.11 58.2001 41.15 57.3901C41.4 53.2001 41.65 49.0102 41.89 44.8102C41.95 43.8601 41.55 43.3902 40.6 43.2901C38.79 43.0901 36.99 42.8801 35.18 42.7001C32.99 42.4701 31.56 40.5901 32 38.4301C33.1 33.1001 34.2 27.7601 35.33 22.4401C35.83 20.1201 37.78 18.7301 40.09 18.9701C42.21 19.1901 43.79 21.0801 43.84 23.3801C43.84 23.6801 43.99 24.0401 44.2 24.2701C46.29 26.5901 49.03 27.8201 51.89 28.8601C53.2 29.3301 54.51 29.5801 55.92 29.5301C57.86 29.4601 59.8 29.5001 61.74 29.5201C64.13 29.5301 65.53 30.9501 65.54 33.3301C65.54 34.0701 65.56 34.8001 65.53 35.5401C65.45 37.3801 63.99 38.8101 62.15 38.8701C61.39 38.8901 60.63 38.8701 59.72 38.8701C59.89 39.9201 60.01 40.9101 60.22 41.8701C60.67 43.9501 61.43 45.9201 62.75 47.6201C63.23 48.2301 63.8 48.8001 64.43 49.2601C66.96 51.1101 68.01 53.5302 67.45 56.6301C67.43 56.7301 67.42 56.8201 67.41 56.9201C67.41 56.9701 67.42 57.0201 67.42 57.0201C68.37 57.1502 69.33 57.2101 70.25 57.4301C74.14 58.3701 77.05 61.7601 77.45 65.7301C77.53 66.5101 77.19 66.9902 76.49 67.2402C77.51 71.1702 75.34 75.5301 70.87 76.6101C67.58 77.4101 62.95 75.8301 61.69 70.6401C61.65 70.6401 61.59 70.6201 61.57 70.6401C60.39 71.9301 59.56 71.7701 58.93 70.1101C58.79 69.7402 58.69 69.3701 58.6 69.1001C57.84 69.1801 57.11 69.3201 56.38 69.3201C50.31 69.3401 44.24 69.3401 38.18 69.3201C37.51 69.3201 37.29 69.4801 37.18 70.1701C36.56 73.7901 33.34 76.3902 29.65 76.3302C25.94 76.2701 22.88 73.5901 22.32 69.9201C22.29 69.7501 22.25 69.5901 22.21 69.3901L22.17 69.4101ZM52.56 61.1001V35.3101C48.69 34.8601 45.24 33.4302 42.15 31.0401C41.86 32.3102 41.58 33.4601 41.33 34.6101C41.14 35.5101 41.37 35.9201 42.24 36.2501C43.94 36.8901 45.64 37.5301 47.34 38.1601C49.4 38.9301 50.23 40.1402 50.01 42.3302C49.57 46.7302 49.08 51.1201 48.62 55.5101C48.42 57.3601 48.23 59.2101 48.04 61.1001H52.56ZM69.12 74.4102C72.87 74.4202 75.4 70.5901 73.92 67.1701C73.7 66.6701 73.4 66.3801 72.84 66.3201C69.95 66.0301 67.22 66.5201 64.69 67.9701C64.17 68.2602 63.91 68.6601 63.92 69.2701C63.97 72.1002 66.29 74.4002 69.12 74.4102ZM24.66 69.4002C24.71 72.0602 27.32 74.2001 30.21 73.9901C32.68 73.8101 35.02 71.4602 34.78 69.4002H24.66Z" fill="#0550FC"/>
<path d="M17.29 22.5098C19.97 22.5098 22.64 22.5098 25.32 22.5098C27.62 22.5098 29.09 23.9898 29.09 26.2998C29.09 30.4498 29.09 34.5998 29.09 38.7498C29.09 41.0998 27.62 42.5498 25.26 42.5598C19.95 42.5598 14.65 42.5598 9.34 42.5598C6.95 42.5598 5.5 41.0998 5.5 38.6998C5.5 34.5698 5.5 30.4498 5.5 26.3198C5.5 23.9798 6.97 22.5198 9.33 22.5098C11.98 22.5098 14.64 22.5098 17.29 22.5098Z" fill="#032C99"/>
<path d="M39.66 50.81H38.84C32.95 50.81 27.05 50.81 21.16 50.82C20.64 50.82 20.3 50.66 19.99 50.25C19.06 49.02 18.53 47.64 18.49 46.1C18.47 45.23 18.91 44.75 19.77 44.75C25.96 44.75 32.15 44.75 38.34 44.75C39.16 44.75 39.64 45.15 39.65 45.92C39.69 47.51 39.66 49.1 39.66 50.8V50.81Z" fill="#032C99"/>
<path d="M49.14 11.89C49.14 15.15 46.49 17.79 43.23 17.79C39.98 17.79 37.34 15.12 37.35 11.86C37.37 8.64 40.01 6 43.23 6C46.49 6 49.14 8.63 49.14 11.89Z" fill="#032C99"/>
</g>
</g>
<defs>
<clipPath id="clip0_54_1723">
<rect width="71.95" height="70.82" fill="white" transform="translate(5.5 6)"/>
</clipPath>
</defs>
</svg>
