<svg width="83" height="82" viewBox="0 0 83 82" fill="none" xmlns="http://www.w3.org/2000/svg">
<mask id="mask0_54_1734" style="mask-type:alpha" maskUnits="userSpaceOnUse" x="0" y="0" width="83" height="82">
<rect x="0.5" width="82" height="82" fill="#D9D9D9"/>
</mask>
<g mask="url(#mask0_54_1734)">
<g clip-path="url(#clip0_54_1734)">
<path d="M35.81 6L33.04 20.66V23.9C33.04 27.04 30.29 29.6 27.14 29.6C23.99 29.6 21.24 27.05 21.24 23.9V20.66L30.08 6H35.81Z" fill="#0550FC"/>
<path d="M26.81 6L18.3 20.66V23.9C18.3 27.04 15.55 29.6 12.4 29.6C9.25 29.6 6.5 27.04 6.5 23.9V20.66L20.87 6H26.81Z" fill="#0550FC"/>
<path d="M77.28 23.9C77.28 27.05 74.53 29.6 71.38 29.6C68.23 29.6 65.48 26.85 65.48 23.7V20.46L56.97 6H62.91L77.28 20.66V23.9Z" fill="#0550FC"/>
<path d="M47.79 20.45V23.69C47.79 26.83 45.04 29.59 41.89 29.59C38.74 29.59 35.99 26.84 35.99 23.69V20.45L39.08 6H44.7L47.79 20.45Z" fill="#0550FC"/>
<path d="M53.7 6.00023L62.53 20.7502V23.9902C62.53 27.1402 59.78 29.5902 56.64 29.5902C53.5 29.5902 50.74 26.8402 50.74 23.6902V20.4502L47.97 5.99023H53.7V6.00023Z" fill="#0550FC"/>
<path d="M19.77 52.7102C19.4 52.7102 19.02 52.5702 18.73 52.2802C18.16 51.7002 18.16 50.7702 18.73 50.1902L24.15 44.7802C24.72 44.2002 25.66 44.2002 26.23 44.7802C26.81 45.3502 26.81 46.2902 26.23 46.8602L20.82 52.2802C20.53 52.5702 20.15 52.7102 19.77 52.7102Z" fill="#DCE0FF"/>
<path d="M33.13 46.8299L21.3 58.6599C21.01 58.9499 20.64 59.0899 20.26 59.0899C19.88 59.0899 19.5 58.9499 19.22 58.6599C18.64 58.0899 18.64 57.1499 19.22 56.5799L31.04 44.7499C31.62 44.1699 32.55 44.1699 33.13 44.7499C33.7 45.3199 33.7 46.2599 33.13 46.8299Z" fill="#DCE0FF"/>
<path d="M18.73 52.2802C18.16 51.7002 18.16 50.7702 18.73 50.1902L24.15 44.7802C24.72 44.2002 25.66 44.2002 26.23 44.7802C26.81 45.3502 26.81 46.2902 26.23 46.8602L20.82 52.2802C20.53 52.5702 20.15 52.7102 19.77 52.7102C19.39 52.7102 19.02 52.5702 18.73 52.2802Z" fill="#DCE0FF"/>
<path d="M19.22 56.5799L31.04 44.7499C31.62 44.1699 32.55 44.1699 33.13 44.7499C33.7 45.3199 33.7 46.2599 33.13 46.8299L21.3 58.6599C21.01 58.9499 20.64 59.0899 20.26 59.0899C19.88 59.0899 19.5 58.9499 19.22 58.6599C18.64 58.0899 18.64 57.1499 19.22 56.5799Z" fill="#DCE0FF"/>
<path d="M9.45001 35.5V76.79H74.34V35.5H9.45001ZM68.44 62.04H15.35V41.4H68.44V62.04Z" fill="#DCE0FF"/>
<path d="M26.23 46.8602L20.82 52.2802C20.53 52.5702 20.15 52.7102 19.77 52.7102C19.39 52.7102 19.02 52.5702 18.73 52.2802C18.16 51.7002 18.16 50.7702 18.73 50.1902L24.15 44.7802C24.72 44.2002 25.66 44.2002 26.23 44.7802C26.81 45.3502 26.81 46.2902 26.23 46.8602Z" fill="#032C99"/>
<path d="M33.13 46.8299L21.3 58.6599C21.01 58.9499 20.64 59.0899 20.26 59.0899C19.88 59.0899 19.5 58.9499 19.22 58.6599C18.64 58.0899 18.64 57.1499 19.22 56.5799L31.04 44.7499C31.62 44.1699 32.55 44.1699 33.13 44.7499C33.7 45.3199 33.7 46.2599 33.13 46.8299Z" fill="#032C99"/>
</g>
</g>
<defs>
<clipPath id="clip0_54_1734">
<rect width="70.78" height="70.79" fill="white" transform="translate(6.5 6)"/>
</clipPath>
</defs>
</svg>
