<svg width="69" height="82" viewBox="0 0 69 82" fill="none" xmlns="http://www.w3.org/2000/svg">
<g clip-path="url(#clip0_8_629)">
<path d="M69 27.9108V34.4365C69 45.3463 65.763 55.368 59.2952 64.5204C52.8274 73.6665 44.5613 79.493 34.4968 82.0063C24.4387 79.493 16.1726 73.6665 9.69849 64.5204C3.23073 55.3617 0 45.34 0 34.4302V27.9108C0 38.8206 3.23073 48.8422 9.7048 57.9947C16.1726 67.1408 24.4387 72.9673 34.5032 75.4806C44.5676 72.9673 52.8337 67.1408 59.3015 57.9947C65.763 48.8422 69 38.8143 69 27.9108Z" fill="#032C99"/>
<path d="M69 19.4386V27.9108C69 38.8143 65.763 48.8422 59.2952 57.9946C52.8274 67.1408 44.5613 72.9673 34.4968 75.4806C24.4387 72.9673 16.1726 67.1408 9.69849 57.9946C3.23073 48.8422 0 38.8143 0 27.9108V19.4386L34.4968 6.52576L69 19.4386Z" fill="#0550FC"/>
<path d="M69 12.9129V19.4386L34.4968 6.52573L0 19.4386V12.9129L34.4968 0L69 12.9129Z" fill="#84B3FF"/>
<path d="M29.8653 53.3712L54.4428 28.8367L49.9185 24.4211L30.1871 44.118L19.296 33.246L14.5509 37.9828L29.8653 53.3712Z" fill="#DCE0FF"/>
</g>
<defs>
<clipPath id="clip0_8_629">
<rect width="69" height="82" fill="white"/>
</clipPath>
</defs>
</svg>
