<svg width="103" height="122" viewBox="0 0 103 122" fill="none" xmlns="http://www.w3.org/2000/svg">
<g clip-path="url(#clip0_54_2650)">
<path d="M103 106.767H0V122H103V106.767Z" fill="#032C99"/>
<path d="M88.1881 81.1851C95.2885 72.5848 99.5986 61.4821 99.5986 49.3266C99.5906 22.0841 78.0642 0.000244141 51.5041 0.000244141C24.9439 0.000244141 3.40955 22.0841 3.40955 49.3266C3.40955 61.4821 7.7116 72.5848 14.82 81.1851H14.804L51.5041 118.486L88.2042 81.1851H88.1881Z" fill="#0550FC"/>
<path d="M51.5041 118.485L63.0513 106.767H39.9569L51.5041 118.485Z" fill="#84B3FF"/>
<path d="M51.5041 61.004C58.1968 61.004 63.6222 55.5401 63.6222 48.8C63.6222 42.0599 58.1968 36.5959 51.5041 36.5959C44.8115 36.5959 39.386 42.0599 39.386 48.8C39.386 55.5401 44.8115 61.004 51.5041 61.004Z" fill="#84B3FF"/>
<path d="M30.6291 74.9168C22.7165 68.5435 18.1732 59.02 18.1732 48.7919C18.1732 38.5638 22.7085 29.0484 30.6291 22.667L38.1959 32.1986C33.1701 36.2477 30.2913 42.289 30.2913 48.7919C30.2913 55.2948 33.1701 61.3361 38.1959 65.3852L30.6291 74.9168Z" fill="#84B3FF"/>
<path d="M72.371 74.9168L64.8042 65.3852C69.83 61.3361 72.7087 55.2948 72.7087 48.7919C72.7087 42.289 69.83 36.2477 64.8042 32.1986L72.371 22.667C80.2836 29.0403 84.8268 38.5638 84.8268 48.7919C84.8268 59.02 80.2916 68.5354 72.371 74.9168Z" fill="#84B3FF"/>
</g>
<defs>
<clipPath id="clip0_54_2650">
<rect width="103" height="122" fill="white"/>
</clipPath>
</defs>
</svg>
