<svg width="432" height="90" viewBox="0 0 432 90" fill="none" xmlns="http://www.w3.org/2000/svg">
<g clip-path="url(#clip0_1_12)">
<path d="M148.41 24.14V88.99C148.41 89.03 148.38 89.06 148.34 89.06H131.01C130.97 89.06 130.94 89.03 130.94 89.01C130.94 87.5 131.02 57.19 131.08 39.03C131.11 30.71 131.12 24.66 131.12 24.61C130.83 21.18 127.94 18.48 124.42 18.48C122.04 18.48 119.96 19.71 118.77 21.58C118.66 21.73 118.35 22.38 118.15 22.88C117.64 24.25 116.56 27.2 115.16 30.99C112.97 36.93 110.02 44.93 107.4 52.09C103.97 61.46 101.06 69.42 101.06 69.42C101.06 69.42 99.55 73.45 98.6 75.98C98.27 76.91 97.66 78.17 97.31 78.79L97.28 78.8C97.23 78.94 97.16 79.05 97.1 79.12C94.33 83.05 90.39 86.08 85.79 87.7C83.33 88.59 80.68 89.06 77.94 89.06C77.34 89.06 76.75 89.05 76.15 89C74.02 88.83 72 88.39 70.07 87.7C66.31 86.37 62.98 84.1 60.38 81.17C56.74 77.05 54.52 71.62 54.52 65.67C54.52 65.17 54.63 50.33 54.74 38.75C54.8 31.37 54.85 25.3 54.85 25.09V25.06C54.85 22.24 53.12 19.61 50.45 18.73C46.88 17.54 43.5 19.31 42.15 22.22C42.14 22.23 40.49 26.68 38.03 33.27C34.74 42.09 17.4 89.06 17.4 89.06H0L4.85 75.95C4.85 75.95 19.13 37.41 22.8 27.52C24.27 23.53 25.29 20.77 25.58 19.96C26.48 17.45 28.36 12.15 30.65 9.07C35.77 2.15 43.76 0.49 48.74 0.17C61.63 -0.69 72.13 10.48 72.13 23.41C72.13 23.96 72.02 63.16 72.01 63.58V63.68C72.01 66.5 73.74 69.13 76.43 70.01C79.48 71.01 82.34 69.89 83.97 67.77C84.15 67.53 84.32 67.29 84.47 67.01C84.64 66.72 89.23 54.28 94.02 41.22C98.14 30.04 102.38 18.38 104.15 13.58C104.68 12.14 105.66 10.23 106.03 9.7C107.86 7.18 110.17 5.05 112.83 3.43C116.38 1.25 120.55 0 125.01 0C137.89 0.01 148.41 11.27 148.41 24.14Z" fill="#0550FC"/>
<path d="M425.54 9.44H425.32C426.1 9.14 426.73 8.4 426.73 7.2C426.73 4.93 424.35 4.6 422.22 4.6H418.41V13.67H420.39V10.75H424.75V13.67H426.73V10.57C426.73 9.9 426.33 9.44 425.54 9.44ZM422.55 8.93H420.39V6.38H422.55C424.06 6.38 424.75 6.6 424.75 7.65C424.75 8.75 424.06 8.93 422.55 8.93ZM425.54 9.44H425.32C426.1 9.14 426.73 8.4 426.73 7.2C426.73 4.93 424.35 4.6 422.22 4.6H418.41V13.67H420.39V10.75H424.75V13.67H426.73V10.57C426.73 9.9 426.33 9.44 425.54 9.44ZM422.55 8.93H420.39V6.38H422.55C424.06 6.38 424.75 6.6 424.75 7.65C424.75 8.75 424.06 8.93 422.55 8.93ZM425.54 9.44H425.32C426.1 9.14 426.73 8.4 426.73 7.2C426.73 4.93 424.35 4.6 422.22 4.6H418.41V13.67H420.39V10.75H424.75V13.67H426.73V10.57C426.73 9.9 426.33 9.44 425.54 9.44ZM422.55 8.93H420.39V6.38H422.55C424.06 6.38 424.75 6.6 424.75 7.65C424.75 8.75 424.06 8.93 422.55 8.93ZM425.54 9.44H425.32C426.1 9.14 426.73 8.4 426.73 7.2C426.73 4.93 424.35 4.6 422.22 4.6H418.41V13.67H420.39V10.75H424.75V13.67H426.73V10.57C426.73 9.9 426.33 9.44 425.54 9.44ZM422.55 8.93H420.39V6.38H422.55C424.06 6.38 424.75 6.6 424.75 7.65C424.75 8.75 424.06 8.93 422.55 8.93ZM425.54 9.44H425.32C426.1 9.14 426.73 8.4 426.73 7.2C426.73 4.93 424.35 4.6 422.22 4.6H418.41V13.67H420.39V10.75H424.75V13.67H426.73V10.57C426.73 9.9 426.33 9.44 425.54 9.44ZM422.55 8.93H420.39V6.38H422.55C424.06 6.38 424.75 6.6 424.75 7.65C424.75 8.75 424.06 8.93 422.55 8.93ZM425.54 9.44H425.32C426.1 9.14 426.73 8.4 426.73 7.2C426.73 4.93 424.35 4.6 422.22 4.6H418.41V13.67H420.39V10.75H424.75V13.67H426.73V10.57C426.73 9.9 426.33 9.44 425.54 9.44ZM422.55 8.93H420.39V6.38H422.55C424.06 6.38 424.75 6.6 424.75 7.65C424.75 8.75 424.06 8.93 422.55 8.93ZM425.54 9.44H425.32C426.1 9.14 426.73 8.4 426.73 7.2C426.73 4.93 424.35 4.6 422.22 4.6H418.41V13.67H420.39V10.75H424.75V13.67H426.73V10.57C426.73 9.9 426.33 9.44 425.54 9.44ZM422.55 8.93H420.39V6.38H422.55C424.06 6.38 424.75 6.6 424.75 7.65C424.75 8.75 424.06 8.93 422.55 8.93ZM425.54 9.44H425.32C426.1 9.14 426.73 8.4 426.73 7.2C426.73 4.93 424.35 4.6 422.22 4.6H418.41V13.67H420.39V10.75H424.75V13.67H426.73V10.57C426.73 9.9 426.33 9.44 425.54 9.44ZM422.55 8.93H420.39V6.38H422.55C424.06 6.38 424.75 6.6 424.75 7.65C424.75 8.75 424.06 8.93 422.55 8.93ZM425.54 9.44H425.32C426.1 9.14 426.73 8.4 426.73 7.2C426.73 4.93 424.35 4.6 422.22 4.6H418.41V13.67H420.39V10.75H424.75V13.67H426.73V10.57C426.73 9.9 426.33 9.44 425.54 9.44ZM422.55 8.93H420.39V6.38H422.55C424.06 6.38 424.75 6.6 424.75 7.65C424.75 8.75 424.06 8.93 422.55 8.93ZM425.54 9.44H425.32C426.1 9.14 426.73 8.4 426.73 7.2C426.73 4.93 424.35 4.6 422.22 4.6H418.41V13.67H420.39V10.75H424.75V13.67H426.73V10.57C426.73 9.9 426.33 9.44 425.54 9.44ZM422.55 8.93H420.39V6.38H422.55C424.06 6.38 424.75 6.6 424.75 7.65C424.75 8.75 424.06 8.93 422.55 8.93ZM422.41 0C416.55 0 413.15 4.11 413.15 9.18C413.15 14.26 416.56 18.37 422.41 18.37C428.22 18.37 431.63 14.26 431.63 9.18C431.63 4.11 428.23 0 422.41 0ZM422.41 16.65C417.66 16.65 415.09 13.2 415.09 9.17C415.09 5.14 417.67 1.71 422.41 1.71C427.1 1.71 429.69 5.14 429.69 9.17C429.69 13.2 427.11 16.65 422.41 16.65ZM426.73 7.2C426.73 4.93 424.35 4.6 422.22 4.6H418.41V13.67H420.39V10.75H424.75V13.67H426.73V10.57C426.73 9.91 426.33 9.45 425.54 9.45H425.32C426.1 9.14 426.73 8.4 426.73 7.2ZM422.55 8.93H420.39V6.38H422.55C424.06 6.38 424.75 6.6 424.75 7.65C424.75 8.75 424.06 8.93 422.55 8.93ZM425.54 9.44H425.32C426.1 9.14 426.73 8.4 426.73 7.2C426.73 4.93 424.35 4.6 422.22 4.6H418.41V13.67H420.39V10.75H424.75V13.67H426.73V10.57C426.73 9.9 426.33 9.44 425.54 9.44ZM422.55 8.93H420.39V6.38H422.55C424.06 6.38 424.75 6.6 424.75 7.65C424.75 8.75 424.06 8.93 422.55 8.93ZM425.54 9.44H425.32C426.1 9.14 426.73 8.4 426.73 7.2C426.73 4.93 424.35 4.6 422.22 4.6H418.41V13.67H420.39V10.75H424.75V13.67H426.73V10.57C426.73 9.9 426.33 9.44 425.54 9.44ZM422.55 8.93H420.39V6.38H422.55C424.06 6.38 424.75 6.6 424.75 7.65C424.75 8.75 424.06 8.93 422.55 8.93ZM425.54 9.44H425.32C426.1 9.14 426.73 8.4 426.73 7.2C426.73 4.93 424.35 4.6 422.22 4.6H418.41V13.67H420.39V10.75H424.75V13.67H426.73V10.57C426.73 9.9 426.33 9.44 425.54 9.44ZM422.55 8.93H420.39V6.38H422.55C424.06 6.38 424.75 6.6 424.75 7.65C424.75 8.75 424.06 8.93 422.55 8.93ZM425.54 9.44H425.32C426.1 9.14 426.73 8.4 426.73 7.2C426.73 4.93 424.35 4.6 422.22 4.6H418.41V13.67H420.39V10.75H424.75V13.67H426.73V10.57C426.73 9.9 426.33 9.44 425.54 9.44ZM422.55 8.93H420.39V6.38H422.55C424.06 6.38 424.75 6.6 424.75 7.65C424.75 8.75 424.06 8.93 422.55 8.93ZM425.54 9.44H425.32C426.1 9.14 426.73 8.4 426.73 7.2C426.73 4.93 424.35 4.6 422.22 4.6H418.41V13.67H420.39V10.75H424.75V13.67H426.73V10.57C426.73 9.9 426.33 9.44 425.54 9.44ZM422.55 8.93H420.39V6.38H422.55C424.06 6.38 424.75 6.6 424.75 7.65C424.75 8.75 424.06 8.93 422.55 8.93ZM425.54 9.44H425.32C426.1 9.14 426.73 8.4 426.73 7.2C426.73 4.93 424.35 4.6 422.22 4.6H418.41V13.67H420.39V10.75H424.75V13.67H426.73V10.57C426.73 9.9 426.33 9.44 425.54 9.44ZM422.55 8.93H420.39V6.38H422.55C424.06 6.38 424.75 6.6 424.75 7.65C424.75 8.75 424.06 8.93 422.55 8.93ZM425.54 9.44H425.32C426.1 9.14 426.73 8.4 426.73 7.2C426.73 4.93 424.35 4.6 422.22 4.6H418.41V13.67H420.39V10.75H424.75V13.67H426.73V10.57C426.73 9.9 426.33 9.44 425.54 9.44ZM422.55 8.93H420.39V6.38H422.55C424.06 6.38 424.75 6.6 424.75 7.65C424.75 8.75 424.06 8.93 422.55 8.93ZM425.54 9.44H425.32C426.1 9.14 426.73 8.4 426.73 7.2C426.73 4.93 424.35 4.6 422.22 4.6H418.41V13.67H420.39V10.75H424.75V13.67H426.73V10.57C426.73 9.9 426.33 9.44 425.54 9.44ZM422.55 8.93H420.39V6.38H422.55C424.06 6.38 424.75 6.6 424.75 7.65C424.75 8.75 424.06 8.93 422.55 8.93Z" fill="#0550FC"/>
<path d="M328.05 1.37011C322.39 16.5301 303.81 66.6601 300.59 75.4901C300.05 76.9401 299.07 78.8401 298.69 79.3601C296.86 81.8801 294.55 84.0301 291.89 85.6501C288.35 87.8101 284.17 89.0601 279.72 89.0601C266.79 89.0601 256.32 78.5801 256.32 65.6601V1.37011H273.78C273.78 1.37011 273.59 64.2801 273.61 64.4601C273.9 67.9101 276.78 70.6101 280.29 70.6101C282.68 70.6101 284.77 69.3601 285.97 67.4901C286.06 67.3301 286.38 66.6801 286.57 66.1801C288.94 59.9001 310.48 1.79011 310.64 1.36011H328.05V1.37011Z" fill="#0550FC"/>
<path d="M239.21 1.37012V52.7001C239.01 72.8401 222.63 89.1101 202.44 89.1101C182.99 89.1101 167.06 74.0101 165.75 54.8901C165.71 54.1601 165.55 1.37012 165.55 1.37012H182.89C182.89 1.37012 182.94 38.6801 182.97 49.4801C182.97 51.3001 183.12 55.7001 183.25 56.4301C184.87 65.5401 192.69 71.7601 202.38 71.7601C212.13 71.7601 220.11 65.0901 221.7 55.8501C221.78 55.4101 221.87 53.1801 221.88 52.7201C221.89 52.4901 221.85 1.38012 221.85 1.38012H239.21V1.37012Z" fill="#0550FC"/>
<path d="M412.54 36.85C409.18 16.1 392.46 0.300049 372.32 0.300049C349.79 0.300049 331.5 20.09 331.5 44.51C331.5 56.82 336.15 67.96 343.64 75.97C350.88 83.97 361.7 89.05 373.82 89.05C386.47 89.05 397.71 83.53 404.89 74.92C408.38 70.75 410.93 65.87 412.2 60.55H393.15C389.62 68.3 381.77 73.7 372.69 73.7C363.58 73.7 355.75 68.3 352.2 60.55C350.9 57.7001 350.18 54.53 350.18 51.21C350.18 50.75 350.21 50.28 350.24 49.84H412.86C412.9 49.5201 412.93 49.1701 412.96 48.8601C413.08 47.43 413.15 45.98 413.15 44.51C413.15 41.91 412.95 39.34 412.54 36.85ZM350.24 36.85C351.03 26.21 359.21 17.62 369.67 16.21C370.65 16.07 371.65 16.02 372.69 16.02C372.84 16.02 373.01 16.02 373.15 16.03H373.16C384.8 16.27 394.28 25.36 395.11 36.85H350.24Z" fill="#0550FC"/>
</g>
<defs>
<clipPath id="clip0_1_12">
<rect width="431.63" height="89.11" fill="white"/>
</clipPath>
</defs>
</svg>
