<svg width="105" height="67" viewBox="0 0 105 67" fill="none" xmlns="http://www.w3.org/2000/svg">
<path d="M0 8C0 3.58172 3.58172 0 8 0H75C91.5685 0 105 13.4315 105 30V59C105 63.4183 101.418 67 97 67H30C13.4315 67 0 53.5685 0 37V8Z" fill="#00FF96"/>
<path d="M21.565 49H35.605C44.155 49 50.86 47.875 50.86 40.405C50.86 33.745 45.55 33.43 40.735 33.25V31.36C44.11 31.045 48.52 30.865 48.52 24.925C48.52 18.805 44.155 17.275 35.29 17.275H21.565V49ZM29.8 42.025V35.68H36.055C40.105 35.68 42.58 35.5 42.58 38.83C42.58 42.16 40.24 42.025 36.055 42.025H29.8ZM29.8 29.29V23.845H36.1C38.8 23.845 40.6 23.8 40.6 26.59C40.6 29.47 38.62 29.29 36.1 29.29H29.8ZM83.3303 39.64C83.3303 35.005 80.9003 31.99 75.6353 30.685L65.3303 28.12C63.3503 27.58 62.8553 26.815 62.8553 25.915C62.8553 24.115 64.4303 23.35 67.4453 23.35C71.7653 23.35 73.7003 24.79 73.7003 28.21H82.1153C82.1153 21.325 77.2103 16.645 67.3103 16.645C58.9853 16.645 54.3953 19.93 54.3953 26.095C54.3953 30.1 56.1053 33.295 61.5953 34.78L72.2153 37.57C74.0153 38.02 74.9153 38.875 74.9153 40C74.9153 41.98 73.1603 42.79 69.1553 42.79C63.3053 42.79 61.5503 41.125 61.5503 36.625H53.0903C53.0903 44.86 57.7703 49.63 68.9753 49.63C79.1903 49.63 83.3303 45.67 83.3303 39.64Z" fill="white"/>
</svg>
