<svg width="596" height="123" viewBox="0 0 596 123" fill="none" xmlns="http://www.w3.org/2000/svg">
<path d="M205 33.3395V122.903C205 122.959 204.959 123 204.903 123H180.965C180.91 123 180.869 122.959 180.869 122.931C180.869 120.846 180.979 78.9846 181.062 53.904C181.103 42.4133 181.117 34.0577 181.117 33.9887C180.717 29.2515 176.725 25.5226 171.862 25.5226C168.575 25.5226 165.702 27.2213 164.058 29.804C163.906 30.0111 163.478 30.9088 163.202 31.5994C162.497 33.4915 161.005 37.5657 159.072 42.8C156.046 51.0037 151.972 62.0524 148.353 71.9411C143.615 84.8819 139.595 95.8754 139.595 95.8754C139.595 95.8754 137.509 101.441 136.197 104.935C135.741 106.22 134.899 107.96 134.415 108.816L134.374 108.83C134.305 109.023 134.208 109.175 134.125 109.272C130.299 114.7 124.856 118.884 118.502 121.122C115.104 122.351 111.444 123 107.659 123C106.83 123 106.015 122.986 105.187 122.917C102.244 122.682 99.4542 122.075 96.7883 121.122C91.5946 119.285 86.9948 116.15 83.4034 112.103C78.3755 106.413 75.3089 98.9138 75.3089 90.6963C75.3089 90.0057 75.4609 69.5103 75.6128 53.5173C75.6957 43.3248 75.7648 34.9416 75.7648 34.6516V34.6102C75.7648 30.7155 73.3751 27.0832 69.687 25.8678C64.7557 24.2243 60.0869 26.6689 58.2222 30.6879C58.2083 30.7017 55.9292 36.8475 52.5312 45.9489C47.9867 58.1301 24.0348 123 24.0348 123H0L6.69935 104.894C6.69935 104.894 26.4244 51.6666 31.4938 38.0076C33.5244 32.4971 34.9333 28.6853 35.3339 27.5666C36.577 24.1 39.1739 16.7803 42.3371 12.5265C49.4094 2.96935 60.4461 0.676735 67.325 0.234786C85.1301 -0.952953 99.6338 14.4738 99.6338 32.3314C99.6338 33.091 99.4818 87.2297 99.468 87.8098V87.9479C99.468 91.8426 101.858 95.4749 105.573 96.6902C109.786 98.0713 113.737 96.5245 115.988 93.5966C116.237 93.2651 116.472 92.9336 116.679 92.5469C116.914 92.1464 123.254 74.9656 129.871 56.9286C135.562 41.488 141.418 25.3845 143.863 18.7552C144.595 16.7665 145.949 14.1286 146.46 13.3966C148.988 9.91624 152.179 6.97451 155.853 4.73714C160.757 1.72636 166.517 0 172.677 0C190.469 0.0138109 205 15.5649 205 33.3395Z" fill="#00FF96"/>
<path d="M587.432 12.847H587.122C588.22 12.4388 589.106 11.4317 589.106 9.79858C589.106 6.70931 585.758 6.26021 582.761 6.26021H577.4V18.6037H580.186V14.6298H586.32V18.6037H589.106V14.3849C589.106 13.4731 588.543 12.847 587.432 12.847ZM583.225 12.153H580.186V8.68263H583.225C585.35 8.68263 586.32 8.98204 586.32 10.411C586.32 11.908 585.35 12.153 583.225 12.153ZM587.432 12.847H587.122C588.22 12.4388 589.106 11.4317 589.106 9.79858C589.106 6.70931 585.758 6.26021 582.761 6.26021H577.4V18.6037H580.186V14.6298H586.32V18.6037H589.106V14.3849C589.106 13.4731 588.543 12.847 587.432 12.847ZM583.225 12.153H580.186V8.68263H583.225C585.35 8.68263 586.32 8.98204 586.32 10.411C586.32 11.908 585.35 12.153 583.225 12.153ZM587.432 12.847H587.122C588.22 12.4388 589.106 11.4317 589.106 9.79858C589.106 6.70931 585.758 6.26021 582.761 6.26021H577.4V18.6037H580.186V14.6298H586.32V18.6037H589.106V14.3849C589.106 13.4731 588.543 12.847 587.432 12.847ZM583.225 12.153H580.186V8.68263H583.225C585.35 8.68263 586.32 8.98204 586.32 10.411C586.32 11.908 585.35 12.153 583.225 12.153ZM587.432 12.847H587.122C588.22 12.4388 589.106 11.4317 589.106 9.79858C589.106 6.70931 585.758 6.26021 582.761 6.26021H577.4V18.6037H580.186V14.6298H586.32V18.6037H589.106V14.3849C589.106 13.4731 588.543 12.847 587.432 12.847ZM583.225 12.153H580.186V8.68263H583.225C585.35 8.68263 586.32 8.98204 586.32 10.411C586.32 11.908 585.35 12.153 583.225 12.153ZM587.432 12.847H587.122C588.22 12.4388 589.106 11.4317 589.106 9.79858C589.106 6.70931 585.758 6.26021 582.761 6.26021H577.4V18.6037H580.186V14.6298H586.32V18.6037H589.106V14.3849C589.106 13.4731 588.543 12.847 587.432 12.847ZM583.225 12.153H580.186V8.68263H583.225C585.35 8.68263 586.32 8.98204 586.32 10.411C586.32 11.908 585.35 12.153 583.225 12.153ZM587.432 12.847H587.122C588.22 12.4388 589.106 11.4317 589.106 9.79858C589.106 6.70931 585.758 6.26021 582.761 6.26021H577.4V18.6037H580.186V14.6298H586.32V18.6037H589.106V14.3849C589.106 13.4731 588.543 12.847 587.432 12.847ZM583.225 12.153H580.186V8.68263H583.225C585.35 8.68263 586.32 8.98204 586.32 10.411C586.32 11.908 585.35 12.153 583.225 12.153ZM587.432 12.847H587.122C588.22 12.4388 589.106 11.4317 589.106 9.79858C589.106 6.70931 585.758 6.26021 582.761 6.26021H577.4V18.6037H580.186V14.6298H586.32V18.6037H589.106V14.3849C589.106 13.4731 588.543 12.847 587.432 12.847ZM583.225 12.153H580.186V8.68263H583.225C585.35 8.68263 586.32 8.98204 586.32 10.411C586.32 11.908 585.35 12.153 583.225 12.153ZM587.432 12.847H587.122C588.22 12.4388 589.106 11.4317 589.106 9.79858C589.106 6.70931 585.758 6.26021 582.761 6.26021H577.4V18.6037H580.186V14.6298H586.32V18.6037H589.106V14.3849C589.106 13.4731 588.543 12.847 587.432 12.847ZM583.225 12.153H580.186V8.68263H583.225C585.35 8.68263 586.32 8.98204 586.32 10.411C586.32 11.908 585.35 12.153 583.225 12.153ZM587.432 12.847H587.122C588.22 12.4388 589.106 11.4317 589.106 9.79858C589.106 6.70931 585.758 6.26021 582.761 6.26021H577.4V18.6037H580.186V14.6298H586.32V18.6037H589.106V14.3849C589.106 13.4731 588.543 12.847 587.432 12.847ZM583.225 12.153H580.186V8.68263H583.225C585.35 8.68263 586.32 8.98204 586.32 10.411C586.32 11.908 585.35 12.153 583.225 12.153ZM587.432 12.847H587.122C588.22 12.4388 589.106 11.4317 589.106 9.79858C589.106 6.70931 585.758 6.26021 582.761 6.26021H577.4V18.6037H580.186V14.6298H586.32V18.6037H589.106V14.3849C589.106 13.4731 588.543 12.847 587.432 12.847ZM583.225 12.153H580.186V8.68263H583.225C585.35 8.68263 586.32 8.98204 586.32 10.411C586.32 11.908 585.35 12.153 583.225 12.153ZM583.028 0C574.784 0 570 5.59336 570 12.4932C570 19.4066 574.798 25 583.028 25C591.202 25 596 19.4066 596 12.4932C596 5.59336 591.216 0 583.028 0ZM583.028 22.6592C576.345 22.6592 572.729 17.9641 572.729 12.4796C572.729 6.9951 576.359 2.32716 583.028 2.32716C589.627 2.32716 593.271 6.9951 593.271 12.4796C593.271 17.9641 589.641 22.6592 583.028 22.6592ZM589.106 9.79858C589.106 6.70931 585.758 6.26021 582.761 6.26021H577.4V18.6037H580.186V14.6298H586.32V18.6037H589.106V14.3849C589.106 13.4867 588.543 12.8606 587.432 12.8606H587.122C588.22 12.4388 589.106 11.4317 589.106 9.79858ZM583.225 12.153H580.186V8.68263H583.225C585.35 8.68263 586.32 8.98204 586.32 10.411C586.32 11.908 585.35 12.153 583.225 12.153ZM587.432 12.847H587.122C588.22 12.4388 589.106 11.4317 589.106 9.79858C589.106 6.70931 585.758 6.26021 582.761 6.26021H577.4V18.6037H580.186V14.6298H586.32V18.6037H589.106V14.3849C589.106 13.4731 588.543 12.847 587.432 12.847ZM583.225 12.153H580.186V8.68263H583.225C585.35 8.68263 586.32 8.98204 586.32 10.411C586.32 11.908 585.35 12.153 583.225 12.153ZM587.432 12.847H587.122C588.22 12.4388 589.106 11.4317 589.106 9.79858C589.106 6.70931 585.758 6.26021 582.761 6.26021H577.4V18.6037H580.186V14.6298H586.32V18.6037H589.106V14.3849C589.106 13.4731 588.543 12.847 587.432 12.847ZM583.225 12.153H580.186V8.68263H583.225C585.35 8.68263 586.32 8.98204 586.32 10.411C586.32 11.908 585.35 12.153 583.225 12.153ZM587.432 12.847H587.122C588.22 12.4388 589.106 11.4317 589.106 9.79858C589.106 6.70931 585.758 6.26021 582.761 6.26021H577.4V18.6037H580.186V14.6298H586.32V18.6037H589.106V14.3849C589.106 13.4731 588.543 12.847 587.432 12.847ZM583.225 12.153H580.186V8.68263H583.225C585.35 8.68263 586.32 8.98204 586.32 10.411C586.32 11.908 585.35 12.153 583.225 12.153ZM587.432 12.847H587.122C588.22 12.4388 589.106 11.4317 589.106 9.79858C589.106 6.70931 585.758 6.26021 582.761 6.26021H577.4V18.6037H580.186V14.6298H586.32V18.6037H589.106V14.3849C589.106 13.4731 588.543 12.847 587.432 12.847ZM583.225 12.153H580.186V8.68263H583.225C585.35 8.68263 586.32 8.98204 586.32 10.411C586.32 11.908 585.35 12.153 583.225 12.153ZM587.432 12.847H587.122C588.22 12.4388 589.106 11.4317 589.106 9.79858C589.106 6.70931 585.758 6.26021 582.761 6.26021H577.4V18.6037H580.186V14.6298H586.32V18.6037H589.106V14.3849C589.106 13.4731 588.543 12.847 587.432 12.847ZM583.225 12.153H580.186V8.68263H583.225C585.35 8.68263 586.32 8.98204 586.32 10.411C586.32 11.908 585.35 12.153 583.225 12.153ZM587.432 12.847H587.122C588.22 12.4388 589.106 11.4317 589.106 9.79858C589.106 6.70931 585.758 6.26021 582.761 6.26021H577.4V18.6037H580.186V14.6298H586.32V18.6037H589.106V14.3849C589.106 13.4731 588.543 12.847 587.432 12.847ZM583.225 12.153H580.186V8.68263H583.225C585.35 8.68263 586.32 8.98204 586.32 10.411C586.32 11.908 585.35 12.153 583.225 12.153ZM587.432 12.847H587.122C588.22 12.4388 589.106 11.4317 589.106 9.79858C589.106 6.70931 585.758 6.26021 582.761 6.26021H577.4V18.6037H580.186V14.6298H586.32V18.6037H589.106V14.3849C589.106 13.4731 588.543 12.847 587.432 12.847ZM583.225 12.153H580.186V8.68263H583.225C585.35 8.68263 586.32 8.98204 586.32 10.411C586.32 11.908 585.35 12.153 583.225 12.153ZM587.432 12.847H587.122C588.22 12.4388 589.106 11.4317 589.106 9.79858C589.106 6.70931 585.758 6.26021 582.761 6.26021H577.4V18.6037H580.186V14.6298H586.32V18.6037H589.106V14.3849C589.106 13.4731 588.543 12.847 587.432 12.847ZM583.225 12.153H580.186V8.68263H583.225C585.35 8.68263 586.32 8.98204 586.32 10.411C586.32 11.908 585.35 12.153 583.225 12.153Z" fill="#00FF96"/>
<path d="M453 2.0138C445.188 22.9301 419.545 92.0946 415.1 104.277C414.355 106.278 413.003 108.899 412.478 109.617C409.952 113.094 406.764 116.06 403.093 118.295C398.207 121.275 392.438 123 386.296 123C368.45 123 354 108.541 354 90.715V2.0138H378.098C378.098 2.0138 377.836 88.811 377.863 89.0593C378.263 93.8193 382.238 97.5445 387.083 97.5445C390.381 97.5445 393.266 95.8198 394.922 93.2398C395.046 93.019 395.488 92.1222 395.75 91.4324C399.021 82.7679 428.75 2.59327 428.971 2H453V2.0138Z" fill="#00FF96"/>
<path d="M330 2V72.7879C329.723 100.562 307.041 123 279.083 123C252.15 123 230.091 102.176 228.277 75.8081C228.222 74.8013 228 2 228 2H252.011C252.011 2 252.081 53.4533 252.122 68.3473C252.122 70.8572 252.33 76.9251 252.51 77.9318C254.753 90.4952 265.582 99.0731 279 99.0731C292.501 99.0731 303.551 89.8746 305.753 77.132C305.864 76.5252 305.989 73.4499 306.002 72.8155C306.016 72.4983 305.961 2.01379 305.961 2.01379H330V2Z" fill="#00FF96"/>
<path d="M569.163 50.6552C564.554 21.8975 541.619 0 513.993 0C483.089 0 458 27.4273 458 61.2713C458 78.3319 464.378 93.771 474.653 104.872C484.584 115.96 499.426 123 516.051 123C533.403 123 548.821 115.35 558.67 103.417C563.457 97.6377 566.955 90.8745 568.697 83.5014H542.566C537.724 94.2423 526.956 101.726 514.501 101.726C502.004 101.726 491.264 94.2423 486.394 83.5014C484.611 79.5516 483.624 75.1582 483.624 70.557C483.624 69.9194 483.665 69.2681 483.706 68.6583H569.602C569.657 68.2148 569.698 67.7297 569.739 67.3001C569.904 65.3182 570 63.3086 570 61.2713C570 57.6679 569.726 54.1061 569.163 50.6552ZM483.706 50.6552C484.789 35.9091 496.01 24.0041 510.358 22.0499C511.702 21.8559 513.074 21.7866 514.501 21.7866C514.706 21.7866 514.94 21.7866 515.132 21.8005H515.145C531.112 22.1331 544.116 34.731 545.254 50.6552H483.706Z" fill="#00FF96"/>
</svg>
