<svg width="765" height="157" viewBox="0 0 765 157" fill="none" xmlns="http://www.w3.org/2000/svg">
<g clip-path="url(#clip0_62_234)">
<path d="M263.035 42.5315V156.789C263.035 156.859 262.982 156.912 262.911 156.912H232.196C232.125 156.912 232.072 156.859 232.072 156.824C232.072 154.163 232.213 100.761 232.32 68.7657C232.373 54.1069 232.391 43.4476 232.391 43.3596C231.877 37.3163 226.755 32.5593 220.516 32.5593C216.298 32.5593 212.611 34.7264 210.502 38.0211C210.307 38.2854 209.758 39.4306 209.403 40.3115C208.499 42.7253 206.585 47.9228 204.104 54.6003C200.223 65.0658 194.994 79.1607 190.351 91.7757C184.271 108.284 179.114 122.309 179.114 122.309C179.114 122.309 176.438 129.409 174.754 133.867C174.169 135.505 173.088 137.725 172.468 138.818L172.414 138.835C172.326 139.082 172.202 139.276 172.095 139.399C167.186 146.323 160.203 151.662 152.05 154.516C147.69 156.084 142.993 156.912 138.137 156.912C137.074 156.912 136.028 156.894 134.965 156.806C131.189 156.507 127.609 155.731 124.189 154.516C117.525 152.172 111.623 148.173 107.015 143.011C100.563 135.752 96.6286 126.185 96.6286 115.702C96.6286 114.821 96.8236 88.6748 97.0185 68.2724C97.1249 55.2698 97.2135 44.5752 97.2135 44.2052V44.1524C97.2135 39.1839 94.1473 34.5502 89.4151 32.9998C83.0878 30.9032 77.0973 34.0217 74.7046 39.1487C74.6869 39.1663 71.7625 47.0066 67.4025 58.6173C61.5715 74.157 30.8389 156.912 30.8389 156.912H0L8.5959 133.814C8.5959 133.814 33.9051 65.9115 40.4096 48.4866C43.015 41.4567 44.8228 36.594 45.3368 35.1669C46.9319 30.7446 50.2639 21.4067 54.3226 15.9801C63.397 3.78801 77.5581 0.863315 86.3844 0.299517C109.23 -1.21569 127.84 18.4644 127.84 41.2453C127.84 42.2143 127.645 111.28 127.627 112.02V112.196C127.627 117.164 130.693 121.798 135.461 123.348C140.866 125.11 145.935 123.137 148.824 119.402C149.143 118.979 149.445 118.556 149.711 118.063C150.012 117.552 158.147 95.6342 166.636 72.6242C173.939 52.9265 181.453 32.3831 184.59 23.9262C185.53 21.3891 187.267 18.0239 187.922 17.0901C191.166 12.6502 195.26 8.89743 199.974 6.0432C206.266 2.20233 213.657 0 221.562 0C244.39 0.0176187 263.035 19.8562 263.035 42.5315Z" fill="#DDDDDD"/>
<path d="M754.206 16.632H753.816C755.199 16.1035 756.315 14.7997 756.315 12.6854C756.315 8.68601 752.097 8.10459 748.322 8.10459H741.569V24.0847H745.079V18.9401H752.806V24.0847H756.315V18.6229C756.315 17.4425 755.606 16.632 754.206 16.632ZM748.907 15.7335H745.079V11.2407H748.907C751.583 11.2407 752.806 11.6283 752.806 13.4783C752.806 15.4163 751.583 15.7335 748.907 15.7335ZM754.206 16.632H753.816C755.199 16.1035 756.315 14.7997 756.315 12.6854C756.315 8.68601 752.097 8.10459 748.322 8.10459H741.569V24.0847H745.079V18.9401H752.806V24.0847H756.315V18.6229C756.315 17.4425 755.606 16.632 754.206 16.632ZM748.907 15.7335H745.079V11.2407H748.907C751.583 11.2407 752.806 11.6283 752.806 13.4783C752.806 15.4163 751.583 15.7335 748.907 15.7335ZM754.206 16.632H753.816C755.199 16.1035 756.315 14.7997 756.315 12.6854C756.315 8.68601 752.097 8.10459 748.322 8.10459H741.569V24.0847H745.079V18.9401H752.806V24.0847H756.315V18.6229C756.315 17.4425 755.606 16.632 754.206 16.632ZM748.907 15.7335H745.079V11.2407H748.907C751.583 11.2407 752.806 11.6283 752.806 13.4783C752.806 15.4163 751.583 15.7335 748.907 15.7335ZM754.206 16.632H753.816C755.199 16.1035 756.315 14.7997 756.315 12.6854C756.315 8.68601 752.097 8.10459 748.322 8.10459H741.569V24.0847H745.079V18.9401H752.806V24.0847H756.315V18.6229C756.315 17.4425 755.606 16.632 754.206 16.632ZM748.907 15.7335H745.079V11.2407H748.907C751.583 11.2407 752.806 11.6283 752.806 13.4783C752.806 15.4163 751.583 15.7335 748.907 15.7335ZM754.206 16.632H753.816C755.199 16.1035 756.315 14.7997 756.315 12.6854C756.315 8.68601 752.097 8.10459 748.322 8.10459H741.569V24.0847H745.079V18.9401H752.806V24.0847H756.315V18.6229C756.315 17.4425 755.606 16.632 754.206 16.632ZM748.907 15.7335H745.079V11.2407H748.907C751.583 11.2407 752.806 11.6283 752.806 13.4783C752.806 15.4163 751.583 15.7335 748.907 15.7335ZM754.206 16.632H753.816C755.199 16.1035 756.315 14.7997 756.315 12.6854C756.315 8.68601 752.097 8.10459 748.322 8.10459H741.569V24.0847H745.079V18.9401H752.806V24.0847H756.315V18.6229C756.315 17.4425 755.606 16.632 754.206 16.632ZM748.907 15.7335H745.079V11.2407H748.907C751.583 11.2407 752.806 11.6283 752.806 13.4783C752.806 15.4163 751.583 15.7335 748.907 15.7335ZM754.206 16.632H753.816C755.199 16.1035 756.315 14.7997 756.315 12.6854C756.315 8.68601 752.097 8.10459 748.322 8.10459H741.569V24.0847H745.079V18.9401H752.806V24.0847H756.315V18.6229C756.315 17.4425 755.606 16.632 754.206 16.632ZM748.907 15.7335H745.079V11.2407H748.907C751.583 11.2407 752.806 11.6283 752.806 13.4783C752.806 15.4163 751.583 15.7335 748.907 15.7335ZM754.206 16.632H753.816C755.199 16.1035 756.315 14.7997 756.315 12.6854C756.315 8.68601 752.097 8.10459 748.322 8.10459H741.569V24.0847H745.079V18.9401H752.806V24.0847H756.315V18.6229C756.315 17.4425 755.606 16.632 754.206 16.632ZM748.907 15.7335H745.079V11.2407H748.907C751.583 11.2407 752.806 11.6283 752.806 13.4783C752.806 15.4163 751.583 15.7335 748.907 15.7335ZM754.206 16.632H753.816C755.199 16.1035 756.315 14.7997 756.315 12.6854C756.315 8.68601 752.097 8.10459 748.322 8.10459H741.569V24.0847H745.079V18.9401H752.806V24.0847H756.315V18.6229C756.315 17.4425 755.606 16.632 754.206 16.632ZM748.907 15.7335H745.079V11.2407H748.907C751.583 11.2407 752.806 11.6283 752.806 13.4783C752.806 15.4163 751.583 15.7335 748.907 15.7335ZM754.206 16.632H753.816C755.199 16.1035 756.315 14.7997 756.315 12.6854C756.315 8.68601 752.097 8.10459 748.322 8.10459H741.569V24.0847H745.079V18.9401H752.806V24.0847H756.315V18.6229C756.315 17.4425 755.606 16.632 754.206 16.632ZM748.907 15.7335H745.079V11.2407H748.907C751.583 11.2407 752.806 11.6283 752.806 13.4783C752.806 15.4163 751.583 15.7335 748.907 15.7335ZM748.659 0C738.273 0 732.247 7.24128 732.247 16.1739C732.247 25.1242 738.291 32.3655 748.659 32.3655C758.956 32.3655 765 25.1242 765 16.1739C765 7.24128 758.974 0 748.659 0ZM748.659 29.3351C740.24 29.3351 735.685 23.2567 735.685 16.1563C735.685 9.056 740.258 3.01279 748.659 3.01279C756.971 3.01279 761.562 9.056 761.562 16.1563C761.562 23.2567 756.989 29.3351 748.659 29.3351ZM756.315 12.6854C756.315 8.68601 752.097 8.10459 748.322 8.10459H741.569V24.0847H745.079V18.9401H752.806V24.0847H756.315V18.6229C756.315 17.4601 755.606 16.6496 754.206 16.6496H753.816C755.199 16.1035 756.315 14.7997 756.315 12.6854ZM748.907 15.7335H745.079V11.2407H748.907C751.583 11.2407 752.806 11.6283 752.806 13.4783C752.806 15.4163 751.583 15.7335 748.907 15.7335ZM754.206 16.632H753.816C755.199 16.1035 756.315 14.7997 756.315 12.6854C756.315 8.68601 752.097 8.10459 748.322 8.10459H741.569V24.0847H745.079V18.9401H752.806V24.0847H756.315V18.6229C756.315 17.4425 755.606 16.632 754.206 16.632ZM748.907 15.7335H745.079V11.2407H748.907C751.583 11.2407 752.806 11.6283 752.806 13.4783C752.806 15.4163 751.583 15.7335 748.907 15.7335ZM754.206 16.632H753.816C755.199 16.1035 756.315 14.7997 756.315 12.6854C756.315 8.68601 752.097 8.10459 748.322 8.10459H741.569V24.0847H745.079V18.9401H752.806V24.0847H756.315V18.6229C756.315 17.4425 755.606 16.632 754.206 16.632ZM748.907 15.7335H745.079V11.2407H748.907C751.583 11.2407 752.806 11.6283 752.806 13.4783C752.806 15.4163 751.583 15.7335 748.907 15.7335ZM754.206 16.632H753.816C755.199 16.1035 756.315 14.7997 756.315 12.6854C756.315 8.68601 752.097 8.10459 748.322 8.10459H741.569V24.0847H745.079V18.9401H752.806V24.0847H756.315V18.6229C756.315 17.4425 755.606 16.632 754.206 16.632ZM748.907 15.7335H745.079V11.2407H748.907C751.583 11.2407 752.806 11.6283 752.806 13.4783C752.806 15.4163 751.583 15.7335 748.907 15.7335ZM754.206 16.632H753.816C755.199 16.1035 756.315 14.7997 756.315 12.6854C756.315 8.68601 752.097 8.10459 748.322 8.10459H741.569V24.0847H745.079V18.9401H752.806V24.0847H756.315V18.6229C756.315 17.4425 755.606 16.632 754.206 16.632ZM748.907 15.7335H745.079V11.2407H748.907C751.583 11.2407 752.806 11.6283 752.806 13.4783C752.806 15.4163 751.583 15.7335 748.907 15.7335ZM754.206 16.632H753.816C755.199 16.1035 756.315 14.7997 756.315 12.6854C756.315 8.68601 752.097 8.10459 748.322 8.10459H741.569V24.0847H745.079V18.9401H752.806V24.0847H756.315V18.6229C756.315 17.4425 755.606 16.632 754.206 16.632ZM748.907 15.7335H745.079V11.2407H748.907C751.583 11.2407 752.806 11.6283 752.806 13.4783C752.806 15.4163 751.583 15.7335 748.907 15.7335ZM754.206 16.632H753.816C755.199 16.1035 756.315 14.7997 756.315 12.6854C756.315 8.68601 752.097 8.10459 748.322 8.10459H741.569V24.0847H745.079V18.9401H752.806V24.0847H756.315V18.6229C756.315 17.4425 755.606 16.632 754.206 16.632ZM748.907 15.7335H745.079V11.2407H748.907C751.583 11.2407 752.806 11.6283 752.806 13.4783C752.806 15.4163 751.583 15.7335 748.907 15.7335ZM754.206 16.632H753.816C755.199 16.1035 756.315 14.7997 756.315 12.6854C756.315 8.68601 752.097 8.10459 748.322 8.10459H741.569V24.0847H745.079V18.9401H752.806V24.0847H756.315V18.6229C756.315 17.4425 755.606 16.632 754.206 16.632ZM748.907 15.7335H745.079V11.2407H748.907C751.583 11.2407 752.806 11.6283 752.806 13.4783C752.806 15.4163 751.583 15.7335 748.907 15.7335ZM754.206 16.632H753.816C755.199 16.1035 756.315 14.7997 756.315 12.6854C756.315 8.68601 752.097 8.10459 748.322 8.10459H741.569V24.0847H745.079V18.9401H752.806V24.0847H756.315V18.6229C756.315 17.4425 755.606 16.632 754.206 16.632ZM748.907 15.7335H745.079V11.2407H748.907C751.583 11.2407 752.806 11.6283 752.806 13.4783C752.806 15.4163 751.583 15.7335 748.907 15.7335Z" fill="#DDDDDD"/>
<path d="M581.42 2.4141C571.388 29.124 538.458 117.446 532.751 133.004C531.794 135.558 530.057 138.906 529.384 139.822C526.14 144.262 522.046 148.05 517.332 150.904C511.057 154.71 503.649 156.912 495.762 156.912C472.846 156.912 454.289 138.448 454.289 115.685V2.4141H485.234C485.234 2.4141 484.898 113.253 484.933 113.57C485.447 119.649 490.551 124.406 496.772 124.406C501.008 124.406 504.712 122.203 506.839 118.909C506.999 118.627 507.566 117.482 507.903 116.601C512.103 105.536 550.28 3.15409 550.563 2.39648H581.42V2.4141Z" fill="#DDDDDD"/>
<path d="M423.964 2.41406V92.8507C423.61 128.335 394.579 157 358.795 157C324.323 157 296.089 130.396 293.767 96.7092C293.696 95.423 293.413 2.41406 293.413 2.41406H324.145C324.145 2.41406 324.234 68.1493 324.287 87.1775C324.287 90.3841 324.553 98.1363 324.783 99.4225C327.655 115.473 341.514 126.432 358.688 126.432C375.969 126.432 390.112 114.68 392.93 98.4006C393.072 97.6254 393.232 93.6964 393.249 92.886C393.267 92.4807 393.196 2.43168 393.196 2.43168H423.964V2.41406Z" fill="#DDDDDD"/>
<path d="M731.166 64.9246C725.211 28.3658 695.577 0.52832 659.882 0.52832C619.951 0.52832 587.534 35.3957 587.534 78.4205C587.534 100.109 595.776 119.736 609.051 133.849C621.883 147.944 641.059 156.894 662.54 156.894C684.961 156.894 704.882 147.169 717.607 131.999C723.793 124.652 728.312 116.054 730.563 106.681H696.8C690.543 120.335 676.631 129.849 660.538 129.849C644.391 129.849 630.514 120.335 624.222 106.681C621.918 101.66 620.642 96.0744 620.642 90.225C620.642 89.4145 620.695 88.5865 620.748 87.8112H731.733C731.804 87.2474 731.857 86.6308 731.91 86.0846C732.123 83.5651 732.247 81.0104 732.247 78.4205C732.247 73.8396 731.892 69.3116 731.166 64.9246ZM620.748 64.9246C622.148 46.1783 636.646 31.0439 655.185 28.5596C656.922 28.313 658.694 28.2249 660.538 28.2249C660.803 28.2249 661.105 28.2249 661.353 28.2425H661.371C682.001 28.6653 698.803 44.6807 700.274 64.9246H620.748Z" fill="#DDDDDD"/>
</g>
<defs>
<clipPath id="clip0_62_234">
<rect width="765" height="157" fill="white"/>
</clipPath>
</defs>
</svg>
