<svg width="500" height="470" viewBox="0 0 500 470" fill="none" xmlns="http://www.w3.org/2000/svg">
<g clip-path="url(#clip0_54_1766)">
<path d="M104.684 197.693C101.379 197.612 98.0935 196.944 95.0312 195.709C94.7473 195.587 94.5242 195.364 94.4025 195.061C94.2808 194.777 94.3011 194.453 94.4025 194.169C94.5242 193.886 94.7676 193.663 95.0515 193.542C95.3354 193.42 95.6599 193.44 95.9438 193.542C96.0046 193.542 103.853 196.863 109.207 194.534C110.18 194.109 111.052 193.461 111.762 192.671C112.472 191.881 113.019 190.949 113.344 189.936C113.466 189.653 113.689 189.43 113.973 189.309C114.257 189.187 114.561 189.167 114.865 189.248C115.149 189.369 115.392 189.592 115.514 189.855C115.636 190.139 115.656 190.463 115.575 190.747C115.129 192.043 114.419 193.238 113.486 194.25C112.553 195.263 111.417 196.073 110.16 196.62C108.436 197.329 106.57 197.693 104.684 197.673V197.693Z" fill="#0B0B0B"/>
<path d="M198.013 27.362C197.83 27.362 197.648 27.3418 197.486 27.2608C197.323 27.1798 197.181 27.0582 197.08 26.8962C196.979 26.7747 196.918 26.6329 196.877 26.4912C196.837 26.3494 196.837 26.1874 196.857 26.0456C196.877 25.9038 196.938 25.7418 196.999 25.6203C197.08 25.4987 197.181 25.3772 197.303 25.2759L225.533 4.17193C226.749 3.26052 228.189 2.73394 229.69 2.61242C231.191 2.49089 232.712 2.81495 234.03 3.52382L271.203 23.2911C271.345 23.3519 271.487 23.4531 271.588 23.5747C271.69 23.6962 271.791 23.838 271.832 23.9797C271.892 24.1418 271.913 24.3038 271.892 24.4658C271.892 24.6278 271.832 24.7899 271.75 24.9316C271.669 25.0734 271.568 25.1949 271.446 25.2962C271.325 25.3975 271.162 25.4582 271.02 25.4987C270.858 25.5392 270.696 25.5392 270.534 25.4987C270.371 25.4785 270.229 25.4177 270.088 25.3165L232.915 5.54916C231.982 5.04282 230.907 4.82003 229.852 4.90105C228.798 4.98206 227.784 5.36687 226.932 6.01498L198.702 27.119C198.5 27.281 198.256 27.362 197.993 27.3418L198.013 27.362Z" fill="#0B0B0B"/>
<path d="M268.019 20.0104L200.689 22.7041C197.789 22.8256 195.559 25.256 195.66 28.132L197.323 69.4084C197.445 72.3046 199.878 74.5325 202.758 74.4312L270.087 71.7375C272.987 71.616 275.218 69.1856 275.116 66.3096L273.453 25.0332C273.332 22.137 270.898 19.9091 268.019 20.0104Z" fill="#0550FC"/>
<path d="M320.158 258.595L315.798 138.655C315.758 137.683 315.92 136.731 316.244 135.819C316.589 134.908 317.096 134.078 317.745 133.369C318.394 132.66 319.205 132.093 320.077 131.688C320.97 131.283 321.903 131.06 322.876 131.04L389.86 129.055L390.793 147.769C390.793 147.769 356.297 145.5 356.297 151.313C356.297 157.126 359.096 260.337 359.096 260.337L320.179 258.595H320.158Z" fill="#0550FC"/>
<path d="M381.647 257.663H306.753C301.095 257.663 296.512 262.241 296.512 267.891V412.116C296.512 417.766 301.095 422.344 306.753 422.344H381.647C387.305 422.344 391.888 417.766 391.888 412.116V267.891C391.888 262.241 387.305 257.663 381.647 257.663Z" fill="white"/>
<path d="M381.586 423.518H306.753C303.731 423.518 300.831 422.323 298.681 420.176C296.552 418.05 295.335 415.133 295.335 412.115V267.932C295.335 264.914 296.532 261.997 298.681 259.851C300.811 257.704 303.711 256.489 306.753 256.468H381.586C384.628 256.468 387.548 257.663 389.698 259.81C391.847 261.957 393.064 264.873 393.064 267.911V412.095C393.064 415.113 391.827 418.009 389.677 420.156C387.528 422.283 384.628 423.498 381.586 423.498V423.518ZM306.753 258.838C304.34 258.838 302.028 259.83 300.324 261.532C298.621 263.233 297.667 265.562 297.667 267.972V412.156C297.667 414.566 298.621 416.875 300.324 418.576C302.028 420.278 304.34 421.23 306.733 421.23H381.565C382.762 421.23 383.958 421.007 385.053 420.561C386.169 420.116 387.163 419.447 388.014 418.597C388.866 417.746 389.535 416.754 390.002 415.64C390.468 414.546 390.691 413.351 390.691 412.156V267.972C390.691 265.562 389.738 263.233 388.014 261.532C386.291 259.83 383.979 258.858 381.545 258.858H306.712L306.753 258.838Z" fill="#0B0B0B"/>
<path d="M122.247 185.075C122.247 185.075 161.59 195.769 158.792 184.731C155.993 173.693 139.12 158.341 139.12 158.341L148.023 149.166C148.023 149.166 172.927 168.467 179.092 185.946C185.257 203.445 153.255 216.691 137.315 211.161C121.375 205.632 122.247 185.075 122.247 185.075Z" fill="#0550FC"/>
<path d="M103.874 167.313C99.7364 167.313 94.849 166.199 89.272 163.992C88.9881 163.87 88.7853 163.647 88.6636 163.364C88.5419 163.08 88.5419 162.776 88.6433 162.493C88.7042 162.351 88.7853 162.209 88.8867 162.088C88.9881 161.966 89.1098 161.885 89.2517 161.824C89.3937 161.764 89.5356 161.723 89.6979 161.723C89.8601 161.723 90.0021 161.743 90.144 161.804C100.791 166.057 108.477 166.057 113.06 161.804C124.397 151.171 113.871 117.692 113.75 117.409C113.648 117.247 113.608 117.085 113.588 116.902C113.588 116.72 113.588 116.538 113.669 116.376C113.73 116.214 113.831 116.052 113.973 115.93C114.095 115.809 114.257 115.707 114.439 115.647C114.622 115.586 114.804 115.566 114.967 115.586C115.149 115.606 115.311 115.667 115.474 115.768C115.636 115.87 115.758 115.991 115.859 116.153C115.96 116.315 116.021 116.477 116.041 116.659C116.447 118.118 127.094 151.88 114.642 163.505C111.904 166.057 108.295 167.333 103.874 167.333V167.313Z" fill="#0B0B0B"/>
<path d="M107.442 133.551C108.274 133.45 108.801 132.336 108.639 131.1C108.477 129.865 107.666 128.933 106.834 129.055C106.003 129.156 105.475 130.27 105.638 131.505C105.8 132.741 106.611 133.672 107.442 133.551Z" fill="#0B0B0B"/>
<path d="M91.1378 136.305C91.9692 136.204 92.4965 135.09 92.3343 133.854C92.172 132.619 91.3608 131.707 90.5294 131.809C89.6979 131.91 89.1706 133.024 89.3328 134.259C89.4951 135.495 90.3063 136.406 91.1378 136.305Z" fill="#0B0B0B"/>
<path d="M111.884 128.143H111.702L103.955 127.15C103.772 127.13 103.569 127.069 103.407 126.968C103.245 126.867 103.083 126.745 102.981 126.603C102.86 126.462 102.779 126.279 102.718 126.097C102.657 125.915 102.657 125.712 102.677 125.53C102.738 125.145 102.941 124.801 103.245 124.578C103.549 124.335 103.934 124.234 104.32 124.254L112.067 125.246C112.249 125.267 112.452 125.327 112.614 125.429C112.776 125.53 112.939 125.651 113.04 125.793C113.162 125.935 113.243 126.117 113.304 126.3C113.365 126.482 113.365 126.684 113.344 126.867C113.304 127.211 113.121 127.555 112.858 127.778C112.594 128.021 112.249 128.143 111.884 128.143Z" fill="#0B0B0B"/>
<path d="M86.3519 128.649C86.0274 128.649 85.7232 128.528 85.4799 128.325C85.2365 128.123 85.054 127.839 84.9931 127.535C84.912 127.231 84.9526 126.907 85.0743 126.604C85.1959 126.32 85.4393 126.077 85.7029 125.915L91.1177 123.059C91.2799 122.978 91.4624 122.917 91.6652 122.897C91.8477 122.897 92.0505 122.897 92.233 122.958C92.4156 123.019 92.5778 123.12 92.7198 123.242C92.8617 123.363 92.9834 123.525 93.0645 123.687C93.1456 123.849 93.2065 124.031 93.2268 124.214C93.2268 124.396 93.2268 124.578 93.1659 124.761C93.1051 124.943 93.024 125.105 92.9023 125.247C92.7806 125.388 92.6386 125.51 92.4764 125.591L87.0617 128.447C86.8386 128.548 86.6155 128.609 86.3722 128.629L86.3519 128.649Z" fill="#0B0B0B"/>
<path d="M102.474 145.217C102.211 145.217 101.947 145.116 101.724 144.954C101.521 144.792 101.359 144.549 101.298 144.285C101.237 143.982 101.298 143.657 101.481 143.394C101.663 143.131 101.927 142.949 102.231 142.888C103.103 142.706 103.346 142.483 103.346 142.361C103.346 142.24 102.292 140.376 101.014 139.344C100.892 139.263 100.771 139.141 100.69 139.019C100.609 138.878 100.548 138.736 100.527 138.594C100.507 138.432 100.527 138.29 100.568 138.128C100.609 137.987 100.69 137.845 100.791 137.723C100.994 137.48 101.258 137.338 101.562 137.298C101.866 137.257 102.17 137.359 102.413 137.541C103.285 138.23 106.145 140.68 105.618 142.949C105.395 144.063 104.401 144.812 102.718 145.156L102.495 145.217H102.474Z" fill="#0B0B0B"/>
<path d="M101.237 155.728C98.1549 155.728 94.2611 154.675 92.801 150.786C92.6793 150.503 92.6793 150.179 92.801 149.895C92.9227 149.612 93.1457 149.389 93.4297 149.267C93.5716 149.207 93.7339 149.186 93.8758 149.186C94.0381 149.186 94.18 149.227 94.322 149.288C94.4639 149.348 94.5856 149.45 94.687 149.551C94.7884 149.672 94.8695 149.794 94.9304 149.956C96.7353 154.594 103.245 153.217 103.549 153.156C103.854 153.095 104.158 153.156 104.421 153.318C104.685 153.48 104.867 153.723 104.949 154.027C104.989 154.169 104.989 154.331 104.949 154.472C104.928 154.614 104.867 154.776 104.786 154.898C104.705 155.019 104.604 155.141 104.482 155.222C104.361 155.303 104.219 155.364 104.077 155.404C103.144 155.607 102.191 155.708 101.217 155.688L101.237 155.728Z" fill="#0B0B0B"/>
<path d="M113 187.182H112.655C110.201 186.716 107.423 186.129 106.307 183.395C104.137 178.108 102.88 172.478 102.576 166.767C102.576 166.625 102.576 166.463 102.637 166.321C102.698 166.179 102.779 166.058 102.88 165.936C102.982 165.835 103.103 165.734 103.245 165.693C103.387 165.632 103.529 165.612 103.691 165.612H103.752C104.056 165.612 104.34 165.734 104.563 165.936C104.786 166.139 104.908 166.422 104.928 166.726C105.233 172.154 106.429 177.501 108.477 182.524C109.065 183.982 110.688 184.448 113.142 184.914H113.263C113.527 184.995 113.75 185.157 113.892 185.379C114.034 185.602 114.115 185.865 114.075 186.129C114.054 186.392 113.933 186.635 113.73 186.838C113.547 187.02 113.284 187.141 113.02 187.162L113 187.182Z" fill="#0B0B0B"/>
<path d="M74.711 149.348C74.711 149.348 67.8361 143.535 68.8299 140.639C69.1746 139.485 70.6956 137.156 74.3663 138.776C82.5188 142.199 83.9181 125.652 86.1691 120.001C87.5076 116.517 91.4622 118.32 92.5776 118.786C99.3308 121.804 109.106 117.571 115.21 116.922C115.616 116.882 116.001 116.74 116.366 116.538C116.711 116.335 117.015 116.052 117.258 115.707C117.502 115.363 117.664 114.998 117.745 114.593C117.826 114.188 117.826 113.783 117.725 113.378C116.447 108.274 111.316 99.9502 105.05 95.7172C95.4979 89.3779 71.7096 85.6108 60.5354 111.515C52.0381 131.1 60.1298 142.077 64.6116 146.27C65.9298 147.546 67.6333 148.356 69.4383 148.599L74.7313 149.348H74.711Z" fill="#0B0B0B"/>
<path d="M61.2047 199.091C60.9613 199.091 60.7179 199.01 60.5151 198.868C60.3123 198.726 60.1704 198.523 60.0893 198.28C60.0284 198.139 60.0081 197.977 60.0284 197.835C60.0284 197.673 60.0893 197.531 60.1501 197.389C60.2312 197.247 60.3123 197.126 60.434 197.045C60.5557 196.944 60.6977 196.883 60.8396 196.842C65.3215 195.323 77.1852 190.442 78.4628 185.217L75.5628 150.401C73.8187 149.753 69.6208 148.011 67.9984 144.832C67.6334 144.082 67.4103 143.272 67.3697 142.442C67.3292 141.611 67.4711 140.781 67.755 140.011C68.5662 137.865 69.783 136.69 71.3649 136.406C74.4474 135.94 77.4083 139.606 77.7733 140.011C77.9355 140.254 77.9964 140.538 77.9558 140.822C77.9153 141.105 77.753 141.368 77.5299 141.551C77.3069 141.733 77.0229 141.814 76.739 141.814C76.4551 141.814 76.1712 141.672 75.9684 141.47C75.1572 140.477 73.0684 138.513 71.7299 138.735C70.3914 138.958 70.3306 139.951 69.9858 140.822C69.783 141.287 69.7019 141.814 69.7222 142.32C69.7222 142.827 69.8844 143.333 70.1075 143.799C71.3851 146.351 75.5222 148.052 76.9824 148.457L77.7327 148.68L80.8761 185.399V185.582C79.3146 193.136 63.4152 198.483 61.6102 199.07L61.2047 199.131V199.091Z" fill="#0B0B0B"/>
<path d="M70.4117 102.441C70.4117 102.441 54.4717 99.8896 54.2283 80.183C54.0052 60.4765 80.6935 61.7119 89.0286 75.0184C93.9769 82.9172 90.367 95.0693 86.6964 98.4921C83.0257 101.915 70.4117 102.441 70.4117 102.441Z" fill="#0B0B0B"/>
<path d="M69.2355 102.806C68.3229 102.846 67.4306 102.725 66.5586 102.462C66.2747 102.36 66.0313 102.158 65.8894 101.874C65.7474 101.591 65.7271 101.267 65.8285 100.983C65.9299 100.699 66.1327 100.456 66.4166 100.315C66.7005 100.173 67.025 100.153 67.3089 100.254C67.4915 100.315 75.1573 102.583 90.0021 90.6133C90.1238 90.512 90.2657 90.431 90.4077 90.3905C90.5497 90.35 90.7119 90.3297 90.8741 90.35C91.0364 90.35 91.1783 90.4107 91.3203 90.4715C91.4623 90.5525 91.5839 90.6335 91.6853 90.7551C91.7867 90.8766 91.8679 91.0183 91.9084 91.1601C91.949 91.3019 91.9693 91.4639 91.949 91.626C91.949 91.788 91.8881 91.9297 91.8273 92.0715C91.7462 92.2133 91.6651 92.3348 91.5434 92.4361C80.43 101.388 72.9873 102.846 69.2558 102.846L69.2355 102.806Z" fill="#0550FC"/>
<path d="M72.2773 101.287C72.2773 101.287 76.0493 93.7325 78.9696 94.0769C81.8696 94.4212 80.3689 104.244 79.0913 104.953C77.8137 105.642 72.2773 101.287 72.2773 101.287Z" fill="#0550FC"/>
<path d="M72.0342 101.226C72.0342 101.226 66.6803 94.7251 63.9425 95.6972C61.2048 96.6897 64.8146 105.925 66.153 106.27C67.4915 106.614 72.0342 101.206 72.0342 101.206V101.226Z" fill="#0550FC"/>
<path d="M62.1378 91.3431C61.8741 91.3431 61.6105 91.2621 61.4077 91.0798C61.2049 90.9178 61.0629 90.6747 61.0224 90.4114L60.1504 86.8063C60.1098 86.6646 60.1098 86.5025 60.1504 86.3608C60.1706 86.219 60.2315 86.057 60.3126 85.9355C60.3937 85.8139 60.4951 85.6924 60.6168 85.6114C60.7385 85.5304 60.8804 85.4696 61.0224 85.4291C61.3266 85.3684 61.6308 85.4291 61.8944 85.5911C62.1581 85.7532 62.3406 85.9962 62.4217 86.3L63.2937 89.9051C63.3343 90.0469 63.3343 90.2089 63.2937 90.3507C63.2735 90.4925 63.2126 90.6545 63.1315 90.776C63.0504 90.8975 62.949 91.0191 62.8273 91.1001C62.7056 91.1811 62.5637 91.2621 62.4217 91.2823L62.1378 91.3431Z" fill="white"/>
<path d="M60.0487 82.5124C59.7648 82.5124 59.5012 82.4111 59.2781 82.2289C59.055 82.0466 58.9333 81.8035 58.8725 81.52C58.183 76.8212 60.9613 71.9401 61.083 71.6971C61.1641 71.5553 61.2452 71.4541 61.3669 71.3528C61.4886 71.2515 61.6306 71.1908 61.7725 71.1503C61.9145 71.1098 62.0767 71.1097 62.2187 71.13C62.3606 71.1503 62.5229 71.211 62.6446 71.292C62.9082 71.4338 63.111 71.6768 63.1921 71.9806C63.2732 72.2844 63.253 72.5882 63.111 72.8515C63.0502 72.9123 60.6166 77.2668 61.1236 81.1554C61.1438 81.3175 61.1236 81.4592 61.1236 81.6213C61.083 81.763 61.0222 81.9048 60.9208 82.0466C60.8194 82.1681 60.718 82.2694 60.576 82.3504C60.4341 82.4314 60.2921 82.4719 60.1501 82.5124H60.0285H60.0487Z" fill="white"/>
<path d="M63.8817 127.09C63.5977 127.09 63.3138 126.989 63.0908 126.786C62.8677 126.584 62.746 126.321 62.7054 126.037C62.0565 119.414 66.2544 110.989 66.4369 110.645C66.5789 110.361 66.8222 110.158 67.1062 110.057C67.4104 109.956 67.7146 109.976 67.9985 110.118C68.2824 110.26 68.4852 110.503 68.5866 110.786C68.688 111.09 68.6677 111.394 68.5258 111.677C68.4649 111.738 64.4495 119.88 65.0376 125.794C65.0376 125.956 65.0376 126.098 64.9971 126.24C64.9565 126.381 64.8754 126.523 64.774 126.645C64.6726 126.766 64.5509 126.867 64.4292 126.928C64.2873 127.009 64.1453 127.05 63.9831 127.05H63.8614L63.8817 127.09Z" fill="white"/>
<path d="M101.886 114.128C99.7163 114.128 97.5666 113.824 95.4778 113.196L94.7274 113.014C94.5652 113.014 94.4029 112.973 94.2407 112.892C94.0987 112.811 93.9568 112.71 93.8554 112.588C93.754 112.467 93.6728 112.305 93.6323 112.143C93.5917 111.981 93.5917 111.819 93.6323 111.657C93.6526 111.495 93.7337 111.333 93.8148 111.211C93.9162 111.069 94.0379 110.968 94.1798 110.867C94.3218 110.786 94.484 110.725 94.6463 110.705C94.8085 110.705 94.9708 110.705 95.133 110.745C95.4575 110.766 95.7617 110.847 96.0659 110.968C98.1547 111.495 102.981 112.831 110.728 110.219C110.87 110.158 111.012 110.138 111.174 110.138C111.316 110.138 111.479 110.178 111.6 110.239C111.742 110.3 111.864 110.401 111.965 110.502C112.067 110.624 112.148 110.745 112.188 110.887C112.249 111.029 112.269 111.191 112.269 111.333C112.269 111.495 112.229 111.636 112.168 111.778C112.107 111.92 112.006 112.042 111.904 112.143C111.783 112.244 111.661 112.325 111.499 112.386C108.416 113.459 105.172 114.026 101.906 114.067L101.886 114.128Z" fill="white"/>
<path d="M61.8536 301.532C61.8536 301.532 44.7983 289.097 35.0842 280.793C25.3702 272.489 36.0171 249.056 49.4018 214.078C62.7865 179.101 77.5097 183.212 77.5097 183.212C77.5097 183.212 87.5279 180.417 100.73 198.26C113.932 216.104 121.618 258.696 105.678 301.35" fill="#0550FC"/>
<path d="M76.1711 297.421C76.1711 297.421 54.4717 275.284 53.5388 267.486C52.9507 262.14 62.2186 243.952 66.3354 236.114C66.4976 235.81 66.7613 235.567 67.0655 235.405C67.3697 235.243 67.7144 235.182 68.0592 235.223C68.4039 235.263 68.7284 235.405 68.992 235.628C69.2557 235.851 69.4585 236.134 69.5396 236.479C72.5613 246.524 79.1928 273.38 71.0606 289.583" fill="white"/>
<path d="M140.357 303.234C140.357 303.234 136.119 279.011 134.537 269.188C132.975 259.365 134.821 249.198 140.357 230.484C145.893 211.77 133.32 196.721 126.851 188.114C121.314 180.741 112.31 182.888 109.917 183.577C109.856 183.597 109.795 183.638 109.734 183.698C109.694 183.739 109.653 183.8 109.633 183.881C109.613 183.941 109.613 184.023 109.633 184.083C109.633 184.164 109.674 184.225 109.714 184.286C111.986 187.081 122.977 201.481 121.051 219.162C118.901 238.808 118.252 293.431 129.021 303.538" fill="#0550FC"/>
<path d="M116.893 122.027C116.893 122.027 122.004 112.852 124.275 113.419C126.546 114.006 154.999 142.888 154.188 144.508C153.377 146.128 140.681 162.939 139.241 163.161C137.781 163.384 120.625 143.293 120.625 143.293L116.893 122.027Z" fill="#DCE0FF"/>
<path d="M139.12 164.336C138.369 164.336 136.909 163.465 128.534 154.108C124.052 149.166 119.753 144.123 119.692 144.062L119.509 143.839L115.676 121.824L115.899 121.48C118.394 116.943 122.004 111.657 124.579 112.366C127.134 113.054 153.437 139.789 155.181 143.677C155.303 143.88 155.364 144.123 155.384 144.366C155.384 144.609 155.344 144.852 155.242 145.075C154.715 146.128 151.004 151.11 147.86 155.12C140.823 164.133 140.012 164.235 139.424 164.356H139.14L139.12 164.336ZM121.659 142.786C128.939 151.212 137.011 160.164 139.181 161.845C141.635 159.637 151.288 146.958 152.971 144.346C150.76 140.336 126.79 116.214 123.991 114.593C122.997 114.877 120.32 118.361 118.11 122.27L121.659 142.786Z" fill="#0B0B0B"/>
<path d="M351.917 301.249H8.1527C4.29952 301.249 1.17642 304.368 1.17642 308.216V311.76C1.17642 315.608 4.29952 318.727 8.1527 318.727H351.917C355.77 318.727 358.893 315.608 358.893 311.76V308.216C358.893 304.368 355.77 301.249 351.917 301.249Z" fill="white"/>
<path d="M351.917 319.902H8.15257C5.98262 319.902 3.91407 319.051 2.39308 317.512C0.872095 315.993 6.10352e-05 313.907 6.10352e-05 311.76V308.216C6.10352e-05 306.049 0.851815 303.983 2.39308 302.464C3.91407 300.945 6.0029 300.074 8.15257 300.074H351.917C354.086 300.074 356.155 300.925 357.676 302.464C359.197 304.003 360.069 306.069 360.069 308.216V311.76C360.069 313.927 359.217 315.993 357.676 317.512C356.155 319.031 354.066 319.902 351.917 319.902ZM8.15257 302.403C6.6113 302.403 5.13087 303.011 4.03575 304.104C2.94064 305.198 2.33225 306.677 2.33225 308.216V311.76C2.33225 313.299 2.94064 314.778 4.03575 315.872C5.13087 316.965 6.6113 317.573 8.15257 317.573H351.917C353.458 317.573 354.938 316.965 356.033 315.872C357.128 314.778 357.737 313.299 357.737 311.76V308.216C357.737 306.677 357.128 305.198 356.033 304.104C354.938 303.011 353.458 302.403 351.917 302.403H8.15257Z" fill="#0B0B0B"/>
<path d="M326.019 318.748H33.5225C29.2232 318.748 25.6742 322.008 25.6742 325.958V347.001C25.6742 350.95 29.2232 354.211 33.5225 354.211H37.0106C39.8701 354.211 42.182 356.358 42.182 358.971V460.44C42.182 462.668 43.0743 464.815 44.6561 466.395C46.238 467.974 48.3876 468.866 50.6184 468.866H312.452C313.547 468.866 314.662 468.643 315.676 468.217C316.69 467.792 317.623 467.164 318.394 466.395C319.164 465.605 319.793 464.673 320.199 463.66C320.624 462.648 320.827 461.554 320.827 460.44V358.971C320.827 356.358 323.159 354.211 325.999 354.211C330.298 354.211 333.847 350.95 333.847 347.001V325.958C333.847 322.008 330.298 318.748 325.999 318.748H326.019Z" fill="white"/>
<path d="M312.472 470H50.6187C48.0634 470 45.6299 468.988 43.825 467.185C42.0201 465.382 41.0061 462.952 41.0061 460.4V358.931C41.0061 356.946 39.2011 355.326 36.9906 355.326H33.5025C28.5542 355.326 24.478 351.558 24.478 346.961V325.918C24.478 321.259 28.5542 317.553 33.5025 317.553H326.019C331.028 317.553 335.044 321.28 335.044 325.918V346.961C335.044 351.558 331.028 355.326 326.019 355.326C323.809 355.326 322.004 356.946 322.004 358.931V460.4C322.004 462.932 321.01 465.362 319.205 467.165C317.4 468.967 314.987 469.98 312.452 470H312.472ZM33.5228 319.902C29.8521 319.902 26.8304 322.637 26.8304 325.938V346.981C26.8304 350.303 29.8521 353.017 33.5228 353.017H37.0109C40.4991 353.017 43.3585 355.69 43.3585 358.951V460.42C43.3585 462.344 44.1292 464.187 45.4879 465.565C46.8467 466.922 48.6921 467.691 50.639 467.691H312.472C314.399 467.691 316.224 466.901 317.583 465.544C318.942 464.187 319.692 462.344 319.692 460.42V358.951C319.692 355.69 322.551 353.017 326.04 353.017C329.528 353.017 332.732 350.282 332.732 346.981V325.938C332.732 322.616 329.71 319.902 326.04 319.902H33.5228Z" fill="#0B0B0B"/>
<path d="M275.928 198.403V273.603C275.928 275.284 275.258 276.905 274.062 278.079C272.865 279.274 271.263 279.943 269.58 279.943H160.191C159.359 279.943 158.548 279.781 157.777 279.457C157.007 279.133 156.317 278.667 155.729 278.079C155.141 277.492 154.674 276.783 154.37 276.034C154.066 275.264 153.904 274.434 153.904 273.624V198.423C153.904 196.762 154.573 195.162 155.749 193.987C156.925 192.813 158.528 192.144 160.191 192.144H269.58C270.412 192.144 271.243 192.286 271.993 192.61C272.764 192.914 273.454 193.38 274.062 193.967C274.65 194.554 275.117 195.243 275.441 196.013C275.765 196.782 275.928 197.592 275.928 198.423V198.403Z" fill="#DCE0FF"/>
<path d="M269.58 281.077H160.191C159.217 281.077 158.244 280.874 157.331 280.509C156.419 280.125 155.607 279.578 154.918 278.889C154.228 278.18 153.681 277.37 153.316 276.459C152.951 275.547 152.768 274.575 152.768 273.603V198.402C152.768 196.438 153.559 194.534 154.958 193.136C156.358 191.739 158.244 190.949 160.231 190.949H269.621C271.608 190.949 273.494 191.739 274.914 193.116C276.313 194.514 277.124 196.397 277.124 198.382V273.583C277.124 275.568 276.333 277.471 274.934 278.889C273.535 280.307 271.608 281.077 269.621 281.077H269.58ZM160.191 193.278C158.832 193.278 157.534 193.825 156.581 194.777C155.628 195.729 155.08 197.045 155.08 198.402V273.603C155.08 274.271 155.202 274.96 155.445 275.588C155.709 276.216 156.074 276.783 156.561 277.269C157.047 277.755 157.595 278.14 158.224 278.383C158.852 278.646 159.521 278.788 160.191 278.788H269.58C270.959 278.788 272.277 278.241 273.251 277.269C274.224 276.297 274.772 274.98 274.772 273.603V198.402C274.772 197.045 274.204 195.749 273.231 194.777C272.257 193.825 270.959 193.278 269.58 193.278H160.191Z" fill="#0B0B0B"/>
<path d="M160.191 279.922H154.026C152.363 279.922 150.761 279.234 149.584 278.039C148.408 276.844 147.739 275.244 147.739 273.583V198.382C147.739 197.552 147.901 196.742 148.226 195.972C148.55 195.202 148.996 194.514 149.584 193.926C150.172 193.339 150.862 192.873 151.633 192.569C152.403 192.266 153.214 192.083 154.046 192.083H160.211C158.548 192.083 156.946 192.752 155.77 193.926C154.593 195.101 153.924 196.701 153.924 198.362V273.563C153.924 274.393 154.066 275.203 154.391 275.973C154.695 276.742 155.161 277.431 155.749 278.018C156.338 278.606 157.027 279.072 157.798 279.396C158.568 279.72 159.379 279.882 160.211 279.882L160.191 279.922Z" fill="white"/>
<path d="M160.191 281.077H154.026C152.038 281.077 150.152 280.266 148.753 278.869C147.354 277.471 146.583 275.568 146.583 273.583V198.382C146.583 196.417 147.394 194.534 148.773 193.136C150.172 191.739 152.058 190.949 154.026 190.949H160.191V193.278C158.832 193.278 157.534 193.825 156.581 194.777C155.628 195.729 155.08 197.045 155.08 198.402V273.603C155.08 274.271 155.202 274.96 155.445 275.588C155.709 276.216 156.074 276.783 156.561 277.269C157.047 277.755 157.595 278.14 158.224 278.383C158.852 278.646 159.521 278.788 160.191 278.788V281.117V281.077ZM154.026 193.278C152.667 193.278 151.369 193.845 150.416 194.797C149.463 195.749 148.915 197.045 148.895 198.402V273.603C148.895 274.96 149.442 276.276 150.396 277.249C151.349 278.221 152.647 278.768 154.026 278.788H154.776C153.458 277.39 152.728 275.547 152.748 273.623V198.422C152.748 196.519 153.478 194.696 154.776 193.319H154.026V193.278Z" fill="#0B0B0B"/>
<path d="M218.495 258.413H203.589C199.736 258.413 196.613 261.532 196.613 265.38V291.041C196.613 294.889 199.736 298.008 203.589 298.008H218.495C222.348 298.008 225.471 294.889 225.471 291.041V265.38C225.471 261.532 222.348 258.413 218.495 258.413Z" fill="white"/>
<path d="M218.556 299.163H203.609C201.46 299.163 199.371 298.312 197.85 296.773C196.329 295.234 195.457 293.168 195.457 291.021V265.4C195.457 263.254 196.309 261.167 197.85 259.648C199.371 258.129 201.46 257.259 203.609 257.259H218.556C220.726 257.259 222.794 258.109 224.315 259.648C225.836 261.167 226.708 263.254 226.708 265.4V291.021C226.708 293.168 225.856 295.254 224.315 296.773C222.774 298.292 220.705 299.163 218.556 299.163ZM203.609 259.588C202.068 259.588 200.588 260.195 199.493 261.289C198.398 262.383 197.789 263.861 197.789 265.4V291.021C197.789 292.56 198.398 294.039 199.493 295.132C200.588 296.226 202.068 296.834 203.609 296.834H218.556C220.097 296.834 221.577 296.226 222.672 295.132C223.768 294.039 224.376 292.56 224.376 291.021V265.4C224.376 263.861 223.768 262.383 222.672 261.289C221.577 260.195 220.097 259.588 218.556 259.588H203.609Z" fill="#0B0B0B"/>
<path d="M246.948 293.107H176.719C174.975 293.107 173.576 294.504 173.576 296.246V296.408C173.576 298.15 174.975 299.547 176.719 299.547H246.948C248.692 299.547 250.092 298.15 250.092 296.408V296.246C250.092 294.504 248.692 293.107 246.948 293.107Z" fill="white"/>
<path d="M246.948 300.722H176.719C175.583 300.722 174.488 300.276 173.677 299.466C172.866 298.656 172.419 297.562 172.419 296.428V296.205C172.419 295.071 172.886 293.998 173.697 293.208C174.508 292.418 175.583 291.972 176.719 291.972H246.948C248.084 291.972 249.158 292.418 249.97 293.208C250.781 293.998 251.227 295.071 251.247 296.205V296.428C251.247 297.562 250.801 298.656 249.99 299.466C249.179 300.276 248.084 300.722 246.948 300.722ZM176.719 294.281C176.212 294.281 175.705 294.484 175.34 294.828C174.975 295.193 174.752 295.679 174.731 296.185V296.408C174.731 296.934 174.934 297.441 175.319 297.805C175.684 298.17 176.191 298.393 176.719 298.393H246.948C247.475 298.393 247.982 298.19 248.347 297.805C248.712 297.441 248.935 296.934 248.935 296.408V296.185C248.935 295.679 248.712 295.193 248.327 294.828C247.962 294.464 247.455 294.261 246.948 294.281H176.719Z" fill="#0B0B0B"/>
<path d="M323.282 300.256L293.024 300.479L286.575 275.385H328.818L323.282 300.256Z" fill="#0B0B0B"/>
<path d="M332.245 269.816H284.06C282.62 269.816 281.444 270.991 281.444 272.429V274.981C281.444 276.419 282.62 277.593 284.06 277.593H332.245C333.685 277.593 334.861 276.419 334.861 274.981V272.429C334.861 270.991 333.685 269.816 332.245 269.816Z" fill="#0B0B0B"/>
<path d="M307.929 271.213C307.646 271.213 307.362 271.112 307.139 270.909C306.915 270.707 306.794 270.443 306.753 270.16C304.664 246.281 312.046 233.724 318.617 227.445C325.188 221.167 333.462 219.364 333.746 219.304C334.05 219.283 334.354 219.364 334.597 219.547C334.841 219.729 335.023 219.992 335.084 220.296C335.104 220.438 335.084 220.6 335.084 220.762C335.044 220.904 334.983 221.045 334.881 221.187C334.78 221.309 334.679 221.41 334.537 221.491C334.395 221.572 334.253 221.612 334.111 221.633C334.05 221.633 326.769 222.747 320.138 229.187C311.296 237.734 307.443 251.851 309.085 269.917C309.085 270.079 309.085 270.221 309.045 270.362C309.004 270.504 308.923 270.646 308.842 270.767C308.741 270.889 308.619 270.99 308.497 271.051C308.355 271.132 308.213 271.172 308.051 271.193H307.929V271.213Z" fill="#0B0B0B"/>
<path d="M336.848 221.349H334.232L331.434 220.661L331.616 219.608C333.299 209.197 347.374 210.372 351.632 210.959C351.937 211 352.241 211.101 352.505 211.283C352.768 211.466 352.971 211.709 353.093 211.992C353.235 212.256 353.316 212.559 353.316 212.863C353.316 213.167 353.214 213.471 353.052 213.734C351.714 216.063 347.516 221.349 336.869 221.349H336.848ZM334.699 218.96C344.94 219.648 349.138 215.415 350.7 213.025C346.562 212.559 336.22 212.033 334.172 218.838L334.699 218.96Z" fill="#0B0B0B"/>
<path d="M346.684 236.803H346.4L345.873 236.681C334.354 233.015 332.428 225.582 332.144 222.504C332.103 222.18 332.144 221.876 332.286 221.572C332.407 221.268 332.59 221.025 332.853 220.823C333.077 220.64 333.34 220.499 333.624 220.418C333.908 220.357 334.212 220.337 334.496 220.418C338.167 221.289 350.031 224.833 349.442 234.129C349.382 234.899 349.037 235.628 348.449 236.155C347.962 236.56 347.333 236.782 346.705 236.803H346.684ZM346.441 234.413H346.624L346.907 234.291C346.907 234.291 347.009 234.19 347.049 234.109C347.09 234.028 347.09 233.967 347.09 233.886C347.556 226.858 338.248 223.719 334.516 222.727C334.922 225.623 336.97 231.375 346.441 234.413Z" fill="#0B0B0B"/>
<path d="M346.968 229.126C346.785 229.126 346.603 229.086 346.461 229.005C346.299 228.924 346.157 228.802 346.055 228.66C345.974 228.539 345.913 228.397 345.873 228.235C345.832 228.093 345.832 227.931 345.873 227.79C345.893 227.648 345.954 227.486 346.035 227.364C346.116 227.243 346.218 227.121 346.36 227.04L351.774 223.03L346.887 219.081C346.765 218.979 346.664 218.878 346.583 218.736C346.501 218.594 346.461 218.453 346.441 218.311C346.441 218.149 346.441 218.007 346.481 217.865C346.522 217.724 346.603 217.582 346.704 217.46C346.907 217.217 347.171 217.075 347.475 217.035C347.779 216.994 348.083 217.096 348.327 217.278L353.559 221.531C353.802 221.714 354.005 221.957 354.127 222.22C354.269 222.503 354.33 222.787 354.309 223.091C354.309 223.395 354.228 223.698 354.086 223.982C353.944 224.245 353.741 224.488 353.478 224.671L347.657 228.903C347.455 229.065 347.211 229.147 346.948 229.147L346.968 229.126Z" fill="#0B0B0B"/>
<path d="M306.814 254.707H306.692C306.165 254.646 293.956 252.904 291.685 245.755C290.752 243.102 290.448 240.286 290.813 237.512C290.935 236.053 290.996 235.061 290.529 233.846C290.063 232.631 290.468 230.706 291.401 230.301C292.334 229.896 296.106 231.233 298.154 235.77C299.371 238.565 301.703 240.651 303.975 242.636C306.246 244.621 308.396 246.646 308.923 249.036C309.45 251.426 309.268 252.823 308.517 253.856C308.335 254.099 308.112 254.302 307.848 254.443C307.584 254.585 307.301 254.686 306.996 254.727H306.814V254.707ZM292.496 232.448C292.537 232.61 292.598 232.772 292.679 232.914C293.368 234.595 293.267 236.053 293.145 237.613C292.821 240.104 293.084 242.615 293.896 244.985C295.356 249.583 303.265 251.79 306.631 252.317C306.753 252.094 307.037 251.324 306.631 249.461C306.226 247.598 304.482 246.14 302.393 244.297C300.304 242.453 297.445 239.881 295.984 236.681C294.524 233.481 293.186 232.671 292.496 232.448Z" fill="#0B0B0B"/>
<path d="M81.6874 299.851L87.3252 289.684C87.386 289.562 87.3252 289.441 87.2035 289.441H28.5744C28.2702 289.441 27.9863 289.522 27.7227 289.684C27.459 289.826 27.2562 290.049 27.1143 290.312L22.0443 300.54L81.9713 300.823" fill="white"/>
<path d="M81.9914 301.937L20.1987 301.593L26.1407 289.806C26.3435 289.34 26.6883 288.935 27.1344 288.651C27.5603 288.368 28.0673 288.226 28.5946 288.226H87.2439C87.467 288.226 87.6901 288.287 87.8929 288.388C88.0957 288.509 88.2579 288.671 88.3593 288.854C88.481 289.056 88.5216 289.259 88.5216 289.502C88.5216 289.725 88.4607 289.947 88.3593 290.15L82.9446 299.973C83.0866 300.196 83.1677 300.459 83.1677 300.722C83.1677 300.884 83.1677 301.046 83.0866 301.188C83.0257 301.33 82.9446 301.472 82.8432 301.593C82.7418 301.715 82.5998 301.796 82.4579 301.856C82.3159 301.917 82.1537 301.958 81.9914 301.958V301.937ZM23.9302 299.325L80.5516 299.608C80.5516 299.487 80.6124 299.365 80.6733 299.264L85.4999 290.616H28.5743C28.5743 290.616 28.412 290.656 28.3512 290.697C28.2904 290.737 28.2295 290.798 28.1687 290.859L23.9302 299.345V299.325Z" fill="#0B0B0B"/>
<path d="M96.7552 301.998L89.1908 288.874C89.0894 288.712 88.9678 288.57 88.7852 288.469C88.623 288.368 88.4202 288.327 88.2377 288.327C88.0552 288.327 87.8524 288.388 87.6901 288.489C87.5279 288.591 87.4062 288.732 87.3251 288.915L80.1055 301.998H96.7552Z" fill="#0B0B0B"/>
<path d="M76.4553 296.084L30.0144 295.8C29.7102 295.8 29.406 295.679 29.1829 295.456C28.9598 295.233 28.8381 294.95 28.8381 294.626C28.8381 294.302 28.9598 294.018 29.1829 293.795C29.406 293.572 29.6899 293.451 30.0144 293.451L76.4553 293.734C76.7594 293.755 77.0434 293.897 77.2664 294.119C77.4895 294.342 77.6112 294.646 77.6112 294.95C77.6112 295.091 77.5909 295.253 77.5301 295.395C77.4692 295.537 77.3881 295.659 77.2664 295.76C77.165 295.861 77.0231 295.942 76.8811 296.003C76.7392 296.043 76.5972 296.084 76.435 296.064L76.4553 296.084Z" fill="#0B0B0B"/>
<path d="M189.576 431.256C237.944 431.256 277.145 418.739 277.145 403.306C277.145 387.873 237.944 375.356 189.576 375.356C141.209 375.356 102.008 387.873 102.008 403.306C102.008 418.739 141.209 431.256 189.576 431.256Z" fill="#0550FC"/>
<path d="M235.368 398.647H148.023C147.718 398.647 147.414 398.526 147.191 398.303C146.968 398.08 146.846 397.797 146.846 397.473C146.846 397.148 146.968 396.865 147.191 396.642C147.414 396.419 147.698 396.298 148.023 396.298H235.368C235.672 396.298 235.976 396.419 236.2 396.642C236.423 396.865 236.544 397.148 236.544 397.473C236.544 397.797 236.423 398.08 236.2 398.303C235.976 398.526 235.693 398.647 235.368 398.647Z" fill="white"/>
<path d="M229.203 412.136H152.971C152.667 412.136 152.363 412.015 152.14 411.792C151.917 411.569 151.795 411.286 151.795 410.962C151.795 410.638 151.917 410.354 152.14 410.131C152.363 409.908 152.647 409.787 152.971 409.787H229.203C229.507 409.787 229.812 409.908 230.035 410.131C230.258 410.354 230.379 410.638 230.379 410.962C230.379 411.286 230.258 411.569 230.035 411.792C229.812 412.015 229.528 412.136 229.203 412.136Z" fill="white"/>
<path d="M281.444 358.08H84.141C83.8368 358.08 83.5326 357.958 83.3095 357.735C83.0864 357.513 82.9648 357.229 82.9648 356.905C82.9648 356.581 83.0864 356.297 83.3095 356.075C83.5326 355.852 83.8165 355.73 84.141 355.73H281.464C281.768 355.73 282.072 355.852 282.296 356.075C282.519 356.297 282.64 356.581 282.64 356.905C282.64 357.229 282.519 357.513 282.296 357.735C282.072 357.958 281.789 358.08 281.464 358.08H281.444Z" fill="#0B0B0B"/>
<path d="M489.475 249.704H403.063C398.378 249.704 394.565 253.512 394.565 258.19V413.919C394.565 418.597 398.378 422.405 403.063 422.405H489.475C494.16 422.405 497.972 418.597 497.972 413.919V258.19C497.972 253.512 494.16 249.704 489.475 249.704Z" fill="#0B0B0B"/>
<path d="M439.424 249.947C439.12 249.947 438.816 249.825 438.593 249.602C438.37 249.38 438.248 249.096 438.248 248.772V155.323C438.248 153.48 437.518 151.698 436.22 150.381C435.632 149.794 434.922 149.328 434.131 149.004C433.36 148.68 432.509 148.518 431.677 148.518L361.205 148.984C359.44 149.044 357.757 149.794 356.54 151.09C355.324 152.366 354.654 154.088 354.695 155.85V187.06C354.695 187.364 354.573 187.668 354.35 187.89C354.127 188.113 353.843 188.235 353.519 188.235C353.194 188.235 352.91 188.113 352.687 187.89C352.464 187.668 352.342 187.384 352.342 187.06V155.85C352.302 153.48 353.214 151.191 354.857 149.47C356.5 147.748 358.751 146.756 361.124 146.675L431.596 146.209H431.657C432.813 146.209 433.949 146.432 435.003 146.857C436.058 147.303 437.031 147.951 437.822 148.761C438.694 149.612 439.384 150.644 439.85 151.779C440.316 152.913 440.56 154.108 440.56 155.343V248.792C440.56 249.096 440.438 249.4 440.215 249.623C439.992 249.846 439.708 249.967 439.384 249.967L439.424 249.947Z" fill="#0B0B0B"/>
<path d="M417.725 239.881C423.789 239.881 428.717 234.96 428.717 228.904C428.717 222.848 423.789 217.927 417.725 217.927C411.661 217.927 406.733 222.848 406.733 228.904C406.733 234.96 411.661 239.881 417.725 239.881Z" fill="#0550FC"/>
<path d="M446.522 423.215C446.218 423.215 445.914 423.093 445.691 422.87C445.468 422.648 445.346 422.364 445.346 422.04V249.339C445.346 249.036 445.468 248.732 445.691 248.509C445.914 248.286 446.198 248.165 446.522 248.165C446.847 248.165 447.131 248.286 447.354 248.509C447.577 248.732 447.699 249.015 447.699 249.339V422.04C447.699 422.344 447.577 422.648 447.354 422.87C447.131 423.093 446.847 423.215 446.522 423.215Z" fill="#0550FC"/>
<path d="M498.844 341.35L336.038 341.067C335.733 341.067 335.429 340.945 335.206 340.722C334.983 340.5 334.861 340.216 334.861 339.892C334.861 339.568 334.983 339.284 335.206 339.062C335.429 338.839 335.713 338.717 336.038 338.717L498.844 339.001C499.149 339.001 499.453 339.122 499.676 339.345C499.899 339.568 500.021 339.851 500.021 340.176C500.021 340.5 499.899 340.783 499.676 341.006C499.453 341.229 499.169 341.35 498.844 341.35Z" fill="#0550FC"/>
<path d="M349.827 372.966H367.288C368.87 372.966 370.391 373.614 371.507 374.708C372.642 375.822 373.291 377.321 373.332 378.9L373.859 395.468C373.9 397.068 373.332 398.627 372.237 399.802C371.142 400.976 369.641 401.665 368.039 401.746L350.111 402.556C349.28 402.597 348.469 402.455 347.698 402.151C346.927 401.868 346.218 401.422 345.63 400.855C345.021 400.288 344.555 399.599 344.23 398.85C343.906 398.101 343.723 397.29 343.723 396.46V379.083C343.723 377.462 344.372 375.923 345.508 374.769C346.664 373.614 348.205 372.986 349.827 372.986V372.966Z" fill="white"/>
<path d="M349.828 403.691C348.895 403.691 347.982 403.529 347.13 403.164C346.279 402.82 345.488 402.293 344.839 401.645C344.129 400.977 343.561 400.167 343.155 399.255C342.77 398.364 342.567 397.392 342.567 396.4V379.022C342.567 378.07 342.75 377.118 343.115 376.247C343.48 375.377 344.007 374.566 344.697 373.898C345.386 373.23 346.177 372.683 347.049 372.318C347.941 371.954 348.874 371.771 349.828 371.771H367.288C369.175 371.771 370.979 372.501 372.338 373.817C373.697 375.134 374.468 376.916 374.508 378.799L375.035 395.427C375.076 397.331 374.386 399.174 373.089 400.552C371.791 401.949 370.006 402.779 368.1 402.86L350.172 403.671H349.828V403.691ZM349.828 374.121C348.509 374.121 347.252 374.647 346.339 375.559C345.427 376.47 344.879 377.746 344.879 379.042V396.42C344.879 397.088 345.041 397.736 345.305 398.344C345.569 398.952 345.954 399.498 346.441 399.964C346.927 400.43 347.495 400.774 348.104 401.017C348.732 401.26 349.381 401.382 350.051 401.362L367.978 400.552C369.276 400.491 370.493 399.924 371.365 398.992C372.237 398.04 372.723 396.805 372.683 395.508L372.156 378.88C372.156 378.253 372.014 377.625 371.77 377.037C371.527 376.45 371.162 375.923 370.695 375.478C370.249 375.032 369.702 374.688 369.114 374.445C368.526 374.202 367.897 374.101 367.268 374.101H349.807L349.828 374.121Z" fill="#0B0B0B"/>
<path d="M364.652 383.477H351.328C351.024 383.477 350.72 383.356 350.497 383.133C350.274 382.91 350.152 382.626 350.152 382.302C350.152 381.978 350.274 381.695 350.497 381.472C350.72 381.249 351.004 381.128 351.328 381.128H364.652C364.956 381.128 365.26 381.249 365.483 381.472C365.707 381.695 365.828 381.978 365.828 382.302C365.828 382.626 365.707 382.91 365.483 383.133C365.26 383.356 364.976 383.477 364.652 383.477Z" fill="#0B0B0B"/>
<path d="M364.247 390.627H351.734C351.43 390.627 351.126 390.505 350.903 390.283C350.68 390.06 350.558 389.776 350.558 389.452C350.558 389.128 350.68 388.845 350.903 388.622C351.126 388.399 351.41 388.278 351.734 388.278H364.247C364.551 388.278 364.855 388.399 365.078 388.622C365.301 388.845 365.423 389.128 365.423 389.452C365.423 389.776 365.301 390.06 365.078 390.283C364.855 390.505 364.571 390.627 364.247 390.627Z" fill="#0B0B0B"/>
<path d="M426.039 268.074H406.713C406.408 268.074 406.104 267.952 405.881 267.729C405.658 267.506 405.536 267.223 405.536 266.899C405.536 266.575 405.658 266.291 405.881 266.068C406.104 265.846 406.388 265.724 406.713 265.724H426.039C426.344 265.724 426.648 265.846 426.871 266.068C427.094 266.291 427.216 266.575 427.216 266.899C427.216 267.223 427.094 267.506 426.871 267.729C426.648 267.952 426.364 268.074 426.039 268.074Z" fill="white"/>
<path d="M423.079 274.859H409.41C409.106 274.859 408.802 274.737 408.579 274.514C408.356 274.292 408.234 274.008 408.234 273.684C408.234 273.36 408.356 273.076 408.579 272.854C408.802 272.631 409.086 272.509 409.41 272.509H423.079C423.383 272.509 423.687 272.631 423.91 272.854C424.133 273.076 424.255 273.36 424.255 273.684C424.255 274.008 424.133 274.292 423.91 274.514C423.687 274.737 423.403 274.859 423.079 274.859Z" fill="white"/>
<path d="M426.628 284.054H406.733C406.571 284.054 406.429 284.054 406.287 283.973C406.145 283.912 406.003 283.831 405.901 283.73C405.8 283.629 405.699 283.487 405.658 283.345C405.597 283.203 405.577 283.041 405.577 282.9C405.577 282.596 405.699 282.292 405.922 282.069C406.145 281.846 406.429 281.725 406.753 281.725H426.648C426.952 281.725 427.256 281.846 427.479 282.069C427.702 282.292 427.824 282.575 427.824 282.9C427.824 283.062 427.824 283.203 427.763 283.345C427.702 283.487 427.621 283.629 427.52 283.73C427.418 283.831 427.276 283.932 427.135 283.973C426.993 284.034 426.83 284.054 426.688 284.054H426.628Z" fill="white"/>
<path d="M483.999 252.317H483.938C483.776 252.317 483.634 252.276 483.492 252.215C483.35 252.155 483.228 252.053 483.127 251.952C483.026 251.831 482.944 251.709 482.904 251.547C482.863 251.405 482.843 251.243 482.863 251.081L489.495 96.1632C489.515 95.7986 489.475 95.4138 489.333 95.0695C489.211 94.7252 488.988 94.4011 488.724 94.1378C488.197 93.5707 487.467 93.2467 486.696 93.2062L392.314 92.396C391.949 92.396 391.584 92.4568 391.239 92.5986C390.894 92.7403 390.59 92.9429 390.326 93.2062C390.063 93.4695 389.84 93.7935 389.677 94.1378C389.535 94.4821 389.454 94.8669 389.454 95.2518V146.452C389.454 146.756 389.333 147.06 389.11 147.283C388.886 147.505 388.603 147.627 388.278 147.627C387.954 147.627 387.67 147.505 387.447 147.283C387.224 147.06 387.102 146.776 387.102 146.452V95.2518C387.102 94.5631 387.244 93.8948 387.528 93.2669C387.791 92.6391 388.197 92.072 388.684 91.5859C389.15 91.0998 389.738 90.715 390.367 90.4517C390.996 90.1884 391.665 90.0669 392.354 90.0669L486.676 90.877C487.365 90.877 488.055 91.0391 488.704 91.3226C489.353 91.6061 489.921 92.0112 490.407 92.5176C491.34 93.5505 491.847 94.9075 491.807 96.2847L485.175 251.203C485.155 251.486 485.013 251.77 484.79 251.972C484.567 252.175 484.303 252.296 483.999 252.317Z" fill="#0B0B0B"/>
<path d="M381.181 162.25H366.457C366.153 162.25 365.849 162.128 365.626 161.905C365.403 161.683 365.281 161.399 365.281 161.075C365.281 160.751 365.403 160.467 365.626 160.245C365.849 160.022 366.133 159.9 366.457 159.9H381.181C381.485 159.9 381.789 160.022 382.012 160.245C382.235 160.467 382.357 160.751 382.357 161.075C382.357 161.399 382.235 161.683 382.012 161.905C381.789 162.128 381.505 162.25 381.181 162.25Z" fill="#0B0B0B"/>
<path d="M381.18 168.529H369.6C369.296 168.529 368.992 168.407 368.769 168.184C368.546 167.961 368.424 167.678 368.424 167.354C368.424 167.03 368.546 166.746 368.769 166.524C368.992 166.301 369.276 166.179 369.6 166.179H381.18C381.484 166.179 381.788 166.301 382.012 166.524C382.235 166.746 382.356 167.03 382.356 167.354C382.356 167.678 382.235 167.961 382.012 168.184C381.788 168.407 381.505 168.529 381.18 168.529Z" fill="#0B0B0B"/>
<path d="M476.902 119.88V111.576C476.902 107.728 473.779 104.609 469.925 104.609H449.727C445.874 104.609 442.75 107.728 442.75 111.576V119.88C442.75 123.728 445.874 126.847 449.727 126.847H469.925C473.779 126.847 476.902 123.728 476.902 119.88Z" fill="#0B0B0B"/>
<path d="M467.066 112.852H451.288C450.984 112.852 450.679 112.73 450.456 112.508C450.233 112.285 450.112 112.001 450.112 111.677C450.112 111.353 450.233 111.07 450.456 110.847C450.679 110.624 450.963 110.502 451.288 110.502H467.066C467.37 110.502 467.674 110.624 467.897 110.847C468.12 111.07 468.242 111.353 468.242 111.677C468.242 112.001 468.12 112.285 467.897 112.508C467.674 112.73 467.39 112.852 467.066 112.852Z" fill="white"/>
<path d="M464.389 120.002H453.397C453.093 120.002 452.788 119.88 452.565 119.657C452.342 119.435 452.221 119.151 452.221 118.827C452.221 118.503 452.342 118.219 452.565 117.997C452.788 117.774 453.072 117.652 453.397 117.652H464.389C464.693 117.652 464.997 117.774 465.22 117.997C465.443 118.219 465.565 118.503 465.565 118.827C465.565 119.151 465.443 119.435 465.22 119.657C464.997 119.88 464.713 120.002 464.389 120.002Z" fill="white"/>
<path d="M211.864 69.3884C211.722 69.3884 211.58 69.3884 211.438 69.3276C211.296 69.2871 211.174 69.2061 211.073 69.1048C210.971 69.0035 210.87 68.882 210.809 68.7605C210.748 68.639 210.708 68.477 210.708 68.3352L207.97 27.2411C207.97 26.9373 208.071 26.6335 208.294 26.4107C208.497 26.1879 208.781 26.0461 209.085 26.0056C209.247 26.0056 209.389 26.0056 209.552 26.0461C209.714 26.0866 209.836 26.1676 209.957 26.2689C210.079 26.3702 210.16 26.4917 210.221 26.6335C210.282 26.7752 210.322 26.9373 210.322 27.079L213.06 68.1124C213.06 68.4162 212.959 68.72 212.736 68.9428C212.533 69.1656 212.249 69.3074 211.945 69.3479H211.884L211.864 69.3884Z" fill="#0B0B0B"/>
<path d="M232.285 68.3349C232.002 68.3349 231.718 68.2337 231.495 68.0311C231.271 67.8286 231.15 67.5653 231.109 67.2818L226.283 26.3699C226.262 26.2282 226.283 26.0661 226.283 25.9244C226.323 25.7826 226.384 25.6408 226.485 25.5193C226.587 25.3978 226.688 25.2965 226.83 25.2357C226.972 25.1547 227.114 25.1142 227.256 25.094C227.398 25.0737 227.56 25.094 227.702 25.094C227.844 25.1345 227.986 25.1952 228.108 25.2965C228.23 25.3978 228.331 25.499 228.392 25.6408C228.473 25.7826 228.513 25.9244 228.534 26.0661L233.421 66.978C233.421 67.2818 233.34 67.6058 233.158 67.8489C232.955 68.0919 232.691 68.2539 232.387 68.3147H232.265L232.285 68.3349Z" fill="#0B0B0B"/>
<path d="M247.881 68.3348C247.577 68.3348 247.313 68.2133 247.09 67.9905C246.867 67.788 246.745 67.5044 246.705 67.2209L243.805 24.628C243.805 24.4863 243.804 24.3242 243.845 24.1825C243.886 24.0407 243.967 23.8989 244.068 23.7977C244.17 23.6964 244.291 23.5951 244.413 23.5141C244.555 23.4533 244.697 23.4128 244.839 23.4128C245.001 23.4128 245.143 23.4128 245.285 23.4533C245.427 23.4939 245.569 23.5749 245.691 23.6761C245.812 23.7774 245.914 23.8989 245.974 24.0204C246.056 24.1622 246.096 24.304 246.116 24.466L249.016 67.1196C249.016 67.2614 249.016 67.4234 248.976 67.5652C248.935 67.707 248.854 67.8488 248.753 67.95C248.651 68.0715 248.53 68.1526 248.408 68.2336C248.266 68.2943 248.124 68.3348 247.982 68.3348H247.86H247.881Z" fill="#0B0B0B"/>
<path d="M266.092 67.4035C265.788 67.4035 265.504 67.2819 265.281 67.0794C265.058 66.8769 264.936 66.5933 264.916 66.2895L261.488 25.722C261.488 25.3979 261.569 25.0941 261.792 24.8511C261.995 24.6081 262.299 24.4663 262.604 24.4258C262.908 24.4258 263.192 24.5068 263.415 24.7093C263.638 24.9119 263.78 25.1752 263.82 25.479L267.248 66.1072C267.248 66.4313 267.167 66.7351 266.944 66.9781C266.741 67.2212 266.437 67.3629 266.132 67.4035H266.072H266.092Z" fill="#0B0B0B"/>
<path d="M199.229 48.4662C199.087 48.4662 198.925 48.4662 198.783 48.4054C198.641 48.3447 198.519 48.2637 198.398 48.1624C198.296 48.0611 198.195 47.9396 198.134 47.7978C198.073 47.6561 198.053 47.5143 198.053 47.3523C198.053 47.0485 198.154 46.7447 198.377 46.5219C198.58 46.2991 198.864 46.1573 199.168 46.1168L269.337 43.4434H269.398C269.702 43.4434 269.965 43.5649 270.188 43.7877C270.391 43.9902 270.533 44.2737 270.553 44.5573C270.553 44.8813 270.432 45.1649 270.209 45.4079C269.986 45.6307 269.702 45.7725 269.377 45.7928L199.27 48.4662H199.209H199.229Z" fill="#0B0B0B"/>
<path d="M230.075 6.6226C232.042 6.6226 233.624 5.1441 233.624 3.30105C233.624 1.45799 232.042 -0.0205078 230.075 -0.0205078C228.108 -0.0205078 226.526 1.45799 226.526 3.30105C226.526 5.1441 228.108 6.6226 230.075 6.6226Z" fill="#0B0B0B"/>
<path d="M255.161 43.0588C254.087 43.0183 253.032 42.674 252.14 42.0664C249.179 40.1423 247.029 35.4435 248.591 31.4334C248.854 30.684 249.28 29.9954 249.848 29.4283C250.416 28.8612 251.105 28.4358 251.856 28.1928C255.121 27.2612 258.954 29.8738 259.136 29.9954C259.38 30.1776 259.562 30.4409 259.623 30.7447C259.684 31.0485 259.623 31.3726 259.44 31.6156C259.258 31.8789 258.994 32.041 258.69 32.1017C258.386 32.1625 258.061 32.1017 257.818 31.9194C256.946 31.3321 254.33 29.8941 252.525 30.4612C252.099 30.603 251.734 30.8663 251.43 31.1903C251.126 31.5144 250.903 31.8992 250.781 32.3245C249.666 35.1802 251.308 38.7246 253.458 40.1626C254.391 40.7499 255.851 41.2157 257.189 39.8182C258.528 38.4208 258.994 37.7322 258.65 36.8005C258.305 35.8688 254.918 34.5929 253.417 34.4106C253.133 34.3498 252.87 34.1878 252.687 33.965C252.505 33.722 252.424 33.4384 252.444 33.1346C252.444 32.9726 252.505 32.8308 252.586 32.6891C252.667 32.5473 252.748 32.4258 252.87 32.3448C252.991 32.2637 253.133 32.1827 253.275 32.122C253.417 32.0815 253.58 32.0612 253.722 32.0815C254.371 32.1422 259.765 32.8916 260.88 36.0309C261.468 37.6511 260.759 39.4537 258.893 41.3778C258.426 41.8841 257.859 42.3094 257.23 42.593C256.601 42.8765 255.912 43.0385 255.222 43.0588H255.161Z" fill="#0B0B0B"/>
<path d="M213.608 238.605C216.812 238.605 219.428 236.013 219.428 232.792C219.428 229.572 216.832 226.98 213.608 226.98C210.383 226.98 207.787 229.572 207.787 232.792C207.787 236.013 210.383 238.605 213.608 238.605Z" fill="#0B0B0B"/>
</g>
<defs>
<clipPath id="clip0_54_1766">
<rect width="500" height="470" fill="white"/>
</clipPath>
</defs>
</svg>
