<svg width="60" height="88" viewBox="0 0 60 88" fill="none" xmlns="http://www.w3.org/2000/svg">
<g clip-path="url(#clip0_54_2308)">
<path d="M48.1725 18.3585C48.1725 28.4837 39.9601 36.7028 29.8349 36.7028C19.7097 36.7028 11.4906 28.4904 11.4906 18.3585C11.4906 8.2265 19.7097 0.000610352 29.8349 0.000610352C39.9601 0.000610352 48.1725 8.21298 48.1725 18.3585Z" fill="#84B3FF"/>
<path d="M59.6901 63.9016V82.3946C59.6901 85.4903 57.1892 87.9912 54.0867 87.9912H5.58306C2.50089 87.9912 0 85.4903 0 82.3946V63.9016C0 53.3438 8.56385 44.78 19.1216 44.78H40.5481C45.7595 44.78 50.4909 46.8415 53.938 50.2278C57.4866 53.7088 59.6901 58.5551 59.6901 63.9016Z" fill="#0550FC"/>
</g>
<defs>
<clipPath id="clip0_54_2308">
<rect width="59.6901" height="87.9906" fill="white" transform="translate(0 0.000671387)"/>
</clipPath>
</defs>
</svg>
