<svg width="665" height="623" viewBox="0 0 665 623" fill="none" xmlns="http://www.w3.org/2000/svg">
<g clip-path="url(#clip0_9_1768)">
<path d="M139.231 260.047C134.834 259.939 130.465 259.048 126.392 257.428C126.014 257.266 125.717 256.942 125.556 256.564C125.394 256.186 125.421 255.754 125.583 255.376C125.744 254.999 126.068 254.702 126.446 254.54C126.823 254.378 127.255 254.405 127.632 254.567C127.713 254.567 138.152 258.967 145.272 255.889C146.567 255.322 147.727 254.459 148.671 253.406C149.615 252.353 150.316 251.111 150.775 249.761C150.936 249.383 151.233 249.087 151.611 248.925C151.988 248.763 152.393 248.736 152.798 248.844C153.175 249.006 153.472 249.303 153.661 249.653C153.823 250.031 153.849 250.463 153.715 250.841C153.121 252.569 152.177 254.162 150.936 255.511C149.696 256.861 148.185 257.941 146.513 258.67C144.193 259.588 141.712 260.074 139.231 260.047Z" fill="#0B0B0B"/>
<path d="M263.357 33.0154C263.114 33.0424 262.871 32.9884 262.655 32.8804C262.44 32.7724 262.251 32.6104 262.116 32.3945C261.981 32.2325 261.9 32.0435 261.846 31.8546C261.792 31.6656 261.792 31.4496 261.819 31.2607C261.846 31.0717 261.927 30.8557 262.035 30.6938C262.143 30.5318 262.278 30.3698 262.44 30.2348L299.985 2.10564C301.603 0.890844 303.518 0.188964 305.514 0.0269913C307.51 -0.134981 309.533 0.296945 311.286 1.24178L360.726 27.5893C360.915 27.6703 361.104 27.8053 361.239 27.9672C361.374 28.1292 361.509 28.3182 361.562 28.5071C361.643 28.6961 361.67 28.9121 361.643 29.128C361.616 29.344 361.562 29.56 361.455 29.7489C361.347 29.9379 361.212 30.0999 361.05 30.2348C360.888 30.3698 360.672 30.4508 360.484 30.5048C360.268 30.5588 360.052 30.5588 359.836 30.5318C359.621 30.5048 359.432 30.4238 359.243 30.2888L309.803 3.94133C308.562 3.26644 307.133 2.96949 305.73 3.07747C304.327 3.18545 302.979 3.69837 301.846 4.56222L264.274 32.6914C264.031 32.9074 263.68 33.0154 263.357 33.0154Z" fill="#0B0B0B"/>
<path d="M356.465 23.189L266.917 26.7793C263.06 26.9413 260.093 30.1808 260.228 34.0141L262.44 89.0308C262.601 92.8641 265.838 95.8606 269.668 95.7256L359.216 92.1352C363.073 91.9733 366.04 88.7338 365.905 84.9005L363.693 29.8838C363.532 26.0505 360.295 23.054 356.465 23.189Z" fill="#0550FC"/>
<path d="M425.81 341.195L420.011 181.328C419.957 180.032 420.173 178.763 420.605 177.549C421.063 176.334 421.738 175.227 422.601 174.282C423.491 173.337 424.543 172.582 425.702 172.042C426.889 171.502 428.13 171.205 429.425 171.178L518.514 168.532L519.755 193.476C519.755 193.476 473.875 190.452 473.875 198.2C473.875 205.948 477.597 343.516 477.597 343.516L425.81 341.195Z" fill="#0550FC"/>
<path d="M507.59 339.98H407.982C400.457 339.98 394.361 346.081 394.361 353.613V545.847C394.361 553.379 400.457 559.48 407.982 559.48H507.59C515.115 559.48 521.211 553.379 521.211 545.847V353.613C521.211 346.081 515.115 339.98 507.59 339.98Z" fill="white"/>
<path d="M507.509 561.018H407.982C403.963 561.018 400.106 559.426 397.247 556.564C394.415 553.73 392.796 549.842 392.796 545.82V353.64C392.796 349.617 394.388 345.73 397.22 342.868C400.052 340.007 403.936 338.387 407.955 338.387H507.482C511.528 338.387 515.412 339.98 518.271 342.841C521.13 345.703 522.749 349.59 522.749 353.64V545.82C522.722 549.842 521.103 553.703 518.271 556.564C515.412 559.426 511.555 561.018 507.509 561.018ZM408.009 341.519C404.799 341.546 401.724 342.841 399.459 345.109C397.193 347.377 395.925 350.481 395.925 353.667V545.847C395.925 549.059 397.193 552.11 399.459 554.404C401.724 556.672 404.799 557.941 408.009 557.941H507.536C509.128 557.941 510.719 557.644 512.175 557.05C513.659 556.456 514.981 555.565 516.113 554.431C517.246 553.298 518.136 551.975 518.757 550.49C519.377 549.032 519.674 547.44 519.674 545.847V353.667C519.674 350.454 518.379 347.35 516.113 345.082C513.821 342.787 510.746 341.519 507.509 341.519H408.009Z" fill="#0B0B0B"/>
<path d="M162.589 243.229C162.589 243.229 214.915 257.482 211.193 242.77C207.47 228.057 185.029 207.595 185.029 207.595L196.87 195.366C196.87 195.366 229.992 221.092 238.192 244.389C246.391 267.713 203.829 285.368 182.629 277.999C161.429 270.656 162.589 243.229 162.589 243.229Z" fill="#0550FC"/>
<path d="M138.152 219.527C132.649 219.527 126.149 218.042 118.732 215.099C118.354 214.937 118.084 214.641 117.923 214.263C117.761 213.885 117.761 213.48 117.896 213.102C117.977 212.913 118.084 212.724 118.219 212.562C118.354 212.4 118.516 212.292 118.705 212.211C118.894 212.13 119.082 212.076 119.298 212.076C119.514 212.076 119.703 212.103 119.892 212.184C134.052 217.853 144.274 217.853 150.37 212.184C165.475 198.011 151.449 153.388 151.314 153.01C151.179 152.794 151.125 152.578 151.098 152.335C151.071 152.092 151.125 151.849 151.206 151.633C151.287 151.417 151.422 151.201 151.611 151.039C151.8 150.877 151.988 150.742 152.231 150.661C152.474 150.58 152.717 150.553 152.933 150.58C153.175 150.607 153.391 150.688 153.607 150.823C153.823 150.958 153.984 151.12 154.119 151.336C154.254 151.552 154.335 151.768 154.362 152.011C154.901 153.955 169.062 198.956 152.501 214.452C148.833 217.826 144.032 219.527 138.152 219.527Z" fill="#0B0B0B"/>
<path d="M142.899 174.525C144.005 174.39 144.706 172.933 144.49 171.259C144.274 169.612 143.196 168.37 142.09 168.532C140.984 168.667 140.283 170.152 140.498 171.799C140.741 173.445 141.793 174.687 142.899 174.525Z" fill="#0B0B0B"/>
<path d="M121.213 178.223C122.319 178.089 123.02 176.631 122.805 174.957C122.589 173.31 121.51 172.069 120.404 172.231C119.298 172.366 118.597 173.85 118.813 175.497C119.055 177.144 120.134 178.358 121.213 178.223Z" fill="#0B0B0B"/>
<path d="M148.806 167.317H148.563L138.26 165.995C137.99 165.968 137.747 165.887 137.531 165.752C137.316 165.617 137.1 165.455 136.965 165.266C136.803 165.077 136.695 164.834 136.614 164.591C136.533 164.348 136.533 164.078 136.56 163.835C136.641 163.322 136.911 162.863 137.316 162.539C137.72 162.215 138.233 162.08 138.745 162.107L149.048 163.43C149.318 163.457 149.561 163.538 149.777 163.673C149.992 163.808 150.208 163.97 150.343 164.159C150.505 164.348 150.613 164.591 150.694 164.834C150.748 165.077 150.775 165.347 150.748 165.59C150.694 166.049 150.451 166.508 150.1 166.805C149.75 167.156 149.291 167.317 148.806 167.317Z" fill="#0B0B0B"/>
<path d="M114.848 168.02C114.416 168.02 114.012 167.858 113.688 167.588C113.364 167.318 113.121 166.94 113.041 166.535C112.933 166.13 112.987 165.671 113.148 165.293C113.337 164.915 113.634 164.591 113.985 164.375L121.186 160.569C121.402 160.461 121.645 160.38 121.914 160.353C122.157 160.326 122.427 160.353 122.643 160.434C122.885 160.515 123.101 160.65 123.29 160.812C123.479 160.974 123.641 161.19 123.748 161.406C123.856 161.622 123.937 161.865 123.964 162.108C123.991 162.351 123.964 162.594 123.91 162.836C123.829 163.079 123.722 163.295 123.56 163.484C123.398 163.673 123.209 163.835 122.993 163.943L115.792 167.75C115.495 167.939 115.171 168.02 114.848 168.02Z" fill="#0B0B0B"/>
<path d="M136.291 190.102C135.94 190.102 135.589 189.967 135.293 189.751C135.023 189.535 134.807 189.211 134.726 188.86C134.645 188.455 134.753 188.023 134.969 187.672C135.185 187.321 135.562 187.078 135.967 186.997C137.127 186.754 137.45 186.457 137.45 186.295C137.45 186.133 136.048 183.65 134.349 182.273C134.187 182.165 134.025 182.003 133.917 181.841C133.809 181.652 133.728 181.463 133.701 181.274C133.674 181.058 133.674 180.869 133.728 180.653C133.782 180.437 133.89 180.275 134.025 180.113C134.268 179.789 134.645 179.6 135.05 179.546C135.455 179.492 135.859 179.627 136.183 179.87C137.343 180.815 141.146 184.055 140.444 187.078C140.148 188.563 138.826 189.562 136.587 190.021L136.291 190.102Z" fill="#0B0B0B"/>
<path d="M134.645 204.112C130.546 204.112 125.367 202.708 123.425 197.525C123.263 197.147 123.263 196.715 123.425 196.337C123.587 195.959 123.883 195.663 124.261 195.501C124.45 195.42 124.666 195.393 124.854 195.393C125.07 195.393 125.259 195.447 125.448 195.528C125.637 195.609 125.798 195.744 125.933 195.878C126.068 196.04 126.176 196.202 126.257 196.391C128.657 202.6 137.316 200.738 137.72 200.657C138.125 200.576 138.529 200.657 138.88 200.873C139.231 201.089 139.473 201.413 139.581 201.817C139.635 202.006 139.635 202.222 139.608 202.411C139.581 202.6 139.5 202.816 139.392 202.978C139.285 203.14 139.15 203.302 138.988 203.41C138.826 203.518 138.637 203.626 138.448 203.653C137.208 204.004 135.94 204.112 134.645 204.112Z" fill="#0B0B0B"/>
<path d="M150.289 246.009H149.831C146.594 245.388 142.872 244.605 141.388 240.988C138.502 233.942 136.83 226.438 136.426 218.825C136.426 218.636 136.453 218.42 136.506 218.231C136.587 218.042 136.695 217.88 136.83 217.718C136.965 217.583 137.127 217.448 137.316 217.394C137.504 217.313 137.693 217.286 137.909 217.286H137.99C138.395 217.286 138.772 217.421 139.069 217.718C139.366 217.988 139.527 218.366 139.554 218.771C139.959 226.006 141.55 233.132 144.274 239.827C145.057 241.771 147.214 242.392 150.451 243.013H150.613C150.964 243.121 151.233 243.337 151.449 243.634C151.638 243.931 151.746 244.282 151.692 244.659C151.665 245.01 151.503 245.334 151.233 245.604C150.991 245.82 150.64 245.982 150.289 246.009Z" fill="#0B0B0B"/>
<path d="M99.3656 195.582C99.3656 195.582 90.2221 187.834 91.5437 183.974C92.0022 182.435 94.0251 179.331 98.9071 181.49C109.75 186.052 111.611 163.97 114.605 156.465C116.385 151.822 121.645 154.225 123.128 154.846C132.11 158.868 145.111 153.226 153.229 152.362C153.769 152.308 154.281 152.119 154.767 151.849C155.225 151.579 155.63 151.201 155.953 150.742C156.277 150.283 156.493 149.798 156.601 149.258C156.709 148.718 156.709 148.178 156.574 147.638C154.874 140.835 148.051 129.74 139.689 124.098C126.985 115.648 95.3468 110.627 80.4851 145.154C69.1837 171.259 79.9457 185.89 85.9065 191.478C87.6597 193.179 89.8984 194.259 92.3259 194.583L99.3656 195.582Z" fill="#0B0B0B"/>
<path d="M81.4021 261.882C81.0785 261.882 80.7548 261.774 80.4851 261.585C80.2154 261.396 80.0266 261.126 79.9187 260.803C79.8377 260.614 79.8108 260.398 79.8378 260.209C79.8378 259.993 79.8917 259.804 79.9996 259.615C80.1075 259.426 80.2154 259.264 80.3772 259.129C80.539 258.994 80.7278 258.913 80.9166 258.859C86.8775 256.834 102.656 250.328 104.355 243.363L100.498 196.958C98.1789 196.095 92.5956 193.773 90.4378 189.508C89.9523 188.509 89.6556 187.429 89.6017 186.322C89.5478 185.215 89.7366 184.109 90.1142 183.083C91.1931 180.221 92.8114 178.655 94.9152 178.278C99.015 177.657 102.953 182.543 103.438 183.083C103.654 183.407 103.735 183.785 103.681 184.163C103.627 184.54 103.411 184.891 103.115 185.134C102.818 185.377 102.44 185.485 102.036 185.485C101.658 185.458 101.281 185.296 101.011 185.026C99.9321 183.704 97.1539 181.085 95.3468 181.382C93.5396 181.679 93.4857 183.002 93.0272 184.163C92.7574 184.783 92.6496 185.485 92.6765 186.16C92.7035 186.835 92.8653 187.51 93.189 188.131C94.8882 191.532 100.391 193.8 102.333 194.34L103.331 194.664L107.511 243.606V243.849C105.407 253.919 84.2882 261.045 81.8876 261.828L81.4021 261.882Z" fill="#0B0B0B"/>
<path d="M93.6475 133.088C93.6475 133.088 72.4473 129.686 72.1237 103.42C71.827 77.1531 107.322 78.7998 118.408 96.5357C124.989 107.064 120.188 123.261 115.306 127.823C110.424 132.386 93.6475 133.088 93.6475 133.088Z" fill="#0B0B0B"/>
<path d="M92.0831 133.546C90.8694 133.6 89.6826 133.438 88.5228 133.087C88.1452 132.952 87.8215 132.682 87.6327 132.304C87.4439 131.926 87.417 131.522 87.5518 131.117C87.6867 130.739 87.9564 130.415 88.334 130.226C88.7116 130.037 89.1432 130.01 89.5208 130.145C89.7635 130.226 99.959 133.249 119.703 117.295C119.865 117.16 120.053 117.052 120.242 116.998C120.431 116.944 120.647 116.917 120.863 116.917C121.078 116.944 121.267 116.998 121.456 117.079C121.645 117.16 121.807 117.295 121.941 117.457C122.076 117.619 122.184 117.808 122.238 117.997C122.292 118.186 122.319 118.402 122.292 118.591C122.265 118.807 122.211 118.996 122.13 119.185C122.022 119.374 121.914 119.536 121.753 119.671C106.945 131.602 97.046 133.546 92.0831 133.546Z" fill="#0550FC"/>
<path d="M96.129 131.548C96.129 131.548 101.146 121.479 105.03 121.938C108.887 122.397 106.891 135.49 105.192 136.435C103.465 137.352 96.129 131.548 96.129 131.548Z" fill="#0550FC"/>
<path d="M95.8053 131.468C95.8053 131.468 88.6846 122.802 85.0434 124.098C81.4021 125.421 86.2032 137.731 87.9834 138.189C89.7635 138.648 95.8053 131.468 95.8053 131.468Z" fill="#0550FC"/>
<path d="M82.6429 118.294C82.2923 118.294 81.9416 118.186 81.6719 117.943C81.4022 117.727 81.2134 117.403 81.1595 117.052L79.9996 112.247C79.9457 112.058 79.9457 111.842 79.9727 111.653C79.9996 111.464 80.0806 111.248 80.1885 111.086C80.2963 110.924 80.4312 110.762 80.593 110.654C80.7549 110.546 80.9437 110.465 81.1325 110.411C81.5371 110.33 81.9416 110.411 82.2923 110.627C82.6429 110.843 82.8857 111.167 82.9936 111.572L84.1534 116.377C84.2073 116.566 84.2073 116.782 84.1803 116.971C84.1534 117.16 84.0724 117.349 83.9646 117.538C83.8567 117.7 83.7218 117.862 83.56 117.97C83.3981 118.078 83.2093 118.159 82.9936 118.213L82.6429 118.294Z" fill="white"/>
<path d="M79.8647 106.524C79.4871 106.524 79.1365 106.389 78.8398 106.146C78.5431 105.903 78.3813 105.579 78.3003 105.201C77.3833 98.9384 81.0785 92.4325 81.2403 92.1086C81.3482 91.9196 81.4561 91.7846 81.6179 91.6496C81.7798 91.5147 81.9686 91.4337 82.1574 91.3797C82.3462 91.3257 82.562 91.3257 82.7508 91.3527C82.9396 91.3797 83.1553 91.4607 83.3172 91.5687C83.6678 91.7576 83.9375 92.1086 84.0454 92.4865C84.1533 92.8914 84.1263 93.2964 83.9375 93.6473C83.8566 93.7283 80.6199 99.5323 81.2943 104.715C81.3212 104.931 81.3212 105.12 81.2673 105.336C81.2133 105.552 81.1324 105.714 80.9976 105.903C80.8897 106.065 80.7278 106.2 80.539 106.308C80.3502 106.416 80.1614 106.497 79.9726 106.497H79.8647V106.524Z" fill="white"/>
<path d="M84.9625 165.914C84.5849 165.914 84.2072 165.779 83.9105 165.509C83.6139 165.239 83.452 164.888 83.3981 164.51C82.535 155.683 88.1182 144.453 88.361 143.994C88.5498 143.616 88.8734 143.346 89.251 143.211C89.6556 143.076 90.0602 143.103 90.4378 143.292C90.8154 143.481 91.0852 143.805 91.22 144.183C91.3549 144.561 91.3279 144.993 91.1391 145.37C91.0582 145.451 85.7177 156.304 86.4999 164.186C86.5269 164.375 86.4999 164.591 86.4459 164.78C86.392 164.969 86.2841 165.158 86.1492 165.32C86.0144 165.482 85.8525 165.617 85.6907 165.698C85.5019 165.806 85.3131 165.86 85.0973 165.86H84.9625V165.914Z" fill="white"/>
<path d="M135.508 148.664C132.622 148.664 129.763 148.259 126.985 147.422L125.987 147.179C125.771 147.179 125.556 147.125 125.34 147.017C125.151 146.909 124.962 146.774 124.827 146.612C124.693 146.45 124.585 146.234 124.531 146.018C124.477 145.802 124.477 145.586 124.504 145.37C124.531 145.154 124.639 144.938 124.747 144.749C124.881 144.56 125.043 144.426 125.232 144.291C125.421 144.183 125.637 144.102 125.852 144.075C126.068 144.048 126.284 144.075 126.5 144.156C126.931 144.183 127.336 144.291 127.74 144.453C130.519 145.154 136.938 146.936 147.241 143.454C147.43 143.373 147.619 143.346 147.835 143.346C148.024 143.346 148.239 143.4 148.401 143.481C148.59 143.562 148.752 143.697 148.887 143.832C149.022 143.994 149.129 144.156 149.183 144.345C149.264 144.534 149.291 144.749 149.291 144.938C149.291 145.154 149.237 145.343 149.156 145.532C149.075 145.721 148.941 145.883 148.779 146.018C148.617 146.153 148.455 146.261 148.239 146.342C144.167 147.854 139.851 148.61 135.508 148.664Z" fill="white"/>
<path d="M82.2653 398.452C82.2653 398.452 59.5817 381.877 46.662 370.809C33.7423 359.741 47.9027 328.507 65.7043 281.886C83.506 235.265 103.088 240.745 103.088 240.745C103.088 240.745 116.385 237.02 133.971 260.803C151.53 284.586 161.752 341.357 140.552 398.209" fill="#0550FC"/>
<path d="M101.308 392.945C101.308 392.945 72.4474 363.439 71.2066 353.046C70.4245 345.919 82.7238 321.677 88.2261 311.23C88.4419 310.825 88.7925 310.501 89.1971 310.285C89.6017 310.069 90.0602 309.988 90.5188 310.042C90.9773 310.096 91.4088 310.285 91.7595 310.582C92.1101 310.879 92.3798 311.257 92.4877 311.689C96.5066 325.079 105.327 360.874 94.5106 382.471" fill="white"/>
<path d="M186.675 400.693C186.675 400.693 181.01 368.406 178.934 355.313C176.857 342.221 179.311 328.669 186.675 303.725C194.038 278.781 177.315 258.724 168.711 247.251C161.348 237.424 149.372 240.286 146.189 241.204C146.108 241.231 146.028 241.285 145.947 241.366C145.893 241.42 145.839 241.501 145.812 241.609C145.785 241.69 145.785 241.798 145.785 241.879C145.812 241.987 145.839 242.068 145.893 242.149C148.914 245.874 163.533 265.068 160.997 288.635C158.138 314.82 157.275 387.627 171.597 401.098" fill="#0550FC"/>
<path d="M155.468 159.192C155.468 159.192 162.265 146.963 165.286 147.719C168.307 148.502 206.149 186.997 205.07 189.157C203.991 191.316 187.106 213.722 185.191 214.019C183.249 214.316 160.431 187.537 160.431 187.537L155.468 159.192Z" fill="#DCE0FF"/>
<path d="M185.029 215.585C184.031 215.585 182.089 214.425 170.95 201.953C164.989 195.366 159.271 188.644 159.19 188.563L158.947 188.266L153.849 158.922L154.146 158.463C157.464 152.416 162.265 145.37 165.69 146.315C169.089 147.233 204.072 182.867 206.391 188.077C206.553 188.347 206.634 188.671 206.661 188.995C206.688 189.319 206.607 189.643 206.472 189.94C205.771 191.344 200.808 197.984 196.654 203.33C187.295 215.342 186.216 215.504 185.434 215.639H185.029V215.585ZM161.833 186.835C171.516 198.065 182.251 209.997 185.137 212.238C188.374 209.296 201.24 192.396 203.478 188.914C200.511 183.596 168.63 151.444 164.908 149.285C163.586 149.663 160.026 154.306 157.086 159.516L161.833 186.835Z" fill="#0B0B0B"/>
<path d="M468.049 398.074H10.8428C5.71805 398.074 1.56433 402.231 1.56433 407.361V412.085C1.56433 417.214 5.71805 421.371 10.8428 421.371H468.049C473.173 421.371 477.327 417.214 477.327 412.085V407.361C477.327 402.231 473.173 398.074 468.049 398.074Z" fill="white"/>
<path d="M468.049 422.937H10.8428C7.9568 422.937 5.20564 421.803 3.18272 419.752C1.13283 417.727 0 414.947 0 412.085V407.361C0 404.472 1.13283 401.719 3.18272 399.694C5.20564 397.67 7.98378 396.509 10.8428 396.509H468.049C470.935 396.509 473.686 397.643 475.709 399.694C477.732 401.719 478.892 404.472 478.892 407.361V412.085C478.892 414.974 477.759 417.727 475.709 419.752C473.686 421.776 470.935 422.937 468.049 422.937ZM10.8428 399.613C8.79294 399.613 6.82397 400.423 5.36747 401.881C3.91097 403.339 3.1018 405.309 3.1018 407.361V412.085C3.1018 414.137 3.91097 416.107 5.36747 417.565C6.82397 419.023 8.79294 419.833 10.8428 419.833H468.049C470.099 419.833 472.068 419.023 473.524 417.565C474.981 416.107 475.79 414.137 475.79 412.085V407.361C475.79 405.309 474.981 403.339 473.524 401.881C472.068 400.423 470.099 399.613 468.049 399.613H10.8428Z" fill="#0B0B0B"/>
<path d="M433.605 421.371H44.5851C38.867 421.371 34.1469 425.717 34.1469 430.981V459.03C34.1469 464.294 38.867 468.64 44.5851 468.64H49.2243C53.0274 468.64 56.1022 471.502 56.1022 474.984V610.231C56.1022 613.2 57.289 616.062 59.3928 618.168C61.4967 620.273 64.3557 621.461 67.3227 621.461H415.561C417.044 621.461 418.501 621.164 419.85 620.597C421.198 620.03 422.439 619.193 423.464 618.168C424.489 617.115 425.325 615.873 425.864 614.523C426.431 613.173 426.701 611.716 426.701 610.231V474.984C426.701 471.502 429.802 468.64 433.578 468.64C439.297 468.64 444.017 464.294 444.017 459.03V430.981C444.071 425.717 439.35 421.371 433.605 421.371Z" fill="white"/>
<path d="M415.588 623H67.3226C63.9241 623 60.6874 621.65 58.2869 619.248C55.8864 616.845 54.5378 613.606 54.5378 610.204V474.957C54.5378 472.312 52.1373 470.152 49.1973 470.152H44.5581C37.9768 470.152 32.5554 465.131 32.5554 459.003V430.955C32.5554 424.746 37.9768 419.806 44.5581 419.806H433.578C440.24 419.806 445.581 424.773 445.581 430.955V459.003C445.581 465.131 440.24 470.152 433.578 470.152C430.638 470.152 428.238 472.312 428.238 474.957V610.204C428.238 613.579 426.916 616.818 424.516 619.221C422.169 621.623 418.959 622.973 415.588 623ZM44.585 422.937C39.7031 422.937 35.6842 426.582 35.6842 430.982V459.03C35.6842 463.457 39.7031 467.075 44.585 467.075H49.2243C53.8635 467.075 57.6666 470.638 57.6666 474.984V610.231C57.6666 612.796 58.6915 615.252 60.4986 617.088C62.3058 618.897 64.7602 619.923 67.3496 619.923H415.588C418.15 619.896 420.578 618.87 422.385 617.061C424.192 615.252 425.19 612.796 425.19 610.258V475.011C425.19 470.665 428.993 467.102 433.632 467.102C438.272 467.102 442.533 463.457 442.533 459.057V431.009C442.533 426.582 438.514 422.964 433.632 422.964H44.585V422.937Z" fill="#0B0B0B"/>
<path d="M366.984 260.965V361.199C366.984 363.439 366.094 365.572 364.503 367.165C362.911 368.757 360.78 369.648 358.542 369.648H213.054C211.948 369.648 210.842 369.432 209.844 369C208.819 368.568 207.902 367.948 207.12 367.165C206.337 366.382 205.717 365.464 205.313 364.438C204.908 363.412 204.692 362.306 204.692 361.226V260.965C204.692 258.751 205.582 256.619 207.147 255.053C208.711 253.487 210.842 252.596 213.054 252.596H358.542C359.648 252.596 360.753 252.785 361.751 253.217C362.776 253.622 363.72 254.243 364.503 255.026C365.285 255.809 365.905 256.726 366.337 257.752C366.768 258.778 366.984 259.858 366.984 260.965Z" fill="#DCE0FF"/>
<path d="M358.542 371.187H213.053C211.759 371.187 210.464 370.917 209.25 370.431C208.037 369.918 206.958 369.189 206.041 368.271C205.124 367.326 204.395 366.247 203.91 365.032C203.424 363.817 203.155 362.521 203.182 361.225V260.964C203.182 258.346 204.234 255.808 206.095 253.946C207.956 252.083 210.437 251.057 213.053 251.057H358.542C361.185 251.057 363.72 252.083 365.581 253.946C367.442 255.808 368.521 258.319 368.521 260.964V361.198C368.521 363.844 367.469 366.382 365.608 368.271C363.72 370.134 361.185 371.187 358.542 371.187ZM213.053 254.162C211.246 254.162 209.52 254.89 208.225 256.159C206.958 257.428 206.23 259.183 206.23 260.991V361.225C206.23 362.116 206.391 363.034 206.715 363.871C207.066 364.708 207.551 365.464 208.198 366.112C208.819 366.759 209.574 367.272 210.41 367.596C211.246 367.947 212.136 368.136 213.027 368.136H358.515C360.349 368.136 362.102 367.407 363.397 366.112C364.691 364.816 365.42 363.061 365.42 361.225V260.964C365.393 259.156 364.664 257.401 363.37 256.132C362.075 254.863 360.349 254.135 358.515 254.135H213.053V254.162Z" fill="#0B0B0B"/>
<path d="M213.053 369.648H204.854C202.615 369.621 200.511 368.73 198.947 367.164C197.383 365.572 196.493 363.439 196.493 361.225V260.964C196.493 259.858 196.708 258.778 197.14 257.752C197.571 256.726 198.165 255.808 198.947 255.025C199.729 254.243 200.646 253.622 201.671 253.217C202.696 252.812 203.775 252.569 204.881 252.569H213.08C210.869 252.569 208.738 253.46 207.174 255.025C205.609 256.591 204.719 258.724 204.719 260.937V361.171C204.719 362.278 204.908 363.385 205.339 364.384C205.744 365.41 206.364 366.355 207.147 367.11C207.929 367.893 208.846 368.514 209.871 368.946C210.869 369.405 211.948 369.648 213.053 369.648Z" fill="white"/>
<path d="M213.054 371.187H204.854C202.211 371.16 199.702 370.107 197.841 368.244C195.98 366.382 194.955 363.844 194.955 361.198V260.964C194.982 258.346 196.034 255.835 197.868 253.973C199.729 252.11 202.238 251.057 204.854 251.057H213.054V254.162C211.246 254.162 209.52 254.89 208.226 256.159C206.958 257.428 206.23 259.183 206.23 260.991V361.225C206.23 362.116 206.391 363.034 206.715 363.871C207.066 364.708 207.551 365.464 208.199 366.112C208.819 366.759 209.574 367.272 210.41 367.596C211.246 367.947 212.137 368.136 213.027 368.136V371.187H213.054ZM204.854 254.162C203.047 254.189 201.321 254.917 200.053 256.186C198.785 257.455 198.057 259.183 198.03 260.991V361.225C198.03 363.034 198.758 364.789 200.026 366.085C201.294 367.38 203.02 368.109 204.854 368.136H205.852C204.099 366.274 203.101 363.817 203.155 361.252V260.964C203.155 258.427 204.126 255.97 205.852 254.135H204.854V254.162Z" fill="#0B0B0B"/>
<path d="M290.599 340.979H270.774C265.649 340.979 261.496 345.136 261.496 350.265V384.469C261.496 389.598 265.649 393.755 270.774 393.755H290.599C295.723 393.755 299.877 389.598 299.877 384.469V350.265C299.877 345.136 295.723 340.979 290.599 340.979Z" fill="white"/>
<path d="M290.68 395.267H270.801C267.915 395.267 265.164 394.133 263.141 392.081C261.118 390.056 259.958 387.303 259.958 384.414V350.265C259.958 347.377 261.091 344.623 263.141 342.599C265.164 340.574 267.942 339.413 270.801 339.413H290.68C293.566 339.413 296.317 340.547 298.34 342.599C300.363 344.623 301.522 347.377 301.522 350.265V384.414C301.522 387.303 300.39 390.056 298.34 392.081C296.29 394.133 293.539 395.267 290.68 395.267ZM270.774 342.518C268.724 342.518 266.755 343.327 265.299 344.785C263.842 346.243 263.033 348.214 263.033 350.265V384.414C263.033 386.466 263.842 388.437 265.299 389.894C266.755 391.352 268.724 392.162 270.774 392.162H290.653C292.703 392.162 294.672 391.352 296.128 389.894C297.585 388.437 298.394 386.466 298.394 384.414V350.265C298.394 348.214 297.585 346.243 296.128 344.785C294.672 343.327 292.703 342.518 290.653 342.518H270.774Z" fill="#0B0B0B"/>
<path d="M328.441 387.222H235.036C232.743 387.222 230.855 389.085 230.855 391.406V391.622C230.855 393.944 232.716 395.807 235.036 395.807H328.441C330.733 395.807 332.621 393.944 332.621 391.622V391.406C332.621 389.085 330.733 387.222 328.441 387.222Z" fill="white"/>
<path d="M328.441 397.372H235.036C233.525 397.372 232.069 396.779 230.99 395.699C229.911 394.619 229.318 393.161 229.318 391.649V391.352C229.345 389.841 229.965 388.41 231.017 387.357C232.096 386.304 233.525 385.71 235.036 385.71H328.441C329.951 385.71 331.381 386.304 332.46 387.357C333.538 388.41 334.132 389.841 334.159 391.352V391.649C334.159 393.161 333.565 394.619 332.486 395.699C331.408 396.752 329.951 397.372 328.441 397.372ZM235.036 388.761C234.362 388.761 233.687 389.031 233.202 389.517C232.716 390.003 232.42 390.651 232.393 391.325V391.622C232.393 392.324 232.662 392.999 233.175 393.485C233.66 393.971 234.335 394.268 235.036 394.268H328.441C329.142 394.268 329.816 393.998 330.302 393.485C330.787 392.999 331.084 392.324 331.084 391.622V391.325C331.057 390.651 330.787 390.003 330.275 389.517C329.762 389.031 329.115 388.761 328.441 388.761H235.036Z" fill="#0B0B0B"/>
<path d="M429.964 396.751L389.722 397.048L381.144 363.601H437.328L429.964 396.751Z" fill="#0B0B0B"/>
<path d="M441.886 356.15H377.8C375.885 356.15 374.32 357.716 374.32 359.633V363.034C374.32 364.951 375.885 366.517 377.8 366.517H441.886C443.801 366.517 445.365 364.951 445.365 363.034V359.633C445.365 357.716 443.828 356.15 441.886 356.15Z" fill="#0B0B0B"/>
<path d="M409.546 358.013C409.169 358.013 408.791 357.878 408.494 357.608C408.198 357.338 408.036 356.987 407.982 356.609C405.204 324.782 415.021 308.045 423.76 299.676C432.499 291.307 443.504 288.905 443.882 288.824C444.286 288.797 444.691 288.905 445.015 289.148C445.338 289.391 445.581 289.742 445.662 290.147C445.689 290.336 445.689 290.552 445.635 290.768C445.581 290.957 445.5 291.145 445.365 291.334C445.257 291.496 445.096 291.631 444.907 291.739C444.718 291.847 444.529 291.901 444.34 291.928C444.259 291.928 434.576 293.413 425.756 301.998C413.997 313.39 408.872 332.205 411.057 356.285C411.084 356.501 411.057 356.69 411.003 356.879C410.949 357.068 410.841 357.257 410.733 357.419C410.598 357.581 410.436 357.716 410.247 357.797C410.059 357.905 409.87 357.959 409.681 357.959H409.546V358.013Z" fill="#0B0B0B"/>
<path d="M448.009 291.551H444.529L440.807 290.633L441.05 289.229C443.288 275.353 462.007 276.919 467.671 277.702C468.076 277.756 468.48 277.891 468.831 278.134C469.182 278.377 469.451 278.701 469.613 279.079C469.802 279.43 469.91 279.835 469.91 280.239C469.883 280.644 469.775 281.049 469.559 281.4C467.752 284.505 462.169 291.551 448.009 291.551ZM445.149 288.392C458.77 289.31 464.354 283.668 466.43 280.482C460.928 279.862 447.172 279.16 444.448 288.23L445.149 288.392Z" fill="#0B0B0B"/>
<path d="M461.09 312.175H460.712L460.011 312.013C444.691 307.127 442.129 297.22 441.751 293.116C441.697 292.684 441.778 292.28 441.94 291.875C442.102 291.47 442.344 291.146 442.695 290.876C442.992 290.633 443.342 290.444 443.72 290.336C444.098 290.255 444.502 290.228 444.88 290.336C449.762 291.497 465.541 296.221 464.758 308.612C464.677 309.638 464.219 310.609 463.437 311.311C462.762 311.851 461.926 312.148 461.09 312.175ZM460.766 308.99H461.009L461.387 308.828C461.468 308.774 461.522 308.693 461.576 308.585C461.63 308.477 461.63 308.396 461.63 308.288C462.25 298.92 449.87 294.736 444.907 293.413C445.446 297.301 448.17 304.967 460.766 308.99Z" fill="#0B0B0B"/>
<path d="M461.468 301.944C461.225 301.944 460.982 301.89 460.766 301.782C460.551 301.674 460.362 301.512 460.227 301.323C460.092 301.161 460.011 300.972 459.984 300.756C459.93 300.567 459.93 300.351 459.957 300.135C459.984 299.946 460.065 299.73 460.173 299.568C460.281 299.406 460.416 299.244 460.605 299.136L467.806 293.791L461.306 288.527C461.144 288.419 461.009 288.257 460.901 288.068C460.793 287.879 460.739 287.69 460.712 287.501C460.685 287.285 460.712 287.096 460.766 286.88C460.82 286.691 460.928 286.502 461.063 286.34C461.333 286.016 461.683 285.828 462.088 285.774C462.493 285.72 462.897 285.855 463.221 286.097L470.18 291.767C470.503 292.009 470.773 292.333 470.935 292.684C471.124 293.062 471.205 293.44 471.178 293.845C471.178 294.25 471.07 294.655 470.881 295.033C470.692 295.384 470.422 295.708 470.099 295.951L462.358 301.593C462.142 301.836 461.818 301.971 461.468 301.944Z" fill="#0B0B0B"/>
<path d="M408.063 336.012H407.901C407.2 335.931 390.962 333.609 387.941 324.08C386.701 320.544 386.296 316.791 386.782 313.093C386.943 311.149 386.997 309.826 386.404 308.207C385.784 306.587 386.323 304.022 387.564 303.482C388.804 302.943 393.848 304.724 396.545 310.771C398.164 314.497 401.266 317.277 404.287 319.896C407.307 322.541 410.166 325.241 410.868 328.426C411.569 331.612 411.326 333.474 410.328 334.851C410.086 335.175 409.789 335.445 409.438 335.634C409.088 335.823 408.71 335.958 408.305 336.012H408.063ZM389.047 306.344C389.101 306.56 389.182 306.776 389.29 306.965C390.207 309.205 390.072 311.149 389.91 313.228C389.479 316.548 389.829 319.896 390.908 323.054C392.85 329.182 403.369 332.125 407.847 332.826C408.009 332.529 408.386 331.504 407.847 329.02C407.307 326.537 404.988 324.62 402.21 322.136C399.432 319.653 395.628 316.251 393.686 311.986C391.744 307.748 389.964 306.668 389.047 306.344Z" fill="#0B0B0B"/>
<path d="M108.644 396.212L116.142 382.66C116.223 382.498 116.142 382.336 115.981 382.336H38.0039C37.5993 382.336 37.2217 382.444 36.8711 382.66C36.5204 382.849 36.2507 383.146 36.0619 383.497L29.3188 397.129L109.022 397.507" fill="white"/>
<path d="M109.049 398.992L26.8644 398.533L34.7672 382.822C35.037 382.201 35.4955 381.661 36.0889 381.283C36.6553 380.905 37.3296 380.716 38.0309 380.716H116.035C116.331 380.716 116.628 380.797 116.898 380.959C117.167 381.094 117.383 381.31 117.518 381.58C117.653 381.85 117.734 382.12 117.734 382.444C117.734 382.741 117.653 383.038 117.518 383.308L110.316 396.401C110.505 396.698 110.613 397.049 110.613 397.399C110.613 397.615 110.586 397.831 110.505 398.02C110.424 398.209 110.316 398.398 110.182 398.56C110.047 398.722 109.858 398.83 109.669 398.911C109.453 398.938 109.265 398.992 109.049 398.992ZM31.8003 395.51L107.107 395.888C107.107 395.726 107.161 395.564 107.269 395.429L113.688 383.902H38.0039C37.896 383.902 37.7881 383.956 37.7072 384.01C37.5993 384.064 37.5184 384.145 37.4645 384.226L31.8003 395.51Z" fill="#0B0B0B"/>
<path d="M128.711 399.073L118.651 381.58C118.516 381.364 118.354 381.175 118.111 381.04C117.896 380.905 117.626 380.851 117.383 380.851C117.113 380.851 116.871 380.932 116.655 381.067C116.439 381.202 116.277 381.391 116.169 381.634L106.567 399.046H128.711V399.073Z" fill="#0B0B0B"/>
<path d="M101.685 391.164L39.9189 390.786C39.5143 390.786 39.1097 390.624 38.813 390.327C38.5163 390.03 38.3545 389.652 38.3545 389.22C38.3545 388.815 38.5163 388.41 38.813 388.113C39.1097 387.816 39.4873 387.654 39.9189 387.654L101.685 388.059C102.09 388.086 102.467 388.275 102.764 388.572C103.061 388.869 103.223 389.274 103.223 389.679C103.223 389.868 103.196 390.084 103.115 390.273C103.034 390.462 102.926 390.624 102.764 390.759C102.629 390.894 102.44 391.002 102.252 391.083C102.09 391.137 101.901 391.191 101.685 391.164Z" fill="#0B0B0B"/>
<path d="M252.136 571.331C316.465 571.331 368.602 554.647 368.602 534.077C368.602 513.506 316.465 496.823 252.136 496.823C187.808 496.823 135.67 513.506 135.67 534.077C135.67 554.647 187.808 571.331 252.136 571.331Z" fill="#0550FC"/>
<path d="M313.04 527.868H196.87C196.466 527.868 196.061 527.706 195.791 527.409C195.495 527.112 195.333 526.734 195.333 526.303C195.333 525.898 195.495 525.493 195.791 525.196C196.088 524.899 196.466 524.737 196.87 524.737H313.04C313.444 524.737 313.849 524.899 314.145 525.196C314.442 525.493 314.604 525.871 314.604 526.303C314.604 526.707 314.442 527.112 314.145 527.409C313.849 527.706 313.444 527.868 313.04 527.868Z" fill="white"/>
<path d="M304.84 545.847H203.451C203.047 545.847 202.642 545.685 202.346 545.388C202.049 545.091 201.887 544.713 201.887 544.281C201.887 543.876 202.049 543.472 202.346 543.202C202.642 542.905 203.02 542.743 203.451 542.743H304.84C305.245 542.743 305.649 542.905 305.946 543.202C306.243 543.499 306.404 543.876 306.404 544.281C306.404 544.686 306.243 545.091 305.946 545.388C305.649 545.685 305.245 545.847 304.84 545.847Z" fill="white"/>
<path d="M374.32 473.823H111.881C111.476 473.823 111.072 473.661 110.775 473.364C110.478 473.068 110.316 472.69 110.316 472.258C110.316 471.853 110.478 471.448 110.775 471.151C111.072 470.854 111.449 470.692 111.881 470.692H374.32C374.725 470.692 375.13 470.854 375.426 471.151C375.723 471.448 375.885 471.826 375.885 472.258C375.885 472.663 375.723 473.068 375.426 473.364C375.13 473.661 374.752 473.823 374.32 473.823Z" fill="#0B0B0B"/>
<path d="M651.001 329.344H536.073C529.842 329.344 524.771 334.419 524.771 340.655V548.223C524.771 554.458 529.842 559.534 536.073 559.534H651.001C657.232 559.534 662.303 554.458 662.303 548.223V340.655C662.303 334.419 657.232 329.344 651.001 329.344Z" fill="#0B0B0B"/>
<path d="M584.434 329.668C584.029 329.668 583.625 329.506 583.328 329.209C583.031 328.912 582.87 328.534 582.87 328.102V203.572C582.87 201.116 581.899 198.74 580.172 196.985C579.39 196.202 578.446 195.582 577.394 195.15C576.342 194.718 575.236 194.502 574.131 194.502L480.402 195.123C478.056 195.204 475.817 196.202 474.198 197.903C472.58 199.604 471.69 201.899 471.744 204.247V245.847C471.744 246.252 471.582 246.657 471.285 246.954C470.989 247.251 470.611 247.413 470.207 247.413C469.802 247.413 469.397 247.251 469.101 246.954C468.804 246.657 468.642 246.279 468.642 245.847V204.274C468.588 201.116 469.802 198.065 471.987 195.771C474.172 193.476 477.165 192.153 480.321 192.045L574.05 191.424H574.131C575.668 191.424 577.178 191.721 578.581 192.288C579.984 192.882 581.278 193.746 582.33 194.826C583.49 195.96 584.407 197.336 585.027 198.848C585.648 200.36 585.971 201.953 585.971 203.599V328.156C585.971 328.561 585.81 328.966 585.513 329.263C585.243 329.506 584.865 329.668 584.434 329.668Z" fill="#0B0B0B"/>
<path d="M555.574 316.278C563.638 316.278 570.193 309.718 570.193 301.647C570.193 293.548 563.638 287.015 555.574 287.015C547.482 287.015 540.955 293.575 540.955 301.647C540.955 309.718 547.509 316.278 555.574 316.278Z" fill="#0550FC"/>
<path d="M593.874 560.64C593.47 560.64 593.065 560.479 592.768 560.182C592.472 559.885 592.31 559.507 592.31 559.075V328.885C592.31 328.48 592.472 328.075 592.768 327.805C593.065 327.508 593.443 327.346 593.874 327.346C594.279 327.346 594.683 327.508 594.98 327.805C595.277 328.102 595.439 328.48 595.439 328.885V559.075C595.439 559.48 595.277 559.885 594.98 560.182C594.683 560.479 594.306 560.64 593.874 560.64Z" fill="#0550FC"/>
<path d="M663.463 451.498L446.93 451.12C446.525 451.12 446.12 450.958 445.824 450.661C445.527 450.364 445.365 449.986 445.365 449.554C445.365 449.149 445.527 448.744 445.824 448.475C446.12 448.178 446.498 448.016 446.93 448.016L663.463 448.394C663.867 448.394 664.272 448.556 664.568 448.852C664.865 449.149 665.027 449.527 665.027 449.932C665.027 450.337 664.865 450.742 664.568 451.039C664.272 451.336 663.867 451.498 663.463 451.498Z" fill="#0550FC"/>
<path d="M465.271 493.638H488.494C490.598 493.665 492.621 494.502 494.104 495.96C495.614 497.445 496.478 499.442 496.532 501.548L497.233 523.63C497.287 525.763 496.532 527.841 495.075 529.407C493.619 530.973 491.623 531.918 489.492 531.999L465.648 533.078C464.542 533.105 463.464 532.943 462.439 532.566C461.414 532.188 460.47 531.594 459.687 530.838C458.878 530.082 458.258 529.164 457.826 528.165C457.395 527.166 457.152 526.087 457.152 524.98V501.818C457.152 499.658 458.015 497.579 459.526 496.068C461.036 494.502 463.113 493.638 465.271 493.638Z" fill="white"/>
<path d="M465.271 534.617C464.03 534.617 462.816 534.401 461.683 533.915C460.551 533.456 459.499 532.754 458.636 531.89C457.692 531 456.936 529.92 456.397 528.705C455.884 527.517 455.615 526.221 455.615 524.899V501.737C455.615 500.468 455.858 499.199 456.343 498.038C456.829 496.877 457.557 495.798 458.447 494.907C459.337 494.016 460.416 493.287 461.576 492.801C462.735 492.315 464.003 492.072 465.271 492.072H488.494C491.002 492.072 493.403 493.044 495.183 494.799C496.99 496.553 498.015 498.929 498.069 501.44L498.77 523.603C498.824 526.14 497.907 528.57 496.181 530.433C494.455 532.295 492.081 533.402 489.546 533.51L465.702 534.59H465.271V534.617ZM465.271 495.204C463.518 495.204 461.845 495.906 460.632 497.12C459.391 498.362 458.717 500.036 458.717 501.764V524.926C458.744 525.817 458.932 526.68 459.283 527.49C459.634 528.3 460.146 529.029 460.793 529.65C461.441 530.271 462.196 530.73 463.005 531.054C463.841 531.378 464.704 531.54 465.594 531.513L489.438 530.433C491.164 530.352 492.782 529.596 493.942 528.354C495.102 527.085 495.749 525.439 495.695 523.711L494.994 501.548C494.994 500.711 494.805 499.874 494.482 499.091C494.158 498.308 493.673 497.606 493.052 497.012C492.459 496.419 491.731 495.96 490.948 495.636C490.166 495.312 489.33 495.177 488.494 495.177H465.271V495.204Z" fill="#0B0B0B"/>
<path d="M484.987 507.676H467.267C466.862 507.676 466.457 507.514 466.188 507.217C465.891 506.92 465.729 506.542 465.729 506.11C465.729 505.705 465.891 505.3 466.188 505.03C466.484 504.733 466.862 504.571 467.267 504.571H484.987C485.392 504.571 485.797 504.733 486.093 505.03C486.39 505.327 486.552 505.705 486.552 506.11C486.552 506.515 486.39 506.92 486.093 507.217C485.797 507.487 485.419 507.676 484.987 507.676Z" fill="#0B0B0B"/>
<path d="M484.448 517.178H467.806C467.402 517.178 466.997 517.016 466.7 516.719C466.404 516.422 466.242 516.044 466.242 515.612C466.242 515.207 466.404 514.802 466.7 514.505C466.997 514.208 467.375 514.046 467.806 514.046H484.448C484.853 514.046 485.257 514.208 485.554 514.505C485.851 514.802 486.012 515.18 486.012 515.612C486.012 516.017 485.851 516.422 485.554 516.719C485.257 517.016 484.879 517.178 484.448 517.178Z" fill="#0B0B0B"/>
<path d="M566.632 353.829H540.928C540.523 353.829 540.119 353.667 539.822 353.37C539.525 353.073 539.363 352.695 539.363 352.263C539.363 351.858 539.525 351.453 539.822 351.156C540.119 350.859 540.496 350.697 540.928 350.697H566.632C567.037 350.697 567.441 350.859 567.738 351.156C568.035 351.453 568.197 351.831 568.197 352.263C568.197 352.668 568.035 353.073 567.738 353.37C567.441 353.667 567.064 353.829 566.632 353.829Z" fill="white"/>
<path d="M562.694 362.899H544.515C544.111 362.899 543.706 362.737 543.436 362.44C543.139 362.143 542.978 361.765 542.978 361.333C542.978 360.928 543.139 360.523 543.436 360.226C543.733 359.93 544.111 359.768 544.515 359.768H562.694C563.099 359.768 563.504 359.93 563.8 360.226C564.097 360.523 564.259 360.901 564.259 361.333C564.259 361.738 564.097 362.143 563.8 362.44C563.504 362.737 563.099 362.899 562.694 362.899Z" fill="white"/>
<path d="M567.415 375.128H540.955C540.739 375.128 540.55 375.101 540.334 375.02C540.146 374.939 539.957 374.831 539.822 374.696C539.687 374.561 539.552 374.372 539.498 374.183C539.417 373.994 539.39 373.778 539.39 373.589C539.39 373.185 539.552 372.78 539.849 372.51C540.146 372.213 540.523 372.051 540.955 372.051H567.415C567.819 372.051 568.224 372.213 568.52 372.51C568.817 372.807 568.979 373.185 568.979 373.589C568.979 373.805 568.952 373.994 568.871 374.183C568.79 374.372 568.682 374.561 568.547 374.696C568.412 374.831 568.224 374.966 568.035 375.02C567.819 375.101 567.63 375.155 567.415 375.128Z" fill="white"/>
<path d="M643.719 332.854H643.638C643.422 332.854 643.233 332.827 643.045 332.719C642.856 332.638 642.694 332.503 642.559 332.368C642.424 332.206 642.316 332.044 642.262 331.828C642.208 331.639 642.182 331.423 642.209 331.207L651.028 124.719C651.055 124.233 651.001 123.72 650.813 123.261C650.624 122.802 650.354 122.37 650.003 122.019C649.302 121.264 648.331 120.832 647.279 120.778L521.751 119.698C521.265 119.698 520.78 119.806 520.321 119.968C519.863 120.157 519.458 120.427 519.107 120.778C518.73 121.129 518.46 121.561 518.244 122.019C518.055 122.478 517.947 122.991 517.947 123.504V191.749C517.947 192.154 517.786 192.558 517.489 192.855C517.192 193.152 516.815 193.314 516.383 193.314C515.979 193.314 515.574 193.152 515.304 192.855C515.008 192.558 514.846 192.181 514.846 191.749V123.477C514.846 122.559 515.034 121.669 515.412 120.832C515.763 119.995 516.302 119.239 516.95 118.591C517.597 117.943 518.352 117.43 519.188 117.079C520.024 116.728 520.914 116.566 521.831 116.566L647.279 117.646C648.196 117.673 649.113 117.862 649.976 118.24C650.84 118.618 651.595 119.158 652.242 119.833C653.483 121.21 654.157 123.018 654.103 124.854L645.283 331.342C645.256 331.72 645.068 332.098 644.771 332.368C644.501 332.665 644.124 332.827 643.719 332.854Z" fill="#0B0B0B"/>
<path d="M506.97 212.778H487.388C486.983 212.778 486.579 212.616 486.282 212.319C485.985 212.022 485.823 211.644 485.823 211.212C485.823 210.807 485.985 210.402 486.282 210.132C486.579 209.835 486.956 209.673 487.388 209.673H506.97C507.374 209.673 507.779 209.835 508.076 210.132C508.372 210.429 508.534 210.807 508.534 211.212C508.534 211.617 508.372 212.022 508.076 212.319C507.779 212.616 507.374 212.778 506.97 212.778Z" fill="#0B0B0B"/>
<path d="M506.97 221.146H491.569C491.164 221.146 490.759 220.985 490.463 220.688C490.166 220.391 490.004 220.013 490.004 219.581C490.004 219.176 490.166 218.771 490.463 218.501C490.759 218.204 491.137 218.042 491.569 218.042H506.97C507.374 218.042 507.779 218.204 508.076 218.501C508.372 218.798 508.534 219.176 508.534 219.581C508.534 219.986 508.372 220.391 508.076 220.688C507.779 220.985 507.401 221.146 506.97 221.146Z" fill="#0B0B0B"/>
<path d="M634.279 156.331V145.263C634.279 140.133 630.125 135.976 625 135.976H598.136C593.011 135.976 588.857 140.133 588.857 145.263V156.331C588.857 161.46 593.011 165.617 598.136 165.617H625C630.125 165.617 634.279 161.46 634.279 156.331Z" fill="#0B0B0B"/>
<path d="M621.197 146.963H600.213C599.808 146.963 599.404 146.801 599.107 146.504C598.81 146.207 598.648 145.829 598.648 145.397C598.648 144.992 598.81 144.587 599.107 144.29C599.404 143.994 599.781 143.832 600.213 143.832H621.197C621.602 143.832 622.006 143.994 622.303 144.29C622.6 144.587 622.761 144.965 622.761 145.397C622.761 145.802 622.6 146.207 622.303 146.504C622.006 146.801 621.602 146.963 621.197 146.963Z" fill="white"/>
<path d="M617.637 156.465H603.018C602.613 156.465 602.209 156.303 601.912 156.007C601.615 155.71 601.453 155.332 601.453 154.9C601.453 154.495 601.615 154.09 601.912 153.793C602.209 153.496 602.586 153.334 603.018 153.334H617.637C618.041 153.334 618.446 153.496 618.743 153.793C619.039 154.09 619.201 154.468 619.201 154.9C619.201 155.305 619.039 155.71 618.743 156.007C618.446 156.303 618.068 156.465 617.637 156.465Z" fill="white"/>
<path d="M281.779 89.0037C281.59 89.0037 281.401 88.9767 281.212 88.9227C281.024 88.8687 280.862 88.7607 280.727 88.6258C280.592 88.4908 280.457 88.3288 280.376 88.1668C280.295 87.9779 280.241 87.8159 280.241 87.5999L276.6 32.8263C276.6 32.4213 276.762 32.0164 277.032 31.7194C277.301 31.4225 277.679 31.2335 278.084 31.1795C278.299 31.1525 278.488 31.1795 278.704 31.2335C278.893 31.2875 279.082 31.3955 279.243 31.5305C279.405 31.6655 279.513 31.8274 279.594 32.0164C279.675 32.2054 279.729 32.4213 279.729 32.6103L283.37 87.303C283.37 87.7079 283.235 88.1129 282.939 88.4098C282.669 88.7067 282.291 88.8957 281.887 88.9497H281.779V89.0037Z" fill="#0B0B0B"/>
<path d="M308.94 87.627C308.562 87.627 308.185 87.4921 307.888 87.2221C307.591 86.9522 307.429 86.6012 307.375 86.2233L300.956 31.6926C300.929 31.5036 300.929 31.2876 300.983 31.0987C301.037 30.9097 301.118 30.7207 301.253 30.5588C301.388 30.3968 301.522 30.2618 301.711 30.1808C301.9 30.0728 302.089 30.0188 302.278 29.9919C302.466 29.9649 302.682 29.9649 302.871 30.0188C303.06 30.0728 303.249 30.1538 303.41 30.2888C303.572 30.4238 303.707 30.5588 303.788 30.7477C303.896 30.9367 303.95 31.1257 303.977 31.3146L310.477 85.8453C310.504 86.2503 310.369 86.6822 310.127 87.0061C309.857 87.3301 309.506 87.5461 309.102 87.627H308.94Z" fill="#0B0B0B"/>
<path d="M329.681 87.627C329.277 87.6 328.926 87.465 328.629 87.1951C328.333 86.9251 328.171 86.5472 328.117 86.1692L324.26 29.3979C324.233 29.2089 324.26 28.993 324.314 28.804C324.368 28.615 324.476 28.4261 324.611 28.2911C324.745 28.1291 324.907 28.0211 325.069 27.9131C325.258 27.8322 325.447 27.7782 325.636 27.7782C325.824 27.7512 326.04 27.7782 326.229 27.8322C326.418 27.8862 326.607 27.9941 326.768 28.1291C326.93 28.2641 327.065 28.4261 327.146 28.588C327.254 28.777 327.308 28.966 327.335 29.1549L331.192 86.0073C331.219 86.1962 331.192 86.4122 331.138 86.6012C331.084 86.7901 330.976 86.9791 330.841 87.1141C330.706 87.2761 330.544 87.384 330.383 87.465C330.194 87.546 330.005 87.6 329.816 87.6H329.681V87.627Z" fill="#0B0B0B"/>
<path d="M353.902 86.3852C353.498 86.3852 353.12 86.2232 352.824 85.9532C352.527 85.6833 352.365 85.3054 352.338 84.9004L347.78 30.8286C347.753 30.3967 347.888 29.9918 348.184 29.6948C348.454 29.3709 348.832 29.1819 349.263 29.1279C349.668 29.1009 350.045 29.2359 350.342 29.5058C350.639 29.7758 350.828 30.1267 350.882 30.5317L355.44 84.6845C355.467 85.0894 355.332 85.5213 355.062 85.8183C354.793 86.1422 354.415 86.3312 353.983 86.3852H353.902Z" fill="#0B0B0B"/>
<path d="M264.975 61.1176C264.786 61.1176 264.57 61.0906 264.382 61.0366C264.193 60.9826 264.031 60.8476 263.869 60.7126C263.734 60.5777 263.599 60.4157 263.519 60.2267C263.438 60.0378 263.411 59.8488 263.411 59.6598C263.411 59.2549 263.545 58.85 263.842 58.553C264.112 58.2561 264.49 58.0671 264.894 58.0131L358.218 54.4497H358.299C358.676 54.4767 359.054 54.6117 359.351 54.9086C359.647 55.1786 359.809 55.5295 359.836 55.9345C359.836 56.3394 359.674 56.7443 359.378 57.0683C359.081 57.3652 358.703 57.5542 358.272 57.5812L265.029 61.1446H264.975V61.1176Z" fill="#0B0B0B"/>
<path d="M339.364 53.9367C337.935 53.8827 336.532 53.4508 335.346 52.6139C331.408 50.0493 328.549 43.7864 330.625 38.4413C330.976 37.4425 331.542 36.5246 332.271 35.7688C333.026 35.0129 333.943 34.446 334.941 34.1221C339.283 32.8803 344.381 36.3627 344.624 36.5246C344.948 36.7676 345.19 37.1185 345.271 37.5235C345.352 37.9284 345.244 38.3603 345.029 38.6843C344.786 39.0082 344.435 39.2512 344.031 39.3322C343.626 39.4132 343.221 39.3052 342.871 39.0622C341.711 38.2794 338.232 36.3627 335.831 37.1185C335.265 37.3075 334.779 37.6585 334.374 38.0904C333.97 38.5223 333.673 39.0352 333.511 39.6021C332.055 43.4085 334.213 48.1327 337.072 50.0494C338.312 50.8322 340.254 51.4531 342.035 49.5904C343.815 47.7277 344.435 46.8099 343.977 45.5681C343.518 44.3263 339.014 42.6256 337.018 42.3827C336.64 42.3017 336.29 42.0857 336.047 41.7888C335.804 41.4648 335.696 41.0869 335.723 40.6819C335.75 40.466 335.804 40.277 335.912 40.088C336.02 39.8991 336.128 39.7371 336.29 39.6291C336.451 39.4941 336.64 39.4132 336.829 39.3322C337.018 39.2782 337.234 39.2512 337.422 39.2782C338.285 39.3592 345.46 40.358 346.944 44.5423C347.726 46.7019 346.782 49.1045 344.3 51.6691C343.68 52.344 342.925 52.9109 342.089 53.2888C341.171 53.6937 340.281 53.9097 339.364 53.9367Z" fill="#0B0B0B"/>
<path d="M284.098 314.577C288.36 314.577 291.839 311.122 291.839 306.83C291.839 302.537 288.387 299.082 284.098 299.082C279.81 299.082 276.357 302.564 276.357 306.83C276.357 311.095 279.81 314.577 284.098 314.577Z" fill="#0B0B0B"/>
</g>
<defs>
<clipPath id="clip0_9_1768">
<rect width="665" height="623" fill="white"/>
</clipPath>
</defs>
</svg>
