<svg width="720" height="768" viewBox="0 0 720 768" fill="none" xmlns="http://www.w3.org/2000/svg">
<path d="M1280 208.21V767.51C1280 767.87 1279.76 768.11 1279.4 768.11H1129.94C1129.58 768.11 1129.34 767.87 1129.34 767.63C1129.34 754.62 1130.06 493.17 1130.53 336.55C1130.77 264.8 1130.89 212.63 1130.89 212.16C1128.38 182.55 1103.43 159.27 1073.11 159.27C1052.58 159.27 1034.67 169.9 1024.4 186.01C1023.44 187.32 1020.82 192.93 1019.03 197.23C1014.61 209.05 1005.3 234.48 993.24 267.19C974.38 318.4 948.95 387.41 926.27 449.13C896.66 529.95 871.59 598.59 871.59 598.59C871.59 598.59 858.58 633.33 850.34 655.18C847.47 663.18 842.22 674.04 839.24 679.41L839 679.53C838.52 680.72 837.92 681.68 837.45 682.28C813.57 716.18 779.55 742.33 739.92 756.3C718.67 763.94 695.87 768 672.23 768C667.1 768 661.96 767.88 656.83 767.52C638.44 766.09 621.02 762.27 604.42 756.3C571.95 744.84 543.3 725.26 520.85 699.95C489.45 664.37 470.35 617.58 470.35 566.24C470.35 561.94 471.3 433.97 472.26 334.05C472.74 270.42 473.21 218.01 473.21 216.22V215.98C473.21 191.63 458.29 168.94 435.25 161.42C404.45 151.15 375.32 166.43 363.62 191.5C363.5 191.62 349.29 229.94 328.04 286.77C299.63 363.05 150.04 768.11 150.04 768.11H0L41.78 655.06C41.78 655.06 164.98 322.7 196.62 237.35C209.28 202.97 218.11 179.09 220.62 172.17C228.38 150.56 244.62 104.84 264.31 78.2201C308.48 18.5101 377.36 4.19006 420.34 1.44006C531.48 -5.95994 622.1 90.3801 622.1 201.88C622.1 206.65 621.14 544.74 621.02 548.32V549.16C621.02 573.51 635.94 596.2 659.1 603.72C685.36 612.32 710.08 602.65 724.16 584.38C725.71 582.35 727.14 580.2 728.46 577.81C729.89 575.3 769.53 467.98 810.83 355.4C846.41 258.94 882.93 158.42 898.22 117C902.76 104.58 911.23 88.1101 914.46 83.5701C930.22 61.8401 950.15 43.4601 973.07 29.4901C1003.75 10.7501 1039.69 6.10352e-05 1078.13 6.10352e-05C1189.27 0.120061 1280 97.1801 1280 208.2V208.21Z" fill="#032C99" fill-opacity="0.1"/>
</svg>
